<?xml version="1.0" encoding="UTF-8" standalone="no"?>
<!DOCTYPE svg PUBLIC "-//W3C//DTD SVG 1.1//EN" "http://www.w3.org/Graphics/SVG/1.1/DTD/svg11.dtd">
<svg xmlns="http://www.w3.org/2000/svg" version="1.1" viewBox="0 0 1281 579">
<path fill="#ffffff" d="
  M 831.73 220.92
  Q 880.85 190.13 937.70 204.95
  Q 974.62 214.58 1002.94 239.31
  Q 1019.29 253.60 1029.96 273.25
  Q 1046.53 303.77 1042.37 338.44
  A 0.30 0.30 83.0 0 0 1042.78 338.76
  Q 1091.65 319.73 1141.44 335.06
  Q 1181.00 347.24 1209.99 376.62
  Q 1216.79 383.51 1223.00 391.80
  Q 1250.46 428.48 1259.10 473.64
  Q 1261.07 483.92 1261.64 493.46
  Q 1263.63 526.75 1252.26 558.25
  A 1.14 1.13 9.9 0 1 1251.19 559.00
  L 35.18 559.00
  A 0.78 0.77 -5.4 0 1 34.42 558.38
  Q 31.96 545.80 31.27 533.50
  Q 30.63 522.19 30.99 513.51
  Q 31.85 492.50 40.19 472.19
  Q 53.01 440.97 80.36 423.75
  Q 88.41 418.69 98.28 414.96
  Q 121.91 406.05 147.70 406.00
  A 0.71 0.70 -11.6 0 0 148.35 405.02
  Q 139.45 384.51 138.18 362.49
  Q 137.63 352.91 138.29 342.51
  Q 140.11 313.74 153.27 287.76
  Q 162.09 270.35 174.92 255.65
  Q 199.06 227.98 231.86 212.31
  Q 241.32 207.80 250.42 204.93
  Q 299.36 189.50 346.23 213.08
  A 0.52 0.52 14.4 0 0 346.98 212.64
  Q 347.51 197.97 350.64 184.28
  Q 363.12 129.76 402.27 91.16
  Q 408.92 84.61 417.22 77.88
  Q 475.78 30.42 550.94 22.69
  Q 637.24 13.80 715.25 51.75
  Q 745.23 66.34 769.16 88.09
  Q 804.49 120.19 819.75 164.75
  Q 828.85 191.31 831.27 220.70
  A 0.30 0.29 -18.9 0 0 831.73 220.92
  Z
  M 482.19 320.81
  Q 487.80 325.12 494.61 325.48
  Q 501.31 325.83 506.94 322.61
  Q 514.48 318.29 517.00 308.75
  Q 518.73 302.20 518.97 296.25
  Q 519.21 290.33 519.22 290.27
  Q 520.15 276.58 519.83 262.87
  Q 519.70 257.59 518.92 253.82
  Q 518.00 249.34 516.43 245.02
  Q 511.98 232.76 500.61 229.56
  Q 494.14 227.73 487.97 230.00
  Q 480.08 232.91 476.27 240.44
  Q 474.15 244.65 473.48 251.38
  Q 472.97 256.57 473.00 262.75
  Q 473.13 287.71 473.18 292.25
  Q 473.29 301.11 475.30 309.74
  Q 476.93 316.77 482.19 320.81
  Z
  M 634.44 320.81
  Q 640.46 325.69 647.75 325.50
  Q 665.98 325.02 669.32 307.07
  Q 670.57 300.35 670.75 291.75
  Q 671.18 271.55 670.84 256.00
  Q 670.74 251.39 670.24 248.54
  Q 669.52 244.46 668.19 241.31
  Q 665.55 235.08 659.73 231.78
  Q 655.72 229.51 651.97 228.80
  Q 647.77 228.00 643.44 229.43
  Q 630.74 233.62 626.81 246.44
  Q 624.48 254.02 624.25 259.50
  Q 623.43 279.01 625.85 303.49
  Q 626.96 314.76 634.44 320.81
  Z
  M 517.18 457.41
  Q 532.92 469.61 554.00 473.25
  Q 570.86 476.16 586.36 473.85
  Q 595.43 472.49 602.58 470.39
  Q 610.85 467.96 617.81 463.56
  Q 636.68 451.65 650.78 432.79
  Q 660.46 419.85 664.27 404.25
  Q 665.10 400.88 665.21 397.68
  Q 665.33 394.34 665.06 391.00
  Q 664.17 379.98 655.80 372.97
  Q 651.93 369.73 645.50 368.50
  Q 637.63 367.00 635.00 367.00
  Q 573.77 367.00 512.54 367.00
  Q 508.63 367.00 505.49 367.44
  Q 502.75 367.83 498.50 368.50
  Q 489.03 370.00 483.73 377.49
  Q 480.12 382.58 479.25 389.25
  Q 478.66 393.77 478.84 397.94
  Q 479.01 401.76 480.29 406.46
  Q 483.12 416.85 488.19 425.31
  Q 494.08 435.16 502.46 443.89
  Q 510.34 452.10 517.18 457.41
  Z"
/>
</svg>
