<?xml version="1.0" encoding="UTF-8" standalone="no"?>
<!DOCTYPE svg PUBLIC "-//W3C//DTD SVG 1.1//EN" "http://www.w3.org/Graphics/SVG/1.1/DTD/svg11.dtd">
<svg xmlns="http://www.w3.org/2000/svg" version="1.1" viewBox="0 0 1482 1414">
<g stroke-width="0.30" fill="none" stroke-linecap="butt">
<path stroke="#e1e9ee" vector-effect="non-scaling-stroke" d="
  M 852.31 45.53
  Q 850.72 63.22 851.73 81.12"
/>
<path stroke="#f9f9f8" vector-effect="non-scaling-stroke" d="
  M 851.73 81.12
  Q 850.77 103.92 851.47 126.75"
/>
<path stroke="#e1e9ee" vector-effect="non-scaling-stroke" d="
  M 851.47 126.75
  L 851.33 138.88
  A 0.68 0.51 -74.6 0 0 851.53 139.39
  Q 851.72 139.54 851.82 139.53"
/>
<path stroke="#f9f9f8" vector-effect="non-scaling-stroke" d="
  M 851.82 139.53
  Q 851.20 157.26 851.31 183.56
  Q 851.32 184.58 851.92 184.81"
/>
<path stroke="#e1e9ee" vector-effect="non-scaling-stroke" d="
  M 851.92 184.81
  Q 851.00 213.48 851.75 242.21"
/>
<path stroke="#93929b" vector-effect="non-scaling-stroke" d="
  M 851.75 242.21
  L 851.50 273.71"
/>
<path stroke="#d3afa1" vector-effect="non-scaling-stroke" d="
  M 851.50 273.71
  L 777.68 273.75
  A 0.92 0.91 -0.3 0 0 776.76 274.67
  L 776.93 318.82
  A 0.51 0.49 0.0 0 0 777.44 319.31
  L 1308.25 319.21"
/>
<path stroke="#d3afa1" vector-effect="non-scaling-stroke" d="
  M 1436.46 722.00
  Q 1434.02 721.79 1421.00 721.75
  Q 1346.55 721.52 1317.35 721.68
  Q 1310.44 721.72 1300.16 721.55
  Q 1291.56 721.41 1282.96 721.49"
/>
<path stroke="#93929b" vector-effect="non-scaling-stroke" d="
  M 1282.96 721.49
  L 1282.85 689.98"
/>
<path stroke="#e1e9ee" vector-effect="non-scaling-stroke" d="
  M 1282.85 689.98
  Q 1283.11 559.99 1283.00 430.06
  Q 1283.00 429.96 1283.12 428.45
  Q 1283.27 426.49 1281.63 426.54
  Q 1279.46 426.61 1279.36 426.60
  Q 1275.07 426.14 1271.20 427.08"
/>
<path stroke="#f9f9f8" vector-effect="non-scaling-stroke" d="
  M 1271.20 427.08
  Q 1266.95 426.31 1262.84 426.43
  Q 1256.14 426.63 1256.02 426.62
  Q 1244.75 426.45 1233.52 426.61"
/>
<path stroke="#e1e9ee" vector-effect="non-scaling-stroke" d="
  M 1233.52 426.61
  Q 1129.61 426.42 1025.75 426.53
  Q 1024.64 426.53 1023.87 426.93"
/>
<path stroke="#f9f9f8" vector-effect="non-scaling-stroke" d="
  M 1023.87 426.93
  Q 1011.91 426.51 990.75 426.50
  Q 988.59 426.50 987.80 426.73"
/>
<path stroke="#e1e9ee" vector-effect="non-scaling-stroke" d="
  M 987.80 426.73
  Q 943.35 426.25 899.00 426.65
  Q 891.92 426.71 879.01 426.54
  Q 865.72 426.36 852.02 426.71
  A 0.53 0.53 -0.6 0 0 851.50 427.24
  L 851.65 587.41"
/>
<path stroke="#f9f9f8" vector-effect="non-scaling-stroke" d="
  M 851.65 587.41
  Q 851.20 588.79 851.25 591.50
  Q 851.53 605.94 851.31 630.81
  Q 851.30 632.39 851.75 632.79"
/>
<path stroke="#e1e9ee" vector-effect="non-scaling-stroke" d="
  M 851.75 632.79
  L 851.54 690.00"
/>
<path stroke="#93929b" vector-effect="non-scaling-stroke" d="
  M 851.54 690.00
  L 851.52 721.38"
/>
<path stroke="#d3afa1" vector-effect="non-scaling-stroke" d="
  M 851.52 721.38
  Q 849.25 721.75 847.75 721.75
  Q 812.88 721.75 777.33 721.75
  A 0.58 0.58 0.0 0 0 776.75 722.33
  L 776.75 766.58
  A 0.67 0.67 0.0 0 0 777.42 767.25
  L 801.46 767.41"
/>
<path stroke="#f9e0d3" vector-effect="non-scaling-stroke" d="
  M 801.46 767.41
  Q 801.03 768.62 800.52 770.01
  Q 793.09 790.27 796.01 811.75
  Q 796.54 815.63 793.44 819.19
  Q 763.25 853.80 738.97 878.47
  Q 713.53 904.30 687.02 929.02
  Q 671.13 943.85 654.05 957.29
  Q 639.50 968.75 625.59 981.13"
/>
<path stroke="#93929b" vector-effect="non-scaling-stroke" d="
  M 625.59 981.13
  L 624.03 973.81
  A 0.45 0.43 75.5 0 0 623.47 973.46
  Q 552.81 996.56 540.00 1001.50
  Q 525.99 1006.90 518.33 1008.86"
/>
<path stroke="#f9e0d3" vector-effect="non-scaling-stroke" d="
  M 518.33 1008.86
  L 511.52 1010.29
  A 0.69 0.65 83.8 0 1 510.73 1009.62
  L 510.46 991.25"
/>
<path stroke="#e7c4bd" vector-effect="non-scaling-stroke" d="
  M 510.46 991.25
  Q 511.08 982.20 510.60 972.49"
/>
<path stroke="#f9e0d3" vector-effect="non-scaling-stroke" d="
  M 510.60 972.49
  Q 534.59 963.32 557.31 951.36
  Q 579.18 939.84 597.56 923.31
  Q 614.43 908.14 628.90 890.65
  Q 661.06 851.78 675.45 803.44"
/>
<path stroke="#e7c4bd" vector-effect="non-scaling-stroke" d="
  M 675.45 803.44
  Q 695.07 812.72 714.67 804.88
  A 0.97 0.35 26.3 0 1 715.31 804.95
  Q 715.52 805.02 715.71 804.90
  Q 715.87 804.79 715.94 804.76
  Q 739.34 795.26 750.50 774.25
  Q 764.72 747.48 766.57 714.74
  Q 767.14 704.73 764.50 691.50
  Q 763.06 684.26 760.80 679.88
  Q 760.61 679.51 760.54 678.94
  Q 760.40 677.83 759.56 676.19
  Q 755.36 668.00 749.63 661.92
  Q 744.46 656.45 738.85 653.90
  Q 732.24 650.88 725.25 651.50
  Q 711.42 652.73 698.66 662.15"
/>
<path stroke="#9a8c8a" vector-effect="non-scaling-stroke" d="
  M 698.66 662.15
  Q 700.08 657.95 701.39 654.06
  Q 702.89 649.58 703.86 645.87
  Q 711.68 615.96 712.91 585.00
  Q 713.48 570.90 713.25 549.50
  Q 712.97 522.60 708.90 497.87
  Q 708.65 496.35 708.33 493.10
  Q 708.09 490.70 707.59 488.34
  Q 706.19 481.71 706.17 481.60
  Q 701.08 452.80 689.75 425.95
  Q 685.39 415.63 680.93 408.02
  Q 673.02 394.51 661.85 382.10
  A 1.25 1.24 -52.4 0 1 661.67 380.69
  Q 663.84 376.51 665.25 372.55
  Q 667.08 367.41 667.71 364.04
  Q 668.87 357.84 667.10 351.54
  Q 666.31 348.76 663.00 348.75
  Q 649.13 348.72 633.25 345.71"
/>
<path stroke="#b2adaa" vector-effect="non-scaling-stroke" d="
  M 633.25 345.71
  L 628.29 345.00"
/>
<path stroke="#9a8c8a" vector-effect="non-scaling-stroke" d="
  M 628.29 345.00
  Q 623.28 344.49 618.42 343.18
  Q 617.86 343.03 617.07 343.13
  Q 615.47 343.34 615.94 341.94
  Q 617.01 338.76 617.53 336.85
  Q 618.63 332.83 618.66 332.71
  Q 621.13 324.18 618.39 315.76
  Q 617.60 313.34 616.02 312.59
  Q 614.29 311.78 611.75 312.00
  Q 594.77 313.50 588.72 314.29
  Q 578.35 315.66 568.00 317.24
  Q 559.17 318.58 550.25 318.79"
/>
<path stroke="#b2adaa" vector-effect="non-scaling-stroke" d="
  M 550.25 318.79
  L 539.72 319.65"
/>
<path stroke="#9a8c8a" vector-effect="non-scaling-stroke" d="
  M 539.72 319.65
  Q 539.27 319.43 538.75 319.46"
/>
<path stroke="#b2adaa" vector-effect="non-scaling-stroke" d="
  M 538.75 319.46
  L 538.96 312.00"
/>
<path stroke="#9a8c8a" vector-effect="non-scaling-stroke" d="
  M 538.96 312.00
  Q 539.61 303.09 536.19 296.56
  Q 533.57 291.57 528.31 293.28
  Q 525.07 294.33 524.99 294.35
  Q 518.62 295.92 512.25 297.54"
/>
<path stroke="#b2adaa" vector-effect="non-scaling-stroke" d="
  M 512.25 297.54
  Q 510.03 297.11 508.00 298.21"
/>
<path stroke="#9a8c8a" vector-effect="non-scaling-stroke" d="
  M 508.00 298.21
  Q 458.50 308.75 408.28 314.95
  Q 387.28 317.55 358.25 323.25
  Q 322.16 330.34 290.47 345.77
  Q 280.97 350.39 272.96 355.39
  Q 257.32 365.16 245.44 376.69
  Q 220.86 400.54 208.88 433.50
  Q 205.57 442.61 202.66 452.51
  Q 199.79 462.25 197.25 474.50
  Q 191.28 503.26 189.54 526.75"
/>
<path stroke="#b2adaa" vector-effect="non-scaling-stroke" d="
  M 189.54 526.75
  L 189.04 533.75"
/>
<path stroke="#9a8c8a" vector-effect="non-scaling-stroke" d="
  M 189.04 533.75
  Q 187.74 560.50 189.04 587.25"
/>
<path stroke="#b2adaa" vector-effect="non-scaling-stroke" d="
  M 189.04 587.25
  L 189.25 591.29"
/>
<path stroke="#9a8c8a" vector-effect="non-scaling-stroke" d="
  M 189.25 591.29
  Q 190.29 606.98 192.79 622.50"
/>
<path stroke="#b3cab4" vector-effect="non-scaling-stroke" d="
  M 192.79 622.50
  L 193.29 625.25"
/>
<path stroke="#b2adaa" vector-effect="non-scaling-stroke" d="
  M 193.29 625.25
  Q 193.26 627.36 194.21 629.25"
/>
<path stroke="#9a8c8a" vector-effect="non-scaling-stroke" d="
  M 194.21 629.25
  Q 195.26 636.04 197.44 642.56
  Q 198.32 645.20 198.44 646.56
  Q 198.63 648.76 199.38 650.79
  Q 200.37 653.47 200.73 654.85
  Q 201.57 658.04 203.04 661.00"
/>
<path stroke="#e7c4bd" vector-effect="non-scaling-stroke" d="
  M 203.04 661.00
  Q 203.03 662.39 202.09 661.66
  Q 193.16 654.71 182.08 652.38
  Q 164.64 648.71 152.58 661.34
  Q 144.40 669.90 140.37 681.08
  Q 134.24 698.09 135.18 715.80
  Q 135.64 724.49 137.93 735.61
  Q 140.83 749.67 146.69 764.31
  Q 154.64 784.21 170.89 796.33
  Q 187.08 808.40 206.44 808.44
  Q 216.00 808.46 225.75 803.71"
/>
<path stroke="#f9e0d3" vector-effect="non-scaling-stroke" d="
  M 225.75 803.71
  Q 226.69 803.84 226.96 804.76
  Q 238.56 843.85 262.48 876.82
  Q 280.24 901.31 301.69 921.06
  Q 323.40 941.07 350.56 954.44
  Q 372.92 965.44 391.25 972.54"
/>
<path stroke="#e7c4bd" vector-effect="non-scaling-stroke" d="
  M 391.25 972.54
  L 391.21 974.50"
/>
<path stroke="#f9e0d3" vector-effect="non-scaling-stroke" d="
  M 391.21 974.50
  L 391.28 1009.33
  A 1.25 1.23 86.3 0 1 390.21 1010.57
  Q 385.29 1011.23 380.62 1013.33"
/>
<path stroke="#93929b" vector-effect="non-scaling-stroke" d="
  M 380.62 1013.33
  Q 336.89 1028.17 303.92 1059.29
  Q 297.20 1065.63 290.14 1073.77
  Q 266.37 1101.17 250.06 1132.56
  Q 244.83 1142.63 241.50 1148.04"
/>
<path stroke="#e7eff5" vector-effect="non-scaling-stroke" d="
  M 1023.87 426.93
  Q 1005.33 452.44 985.26 475.67"
/>
<path stroke="#e5c2c4" vector-effect="non-scaling-stroke" d="
  M 985.26 475.67
  L 970.13 494.31
  Q 969.82 494.69 970.32 494.70
  Q 995.91 495.14 1021.50 495.10
  Q 1074.78 495.01 1128.06 495.00
  Q 1128.21 495.00 1146.93 494.85
  Q 1156.47 494.78 1166.00 495.00
  Q 1173.38 495.17 1180.74 494.78
  A 1.12 1.07 16.2 0 0 1181.55 494.36
  L 1195.96 475.50"
/>
<path stroke="#e7eff5" vector-effect="non-scaling-stroke" d="
  M 1195.96 475.50
  L 1233.52 426.61"
/>
<path stroke="#e7eff5" vector-effect="non-scaling-stroke" d="
  M 1271.20 427.08
  L 1215.22 500.22
  A 2.27 2.22 -26.7 0 0 1214.75 501.59
  L 1214.56 653.56
  A 0.51 0.50 89.4 0 1 1214.07 654.07
  Q 1189.14 654.57 1164.21 654.00"
/>
<path stroke="#a8c0c7" vector-effect="non-scaling-stroke" d="
  M 1164.21 654.00
  L 1164.07 612.43
  A 0.51 0.49 0.0 0 0 1163.56 611.94
  L 1131.56 612.06
  A 1.02 1.00 18.0 0 0 1130.75 612.46
  L 1099.25 654.21"
/>
<path stroke="#e7eff5" vector-effect="non-scaling-stroke" d="
  M 1099.25 654.21
  Q 1091.09 664.03 1083.65 674.41
  Q 1079.09 680.79 1073.68 687.27
  A 2.19 2.17 -71.1 0 1 1072.10 688.05
  Q 1054.72 688.69 1037.31 688.24
  Q 1035.51 688.19 1036.58 686.74
  L 1060.62 654.33"
/>
<path stroke="#a8c0c7" vector-effect="non-scaling-stroke" d="
  M 1060.62 654.33
  L 1092.55 612.33
  Q 1092.80 612.00 1092.39 612.00
  L 984.56 612.06
  A 0.50 0.49 -0.0 0 0 984.06 612.55
  L 984.04 654.00"
/>
<path stroke="#e7eff5" vector-effect="non-scaling-stroke" d="
  M 984.04 654.00
  Q 952.61 654.57 921.18 654.07
  A 0.51 0.51 0.6 0 1 920.68 653.56
  L 920.50 554.37
  Q 920.50 552.53 919.33 553.95
  Q 886.61 593.53 851.75 632.79"
/>
<path stroke="#e5c2c4" vector-effect="non-scaling-stroke" d="
  M 920.54 494.75
  L 928.87 494.75
  A 2.07 2.04 20.5 0 0 930.41 494.06
  L 937.48 485.91
  Q 937.95 485.37 937.24 485.47
  Q 928.64 486.64 920.75 489.54"
/>
<path stroke="#e5c2c4" vector-effect="non-scaling-stroke" d="
  M 926.98 475.84
  Q 933.14 477.26 938.52 480.27
  Q 939.66 480.91 939.77 482.61
  Q 939.81 483.17 940.16 482.74
  L 946.04 475.50"
/>
<path stroke="#df9c88" vector-effect="non-scaling-stroke" d="
  M 897.13 721.47
  Q 884.46 735.92 871.45 750.20
  Q 870.29 751.47 866.56 755.32
  Q 862.80 759.19 862.06 760.81
  Q 860.57 764.06 863.94 765.81
  Q 866.30 767.04 868.26 766.83
  A 1.60 1.23 -64.4 0 0 869.11 766.40
  Q 890.78 745.65 906.91 720.30"
/>
<path stroke="#d99d83" vector-effect="non-scaling-stroke" d="
  M 914.62 721.89
  Q 922.98 726.35 927.81 732.94
  Q 930.42 736.48 929.00 740.96"
/>
<path stroke="#df9c88" vector-effect="non-scaling-stroke" d="
  M 929.00 740.96
  Q 924.53 747.36 916.56 754.81
  Q 903.84 766.71 891.56 783.56
  Q 890.46 785.08 890.67 787.03
  Q 890.86 788.74 892.29 789.88
  Q 895.73 792.59 899.28 788.79
  Q 914.83 772.17 929.58 754.72"
/>
<path stroke="#d99d83" vector-effect="non-scaling-stroke" d="
  M 929.58 754.72
  Q 929.93 761.13 932.09 767.04"
/>
<path stroke="#f9e0d3" vector-effect="non-scaling-stroke" d="
  M 932.09 767.04
  Q 931.98 770.81 931.98 774.59
  Q 931.98 778.24 930.99 781.25
  Q 928.83 787.82 925.85 794.08
  Q 911.12 825.00 886.06 848.31
  Q 875.96 857.72 866.66 863.66
  Q 864.54 865.01 861.45 866.17
  Q 858.71 867.19 856.03 868.36
  A 1.81 1.76 5.3 0 0 855.27 868.97
  Q 843.79 884.65 827.69 900.19
  Q 779.22 946.94 750.89 973.63
  Q 750.81 973.70 738.04 985.80
  Q 712.20 1010.27 684.79 1032.97
  Q 674.20 1041.75 669.43 1045.77
  Q 653.58 1059.15 637.55 1072.43"
/>
<path stroke="#99807d" vector-effect="non-scaling-stroke" d="
  M 637.55 1072.43
  Q 633.75 1045.23 630.69 1018.31
  Q 629.64 1009.11 625.59 981.13"
/>
<path stroke="#d99d83" vector-effect="non-scaling-stroke" d="
  M 801.46 767.41
  Q 807.26 752.61 821.35 745.38
  Q 825.60 743.20 829.50 743.50
  Q 836.47 744.03 838.29 751.00"
/>
<path stroke="#df9c88" vector-effect="non-scaling-stroke" d="
  M 838.29 751.00
  Q 837.14 757.85 834.19 762.94
  Q 828.35 773.01 824.95 780.55
  A 0.93 0.91 40.9 0 0 825.02 781.42
  Q 834.93 796.69 833.80 815.02
  Q 833.79 815.10 833.64 816.48
  Q 833.19 820.62 836.95 820.25
  A 1.08 1.00 -75.0 0 0 837.71 819.77
  Q 840.72 815.17 841.25 811.50
  Q 842.50 802.84 840.05 791.99
  Q 838.66 785.86 834.51 780.55
  A 0.79 0.78 -48.4 0 1 834.46 779.65
  Q 835.72 777.64 837.30 775.87
  Q 839.98 772.87 840.37 772.33
  Q 849.05 760.32 843.76 745.80"
/>
<path stroke="#d99d83" vector-effect="non-scaling-stroke" d="
  M 843.76 745.80
  Q 855.59 731.33 871.94 721.46"
/>
<path stroke="#e7eff5" vector-effect="non-scaling-stroke" d="
  M 877.50 49.46
  L 851.73 81.12"
/>
<path stroke="#e7eff5" vector-effect="non-scaling-stroke" d="
  M 923.25 59.21
  Q 920.26 58.26 918.31 60.56
  Q 885.03 99.84 851.82 139.53"
/>
<path stroke="#e7eff5" vector-effect="non-scaling-stroke" d="
  M 910.59 56.31
  Q 887.46 85.83 863.06 114.31
  Q 861.25 116.43 851.47 126.75"
/>
<path stroke="#b96b55" vector-effect="non-scaling-stroke" d="
  M 843.76 745.80
  L 838.29 751.00"
/>
<path stroke="#99807d" vector-effect="non-scaling-stroke" d="
  M 380.62 1013.33
  Q 395.13 1033.55 412.67 1051.07
  Q 429.46 1067.83 450.50 1078.71
  A 0.98 0.96 -44.4 0 0 451.39 1078.71
  Q 466.91 1070.84 479.44 1059.94
  Q 498.02 1043.75 513.55 1023.58
  Q 516.34 1019.96 517.26 1016.73
  Q 518.37 1012.84 518.33 1008.86"
/>
<path stroke="#d3afa1" vector-effect="non-scaling-stroke" d="
  M 1434.21 767.00
  Q 1431.67 767.25 1426.50 767.25
  Q 1187.50 767.25 948.50 767.11
  Q 940.49 767.10 932.09 767.04"
/>
<path stroke="#b96b55" vector-effect="non-scaling-stroke" d="
  M 929.58 754.72
  Q 930.34 748.47 930.02 742.18
  Q 930.00 741.68 929.73 741.42
  Q 929.43 741.11 929.00 740.96"
/>
<path stroke="#734f4a" vector-effect="non-scaling-stroke" d="
  M 1272.25 273.76
  L 851.50 273.71"
/>
<path stroke="#e7eff5" vector-effect="non-scaling-stroke" d="
  M 987.80 426.73
  L 946.04 475.50"
/>
<path stroke="#cdb2ba" vector-effect="non-scaling-stroke" d="
  M 946.04 475.50
  L 926.98 475.84"
/>
<path stroke="#e7eff5" vector-effect="non-scaling-stroke" d="
  M 926.98 475.84
  Q 919.42 472.76 914.06 468.69
  Q 905.12 461.89 902.54 450.30
  Q 901.24 444.43 900.36 438.48
  Q 899.94 435.64 898.68 433.05
  Q 897.77 431.17 896.94 433.09
  Q 895.93 435.45 895.48 438.29
  Q 894.93 441.82 894.12 445.30
  Q 892.75 451.19 892.45 452.23
  Q 890.59 458.85 886.29 464.03
  Q 883.03 467.96 877.37 471.52
  Q 871.69 475.08 866.69 476.44
  Q 860.51 478.11 857.75 479.75
  Q 854.14 481.89 856.80 484.43
  A 4.36 4.34 -18.2 0 0 859.13 485.60
  Q 866.20 486.79 872.29 488.35
  Q 878.45 489.92 883.55 493.71
  Q 885.62 495.26 887.31 498.19
  Q 891.49 505.43 893.57 512.67
  Q 893.92 513.88 894.25 517.91
  Q 894.54 521.49 896.45 524.51
  Q 897.86 526.75 899.18 524.45
  Q 901.12 521.07 901.46 517.29
  Q 901.83 513.22 902.25 511.80
  Q 905.19 501.89 909.94 495.69
  Q 913.39 491.18 920.75 489.54"
/>
<path stroke="#cdb2ba" vector-effect="non-scaling-stroke" d="
  M 920.75 489.54
  L 920.54 494.75"
/>
<path stroke="#e7eff5" vector-effect="non-scaling-stroke" d="
  M 920.54 494.75
  L 920.50 504.72
  A 3.02 2.96 65.5 0 1 919.80 506.65
  L 851.65 587.41"
/>
<path stroke="#734f4a" vector-effect="non-scaling-stroke" d="
  M 1282.96 721.49
  Q 1281.27 721.71 1276.19 721.69
  Q 1182.88 721.32 1002.50 721.50
  Q 937.24 721.56 914.62 721.89"
/>
<path stroke="#99807d" vector-effect="non-scaling-stroke" d="
  M 914.62 721.89
  Q 910.50 720.44 906.91 720.30"
/>
<path stroke="#794e4f" vector-effect="non-scaling-stroke" d="
  M 906.91 720.30
  Q 901.13 718.83 897.13 721.47"
/>
<path stroke="#99807d" vector-effect="non-scaling-stroke" d="
  M 897.13 721.47
  Q 889.42 716.52 881.25 718.25
  Q 876.97 719.15 871.94 721.46"
/>
<path stroke="#734f4a" vector-effect="non-scaling-stroke" d="
  M 871.94 721.46
  Q 861.74 722.23 851.52 721.38"
/>
<path stroke="#594643" vector-effect="non-scaling-stroke" d="
  M 538.96 312.00
  Q 537.53 315.75 538.75 319.46"
/>
<path stroke="#594643" vector-effect="non-scaling-stroke" d="
  M 539.72 319.65
  Q 545.11 320.62 550.25 318.79"
/>
<path stroke="#594643" vector-effect="non-scaling-stroke" d="
  M 628.29 345.00
  Q 630.60 346.24 633.25 345.71"
/>
<path stroke="#8d5d56" vector-effect="non-scaling-stroke" d="
  M 698.66 662.15
  L 693.79 670.50"
/>
<path stroke="#a07a6c" vector-effect="non-scaling-stroke" d="
  M 693.79 670.50
  Q 677.65 655.33 663.37 638.42
  Q 660.41 634.91 659.63 632.79
  Q 658.33 629.26 659.50 625.75
  Q 663.14 614.87 663.95 606.99
  Q 668.74 560.33 665.85 513.55
  Q 665.44 506.83 664.57 503.03
  Q 663.37 497.83 661.17 492.92
  Q 658.58 487.14 653.94 484.31
  Q 648.57 481.05 640.71 479.43
  Q 620.21 475.20 599.25 475.09
  Q 570.23 474.95 541.25 476.26
  Q 526.70 476.93 512.65 480.36
  Q 505.90 482.01 495.64 486.03
  Q 487.27 489.31 478.90 492.58
  Q 454.96 501.93 430.06 495.19
  Q 423.59 493.44 404.69 485.31
  Q 400.93 483.70 389.25 480.21"
/>
<path stroke="#865556" vector-effect="non-scaling-stroke" d="
  M 389.25 480.21
  Q 387.59 479.50 385.79 479.50"
/>
<path stroke="#a07a6c" vector-effect="non-scaling-stroke" d="
  M 385.79 479.50
  Q 385.52 479.12 385.00 479.21"
/>
<path stroke="#594643" vector-effect="non-scaling-stroke" d="
  M 385.00 479.21
  Q 382.65 477.81 380.00 478.46"
/>
<path stroke="#a07a6c" vector-effect="non-scaling-stroke" d="
  M 380.00 478.46
  Q 370.57 476.76 361.00 476.30
  Q 327.26 474.67 293.50 475.47
  Q 278.18 475.83 263.15 478.73
  Q 255.31 480.24 248.34 484.12
  Q 245.15 485.91 243.56 488.31
  Q 237.06 498.19 236.22 510.75
  Q 232.97 559.70 238.00 608.50
  Q 238.72 615.46 241.72 623.97
  Q 243.00 627.57 242.90 629.71
  Q 242.75 633.12 240.94 635.44
  Q 228.21 651.74 208.00 670.54"
/>
<path stroke="#8d5d56" vector-effect="non-scaling-stroke" d="
  M 208.00 670.54
  L 203.04 661.00"
/>
<path stroke="#594643" vector-effect="non-scaling-stroke" d="
  M 194.21 629.25
  Q 194.43 626.67 193.54 624.25"
/>
<path stroke="#59644d" vector-effect="non-scaling-stroke" d="
  M 193.54 624.25
  Q 193.52 623.21 192.79 622.50"
/>
<path stroke="#594643" vector-effect="non-scaling-stroke" d="
  M 189.25 591.29
  Q 189.99 589.27 189.04 587.25"
/>
<path stroke="#594643" vector-effect="non-scaling-stroke" d="
  M 189.04 533.75
  Q 190.28 530.34 189.54 526.75"
/>
<path stroke="#594643" vector-effect="non-scaling-stroke" d="
  M 508.00 298.21
  Q 510.20 298.35 512.25 297.54"
/>
<path stroke="#cdb2ba" vector-effect="non-scaling-stroke" d="
  M 1195.96 475.50
  L 985.26 475.67"
/>
<path stroke="#b89b8c" vector-effect="non-scaling-stroke" d="
  M 380.00 478.46
  L 385.00 479.21"
/>
<path stroke="#e5aa9f" vector-effect="non-scaling-stroke" d="
  M 385.79 479.50
  Q 387.25 480.76 389.25 480.21"
/>
<path stroke="#edb29f" vector-effect="non-scaling-stroke" d="
  M 693.79 670.50
  Q 693.99 679.17 693.75 681.50
  Q 692.74 691.16 691.97 700.83
  Q 691.05 712.29 690.13 720.13
  Q 688.75 731.95 687.32 743.76
  Q 683.66 774.06 675.45 803.44"
/>
<path stroke="#edb29f" vector-effect="non-scaling-stroke" d="
  M 510.60 972.49
  Q 494.37 978.55 483.75 980.25
  Q 460.01 984.06 432.71 981.95
  Q 421.96 981.12 412.95 979.07
  Q 401.90 976.54 391.25 972.54"
/>
<path stroke="#edb29f" vector-effect="non-scaling-stroke" d="
  M 225.75 803.71
  Q 226.37 803.27 226.00 802.00
  Q 219.80 780.75 216.27 755.67
  Q 215.32 748.90 213.68 735.85
  Q 211.10 715.30 208.75 687.25
  Q 207.81 676.08 208.00 670.54"
/>
<path stroke="#818998" vector-effect="non-scaling-stroke" d="
  M 1282.85 689.98
  L 851.54 690.00"
/>
<path stroke="#90b0bd" vector-effect="non-scaling-stroke" d="
  M 984.04 654.00
  L 1060.62 654.33"
/>
<path stroke="#90b0bd" vector-effect="non-scaling-stroke" d="
  M 1099.25 654.21
  L 1164.21 654.00"
/>
<path stroke="#e5c2c4" vector-effect="non-scaling-stroke" d="
  M 952.79 67.00
  L 951.94 67.73
  A 1.10 1.06 70.6 0 0 951.56 68.56
  L 951.50 135.94
  A 0.56 0.56 90.0 0 0 952.06 136.50
  L 1015.03 136.50
  A 0.53 0.53 -88.9 0 0 1015.56 135.99
  Q 1015.99 118.09 1015.50 100.50
  Q 1015.33 94.19 1016.25 89.54"
/>
<path stroke="#a8c0c7" vector-effect="non-scaling-stroke" d="
  M 1036.54 98.25
  L 1036.74 135.92
  A 0.59 0.58 89.5 0 0 1037.32 136.50
  L 1100.03 136.50
  A 1.27 1.26 -7.7 0 0 1101.25 134.90
  Q 1100.61 132.59 1101.50 131.71"
/>
<path stroke="#b9d1bb" vector-effect="non-scaling-stroke" d="
  M 1138.04 154.50
  L 1115.45 184.64
  Q 1114.99 185.25 1115.74 185.25
  L 1164.18 185.25
  A 1.17 1.17 -3.5 0 0 1165.34 183.94
  Q 1164.65 178.48 1165.25 173.71"
/>
<path stroke="#e7eff5" vector-effect="non-scaling-stroke" d="
  M 1205.10 206.20
  Q 1204.11 206.50 1200.75 206.50
  Q 1150.75 206.50 1099.56 206.50
  A 1.51 1.50 17.9 0 0 1098.34 207.12
  Q 1086.34 223.29 1073.69 239.44
  Q 1072.17 241.38 1069.50 242.10"
/>
<path stroke="#9999a2" vector-effect="non-scaling-stroke" d="
  M 1069.50 242.10
  L 1036.25 242.18"
/>
<path stroke="#e7eff5" vector-effect="non-scaling-stroke" d="
  M 1036.25 242.18
  Q 1036.30 239.61 1037.69 237.69
  Q 1048.62 222.55 1060.21 207.33
  Q 1060.84 206.50 1059.79 206.50
  L 921.27 206.50
  A 0.71 0.70 0.0 0 1 920.56 205.80
  L 920.50 106.15
  Q 920.50 104.70 919.58 105.82
  Q 886.60 145.82 851.92 184.81"
/>
<path stroke="#72856d" vector-effect="non-scaling-stroke" d="
  M 193.54 624.25
  Q 193.62 624.88 193.29 625.25"
/>
<path stroke="#edb29f" vector-effect="non-scaling-stroke" d="
  M 510.46 991.25
  Q 492.17 1003.92 470.57 1009.35
  Q 462.63 1011.35 454.56 1012.69
  Q 450.98 1013.29 447.43 1012.72
  Q 432.50 1010.36 418.26 1005.22
  Q 404.53 1000.28 392.55 991.93
  A 2.91 2.89 17.3 0 1 391.30 989.57
  L 391.21 974.50"
/>
<path stroke="#818998" vector-effect="non-scaling-stroke" d="
  M 1036.25 242.18
  L 851.75 242.21"
/>
<path stroke="#e1e9ee" vector-effect="non-scaling-stroke" d="
  M 1284.46 1142.00
  L 1283.56 1142.00
  A 0.55 0.51 -89.5 0 1 1283.06 1141.45
  L 1283.00 903.27
  A 1.20 1.20 1.5 0 0 1281.86 902.07
  Q 1275.53 901.74 1271.27 902.36"
/>
<path stroke="#f9f9f8" vector-effect="non-scaling-stroke" d="
  M 1271.27 902.36
  Q 1252.08 901.64 1233.47 902.12"
/>
<path stroke="#e1e9ee" vector-effect="non-scaling-stroke" d="
  M 1233.47 902.12
  L 1023.82 902.14"
/>
<path stroke="#f9f9f8" vector-effect="non-scaling-stroke" d="
  M 1023.82 902.14
  Q 1005.75 901.68 987.75 902.29"
/>
<path stroke="#e1e9ee" vector-effect="non-scaling-stroke" d="
  M 987.75 902.29
  Q 981.98 901.53 976.30 902.37"
/>
<path stroke="#f9f9f8" vector-effect="non-scaling-stroke" d="
  M 976.30 902.37
  Q 957.00 901.53 937.71 902.25"
/>
<path stroke="#e1e9ee" vector-effect="non-scaling-stroke" d="
  M 937.71 902.25
  L 852.26 902.01
  A 0.76 0.75 -89.6 0 0 851.50 902.77
  Q 851.50 953.62 851.48 1003.50
  Q 851.48 1003.93 851.79 1004.25"
/>
<path stroke="#f9f9f8" vector-effect="non-scaling-stroke" d="
  M 851.79 1004.25
  L 851.55 1004.84
  Q 851.25 1005.55 851.25 1005.75
  L 851.53 1049.78"
/>
<path stroke="#e1e9ee" vector-effect="non-scaling-stroke" d="
  M 851.53 1049.78
  L 851.79 1062.75"
/>
<path stroke="#f9f9f8" vector-effect="non-scaling-stroke" d="
  M 851.79 1062.75
  Q 851.71 1062.91 851.58 1062.99
  A 0.52 0.29 -23.0 0 0 851.31 1063.34
  L 851.49 1106.76
  A 0.86 0.60 -84.5 0 0 851.92 1107.52
  Q 852.18 1107.60 852.50 1107.54"
/>
<path stroke="#e1e9ee" vector-effect="non-scaling-stroke" d="
  M 852.50 1107.54
  Q 851.50 1108.46 851.50 1110.50
  Q 851.48 1138.13 851.53 1165.33"
/>
<path stroke="#93929b" vector-effect="non-scaling-stroke" d="
  M 851.53 1165.33
  L 851.51 1200.24"
/>
<path stroke="#d3afa1" vector-effect="non-scaling-stroke" d="
  M 851.51 1200.24
  L 777.42 1200.25
  A 0.67 0.66 0.0 0 0 776.75 1200.91
  L 776.75 1245.25
  A 0.50 0.50 0.0 0 0 777.25 1245.75
  Q 970.50 1245.75 1163.75 1245.75
  Q 1174.10 1245.75 1178.50 1246.29"
/>
<path stroke="#93929b" vector-effect="non-scaling-stroke" d="
  M 601.75 1372.21
  Q 601.53 1363.97 600.25 1336.00
  Q 598.40 1295.65 597.80 1226.25
  Q 597.56 1199.59 596.94 1172.94
  Q 596.48 1153.31 594.70 1133.22
  A 1.62 1.60 -20.8 0 1 595.36 1131.78
  Q 618.11 1115.11 639.86 1097.07
  A 0.94 0.92 67.3 0 0 640.19 1096.24
  L 637.55 1072.43"
/>
<path stroke="#818998" vector-effect="non-scaling-stroke" d="
  M 1243.06 242.01
  L 1069.50 242.10"
/>
<path stroke="#e7eff5" vector-effect="non-scaling-stroke" d="
  M 937.71 902.25
  Q 893.41 952.12 851.79 1004.25"
/>
<path stroke="#734f4a" vector-effect="non-scaling-stroke" d="
  M 1231.04 1200.50
  Q 1228.61 1200.25 1224.25 1200.25
  Q 1037.88 1200.26 851.51 1200.24"
/>
<path stroke="#818998" vector-effect="non-scaling-stroke" d="
  M 1264.25 1165.79
  Q 1260.32 1165.23 1253.25 1165.25
  Q 1222.40 1165.33 1059.50 1165.21"
/>
<path stroke="#818998" vector-effect="non-scaling-stroke" d="
  M 1035.75 1165.21
  L 851.53 1165.33"
/>
<path stroke="#e7eff5" vector-effect="non-scaling-stroke" d="
  M 976.30 902.37
  L 935.57 950.12
  Q 935.24 950.50 935.74 950.56
  Q 940.97 951.11 946.20 950.50
  A 1.27 1.25 -73.2 0 0 947.01 950.06
  L 987.75 902.29"
/>
<path stroke="#e7eff5" vector-effect="non-scaling-stroke" d="
  M 1023.82 902.14
  Q 1005.91 927.02 986.28 950.14
  Q 985.77 950.75 986.57 950.75
  L 1195.37 950.75
  A 1.40 1.39 -71.3 0 0 1196.48 950.20
  L 1233.47 902.12"
/>
<path stroke="#e7eff5" vector-effect="non-scaling-stroke" d="
  M 1271.27 902.36
  L 1215.22 975.72
  A 2.27 2.22 -26.7 0 0 1214.75 977.09
  L 1214.75 1080.75
  Q 1214.75 1081.98 1215.79 1081.31
  Q 1225.86 1074.84 1229.00 1062.86
  Q 1230.90 1055.61 1232.13 1048.22
  Q 1232.51 1045.90 1233.44 1044.05
  Q 1234.18 1042.59 1234.93 1044.04
  Q 1236.39 1046.87 1236.80 1049.99
  Q 1237.44 1054.84 1238.46 1059.61
  Q 1239.65 1065.18 1242.27 1070.11
  Q 1244.81 1074.91 1249.21 1078.63
  Q 1256.87 1085.10 1266.77 1087.95
  Q 1273.65 1089.92 1274.94 1091.31
  Q 1277.35 1093.92 1275.23 1095.58
  Q 1274.28 1096.32 1271.95 1096.72
  Q 1259.83 1098.79 1252.31 1102.31
  Q 1246.92 1104.84 1244.06 1110.31
  Q 1240.90 1116.35 1238.92 1121.47
  Q 1237.69 1124.62 1237.72 1128.00
  Q 1237.76 1132.03 1235.81 1135.23
  Q 1234.17 1137.93 1232.57 1135.20
  Q 1231.62 1133.58 1231.13 1131.80
  Q 1230.89 1130.95 1230.68 1128.16
  Q 1230.34 1123.71 1228.44 1119.06
  Q 1226.04 1113.19 1223.20 1108.58
  Q 1221.74 1106.21 1219.90 1104.77
  Q 1217.93 1103.24 1215.57 1102.07
  A 0.57 0.56 13.4 0 0 1214.75 1102.57
  L 1214.75 1128.83
  A 0.67 0.67 0.0 0 1 1214.08 1129.50
  L 1099.86 1129.49
  A 1.57 1.57 -71.2 0 0 1098.62 1130.10
  L 1073.06 1163.56
  A 2.90 0.97 -57.0 0 1 1071.25 1165.00
  L 1059.50 1165.21"
/>
<path stroke="#9999a2" vector-effect="non-scaling-stroke" d="
  M 1059.50 1165.21
  L 1035.75 1165.21"
/>
<path stroke="#e7eff5" vector-effect="non-scaling-stroke" d="
  M 1035.75 1165.21
  Q 1036.15 1163.01 1037.46 1161.20
  Q 1048.77 1145.56 1060.45 1130.18
  Q 1060.91 1129.56 1060.14 1129.56
  Q 1034.67 1129.61 1009.17 1129.53
  Q 1005.27 1129.51 994.34 1129.77
  Q 986.92 1129.94 979.49 1129.73
  Q 975.75 1129.62 972.00 1129.60
  Q 947.00 1129.41 921.08 1129.50
  A 0.57 0.57 -0.5 0 1 920.50 1128.93
  L 920.44 1029.09
  Q 920.44 1028.04 919.76 1028.85
  Q 886.63 1068.70 852.50 1107.54"
/>
<path stroke="#e7eff5" vector-effect="non-scaling-stroke" d="
  M 851.79 1062.75
  L 920.18 981.38
  A 1.37 1.34 -25.4 0 0 920.50 980.51
  L 920.50 969.14
  Q 920.50 968.03 919.79 968.89
  Q 896.37 997.49 872.51 1026.27
  Q 862.56 1038.28 851.53 1049.78"
/>
<path stroke="#b9d1bb" vector-effect="non-scaling-stroke" d="
  M 950.68 184.70
  A 0.55 0.55 0.0 0 0 951.23 185.25
  L 1076.09 185.25
  A 1.73 1.72 -71.1 0 0 1077.46 184.57
  L 1104.78 148.71
  Q 1105.18 148.19 1104.53 148.19
  L 951.07 148.06
  A 0.50 0.50 0.0 0 0 950.57 148.56
  L 950.68 184.70"
/>
<path stroke="#9999a2" vector-effect="non-scaling-stroke" d="
  M 938.99 532.07
  L 967.09 532.24
  A 0.67 0.65 -89.6 0 0 967.75 531.57
  L 967.75 523.16
  A 0.66 0.66 0.0 0 0 967.09 522.50
  L 946.66 522.50
  A 1.13 1.06 18.5 0 0 945.81 522.89
  L 938.71 531.47
  Q 938.22 532.06 938.99 532.07"
/>
<path stroke="#b9d1bb" vector-effect="non-scaling-stroke" d="
  M 1107.08 593.28
  L 1158.77 524.67
  Q 1159.08 524.25 1158.56 524.25
  L 984.57 524.31
  A 0.51 0.51 0.0 0 0 984.06 524.82
  L 984.00 593.49
  A 0.51 0.51 0.0 0 0 984.51 594.00
  L 1105.62 594.00
  A 1.84 1.79 18.0 0 0 1107.08 593.28"
/>
<path stroke="#9999a2" vector-effect="non-scaling-stroke" d="
  M 967.75 541.00
  A 0.50 0.50 0.0 0 0 967.25 540.50
  L 937.27 540.50
  A 0.50 0.50 0.0 0 0 936.77 541.00
  L 936.77 549.56
  A 0.50 0.50 0.0 0 0 937.27 550.06
  L 967.25 550.06
  A 0.50 0.50 0.0 0 0 967.75 549.56
  L 967.75 541.00"
/>
<path stroke="#9999a2" vector-effect="non-scaling-stroke" d="
  M 967.66 558.74
  A 0.48 0.48 0.0 0 0 967.18 558.26
  L 937.24 558.26
  A 0.48 0.48 0.0 0 0 936.76 558.74
  L 936.76 567.52
  A 0.48 0.48 0.0 0 0 937.24 568.00
  L 967.18 568.00
  A 0.48 0.48 0.0 0 0 967.66 567.52
  L 967.66 558.74"
/>
<path stroke="#b9d1bb" vector-effect="non-scaling-stroke" d="
  M 1145.43 593.90
  Q 1155.38 594.27 1165.31 593.84
  A 0.54 0.53 -1.7 0 0 1165.82 593.31
  L 1165.75 566.49
  Q 1165.75 565.92 1165.40 566.38
  L 1147.19 590.44
  Q 1145.77 592.31 1145.06 593.06
  Q 1144.32 593.85 1145.43 593.90"
/>
<path stroke="#a07a6c" vector-effect="non-scaling-stroke" d="
  M 279.71 596.97
  A 3.33 3.33 50.1 0 0 281.58 597.14
  Q 297.36 593.94 311.49 593.14
  Q 327.98 592.21 344.50 592.59
  Q 359.86 592.94 374.84 596.26
  Q 379.53 597.31 381.22 596.98
  Q 384.92 596.25 386.29 591.93
  Q 387.68 587.58 385.50 584.00
  Q 382.51 579.09 376.71 576.75
  Q 369.08 573.66 361.03 572.69
  Q 355.45 572.02 344.95 572.11
  Q 317.29 572.34 291.38 582.54
  Q 285.75 584.76 280.96 588.45
  Q 278.27 590.52 277.75 592.75
  Q 277.02 595.89 279.71 596.97"
/>
<path stroke="#a07a6c" vector-effect="non-scaling-stroke" d="
  M 517.44 595.31
  Q 520.39 597.85 524.53 596.88
  Q 540.56 593.13 557.00 592.50
  Q 572.03 591.93 594.26 593.41
  Q 606.28 594.21 618.04 596.79
  Q 620.38 597.30 621.62 597.06
  Q 624.29 596.53 624.19 593.93
  Q 624.12 591.99 622.30 590.05
  Q 618.71 586.22 613.31 583.94
  Q 585.28 572.10 555.68 572.11
  Q 547.46 572.11 542.83 572.53
  Q 536.42 573.11 530.17 574.88
  Q 523.23 576.86 519.19 580.44
  Q 515.26 583.91 514.98 589.19
  Q 514.77 593.03 517.44 595.31"
/>
<path stroke="#95a69d" vector-effect="non-scaling-stroke" d="
  M 313.91 658.18
  Q 310.33 668.64 311.01 679.50
  Q 311.69 690.50 315.80 700.52
  Q 318.56 707.24 321.92 710.69
  Q 326.51 715.42 332.94 716.31
  Q 341.22 717.45 348.78 712.42
  Q 357.01 706.94 360.00 696.25
  Q 363.74 682.87 361.50 669.54"
/>
<path stroke="#a07a6c" vector-effect="non-scaling-stroke" d="
  M 361.50 669.54
  Q 367.28 669.29 367.75 663.75
  Q 368.33 656.90 364.24 650.75
  Q 355.72 637.94 340.24 636.59
  Q 330.70 635.76 323.06 638.56
  Q 305.57 644.99 298.41 662.54
  Q 297.60 664.52 297.34 666.04
  Q 296.91 668.45 297.50 669.75
  Q 298.82 672.66 301.38 672.28
  Q 303.01 672.04 304.54 670.35
  Q 305.87 668.86 306.69 667.19
  Q 309.30 661.85 313.91 658.18"
/>
<path stroke="#365254" vector-effect="non-scaling-stroke" d="
  M 361.50 669.54
  Q 357.23 667.24 353.81 663.19
  Q 347.28 655.45 336.99 654.31
  Q 324.61 652.94 313.91 658.18"
/>
<path stroke="#95a69d" vector-effect="non-scaling-stroke" d="
  M 540.50 669.58
  Q 537.26 686.05 544.10 701.49
  Q 546.72 707.41 550.81 710.94
  Q 558.75 717.77 568.52 716.33
  Q 574.38 715.46 578.59 711.85
  Q 582.84 708.22 585.25 702.50
  Q 591.96 686.59 590.75 670.25
  Q 590.38 665.27 587.54 658.00"
/>
<path stroke="#a07a6c" vector-effect="non-scaling-stroke" d="
  M 587.54 658.00
  Q 592.86 662.01 596.06 668.69
  Q 597.09 670.83 599.21 671.87
  Q 601.19 672.83 602.75 671.80
  Q 604.50 670.65 604.50 668.00
  Q 604.50 664.38 603.16 661.43
  Q 598.26 650.59 588.49 643.80
  Q 575.09 634.49 559.78 636.78
  Q 551.70 638.00 545.91 642.05
  Q 539.61 646.46 535.96 653.73
  Q 532.92 659.79 534.50 665.50
  Q 535.64 669.60 540.50 669.58"
/>
<path stroke="#365254" vector-effect="non-scaling-stroke" d="
  M 587.54 658.00
  Q 582.23 655.29 576.47 654.53
  Q 570.37 653.72 565.03 654.13
  Q 556.95 654.74 551.31 660.06
  Q 543.70 667.25 540.50 669.58"
/>
<path stroke="#edb29f" vector-effect="non-scaling-stroke" d="
  M 422.41 793.86
  Q 424.79 795.53 427.55 796.47
  Q 452.36 804.89 476.69 795.36
  Q 482.45 793.10 483.07 788.40
  Q 483.43 785.62 480.63 785.39
  Q 450.21 782.86 421.04 785.47
  Q 418.02 785.74 418.81 788.67
  Q 419.69 791.94 422.41 793.86"
/>
<path stroke="#ffe7da" vector-effect="non-scaling-stroke" d="
  M 390.05 878.46
  Q 399.36 887.12 409.50 890.50
  Q 447.49 903.17 486.48 892.24
  Q 495.19 889.80 500.90 886.42
  Q 507.45 882.54 513.31 876.81
  Q 523.40 866.96 529.06 855.31
  Q 531.02 851.28 531.18 847.94
  A 1.68 1.21 -32.1 0 1 531.53 847.08
  Q 532.25 846.18 531.00 845.75
  Q 528.52 844.90 523.25 845.18
  Q 492.88 846.79 462.49 847.53
  Q 452.46 847.77 442.50 847.58
  Q 410.61 846.96 378.75 845.31
  Q 374.89 845.11 370.95 845.58
  A 0.62 0.62 -7.5 0 0 370.40 846.29
  Q 371.40 853.15 374.42 858.57
  Q 380.67 869.75 390.05 878.46"
/>
<path stroke="#9999a2" vector-effect="non-scaling-stroke" d="
  M 968.17 972.56
  L 1178.69 972.69
  A 1.35 1.23 21.8 0 0 1179.57 972.36
  Q 1181.65 970.44 1181.40 967.49
  Q 1181.25 965.75 1181.25 964.12
  A 0.37 0.37 90.0 0 0 1180.88 963.75
  L 975.81 963.75
  A 1.85 1.75 -68.7 0 0 974.45 964.39
  L 967.94 972.04
  Q 967.49 972.56 968.17 972.56"
/>
<path stroke="#e5c2c4" vector-effect="non-scaling-stroke" d="
  M 1014.40 1114.10
  Q 1014.76 1114.32 1015.11 1114.25
  A 0.71 0.53 86.8 0 0 1015.56 1113.57
  L 1015.57 988.94
  A 0.52 0.51 0.6 0 0 1015.06 988.43
  Q 986.58 988.11 958.10 988.25
  Q 958.07 988.25 956.39 988.13
  Q 953.69 987.95 952.33 990.41
  Q 952.12 990.79 951.84 991.13
  A 1.50 1.23 -29.4 0 0 951.50 992.01
  L 951.50 1113.76
  A 0.43 0.43 -90.0 0 0 951.93 1114.19
  L 1013.85 1114.19
  A 0.25 0.09 -48.8 0 0 1014.00 1114.11
  L 1014.07 1114.06
  A 0.35 0.19 35.2 0 1 1014.40 1114.10"
/>
<path stroke="#a8c0c7" vector-effect="non-scaling-stroke" d="
  M 1073.08 1113.44
  L 1100.17 1077.89
  A 3.72 3.66 -26.6 0 0 1100.94 1075.64
  L 1101.00 989.06
  A 0.81 0.81 0.0 0 0 1100.19 988.25
  L 1037.12 988.25
  A 0.37 0.37 -90.0 0 0 1036.75 988.62
  L 1036.75 1113.48
  A 0.80 0.79 0.0 0 0 1037.55 1114.27
  L 1071.94 1114.00
  A 1.44 1.39 17.8 0 0 1073.08 1113.44"
/>
<path stroke="#dfb6a8" vector-effect="non-scaling-stroke" d="
  M 1121.92 1049.08
  L 1167.17 988.71
  Q 1167.51 988.25 1166.93 988.25
  L 1121.80 988.25
  A 0.55 0.55 0.0 0 0 1121.25 988.80
  L 1121.31 1048.88
  Q 1121.31 1049.89 1121.92 1049.08"
/>
<path stroke="#dfb6a8" vector-effect="non-scaling-stroke" d="
  M 1179.03 1114.28
  Q 1182.00 1114.42 1184.95 1114.01
  A 0.58 0.57 86.0 0 0 1185.44 1113.44
  L 1185.50 1016.24
  Q 1185.50 1015.03 1184.77 1016.00
  L 1121.80 1099.60
  A 1.67 1.24 -33.2 0 0 1121.47 1100.50
  L 1121.29 1113.49
  A 0.52 0.50 0.5 0 0 1121.81 1114.00
  Q 1148.25 1113.96 1173.84 1114.05
  Q 1173.92 1114.05 1179.03 1114.28"
/>
</g>
<path fill="#f3f2f1" d="
  M 852.31 45.53
  Q 850.72 63.22 851.73 81.12
  Q 850.77 103.92 851.47 126.75
  L 851.33 138.88
  A 0.68 0.51 -74.6 0 0 851.53 139.39
  Q 851.72 139.54 851.82 139.53
  Q 851.20 157.26 851.31 183.56
  Q 851.32 184.58 851.92 184.81
  Q 851.00 213.48 851.75 242.21
  L 851.50 273.71
  L 777.68 273.75
  A 0.92 0.91 -0.3 0 0 776.76 274.67
  L 776.93 318.82
  A 0.51 0.49 0.0 0 0 777.44 319.31
  L 1308.25 319.21
  Q 1340.85 364.93 1363.31 409.44
  Q 1437.11 555.61 1436.46 722.00
  Q 1434.02 721.79 1421.00 721.75
  Q 1346.55 721.52 1317.35 721.68
  Q 1310.44 721.72 1300.16 721.55
  Q 1291.56 721.41 1282.96 721.49
  L 1282.85 689.98
  Q 1283.11 559.99 1283.00 430.06
  Q 1283.00 429.96 1283.12 428.45
  Q 1283.27 426.49 1281.63 426.54
  Q 1279.46 426.61 1279.36 426.60
  Q 1275.07 426.14 1271.20 427.08
  Q 1266.95 426.31 1262.84 426.43
  Q 1256.14 426.63 1256.02 426.62
  Q 1244.75 426.45 1233.52 426.61
  Q 1129.61 426.42 1025.75 426.53
  Q 1024.64 426.53 1023.87 426.93
  Q 1011.91 426.51 990.75 426.50
  Q 988.59 426.50 987.80 426.73
  Q 943.35 426.25 899.00 426.65
  Q 891.92 426.71 879.01 426.54
  Q 865.72 426.36 852.02 426.71
  A 0.53 0.53 -0.6 0 0 851.50 427.24
  L 851.65 587.41
  Q 851.20 588.79 851.25 591.50
  Q 851.53 605.94 851.31 630.81
  Q 851.30 632.39 851.75 632.79
  L 851.54 690.00
  L 851.52 721.38
  Q 849.25 721.75 847.75 721.75
  Q 812.88 721.75 777.33 721.75
  A 0.58 0.58 0.0 0 0 776.75 722.33
  L 776.75 766.58
  A 0.67 0.67 0.0 0 0 777.42 767.25
  L 801.46 767.41
  Q 801.03 768.62 800.52 770.01
  Q 793.09 790.27 796.01 811.75
  Q 796.54 815.63 793.44 819.19
  Q 763.25 853.80 738.97 878.47
  Q 713.53 904.30 687.02 929.02
  Q 671.13 943.85 654.05 957.29
  Q 639.50 968.75 625.59 981.13
  L 624.03 973.81
  A 0.45 0.43 75.5 0 0 623.47 973.46
  Q 552.81 996.56 540.00 1001.50
  Q 525.99 1006.90 518.33 1008.86
  L 511.52 1010.29
  A 0.69 0.65 83.8 0 1 510.73 1009.62
  L 510.46 991.25
  Q 511.08 982.20 510.60 972.49
  Q 534.59 963.32 557.31 951.36
  Q 579.18 939.84 597.56 923.31
  Q 614.43 908.14 628.90 890.65
  Q 661.06 851.78 675.45 803.44
  Q 695.07 812.72 714.67 804.88
  A 0.97 0.35 26.3 0 1 715.31 804.95
  Q 715.52 805.02 715.71 804.90
  Q 715.87 804.79 715.94 804.76
  Q 739.34 795.26 750.50 774.25
  Q 764.72 747.48 766.57 714.74
  Q 767.14 704.73 764.50 691.50
  Q 763.06 684.26 760.80 679.88
  Q 760.61 679.51 760.54 678.94
  Q 760.40 677.83 759.56 676.19
  Q 755.36 668.00 749.63 661.92
  Q 744.46 656.45 738.85 653.90
  Q 732.24 650.88 725.25 651.50
  Q 711.42 652.73 698.66 662.15
  Q 700.08 657.95 701.39 654.06
  Q 702.89 649.58 703.86 645.87
  Q 711.68 615.96 712.91 585.00
  Q 713.48 570.90 713.25 549.50
  Q 712.97 522.60 708.90 497.87
  Q 708.65 496.35 708.33 493.10
  Q 708.09 490.70 707.59 488.34
  Q 706.19 481.71 706.17 481.60
  Q 701.08 452.80 689.75 425.95
  Q 685.39 415.63 680.93 408.02
  Q 673.02 394.51 661.85 382.10
  A 1.25 1.24 -52.4 0 1 661.67 380.69
  Q 663.84 376.51 665.25 372.55
  Q 667.08 367.41 667.71 364.04
  Q 668.87 357.84 667.10 351.54
  Q 666.31 348.76 663.00 348.75
  Q 649.13 348.72 633.25 345.71
  L 628.29 345.00
  Q 623.28 344.49 618.42 343.18
  Q 617.86 343.03 617.07 343.13
  Q 615.47 343.34 615.94 341.94
  Q 617.01 338.76 617.53 336.85
  Q 618.63 332.83 618.66 332.71
  Q 621.13 324.18 618.39 315.76
  Q 617.60 313.34 616.02 312.59
  Q 614.29 311.78 611.75 312.00
  Q 594.77 313.50 588.72 314.29
  Q 578.35 315.66 568.00 317.24
  Q 559.17 318.58 550.25 318.79
  L 539.72 319.65
  Q 539.27 319.43 538.75 319.46
  L 538.96 312.00
  Q 539.61 303.09 536.19 296.56
  Q 533.57 291.57 528.31 293.28
  Q 525.07 294.33 524.99 294.35
  Q 518.62 295.92 512.25 297.54
  Q 510.03 297.11 508.00 298.21
  Q 458.50 308.75 408.28 314.95
  Q 387.28 317.55 358.25 323.25
  Q 322.16 330.34 290.47 345.77
  Q 280.97 350.39 272.96 355.39
  Q 257.32 365.16 245.44 376.69
  Q 220.86 400.54 208.88 433.50
  Q 205.57 442.61 202.66 452.51
  Q 199.79 462.25 197.25 474.50
  Q 191.28 503.26 189.54 526.75
  L 189.04 533.75
  Q 187.74 560.50 189.04 587.25
  L 189.25 591.29
  Q 190.29 606.98 192.79 622.50
  L 193.29 625.25
  Q 193.26 627.36 194.21 629.25
  Q 195.26 636.04 197.44 642.56
  Q 198.32 645.20 198.44 646.56
  Q 198.63 648.76 199.38 650.79
  Q 200.37 653.47 200.73 654.85
  Q 201.57 658.04 203.04 661.00
  Q 203.03 662.39 202.09 661.66
  Q 193.16 654.71 182.08 652.38
  Q 164.64 648.71 152.58 661.34
  Q 144.40 669.90 140.37 681.08
  Q 134.24 698.09 135.18 715.80
  Q 135.64 724.49 137.93 735.61
  Q 140.83 749.67 146.69 764.31
  Q 154.64 784.21 170.89 796.33
  Q 187.08 808.40 206.44 808.44
  Q 216.00 808.46 225.75 803.71
  Q 226.69 803.84 226.96 804.76
  Q 238.56 843.85 262.48 876.82
  Q 280.24 901.31 301.69 921.06
  Q 323.40 941.07 350.56 954.44
  Q 372.92 965.44 391.25 972.54
  L 391.21 974.50
  L 391.28 1009.33
  A 1.25 1.23 86.3 0 1 390.21 1010.57
  Q 385.29 1011.23 380.62 1013.33
  Q 336.89 1028.17 303.92 1059.29
  Q 297.20 1065.63 290.14 1073.77
  Q 266.37 1101.17 250.06 1132.56
  Q 244.83 1142.63 241.50 1148.04
  Q 156.44 1045.81 116.13 918.92
  Q 110.16 900.14 105.27 881.06
  Q 93.81 836.37 88.25 783.50
  Q 83.71 740.35 84.75 700.50
  Q 85.54 670.18 89.33 636.43
  Q 90.50 626.03 91.90 616.60
  Q 105.89 522.39 145.31 435.56
  Q 183.88 350.60 244.07 279.32
  Q 298.76 214.55 367.83 165.38
  Q 492.68 76.51 643.40 49.45
  Q 653.00 47.72 663.14 46.30
  Q 709.93 39.76 752.75 39.25
  Q 800.33 38.69 852.31 45.53
  Z"
/>
<path fill="#cfdfeb" d="
  M 852.31 45.53
  Q 865.26 46.78 877.50 49.46
  L 851.73 81.12
  Q 850.72 63.22 852.31 45.53
  Z"
/>
<path fill="#ffffff" d="
  M 877.50 49.46
  Q 893.73 51.96 910.59 56.31
  Q 887.46 85.83 863.06 114.31
  Q 861.25 116.43 851.47 126.75
  Q 850.77 103.92 851.73 81.12
  L 877.50 49.46
  Z"
/>
<path fill="#cfdfeb" d="
  M 910.59 56.31
  L 923.25 59.21
  Q 920.26 58.26 918.31 60.56
  Q 885.03 99.84 851.82 139.53
  Q 851.72 139.54 851.53 139.39
  A 0.68 0.51 -74.6 0 1 851.33 138.88
  L 851.47 126.75
  Q 861.25 116.43 863.06 114.31
  Q 887.46 85.83 910.59 56.31
  Z"
/>
<path fill="#ffffff" d="
  M 923.25 59.21
  L 952.79 67.00
  L 951.94 67.73
  A 1.10 1.06 70.6 0 0 951.56 68.56
  L 951.50 135.94
  A 0.56 0.56 90.0 0 0 952.06 136.50
  L 1015.03 136.50
  A 0.53 0.53 -88.9 0 0 1015.56 135.99
  Q 1015.99 118.09 1015.50 100.50
  Q 1015.33 94.19 1016.25 89.54
  L 1036.54 98.25
  L 1036.74 135.92
  A 0.59 0.58 89.5 0 0 1037.32 136.50
  L 1100.03 136.50
  A 1.27 1.26 -7.7 0 0 1101.25 134.90
  Q 1100.61 132.59 1101.50 131.71
  Q 1120.19 142.43 1138.04 154.50
  L 1115.45 184.64
  Q 1114.99 185.25 1115.74 185.25
  L 1164.18 185.25
  A 1.17 1.17 -3.5 0 0 1165.34 183.94
  Q 1164.65 178.48 1165.25 173.71
  Q 1185.81 189.15 1205.10 206.20
  Q 1204.11 206.50 1200.75 206.50
  Q 1150.75 206.50 1099.56 206.50
  A 1.51 1.50 17.9 0 0 1098.34 207.12
  Q 1086.34 223.29 1073.69 239.44
  Q 1072.17 241.38 1069.50 242.10
  L 1036.25 242.18
  Q 1036.30 239.61 1037.69 237.69
  Q 1048.62 222.55 1060.21 207.33
  Q 1060.84 206.50 1059.79 206.50
  L 921.27 206.50
  A 0.71 0.70 0.0 0 1 920.56 205.80
  L 920.50 106.15
  Q 920.50 104.70 919.58 105.82
  Q 886.60 145.82 851.92 184.81
  Q 851.32 184.58 851.31 183.56
  Q 851.20 157.26 851.82 139.53
  Q 885.03 99.84 918.31 60.56
  Q 920.26 58.26 923.25 59.21
  Z
  M 950.68 184.70
  A 0.55 0.55 0.0 0 0 951.23 185.25
  L 1076.09 185.25
  A 1.73 1.72 -71.1 0 0 1077.46 184.57
  L 1104.78 148.71
  Q 1105.18 148.19 1104.53 148.19
  L 951.07 148.06
  A 0.50 0.50 0.0 0 0 950.57 148.56
  L 950.68 184.70
  Z"
/>
<path fill="#cb8589" d="
  M 952.79 67.00
  Q 985.11 76.61 1016.25 89.54
  Q 1015.33 94.19 1015.50 100.50
  Q 1015.99 118.09 1015.56 135.99
  A 0.53 0.53 -88.9 0 1 1015.03 136.50
  L 952.06 136.50
  A 0.56 0.56 -89.8 0 1 951.50 135.94
  L 951.56 68.56
  A 1.10 1.06 70.6 0 1 951.94 67.73
  L 952.79 67.00
  Z"
/>
<path fill="#50808e" d="
  M 1036.54 98.25
  Q 1070.13 112.82 1101.50 131.71
  Q 1100.61 132.59 1101.25 134.90
  A 1.27 1.26 -7.7 0 1 1100.03 136.50
  L 1037.32 136.50
  A 0.59 0.58 89.5 0 1 1036.74 135.92
  L 1036.54 98.25
  Z"
/>
<path fill="#cfdfeb" d="
  M 1036.25 242.18
  L 851.75 242.21
  Q 851.00 213.48 851.92 184.81
  Q 886.60 145.82 919.58 105.82
  Q 920.50 104.70 920.50 106.15
  L 920.56 205.80
  A 0.71 0.70 0.0 0 0 921.27 206.50
  L 1059.79 206.50
  Q 1060.84 206.50 1060.21 207.33
  Q 1048.62 222.55 1037.69 237.69
  Q 1036.30 239.61 1036.25 242.18
  Z"
/>
<path fill="#72a276" d="
  M 950.68 184.70
  L 950.57 148.56
  A 0.50 0.50 0.0 0 1 951.07 148.06
  L 1104.53 148.19
  Q 1105.18 148.19 1104.78 148.71
  L 1077.46 184.57
  A 1.73 1.72 -71.1 0 1 1076.09 185.25
  L 951.23 185.25
  A 0.55 0.55 -0.1 0 1 950.68 184.70
  Z"
/>
<path fill="#72a276" d="
  M 1138.04 154.50
  Q 1151.99 163.61 1165.25 173.71
  Q 1164.65 178.48 1165.34 183.94
  A 1.17 1.17 -3.5 0 1 1164.18 185.25
  L 1115.74 185.25
  Q 1114.99 185.25 1115.45 184.64
  L 1138.04 154.50
  Z"
/>
<path fill="#cfdfeb" d="
  M 1205.10 206.20
  Q 1224.83 222.94 1243.06 242.01
  L 1069.50 242.10
  Q 1072.17 241.38 1073.69 239.44
  Q 1086.34 223.29 1098.34 207.12
  A 1.51 1.50 17.9 0 1 1099.56 206.50
  Q 1150.75 206.50 1200.75 206.50
  Q 1204.11 206.50 1205.10 206.20
  Z"
/>
<path fill="#323244" d="
  M 1243.06 242.01
  Q 1258.19 256.99 1272.25 273.76
  L 851.50 273.71
  L 851.75 242.21
  L 1036.25 242.18
  L 1069.50 242.10
  L 1243.06 242.01
  Z"
/>
<path fill="#b36c50" d="
  M 851.50 273.71
  L 1272.25 273.76
  Q 1291.31 295.59 1308.25 319.21
  L 777.44 319.31
  A 0.51 0.49 -0.0 0 1 776.93 318.82
  L 776.76 274.67
  A 0.92 0.91 -0.3 0 1 777.68 273.75
  L 851.50 273.71
  Z"
/>
<path fill="#402523" d="
  M 538.96 312.00
  Q 537.53 315.75 538.75 319.46
  Q 539.27 319.43 539.72 319.65
  Q 545.11 320.62 550.25 318.79
  Q 559.17 318.58 568.00 317.24
  Q 578.35 315.66 588.72 314.29
  Q 594.77 313.50 611.75 312.00
  Q 614.29 311.78 616.02 312.59
  Q 617.60 313.34 618.39 315.76
  Q 621.13 324.18 618.66 332.71
  Q 618.63 332.83 617.53 336.85
  Q 617.01 338.76 615.94 341.94
  Q 615.47 343.34 617.07 343.13
  Q 617.86 343.03 618.42 343.18
  Q 623.28 344.49 628.29 345.00
  Q 630.60 346.24 633.25 345.71
  Q 649.13 348.72 663.00 348.75
  Q 666.31 348.76 667.10 351.54
  Q 668.87 357.84 667.71 364.04
  Q 667.08 367.41 665.25 372.55
  Q 663.84 376.51 661.67 380.69
  A 1.25 1.24 -52.4 0 0 661.85 382.10
  Q 673.02 394.51 680.93 408.02
  Q 685.39 415.63 689.75 425.95
  Q 701.08 452.80 706.17 481.60
  Q 706.19 481.71 707.59 488.34
  Q 708.09 490.70 708.33 493.10
  Q 708.65 496.35 708.90 497.87
  Q 712.97 522.60 713.25 549.50
  Q 713.48 570.90 712.91 585.00
  Q 711.68 615.96 703.86 645.87
  Q 702.89 649.58 701.39 654.06
  Q 700.08 657.95 698.66 662.15
  L 693.79 670.50
  Q 677.65 655.33 663.37 638.42
  Q 660.41 634.91 659.63 632.79
  Q 658.33 629.26 659.50 625.75
  Q 663.14 614.87 663.95 606.99
  Q 668.74 560.33 665.85 513.55
  Q 665.44 506.83 664.57 503.03
  Q 663.37 497.83 661.17 492.92
  Q 658.58 487.14 653.94 484.31
  Q 648.57 481.05 640.71 479.43
  Q 620.21 475.20 599.25 475.09
  Q 570.23 474.95 541.25 476.26
  Q 526.70 476.93 512.65 480.36
  Q 505.90 482.01 495.64 486.03
  Q 487.27 489.31 478.90 492.58
  Q 454.96 501.93 430.06 495.19
  Q 423.59 493.44 404.69 485.31
  Q 400.93 483.70 389.25 480.21
  Q 387.59 479.50 385.79 479.50
  Q 385.52 479.12 385.00 479.21
  Q 382.65 477.81 380.00 478.46
  Q 370.57 476.76 361.00 476.30
  Q 327.26 474.67 293.50 475.47
  Q 278.18 475.83 263.15 478.73
  Q 255.31 480.24 248.34 484.12
  Q 245.15 485.91 243.56 488.31
  Q 237.06 498.19 236.22 510.75
  Q 232.97 559.70 238.00 608.50
  Q 238.72 615.46 241.72 623.97
  Q 243.00 627.57 242.90 629.71
  Q 242.75 633.12 240.94 635.44
  Q 228.21 651.74 208.00 670.54
  L 203.04 661.00
  Q 201.57 658.04 200.73 654.85
  Q 200.37 653.47 199.38 650.79
  Q 198.63 648.76 198.44 646.56
  Q 198.32 645.20 197.44 642.56
  Q 195.26 636.04 194.21 629.25
  Q 194.43 626.67 193.54 624.25
  Q 193.52 623.21 192.79 622.50
  Q 190.29 606.98 189.25 591.29
  Q 189.99 589.27 189.04 587.25
  Q 187.74 560.50 189.04 533.75
  Q 190.28 530.34 189.54 526.75
  Q 191.28 503.26 197.25 474.50
  Q 199.79 462.25 202.66 452.51
  Q 205.57 442.61 208.88 433.50
  Q 220.86 400.54 245.44 376.69
  Q 257.32 365.16 272.96 355.39
  Q 280.97 350.39 290.47 345.77
  Q 322.16 330.34 358.25 323.25
  Q 387.28 317.55 408.28 314.95
  Q 458.50 308.75 508.00 298.21
  Q 510.20 298.35 512.25 297.54
  Q 518.62 295.92 524.99 294.35
  Q 525.07 294.33 528.31 293.28
  Q 533.57 291.57 536.19 296.56
  Q 539.61 303.09 538.96 312.00
  Z"
/>
<path fill="#716763" d="
  M 512.25 297.54
  Q 510.20 298.35 508.00 298.21
  Q 510.03 297.11 512.25 297.54
  Z"
/>
<path fill="#716763" d="
  M 538.96 312.00
  L 538.75 319.46
  Q 537.53 315.75 538.96 312.00
  Z"
/>
<path fill="#716763" d="
  M 550.25 318.79
  Q 545.11 320.62 539.72 319.65
  L 550.25 318.79
  Z"
/>
<path fill="#716763" d="
  M 628.29 345.00
  L 633.25 345.71
  Q 630.60 346.24 628.29 345.00
  Z"
/>
<path fill="#cfdfeb" d="
  M 987.80 426.73
  L 946.04 475.50
  L 926.98 475.84
  Q 919.42 472.76 914.06 468.69
  Q 905.12 461.89 902.54 450.30
  Q 901.24 444.43 900.36 438.48
  Q 899.94 435.64 898.68 433.05
  Q 897.77 431.17 896.94 433.09
  Q 895.93 435.45 895.48 438.29
  Q 894.93 441.82 894.12 445.30
  Q 892.75 451.19 892.45 452.23
  Q 890.59 458.85 886.29 464.03
  Q 883.03 467.96 877.37 471.52
  Q 871.69 475.08 866.69 476.44
  Q 860.51 478.11 857.75 479.75
  Q 854.14 481.89 856.80 484.43
  A 4.36 4.34 -18.2 0 0 859.13 485.60
  Q 866.20 486.79 872.29 488.35
  Q 878.45 489.92 883.55 493.71
  Q 885.62 495.26 887.31 498.19
  Q 891.49 505.43 893.57 512.67
  Q 893.92 513.88 894.25 517.91
  Q 894.54 521.49 896.45 524.51
  Q 897.86 526.75 899.18 524.45
  Q 901.12 521.07 901.46 517.29
  Q 901.83 513.22 902.25 511.80
  Q 905.19 501.89 909.94 495.69
  Q 913.39 491.18 920.75 489.54
  L 920.54 494.75
  L 920.50 504.72
  A 3.02 2.96 65.5 0 1 919.80 506.65
  L 851.65 587.41
  L 851.50 427.24
  A 0.53 0.53 -0.6 0 1 852.02 426.71
  Q 865.72 426.36 879.01 426.54
  Q 891.92 426.71 899.00 426.65
  Q 943.35 426.25 987.80 426.73
  Z"
/>
<path fill="#ffffff" d="
  M 1023.87 426.93
  Q 1005.33 452.44 985.26 475.67
  L 970.13 494.31
  Q 969.82 494.69 970.32 494.70
  Q 995.91 495.14 1021.50 495.10
  Q 1074.78 495.01 1128.06 495.00
  Q 1128.21 495.00 1146.93 494.85
  Q 1156.47 494.78 1166.00 495.00
  Q 1173.38 495.17 1180.74 494.78
  A 1.12 1.07 16.2 0 0 1181.55 494.36
  L 1195.96 475.50
  L 1233.52 426.61
  Q 1244.75 426.45 1256.02 426.62
  Q 1256.14 426.63 1262.84 426.43
  Q 1266.95 426.31 1271.20 427.08
  L 1215.22 500.22
  A 2.27 2.22 -26.7 0 0 1214.75 501.59
  L 1214.56 653.56
  A 0.51 0.50 89.4 0 1 1214.07 654.07
  Q 1189.14 654.57 1164.21 654.00
  L 1164.07 612.43
  A 0.51 0.49 0.0 0 0 1163.56 611.94
  L 1131.56 612.06
  A 1.02 1.00 18.0 0 0 1130.75 612.46
  L 1099.25 654.21
  Q 1091.09 664.03 1083.65 674.41
  Q 1079.09 680.79 1073.68 687.27
  A 2.19 2.17 -71.1 0 1 1072.10 688.05
  Q 1054.72 688.69 1037.31 688.24
  Q 1035.51 688.19 1036.58 686.74
  L 1060.62 654.33
  L 1092.55 612.33
  Q 1092.80 612.00 1092.39 612.00
  L 984.56 612.06
  A 0.50 0.49 -0.0 0 0 984.06 612.55
  L 984.04 654.00
  Q 952.61 654.57 921.18 654.07
  A 0.51 0.51 0.6 0 1 920.68 653.56
  L 920.50 554.37
  Q 920.50 552.53 919.33 553.95
  Q 886.61 593.53 851.75 632.79
  Q 851.30 632.39 851.31 630.81
  Q 851.53 605.94 851.25 591.50
  Q 851.20 588.79 851.65 587.41
  L 919.80 506.65
  A 3.02 2.96 65.5 0 0 920.50 504.72
  L 920.54 494.75
  L 928.87 494.75
  A 2.07 2.04 20.5 0 0 930.41 494.06
  L 937.48 485.91
  Q 937.95 485.37 937.24 485.47
  Q 928.64 486.64 920.75 489.54
  Q 913.39 491.18 909.94 495.69
  Q 905.19 501.89 902.25 511.80
  Q 901.83 513.22 901.46 517.29
  Q 901.12 521.07 899.18 524.45
  Q 897.86 526.75 896.45 524.51
  Q 894.54 521.49 894.25 517.91
  Q 893.92 513.88 893.57 512.67
  Q 891.49 505.43 887.31 498.19
  Q 885.62 495.26 883.55 493.71
  Q 878.45 489.92 872.29 488.35
  Q 866.20 486.79 859.13 485.60
  A 4.36 4.34 -18.2 0 1 856.80 484.43
  Q 854.14 481.89 857.75 479.75
  Q 860.51 478.11 866.69 476.44
  Q 871.69 475.08 877.37 471.52
  Q 883.03 467.96 886.29 464.03
  Q 890.59 458.85 892.45 452.23
  Q 892.75 451.19 894.12 445.30
  Q 894.93 441.82 895.48 438.29
  Q 895.93 435.45 896.94 433.09
  Q 897.77 431.17 898.68 433.05
  Q 899.94 435.64 900.36 438.48
  Q 901.24 444.43 902.54 450.30
  Q 905.12 461.89 914.06 468.69
  Q 919.42 472.76 926.98 475.84
  Q 933.14 477.26 938.52 480.27
  Q 939.66 480.91 939.77 482.61
  Q 939.81 483.17 940.16 482.74
  L 946.04 475.50
  L 987.80 426.73
  Q 988.59 426.50 990.75 426.50
  Q 1011.91 426.51 1023.87 426.93
  Z
  M 938.99 532.07
  L 967.09 532.24
  A 0.67 0.65 -89.6 0 0 967.75 531.57
  L 967.75 523.16
  A 0.66 0.66 0.0 0 0 967.09 522.50
  L 946.66 522.50
  A 1.13 1.06 18.5 0 0 945.81 522.89
  L 938.71 531.47
  Q 938.22 532.06 938.99 532.07
  Z
  M 1107.08 593.28
  L 1158.77 524.67
  Q 1159.08 524.25 1158.56 524.25
  L 984.57 524.31
  A 0.51 0.51 0.0 0 0 984.06 524.82
  L 984.00 593.49
  A 0.51 0.51 0.0 0 0 984.51 594.00
  L 1105.62 594.00
  A 1.84 1.79 18.0 0 0 1107.08 593.28
  Z
  M 967.75 541.00
  A 0.50 0.50 0.0 0 0 967.25 540.50
  L 937.27 540.50
  A 0.50 0.50 0.0 0 0 936.77 541.00
  L 936.77 549.56
  A 0.50 0.50 0.0 0 0 937.27 550.06
  L 967.25 550.06
  A 0.50 0.50 0.0 0 0 967.75 549.56
  L 967.75 541.00
  Z
  M 967.66 558.74
  A 0.48 0.48 0.0 0 0 967.18 558.26
  L 937.24 558.26
  A 0.48 0.48 0.0 0 0 936.76 558.74
  L 936.76 567.52
  A 0.48 0.48 0.0 0 0 937.24 568.00
  L 967.18 568.00
  A 0.48 0.48 0.0 0 0 967.66 567.52
  L 967.66 558.74
  Z
  M 1145.43 593.90
  Q 1155.38 594.27 1165.31 593.84
  A 0.54 0.53 -1.7 0 0 1165.82 593.31
  L 1165.75 566.49
  Q 1165.75 565.92 1165.40 566.38
  L 1147.19 590.44
  Q 1145.77 592.31 1145.06 593.06
  Q 1144.32 593.85 1145.43 593.90
  Z"
/>
<path fill="#cfdfeb" d="
  M 1233.52 426.61
  L 1195.96 475.50
  L 985.26 475.67
  Q 1005.33 452.44 1023.87 426.93
  Q 1024.64 426.53 1025.75 426.53
  Q 1129.61 426.42 1233.52 426.61
  Z"
/>
<path fill="#cfdfeb" d="
  M 1282.85 689.98
  L 851.54 690.00
  L 851.75 632.79
  Q 886.61 593.53 919.33 553.95
  Q 920.50 552.53 920.50 554.37
  L 920.68 653.56
  A 0.51 0.51 0.6 0 0 921.18 654.07
  Q 952.61 654.57 984.04 654.00
  L 1060.62 654.33
  L 1036.58 686.74
  Q 1035.51 688.19 1037.31 688.24
  Q 1054.72 688.69 1072.10 688.05
  A 2.19 2.17 -71.1 0 0 1073.68 687.27
  Q 1079.09 680.79 1083.65 674.41
  Q 1091.09 664.03 1099.25 654.21
  L 1164.21 654.00
  Q 1189.14 654.57 1214.07 654.07
  A 0.51 0.50 89.4 0 0 1214.56 653.56
  L 1214.75 501.59
  A 2.27 2.22 -26.7 0 1 1215.22 500.22
  L 1271.20 427.08
  Q 1275.07 426.14 1279.36 426.60
  Q 1279.46 426.61 1281.63 426.54
  Q 1283.27 426.49 1283.12 428.45
  Q 1283.00 429.96 1283.00 430.06
  Q 1283.11 559.99 1282.85 689.98
  Z"
/>
<path fill="#ffceb5" d="
  M 380.00 478.46
  L 385.00 479.21
  Q 385.52 479.12 385.79 479.50
  Q 387.25 480.76 389.25 480.21
  Q 400.93 483.70 404.69 485.31
  Q 423.59 493.44 430.06 495.19
  Q 454.96 501.93 478.90 492.58
  Q 487.27 489.31 495.64 486.03
  Q 505.90 482.01 512.65 480.36
  Q 526.70 476.93 541.25 476.26
  Q 570.23 474.95 599.25 475.09
  Q 620.21 475.20 640.71 479.43
  Q 648.57 481.05 653.94 484.31
  Q 658.58 487.14 661.17 492.92
  Q 663.37 497.83 664.57 503.03
  Q 665.44 506.83 665.85 513.55
  Q 668.74 560.33 663.95 606.99
  Q 663.14 614.87 659.50 625.75
  Q 658.33 629.26 659.63 632.79
  Q 660.41 634.91 663.37 638.42
  Q 677.65 655.33 693.79 670.50
  Q 693.99 679.17 693.75 681.50
  Q 692.74 691.16 691.97 700.83
  Q 691.05 712.29 690.13 720.13
  Q 688.75 731.95 687.32 743.76
  Q 683.66 774.06 675.45 803.44
  Q 661.06 851.78 628.90 890.65
  Q 614.43 908.14 597.56 923.31
  Q 579.18 939.84 557.31 951.36
  Q 534.59 963.32 510.60 972.49
  Q 494.37 978.55 483.75 980.25
  Q 460.01 984.06 432.71 981.95
  Q 421.96 981.12 412.95 979.07
  Q 401.90 976.54 391.25 972.54
  Q 372.92 965.44 350.56 954.44
  Q 323.40 941.07 301.69 921.06
  Q 280.24 901.31 262.48 876.82
  Q 238.56 843.85 226.96 804.76
  Q 226.69 803.84 225.75 803.71
  Q 226.37 803.27 226.00 802.00
  Q 219.80 780.75 216.27 755.67
  Q 215.32 748.90 213.68 735.85
  Q 211.10 715.30 208.75 687.25
  Q 207.81 676.08 208.00 670.54
  Q 228.21 651.74 240.94 635.44
  Q 242.75 633.12 242.90 629.71
  Q 243.00 627.57 241.72 623.97
  Q 238.72 615.46 238.00 608.50
  Q 232.97 559.70 236.22 510.75
  Q 237.06 498.19 243.56 488.31
  Q 245.15 485.91 248.34 484.12
  Q 255.31 480.24 263.15 478.73
  Q 278.18 475.83 293.50 475.47
  Q 327.26 474.67 361.00 476.30
  Q 370.57 476.76 380.00 478.46
  Z
  M 279.71 596.97
  A 3.33 3.33 50.1 0 0 281.58 597.14
  Q 297.36 593.94 311.49 593.14
  Q 327.98 592.21 344.50 592.59
  Q 359.86 592.94 374.84 596.26
  Q 379.53 597.31 381.22 596.98
  Q 384.92 596.25 386.29 591.93
  Q 387.68 587.58 385.50 584.00
  Q 382.51 579.09 376.71 576.75
  Q 369.08 573.66 361.03 572.69
  Q 355.45 572.02 344.95 572.11
  Q 317.29 572.34 291.38 582.54
  Q 285.75 584.76 280.96 588.45
  Q 278.27 590.52 277.75 592.75
  Q 277.02 595.89 279.71 596.97
  Z
  M 517.44 595.31
  Q 520.39 597.85 524.53 596.88
  Q 540.56 593.13 557.00 592.50
  Q 572.03 591.93 594.26 593.41
  Q 606.28 594.21 618.04 596.79
  Q 620.38 597.30 621.62 597.06
  Q 624.29 596.53 624.19 593.93
  Q 624.12 591.99 622.30 590.05
  Q 618.71 586.22 613.31 583.94
  Q 585.28 572.10 555.68 572.11
  Q 547.46 572.11 542.83 572.53
  Q 536.42 573.11 530.17 574.88
  Q 523.23 576.86 519.19 580.44
  Q 515.26 583.91 514.98 589.19
  Q 514.77 593.03 517.44 595.31
  Z
  M 313.91 658.18
  Q 310.33 668.64 311.01 679.50
  Q 311.69 690.50 315.80 700.52
  Q 318.56 707.24 321.92 710.69
  Q 326.51 715.42 332.94 716.31
  Q 341.22 717.45 348.78 712.42
  Q 357.01 706.94 360.00 696.25
  Q 363.74 682.87 361.50 669.54
  Q 367.28 669.29 367.75 663.75
  Q 368.33 656.90 364.24 650.75
  Q 355.72 637.94 340.24 636.59
  Q 330.70 635.76 323.06 638.56
  Q 305.57 644.99 298.41 662.54
  Q 297.60 664.52 297.34 666.04
  Q 296.91 668.45 297.50 669.75
  Q 298.82 672.66 301.38 672.28
  Q 303.01 672.04 304.54 670.35
  Q 305.87 668.86 306.69 667.19
  Q 309.30 661.85 313.91 658.18
  Z
  M 540.50 669.58
  Q 537.26 686.05 544.10 701.49
  Q 546.72 707.41 550.81 710.94
  Q 558.75 717.77 568.52 716.33
  Q 574.38 715.46 578.59 711.85
  Q 582.84 708.22 585.25 702.50
  Q 591.96 686.59 590.75 670.25
  Q 590.38 665.27 587.54 658.00
  Q 592.86 662.01 596.06 668.69
  Q 597.09 670.83 599.21 671.87
  Q 601.19 672.83 602.75 671.80
  Q 604.50 670.65 604.50 668.00
  Q 604.50 664.38 603.16 661.43
  Q 598.26 650.59 588.49 643.80
  Q 575.09 634.49 559.78 636.78
  Q 551.70 638.00 545.91 642.05
  Q 539.61 646.46 535.96 653.73
  Q 532.92 659.79 534.50 665.50
  Q 535.64 669.60 540.50 669.58
  Z
  M 422.41 793.86
  Q 424.79 795.53 427.55 796.47
  Q 452.36 804.89 476.69 795.36
  Q 482.45 793.10 483.07 788.40
  Q 483.43 785.62 480.63 785.39
  Q 450.21 782.86 421.04 785.47
  Q 418.02 785.74 418.81 788.67
  Q 419.69 791.94 422.41 793.86
  Z
  M 390.05 878.46
  Q 399.36 887.12 409.50 890.50
  Q 447.49 903.17 486.48 892.24
  Q 495.19 889.80 500.90 886.42
  Q 507.45 882.54 513.31 876.81
  Q 523.40 866.96 529.06 855.31
  Q 531.02 851.28 531.18 847.94
  A 1.68 1.21 -32.1 0 1 531.53 847.08
  Q 532.25 846.18 531.00 845.75
  Q 528.52 844.90 523.25 845.18
  Q 492.88 846.79 462.49 847.53
  Q 452.46 847.77 442.50 847.58
  Q 410.61 846.96 378.75 845.31
  Q 374.89 845.11 370.95 845.58
  A 0.62 0.62 -7.5 0 0 370.40 846.29
  Q 371.40 853.15 374.42 858.57
  Q 380.67 869.75 390.05 878.46
  Z"
/>
<path fill="#cb8589" d="
  M 946.04 475.50
  L 940.16 482.74
  Q 939.81 483.17 939.77 482.61
  Q 939.66 480.91 938.52 480.27
  Q 933.14 477.26 926.98 475.84
  L 946.04 475.50
  Z"
/>
<path fill="#cb8589" d="
  M 1195.96 475.50
  L 1181.55 494.36
  A 1.12 1.07 16.2 0 1 1180.74 494.78
  Q 1173.38 495.17 1166.00 495.00
  Q 1156.47 494.78 1146.93 494.85
  Q 1128.21 495.00 1128.06 495.00
  Q 1074.78 495.01 1021.50 495.10
  Q 995.91 495.14 970.32 494.70
  Q 969.82 494.69 970.13 494.31
  L 985.26 475.67
  L 1195.96 475.50
  Z"
/>
<path fill="#716763" d="
  M 385.00 479.21
  L 380.00 478.46
  Q 382.65 477.81 385.00 479.21
  Z"
/>
<path fill="#cb8589" d="
  M 385.79 479.50
  Q 387.59 479.50 389.25 480.21
  Q 387.25 480.76 385.79 479.50
  Z"
/>
<path fill="#cb8589" d="
  M 920.54 494.75
  L 920.75 489.54
  Q 928.64 486.64 937.24 485.47
  Q 937.95 485.37 937.48 485.91
  L 930.41 494.06
  A 2.07 2.04 20.5 0 1 928.87 494.75
  L 920.54 494.75
  Z"
/>
<path fill="#323244" d="
  M 938.99 532.07
  Q 938.22 532.06 938.71 531.47
  L 945.81 522.89
  A 1.13 1.06 18.5 0 1 946.66 522.50
  L 967.09 522.50
  A 0.66 0.66 0.0 0 1 967.75 523.16
  L 967.75 531.57
  A 0.67 0.65 -89.6 0 1 967.09 532.24
  L 938.99 532.07
  Z"
/>
<path fill="#72a276" d="
  M 1107.08 593.28
  A 1.84 1.79 18.0 0 1 1105.62 594.00
  L 984.51 594.00
  A 0.51 0.51 0.0 0 1 984.00 593.49
  L 984.06 524.82
  A 0.51 0.51 0.0 0 1 984.57 524.31
  L 1158.56 524.25
  Q 1159.08 524.25 1158.77 524.67
  L 1107.08 593.28
  Z"
/>
<path fill="#716763" d="
  M 189.54 526.75
  Q 190.28 530.34 189.04 533.75
  L 189.54 526.75
  Z"
/>
<rect fill="#323244" x="936.77" y="540.50" width="30.98" height="9.56" rx="0.50"/>
<rect fill="#323244" x="936.76" y="558.26" width="30.90" height="9.74" rx="0.48"/>
<path fill="#72a276" d="
  M 1145.43 593.90
  Q 1144.32 593.85 1145.06 593.06
  Q 1145.77 592.31 1147.19 590.44
  L 1165.40 566.38
  Q 1165.75 565.92 1165.75 566.49
  L 1165.82 593.31
  A 0.54 0.53 -1.7 0 1 1165.31 593.84
  Q 1155.38 594.27 1145.43 593.90
  Z"
/>
<path fill="#402523" d="
  M 279.71 596.97
  Q 277.02 595.89 277.75 592.75
  Q 278.27 590.52 280.96 588.45
  Q 285.75 584.76 291.38 582.54
  Q 317.29 572.34 344.95 572.11
  Q 355.45 572.02 361.03 572.69
  Q 369.08 573.66 376.71 576.75
  Q 382.51 579.09 385.50 584.00
  Q 387.68 587.58 386.29 591.93
  Q 384.92 596.25 381.22 596.98
  Q 379.53 597.31 374.84 596.26
  Q 359.86 592.94 344.50 592.59
  Q 327.98 592.21 311.49 593.14
  Q 297.36 593.94 281.58 597.14
  A 3.33 3.33 51.2 0 1 279.71 596.97
  Z"
/>
<path fill="#402523" d="
  M 517.44 595.31
  Q 514.77 593.03 514.98 589.19
  Q 515.26 583.91 519.19 580.44
  Q 523.23 576.86 530.17 574.88
  Q 536.42 573.11 542.83 572.53
  Q 547.46 572.11 555.68 572.11
  Q 585.28 572.10 613.31 583.94
  Q 618.71 586.22 622.30 590.05
  Q 624.12 591.99 624.19 593.93
  Q 624.29 596.53 621.62 597.06
  Q 620.38 597.30 618.04 596.79
  Q 606.28 594.21 594.26 593.41
  Q 572.03 591.93 557.00 592.50
  Q 540.56 593.13 524.53 596.88
  Q 520.39 597.85 517.44 595.31
  Z"
/>
<path fill="#716763" d="
  M 189.04 587.25
  Q 189.99 589.27 189.25 591.29
  L 189.04 587.25
  Z"
/>
<path fill="#50808e" d="
  M 1164.21 654.00
  L 1099.25 654.21
  L 1130.75 612.46
  A 1.02 1.00 18.0 0 1 1131.56 612.06
  L 1163.56 611.94
  A 0.51 0.49 0.0 0 1 1164.07 612.43
  L 1164.21 654.00
  Z"
/>
<path fill="#50808e" d="
  M 1060.62 654.33
  L 984.04 654.00
  L 984.06 612.55
  A 0.50 0.49 -0.0 0 1 984.56 612.06
  L 1092.39 612.00
  Q 1092.80 612.00 1092.55 612.33
  L 1060.62 654.33
  Z"
/>
<path fill="#72a276" d="
  M 192.79 622.50
  Q 193.52 623.21 193.54 624.25
  Q 193.62 624.88 193.29 625.25
  L 192.79 622.50
  Z"
/>
<path fill="#716763" d="
  M 193.54 624.25
  Q 194.43 626.67 194.21 629.25
  Q 193.26 627.36 193.29 625.25
  Q 193.62 624.88 193.54 624.25
  Z"
/>
<path fill="#402523" d="
  M 361.50 669.54
  Q 357.23 667.24 353.81 663.19
  Q 347.28 655.45 336.99 654.31
  Q 324.61 652.94 313.91 658.18
  Q 309.30 661.85 306.69 667.19
  Q 305.87 668.86 304.54 670.35
  Q 303.01 672.04 301.38 672.28
  Q 298.82 672.66 297.50 669.75
  Q 296.91 668.45 297.34 666.04
  Q 297.60 664.52 298.41 662.54
  Q 305.57 644.99 323.06 638.56
  Q 330.70 635.76 340.24 636.59
  Q 355.72 637.94 364.24 650.75
  Q 368.33 656.90 367.75 663.75
  Q 367.28 669.29 361.50 669.54
  Z"
/>
<path fill="#402523" d="
  M 587.54 658.00
  Q 582.23 655.29 576.47 654.53
  Q 570.37 653.72 565.03 654.13
  Q 556.95 654.74 551.31 660.06
  Q 543.70 667.25 540.50 669.58
  Q 535.64 669.60 534.50 665.50
  Q 532.92 659.79 535.96 653.73
  Q 539.61 646.46 545.91 642.05
  Q 551.70 638.00 559.78 636.78
  Q 575.09 634.49 588.49 643.80
  Q 598.26 650.59 603.16 661.43
  Q 604.50 664.38 604.50 668.00
  Q 604.50 670.65 602.75 671.80
  Q 601.19 672.83 599.21 671.87
  Q 597.09 670.83 596.06 668.69
  Q 592.86 662.01 587.54 658.00
  Z"
/>
<path fill="#da9588" d="
  M 203.04 661.00
  L 208.00 670.54
  Q 207.81 676.08 208.75 687.25
  Q 211.10 715.30 213.68 735.85
  Q 215.32 748.90 216.27 755.67
  Q 219.80 780.75 226.00 802.00
  Q 226.37 803.27 225.75 803.71
  Q 216.00 808.46 206.44 808.44
  Q 187.08 808.40 170.89 796.33
  Q 154.64 784.21 146.69 764.31
  Q 140.83 749.67 137.93 735.61
  Q 135.64 724.49 135.18 715.80
  Q 134.24 698.09 140.37 681.08
  Q 144.40 669.90 152.58 661.34
  Q 164.64 648.71 182.08 652.38
  Q 193.16 654.71 202.09 661.66
  Q 203.03 662.39 203.04 661.00
  Z"
/>
<path fill="#da9588" d="
  M 675.45 803.44
  Q 683.66 774.06 687.32 743.76
  Q 688.75 731.95 690.13 720.13
  Q 691.05 712.29 691.97 700.83
  Q 692.74 691.16 693.75 681.50
  Q 693.99 679.17 693.79 670.50
  L 698.66 662.15
  Q 711.42 652.73 725.25 651.50
  Q 732.24 650.88 738.85 653.90
  Q 744.46 656.45 749.63 661.92
  Q 755.36 668.00 759.56 676.19
  Q 760.40 677.83 760.54 678.94
  Q 760.61 679.51 760.80 679.88
  Q 763.06 684.26 764.50 691.50
  Q 767.14 704.73 766.57 714.74
  Q 764.72 747.48 750.50 774.25
  Q 739.34 795.26 715.94 804.76
  Q 715.87 804.79 715.71 804.90
  Q 715.52 805.02 715.31 804.95
  A 0.97 0.35 26.3 0 0 714.67 804.88
  Q 695.07 812.72 675.45 803.44
  Z"
/>
<path fill="#2b7e84" d="
  M 361.50 669.54
  Q 363.74 682.87 360.00 696.25
  Q 357.01 706.94 348.78 712.42
  Q 341.22 717.45 332.94 716.31
  Q 326.51 715.42 321.92 710.69
  Q 318.56 707.24 315.80 700.52
  Q 311.69 690.50 311.01 679.50
  Q 310.33 668.64 313.91 658.18
  Q 324.61 652.94 336.99 654.31
  Q 347.28 655.45 353.81 663.19
  Q 357.23 667.24 361.50 669.54
  Z"
/>
<path fill="#2b7e84" d="
  M 587.54 658.00
  Q 590.38 665.27 590.75 670.25
  Q 591.96 686.59 585.25 702.50
  Q 582.84 708.22 578.59 711.85
  Q 574.38 715.46 568.52 716.33
  Q 558.75 717.77 550.81 710.94
  Q 546.72 707.41 544.10 701.49
  Q 537.26 686.05 540.50 669.58
  Q 543.70 667.25 551.31 660.06
  Q 556.95 654.74 565.03 654.13
  Q 570.37 653.72 576.47 654.53
  Q 582.23 655.29 587.54 658.00
  Z"
/>
<path fill="#323244" d="
  M 851.54 690.00
  L 1282.85 689.98
  L 1282.96 721.49
  Q 1281.27 721.71 1276.19 721.69
  Q 1182.88 721.32 1002.50 721.50
  Q 937.24 721.56 914.62 721.89
  Q 910.50 720.44 906.91 720.30
  Q 901.13 718.83 897.13 721.47
  Q 889.42 716.52 881.25 718.25
  Q 876.97 719.15 871.94 721.46
  Q 861.74 722.23 851.52 721.38
  L 851.54 690.00
  Z"
/>
<path fill="#ffceb5" d="
  M 897.13 721.47
  Q 884.46 735.92 871.45 750.20
  Q 870.29 751.47 866.56 755.32
  Q 862.80 759.19 862.06 760.81
  Q 860.57 764.06 863.94 765.81
  Q 866.30 767.04 868.26 766.83
  A 1.60 1.23 -64.4 0 0 869.11 766.40
  Q 890.78 745.65 906.91 720.30
  Q 910.50 720.44 914.62 721.89
  Q 922.98 726.35 927.81 732.94
  Q 930.42 736.48 929.00 740.96
  Q 924.53 747.36 916.56 754.81
  Q 903.84 766.71 891.56 783.56
  Q 890.46 785.08 890.67 787.03
  Q 890.86 788.74 892.29 789.88
  Q 895.73 792.59 899.28 788.79
  Q 914.83 772.17 929.58 754.72
  Q 929.93 761.13 932.09 767.04
  Q 931.98 770.81 931.98 774.59
  Q 931.98 778.24 930.99 781.25
  Q 928.83 787.82 925.85 794.08
  Q 911.12 825.00 886.06 848.31
  Q 875.96 857.72 866.66 863.66
  Q 864.54 865.01 861.45 866.17
  Q 858.71 867.19 856.03 868.36
  A 1.81 1.76 5.3 0 0 855.27 868.97
  Q 843.79 884.65 827.69 900.19
  Q 779.22 946.94 750.89 973.63
  Q 750.81 973.70 738.04 985.80
  Q 712.20 1010.27 684.79 1032.97
  Q 674.20 1041.75 669.43 1045.77
  Q 653.58 1059.15 637.55 1072.43
  Q 633.75 1045.23 630.69 1018.31
  Q 629.64 1009.11 625.59 981.13
  Q 639.50 968.75 654.05 957.29
  Q 671.13 943.85 687.02 929.02
  Q 713.53 904.30 738.97 878.47
  Q 763.25 853.80 793.44 819.19
  Q 796.54 815.63 796.01 811.75
  Q 793.09 790.27 800.52 770.01
  Q 801.03 768.62 801.46 767.41
  Q 807.26 752.61 821.35 745.38
  Q 825.60 743.20 829.50 743.50
  Q 836.47 744.03 838.29 751.00
  Q 837.14 757.85 834.19 762.94
  Q 828.35 773.01 824.95 780.55
  A 0.93 0.91 40.9 0 0 825.02 781.42
  Q 834.93 796.69 833.80 815.02
  Q 833.79 815.10 833.64 816.48
  Q 833.19 820.62 836.95 820.25
  A 1.08 1.00 -75.0 0 0 837.71 819.77
  Q 840.72 815.17 841.25 811.50
  Q 842.50 802.84 840.05 791.99
  Q 838.66 785.86 834.51 780.55
  A 0.79 0.78 -48.4 0 1 834.46 779.65
  Q 835.72 777.64 837.30 775.87
  Q 839.98 772.87 840.37 772.33
  Q 849.05 760.32 843.76 745.80
  Q 855.59 731.33 871.94 721.46
  Q 876.97 719.15 881.25 718.25
  Q 889.42 716.52 897.13 721.47
  Z"
/>
<path fill="#bf6a5a" d="
  M 906.91 720.30
  Q 890.78 745.65 869.11 766.40
  A 1.60 1.23 -64.4 0 1 868.26 766.83
  Q 866.30 767.04 863.94 765.81
  Q 860.57 764.06 862.06 760.81
  Q 862.80 759.19 866.56 755.32
  Q 870.29 751.47 871.45 750.20
  Q 884.46 735.92 897.13 721.47
  Q 901.13 718.83 906.91 720.30
  Z"
/>
<path fill="#b36c50" d="
  M 851.52 721.38
  Q 861.74 722.23 871.94 721.46
  Q 855.59 731.33 843.76 745.80
  L 838.29 751.00
  Q 836.47 744.03 829.50 743.50
  Q 825.60 743.20 821.35 745.38
  Q 807.26 752.61 801.46 767.41
  L 777.42 767.25
  A 0.67 0.67 0.0 0 1 776.75 766.58
  L 776.75 722.33
  A 0.58 0.58 0.0 0 1 777.33 721.75
  Q 812.88 721.75 847.75 721.75
  Q 849.25 721.75 851.52 721.38
  Z"
/>
<path fill="#b36c50" d="
  M 1282.96 721.49
  Q 1291.56 721.41 1300.16 721.55
  Q 1310.44 721.72 1317.35 721.68
  Q 1346.55 721.52 1421.00 721.75
  Q 1434.02 721.79 1436.46 722.00
  Q 1436.38 744.55 1434.21 767.00
  Q 1431.67 767.25 1426.50 767.25
  Q 1187.50 767.25 948.50 767.11
  Q 940.49 767.10 932.09 767.04
  Q 929.93 761.13 929.58 754.72
  Q 930.34 748.47 930.02 742.18
  Q 930.00 741.68 929.73 741.42
  Q 929.43 741.11 929.00 740.96
  Q 930.42 736.48 927.81 732.94
  Q 922.98 726.35 914.62 721.89
  Q 937.24 721.56 1002.50 721.50
  Q 1182.88 721.32 1276.19 721.69
  Q 1281.27 721.71 1282.96 721.49
  Z"
/>
<path fill="#bf6a5a" d="
  M 929.00 740.96
  Q 929.43 741.11 929.73 741.42
  Q 930.00 741.68 930.02 742.18
  Q 930.34 748.47 929.58 754.72
  Q 914.83 772.17 899.28 788.79
  Q 895.73 792.59 892.29 789.88
  Q 890.86 788.74 890.67 787.03
  Q 890.46 785.08 891.56 783.56
  Q 903.84 766.71 916.56 754.81
  Q 924.53 747.36 929.00 740.96
  Z"
/>
<path fill="#bf6a5a" d="
  M 843.76 745.80
  Q 849.05 760.32 840.37 772.33
  Q 839.98 772.87 837.30 775.87
  Q 835.72 777.64 834.46 779.65
  A 0.79 0.78 -48.4 0 0 834.51 780.55
  Q 838.66 785.86 840.05 791.99
  Q 842.50 802.84 841.25 811.50
  Q 840.72 815.17 837.71 819.77
  A 1.08 1.00 -75.0 0 1 836.95 820.25
  Q 833.19 820.62 833.64 816.48
  Q 833.79 815.10 833.80 815.02
  Q 834.93 796.69 825.02 781.42
  A 0.93 0.91 40.9 0 1 824.95 780.55
  Q 828.35 773.01 834.19 762.94
  Q 837.14 757.85 838.29 751.00
  L 843.76 745.80
  Z"
/>
<path fill="#f3f2f1" d="
  M 932.09 767.04
  Q 940.49 767.10 948.50 767.11
  Q 1187.50 767.25 1426.50 767.25
  Q 1431.67 767.25 1434.21 767.00
  Q 1429.54 830.43 1412.31 893.56
  Q 1387.35 985.05 1337.50 1067.00
  Q 1312.98 1107.31 1284.46 1142.00
  L 1283.56 1142.00
  A 0.55 0.51 -89.5 0 1 1283.06 1141.45
  L 1283.00 903.27
  A 1.20 1.20 1.5 0 0 1281.86 902.07
  Q 1275.53 901.74 1271.27 902.36
  Q 1252.08 901.64 1233.47 902.12
  L 1023.82 902.14
  Q 1005.75 901.68 987.75 902.29
  Q 981.98 901.53 976.30 902.37
  Q 957.00 901.53 937.71 902.25
  L 852.26 902.01
  A 0.76 0.75 -89.6 0 0 851.50 902.77
  Q 851.50 953.62 851.48 1003.50
  Q 851.48 1003.93 851.79 1004.25
  L 851.55 1004.84
  Q 851.25 1005.55 851.25 1005.75
  L 851.53 1049.78
  L 851.79 1062.75
  Q 851.71 1062.91 851.58 1062.99
  A 0.52 0.29 -23.0 0 0 851.31 1063.34
  L 851.49 1106.76
  A 0.86 0.60 -84.5 0 0 851.92 1107.52
  Q 852.18 1107.60 852.50 1107.54
  Q 851.50 1108.46 851.50 1110.50
  Q 851.48 1138.13 851.53 1165.33
  L 851.51 1200.24
  L 777.42 1200.25
  A 0.67 0.66 0.0 0 0 776.75 1200.91
  L 776.75 1245.25
  A 0.50 0.50 0.0 0 0 777.25 1245.75
  Q 970.50 1245.75 1163.75 1245.75
  Q 1174.10 1245.75 1178.50 1246.29
  Q 1148.67 1270.00 1113.06 1291.81
  Q 1029.05 1343.28 933.78 1368.60
  Q 868.38 1385.98 798.75 1390.00
  Q 748.93 1392.88 702.00 1388.50
  Q 647.32 1383.40 601.75 1372.21
  Q 601.53 1363.97 600.25 1336.00
  Q 598.40 1295.65 597.80 1226.25
  Q 597.56 1199.59 596.94 1172.94
  Q 596.48 1153.31 594.70 1133.22
  A 1.62 1.60 -20.8 0 1 595.36 1131.78
  Q 618.11 1115.11 639.86 1097.07
  A 0.94 0.92 67.3 0 0 640.19 1096.24
  L 637.55 1072.43
  Q 653.58 1059.15 669.43 1045.77
  Q 674.20 1041.75 684.79 1032.97
  Q 712.20 1010.27 738.04 985.80
  Q 750.81 973.70 750.89 973.63
  Q 779.22 946.94 827.69 900.19
  Q 843.79 884.65 855.27 868.97
  A 1.81 1.76 5.3 0 1 856.03 868.36
  Q 858.71 867.19 861.45 866.17
  Q 864.54 865.01 866.66 863.66
  Q 875.96 857.72 886.06 848.31
  Q 911.12 825.00 925.85 794.08
  Q 928.83 787.82 930.99 781.25
  Q 931.98 778.24 931.98 774.59
  Q 931.98 770.81 932.09 767.04
  Z"
/>
<path fill="#da9588" d="
  M 422.41 793.86
  Q 419.69 791.94 418.81 788.67
  Q 418.02 785.74 421.04 785.47
  Q 450.21 782.86 480.63 785.39
  Q 483.43 785.62 483.07 788.40
  Q 482.45 793.10 476.69 795.36
  Q 452.36 804.89 427.55 796.47
  Q 424.79 795.53 422.41 793.86
  Z"
/>
<path fill="#ffffff" d="
  M 390.05 878.46
  Q 380.67 869.75 374.42 858.57
  Q 371.40 853.15 370.40 846.29
  A 0.62 0.62 -7.5 0 1 370.95 845.58
  Q 374.89 845.11 378.75 845.31
  Q 410.61 846.96 442.50 847.58
  Q 452.46 847.77 462.49 847.53
  Q 492.88 846.79 523.25 845.18
  Q 528.52 844.90 531.00 845.75
  Q 532.25 846.18 531.53 847.08
  A 1.68 1.21 -32.1 0 0 531.18 847.94
  Q 531.02 851.28 529.06 855.31
  Q 523.40 866.96 513.31 876.81
  Q 507.45 882.54 500.90 886.42
  Q 495.19 889.80 486.48 892.24
  Q 447.49 903.17 409.50 890.50
  Q 399.36 887.12 390.05 878.46
  Z"
/>
<path fill="#cfdfeb" d="
  M 937.71 902.25
  Q 893.41 952.12 851.79 1004.25
  Q 851.48 1003.93 851.48 1003.50
  Q 851.50 953.62 851.50 902.77
  A 0.76 0.75 -89.6 0 1 852.26 902.01
  L 937.71 902.25
  Z"
/>
<path fill="#ffffff" d="
  M 976.30 902.37
  L 935.57 950.12
  Q 935.24 950.50 935.74 950.56
  Q 940.97 951.11 946.20 950.50
  A 1.27 1.25 -73.2 0 0 947.01 950.06
  L 987.75 902.29
  Q 1005.75 901.68 1023.82 902.14
  Q 1005.91 927.02 986.28 950.14
  Q 985.77 950.75 986.57 950.75
  L 1195.37 950.75
  A 1.40 1.39 -71.3 0 0 1196.48 950.20
  L 1233.47 902.12
  Q 1252.08 901.64 1271.27 902.36
  L 1215.22 975.72
  A 2.27 2.22 -26.7 0 0 1214.75 977.09
  L 1214.75 1080.75
  Q 1214.75 1081.98 1215.79 1081.31
  Q 1225.86 1074.84 1229.00 1062.86
  Q 1230.90 1055.61 1232.13 1048.22
  Q 1232.51 1045.90 1233.44 1044.05
  Q 1234.18 1042.59 1234.93 1044.04
  Q 1236.39 1046.87 1236.80 1049.99
  Q 1237.44 1054.84 1238.46 1059.61
  Q 1239.65 1065.18 1242.27 1070.11
  Q 1244.81 1074.91 1249.21 1078.63
  Q 1256.87 1085.10 1266.77 1087.95
  Q 1273.65 1089.92 1274.94 1091.31
  Q 1277.35 1093.92 1275.23 1095.58
  Q 1274.28 1096.32 1271.95 1096.72
  Q 1259.83 1098.79 1252.31 1102.31
  Q 1246.92 1104.84 1244.06 1110.31
  Q 1240.90 1116.35 1238.92 1121.47
  Q 1237.69 1124.62 1237.72 1128.00
  Q 1237.76 1132.03 1235.81 1135.23
  Q 1234.17 1137.93 1232.57 1135.20
  Q 1231.62 1133.58 1231.13 1131.80
  Q 1230.89 1130.95 1230.68 1128.16
  Q 1230.34 1123.71 1228.44 1119.06
  Q 1226.04 1113.19 1223.20 1108.58
  Q 1221.74 1106.21 1219.90 1104.77
  Q 1217.93 1103.24 1215.57 1102.07
  A 0.57 0.56 13.4 0 0 1214.75 1102.57
  L 1214.75 1128.83
  A 0.67 0.67 0.0 0 1 1214.08 1129.50
  L 1099.86 1129.49
  A 1.57 1.57 -71.2 0 0 1098.62 1130.10
  L 1073.06 1163.56
  A 2.90 0.97 -57.0 0 1 1071.25 1165.00
  L 1059.50 1165.21
  L 1035.75 1165.21
  Q 1036.15 1163.01 1037.46 1161.20
  Q 1048.77 1145.56 1060.45 1130.18
  Q 1060.91 1129.56 1060.14 1129.56
  Q 1034.67 1129.61 1009.17 1129.53
  Q 1005.27 1129.51 994.34 1129.77
  Q 986.92 1129.94 979.49 1129.73
  Q 975.75 1129.62 972.00 1129.60
  Q 947.00 1129.41 921.08 1129.50
  A 0.57 0.57 -0.5 0 1 920.50 1128.93
  L 920.44 1029.09
  Q 920.44 1028.04 919.76 1028.85
  Q 886.63 1068.70 852.50 1107.54
  Q 852.18 1107.60 851.92 1107.52
  A 0.86 0.60 -84.5 0 1 851.49 1106.76
  L 851.31 1063.34
  A 0.52 0.29 -23.0 0 1 851.58 1062.99
  Q 851.71 1062.91 851.79 1062.75
  L 920.18 981.38
  A 1.37 1.34 -25.4 0 0 920.50 980.51
  L 920.50 969.14
  Q 920.50 968.03 919.79 968.89
  Q 896.37 997.49 872.51 1026.27
  Q 862.56 1038.28 851.53 1049.78
  L 851.25 1005.75
  Q 851.25 1005.55 851.55 1004.84
  L 851.79 1004.25
  Q 893.41 952.12 937.71 902.25
  Q 957.00 901.53 976.30 902.37
  Z
  M 968.17 972.56
  L 1178.69 972.69
  A 1.35 1.23 21.8 0 0 1179.57 972.36
  Q 1181.65 970.44 1181.40 967.49
  Q 1181.25 965.75 1181.25 964.12
  A 0.37 0.37 90.0 0 0 1180.88 963.75
  L 975.81 963.75
  A 1.85 1.75 -68.7 0 0 974.45 964.39
  L 967.94 972.04
  Q 967.49 972.56 968.17 972.56
  Z
  M 1014.40 1114.10
  Q 1014.76 1114.32 1015.11 1114.25
  A 0.71 0.53 86.8 0 0 1015.56 1113.57
  L 1015.57 988.94
  A 0.52 0.51 0.6 0 0 1015.06 988.43
  Q 986.58 988.11 958.10 988.25
  Q 958.07 988.25 956.39 988.13
  Q 953.69 987.95 952.33 990.41
  Q 952.12 990.79 951.84 991.13
  A 1.50 1.23 -29.4 0 0 951.50 992.01
  L 951.50 1113.76
  A 0.43 0.43 -90.0 0 0 951.93 1114.19
  L 1013.85 1114.19
  A 0.25 0.09 -48.8 0 0 1014.00 1114.11
  L 1014.07 1114.06
  A 0.35 0.19 35.2 0 1 1014.40 1114.10
  Z
  M 1073.08 1113.44
  L 1100.17 1077.89
  A 3.72 3.66 -26.6 0 0 1100.94 1075.64
  L 1101.00 989.06
  A 0.81 0.81 0.0 0 0 1100.19 988.25
  L 1037.12 988.25
  A 0.37 0.37 -90.0 0 0 1036.75 988.62
  L 1036.75 1113.48
  A 0.80 0.79 0.0 0 0 1037.55 1114.27
  L 1071.94 1114.00
  A 1.44 1.39 17.8 0 0 1073.08 1113.44
  Z
  M 1121.92 1049.08
  L 1167.17 988.71
  Q 1167.51 988.25 1166.93 988.25
  L 1121.80 988.25
  A 0.55 0.55 0.0 0 0 1121.25 988.80
  L 1121.31 1048.88
  Q 1121.31 1049.89 1121.92 1049.08
  Z
  M 1179.03 1114.28
  Q 1182.00 1114.42 1184.95 1114.01
  A 0.58 0.57 86.0 0 0 1185.44 1113.44
  L 1185.50 1016.24
  Q 1185.50 1015.03 1184.77 1016.00
  L 1121.80 1099.60
  A 1.67 1.24 -33.2 0 0 1121.47 1100.50
  L 1121.29 1113.49
  A 0.52 0.50 0.5 0 0 1121.81 1114.00
  Q 1148.25 1113.96 1173.84 1114.05
  Q 1173.92 1114.05 1179.03 1114.28
  Z"
/>
<path fill="#cfdfeb" d="
  M 987.75 902.29
  L 947.01 950.06
  A 1.27 1.25 -73.2 0 1 946.20 950.50
  Q 940.97 951.11 935.74 950.56
  Q 935.24 950.50 935.57 950.12
  L 976.30 902.37
  Q 981.98 901.53 987.75 902.29
  Z"
/>
<path fill="#cfdfeb" d="
  M 1233.47 902.12
  L 1196.48 950.20
  A 1.40 1.39 -71.3 0 1 1195.37 950.75
  L 986.57 950.75
  Q 985.77 950.75 986.28 950.14
  Q 1005.91 927.02 1023.82 902.14
  L 1233.47 902.12
  Z"
/>
<path fill="#cfdfeb" d="
  M 1284.46 1142.00
  Q 1274.81 1154.28 1264.25 1165.79
  Q 1260.32 1165.23 1253.25 1165.25
  Q 1222.40 1165.33 1059.50 1165.21
  L 1071.25 1165.00
  A 2.90 0.97 -57.0 0 0 1073.06 1163.56
  L 1098.62 1130.10
  A 1.57 1.57 -71.2 0 1 1099.86 1129.49
  L 1214.08 1129.50
  A 0.67 0.67 0.0 0 0 1214.75 1128.83
  L 1214.75 1102.57
  A 0.57 0.56 13.4 0 1 1215.57 1102.07
  Q 1217.93 1103.24 1219.90 1104.77
  Q 1221.74 1106.21 1223.20 1108.58
  Q 1226.04 1113.19 1228.44 1119.06
  Q 1230.34 1123.71 1230.68 1128.16
  Q 1230.89 1130.95 1231.13 1131.80
  Q 1231.62 1133.58 1232.57 1135.20
  Q 1234.17 1137.93 1235.81 1135.23
  Q 1237.76 1132.03 1237.72 1128.00
  Q 1237.69 1124.62 1238.92 1121.47
  Q 1240.90 1116.35 1244.06 1110.31
  Q 1246.92 1104.84 1252.31 1102.31
  Q 1259.83 1098.79 1271.95 1096.72
  Q 1274.28 1096.32 1275.23 1095.58
  Q 1277.35 1093.92 1274.94 1091.31
  Q 1273.65 1089.92 1266.77 1087.95
  Q 1256.87 1085.10 1249.21 1078.63
  Q 1244.81 1074.91 1242.27 1070.11
  Q 1239.65 1065.18 1238.46 1059.61
  Q 1237.44 1054.84 1236.80 1049.99
  Q 1236.39 1046.87 1234.93 1044.04
  Q 1234.18 1042.59 1233.44 1044.05
  Q 1232.51 1045.90 1232.13 1048.22
  Q 1230.90 1055.61 1229.00 1062.86
  Q 1225.86 1074.84 1215.79 1081.31
  Q 1214.75 1081.98 1214.75 1080.75
  L 1214.75 977.09
  A 2.27 2.22 -26.7 0 1 1215.22 975.72
  L 1271.27 902.36
  Q 1275.53 901.74 1281.86 902.07
  A 1.20 1.20 1.5 0 1 1283.00 903.27
  L 1283.06 1141.45
  A 0.55 0.51 -89.5 0 0 1283.56 1142.00
  L 1284.46 1142.00
  Z"
/>
<path fill="#323244" d="
  M 968.17 972.56
  Q 967.49 972.56 967.94 972.04
  L 974.45 964.39
  A 1.85 1.75 -68.7 0 1 975.81 963.75
  L 1180.88 963.75
  A 0.37 0.37 -90.0 0 1 1181.25 964.12
  Q 1181.25 965.75 1181.40 967.49
  Q 1181.65 970.44 1179.57 972.36
  A 1.35 1.23 21.8 0 1 1178.69 972.69
  L 968.17 972.56
  Z"
/>
<path fill="#cfdfeb" d="
  M 851.79 1062.75
  L 851.53 1049.78
  Q 862.56 1038.28 872.51 1026.27
  Q 896.37 997.49 919.79 968.89
  Q 920.50 968.03 920.50 969.14
  L 920.50 980.51
  A 1.37 1.34 -25.4 0 1 920.18 981.38
  L 851.79 1062.75
  Z"
/>
<path fill="#da9588" d="
  M 391.25 972.54
  Q 401.90 976.54 412.95 979.07
  Q 421.96 981.12 432.71 981.95
  Q 460.01 984.06 483.75 980.25
  Q 494.37 978.55 510.60 972.49
  Q 511.08 982.20 510.46 991.25
  Q 492.17 1003.92 470.57 1009.35
  Q 462.63 1011.35 454.56 1012.69
  Q 450.98 1013.29 447.43 1012.72
  Q 432.50 1010.36 418.26 1005.22
  Q 404.53 1000.28 392.55 991.93
  A 2.91 2.89 17.3 0 1 391.30 989.57
  L 391.21 974.50
  L 391.25 972.54
  Z"
/>
<path fill="#323244" d="
  M 625.59 981.13
  Q 629.64 1009.11 630.69 1018.31
  Q 633.75 1045.23 637.55 1072.43
  L 640.19 1096.24
  A 0.94 0.92 67.3 0 1 639.86 1097.07
  Q 618.11 1115.11 595.36 1131.78
  A 1.62 1.60 -20.8 0 0 594.70 1133.22
  Q 596.48 1153.31 596.94 1172.94
  Q 597.56 1199.59 597.80 1226.25
  Q 598.40 1295.65 600.25 1336.00
  Q 601.53 1363.97 601.75 1372.21
  Q 572.95 1365.45 547.94 1357.06
  Q 508.01 1343.67 467.76 1324.40
  Q 394.77 1289.47 331.31 1237.44
  Q 281.53 1196.61 241.50 1148.04
  Q 244.83 1142.63 250.06 1132.56
  Q 266.37 1101.17 290.14 1073.77
  Q 297.20 1065.63 303.92 1059.29
  Q 336.89 1028.17 380.62 1013.33
  Q 395.13 1033.55 412.67 1051.07
  Q 429.46 1067.83 450.50 1078.71
  A 0.98 0.96 -44.4 0 0 451.39 1078.71
  Q 466.91 1070.84 479.44 1059.94
  Q 498.02 1043.75 513.55 1023.58
  Q 516.34 1019.96 517.26 1016.73
  Q 518.37 1012.84 518.33 1008.86
  Q 525.99 1006.90 540.00 1001.50
  Q 552.81 996.56 623.47 973.46
  A 0.45 0.43 75.5 0 1 624.03 973.81
  L 625.59 981.13
  Z"
/>
<path fill="#ffceb5" d="
  M 391.21 974.50
  L 391.30 989.57
  A 2.91 2.89 17.3 0 0 392.55 991.93
  Q 404.53 1000.28 418.26 1005.22
  Q 432.50 1010.36 447.43 1012.72
  Q 450.98 1013.29 454.56 1012.69
  Q 462.63 1011.35 470.57 1009.35
  Q 492.17 1003.92 510.46 991.25
  L 510.73 1009.62
  A 0.69 0.65 83.8 0 0 511.52 1010.29
  L 518.33 1008.86
  Q 518.37 1012.84 517.26 1016.73
  Q 516.34 1019.96 513.55 1023.58
  Q 498.02 1043.75 479.44 1059.94
  Q 466.91 1070.84 451.39 1078.71
  A 0.98 0.96 -44.4 0 1 450.50 1078.71
  Q 429.46 1067.83 412.67 1051.07
  Q 395.13 1033.55 380.62 1013.33
  Q 385.29 1011.23 390.21 1010.57
  A 1.25 1.23 86.3 0 0 391.28 1009.33
  L 391.21 974.50
  Z"
/>
<path fill="#cb8589" d="
  M 1014.07 1114.06
  L 1014.00 1114.11
  A 0.25 0.09 -48.8 0 1 1013.85 1114.19
  L 951.93 1114.19
  A 0.43 0.43 90.0 0 1 951.50 1113.76
  L 951.50 992.01
  A 1.50 1.23 -29.4 0 1 951.84 991.13
  Q 952.12 990.79 952.33 990.41
  Q 953.69 987.95 956.39 988.13
  Q 958.07 988.25 958.10 988.25
  Q 986.58 988.11 1015.06 988.43
  A 0.52 0.51 0.6 0 1 1015.57 988.94
  L 1015.56 1113.57
  A 0.71 0.53 86.8 0 1 1015.11 1114.25
  Q 1014.76 1114.32 1014.40 1114.10
  A 0.35 0.19 35.2 0 0 1014.07 1114.06
  Z"
/>
<path fill="#50808e" d="
  M 1073.08 1113.44
  A 1.44 1.39 17.8 0 1 1071.94 1114.00
  L 1037.55 1114.27
  A 0.80 0.79 -0.0 0 1 1036.75 1113.48
  L 1036.75 988.62
  A 0.37 0.37 90.0 0 1 1037.12 988.25
  L 1100.19 988.25
  A 0.81 0.81 0.0 0 1 1101.00 989.06
  L 1100.94 1075.64
  A 3.72 3.66 -26.6 0 1 1100.17 1077.89
  L 1073.08 1113.44
  Z"
/>
<path fill="#bf6d51" d="
  M 1121.92 1049.08
  Q 1121.31 1049.89 1121.31 1048.88
  L 1121.25 988.80
  A 0.55 0.55 0.0 0 1 1121.80 988.25
  L 1166.93 988.25
  Q 1167.51 988.25 1167.17 988.71
  L 1121.92 1049.08
  Z"
/>
<path fill="#bf6d51" d="
  M 1173.84 1114.05
  Q 1148.25 1113.96 1121.81 1114.00
  A 0.52 0.50 0.5 0 1 1121.29 1113.49
  L 1121.47 1100.50
  A 1.67 1.24 -33.2 0 1 1121.80 1099.60
  L 1184.77 1016.00
  Q 1185.50 1015.03 1185.50 1016.24
  L 1185.44 1113.44
  A 0.58 0.57 86.0 0 1 1184.95 1114.01
  Q 1182.00 1114.42 1179.03 1114.28
  Q 1173.92 1114.05 1173.84 1114.05
  Z"
/>
<path fill="#cfdfeb" d="
  M 1035.75 1165.21
  L 851.53 1165.33
  Q 851.48 1138.13 851.50 1110.50
  Q 851.50 1108.46 852.50 1107.54
  Q 886.63 1068.70 919.76 1028.85
  Q 920.44 1028.04 920.44 1029.09
  L 920.50 1128.93
  A 0.57 0.57 -0.5 0 0 921.08 1129.50
  Q 947.00 1129.41 972.00 1129.60
  Q 975.75 1129.62 979.49 1129.73
  Q 986.92 1129.94 994.34 1129.77
  Q 1005.27 1129.51 1009.17 1129.53
  Q 1034.67 1129.61 1060.14 1129.56
  Q 1060.91 1129.56 1060.45 1130.18
  Q 1048.77 1145.56 1037.46 1161.20
  Q 1036.15 1163.01 1035.75 1165.21
  Z"
/>
<path fill="#323244" d="
  M 1059.50 1165.21
  Q 1222.40 1165.33 1253.25 1165.25
  Q 1260.32 1165.23 1264.25 1165.79
  Q 1248.56 1184.03 1231.04 1200.50
  Q 1228.61 1200.25 1224.25 1200.25
  Q 1037.88 1200.26 851.51 1200.24
  L 851.53 1165.33
  L 1035.75 1165.21
  L 1059.50 1165.21
  Z"
/>
<path fill="#b36c50" d="
  M 851.51 1200.24
  Q 1037.88 1200.26 1224.25 1200.25
  Q 1228.61 1200.25 1231.04 1200.50
  Q 1206.01 1224.82 1178.50 1246.29
  Q 1174.10 1245.75 1163.75 1245.75
  Q 970.50 1245.75 777.25 1245.75
  A 0.50 0.50 0.0 0 1 776.75 1245.25
  L 776.75 1200.91
  A 0.67 0.66 0.0 0 1 777.42 1200.25
  L 851.51 1200.24
  Z"
/>
</svg>
