<?xml version="1.0" encoding="UTF-8" standalone="no"?>
<!DOCTYPE svg PUBLIC "-//W3C//DTD SVG 1.1//EN" "http://www.w3.org/Graphics/SVG/1.1/DTD/svg11.dtd">
<svg xmlns="http://www.w3.org/2000/svg" version="1.1" viewBox="0 0 1162 1161">
<g stroke-width="0.30" fill="none" stroke-linecap="butt">
<path stroke="#93929b" vector-effect="non-scaling-stroke" d="
  M 833.00 1097.79
  Q 820.04 1081.63 806.19 1069.31
  Q 776.09 1042.56 739.28 1024.30
  Q 730.79 1020.10 721.18 1015.78
  Q 709.44 1010.51 696.06 1005.44
  Q 681.22 999.82 667.09 996.98"
/>
<path stroke="#f9e0d3" vector-effect="non-scaling-stroke" d="
  M 667.09 996.98
  L 655.18 995.38
  A 0.58 0.57 -86.0 0 1 654.69 994.81
  L 654.51 971.49"
/>
<path stroke="#e7c4bd" vector-effect="non-scaling-stroke" d="
  M 654.51 971.49
  L 654.62 948.54"
/>
<path stroke="#f9e0d3" vector-effect="non-scaling-stroke" d="
  M 654.62 948.54
  Q 673.13 941.58 698.81 929.31
  Q 738.83 910.20 769.13 881.12
  Q 787.26 863.71 801.44 846.44
  Q 839.57 799.96 857.02 741.51
  Q 857.19 740.95 857.75 740.96"
/>
<path stroke="#e7c4bd" vector-effect="non-scaling-stroke" d="
  M 857.75 740.96
  Q 869.19 746.46 880.75 746.75
  Q 900.37 747.24 918.01 736.97
  Q 938.03 725.33 949.13 705.76
  Q 953.06 698.84 957.45 687.61
  Q 967.63 661.61 969.58 633.51
  Q 971.56 604.87 958.23 579.67
  Q 953.55 570.83 946.23 564.02
  Q 936.87 555.29 924.97 553.92
  Q 916.02 552.88 905.35 556.57
  Q 894.59 560.28 885.41 567.48"
/>
<path stroke="#9a8c8a" vector-effect="non-scaling-stroke" d="
  M 885.41 567.48
  Q 886.93 563.49 888.33 559.67
  Q 889.80 555.65 890.90 551.74
  Q 901.71 513.26 903.41 473.25
  Q 904.61 445.03 904.00 423.00
  Q 903.02 387.88 896.44 351.51
  Q 894.37 340.06 892.59 331.88
  Q 886.50 303.83 875.54 277.23
  Q 866.16 254.44 851.29 234.87
  Q 846.95 229.16 846.39 228.49
  Q 843.91 225.50 840.76 222.70
  A 2.05 2.05 -54.2 0 1 840.35 220.14
  Q 847.15 208.45 848.27 194.23
  Q 848.65 189.39 847.26 184.75
  Q 846.28 181.43 842.25 181.25
  Q 813.70 179.95 784.37 173.71
  A 0.64 0.64 18.2 0 1 783.92 172.82
  Q 787.49 164.53 788.57 156.26
  Q 789.54 148.77 787.52 141.65
  Q 786.57 138.28 784.91 137.04
  Q 782.75 135.43 779.25 135.75
  Q 758.95 137.63 751.51 138.79
  Q 721.29 143.51 689.76 145.31
  A 1.00 0.99 3.2 0 1 688.72 144.15
  Q 691.09 130.62 686.47 118.07
  Q 685.51 115.45 684.46 114.31
  Q 682.77 112.47 680.35 112.47
  Q 679.79 112.47 674.67 113.67
  Q 606.16 129.70 536.31 138.31
  Q 514.12 141.04 474.94 148.19
  Q 429.41 156.49 390.10 174.30
  Q 380.57 178.62 372.25 183.30
  Q 357.30 191.70 344.19 201.69
  Q 309.43 228.16 290.69 268.12
  Q 279.69 291.59 273.50 315.25
  Q 260.61 364.57 258.47 416.76
  Q 257.41 442.75 258.35 468.75
  Q 258.78 480.85 260.50 497.00
  Q 263.88 528.76 273.00 558.00
  Q 274.15 561.70 276.75 567.46"
/>
<path stroke="#e7c4bd" vector-effect="non-scaling-stroke" d="
  M 276.75 567.46
  Q 272.34 564.64 267.91 561.86
  Q 257.05 555.03 244.23 553.94
  Q 231.64 552.87 222.56 558.81
  Q 205.58 569.93 198.50 590.75
  Q 193.31 606.02 192.38 620.76
  Q 191.84 629.43 193.09 640.71
  Q 196.62 672.75 210.96 701.87
  Q 219.23 718.68 234.25 730.50
  Q 250.44 743.24 270.57 746.17
  Q 288.19 748.73 304.75 740.67"
/>
<path stroke="#f9e0d3" vector-effect="non-scaling-stroke" d="
  M 304.75 740.67
  Q 315.01 775.07 331.06 803.44
  Q 350.04 836.98 378.05 866.30
  Q 385.83 874.44 392.11 880.53
  Q 419.44 907.02 453.47 924.56
  Q 479.68 938.06 507.25 948.54"
/>
<path stroke="#e7c4bd" vector-effect="non-scaling-stroke" d="
  M 507.25 948.54
  L 507.54 971.25"
/>
<path stroke="#f9e0d3" vector-effect="non-scaling-stroke" d="
  M 507.54 971.25
  Q 506.89 981.62 507.62 993.98
  A 1.44 1.35 -6.2 0 1 506.40 995.40
  L 494.28 997.34"
/>
<path stroke="#93929b" vector-effect="non-scaling-stroke" d="
  M 494.28 997.34
  Q 486.44 998.47 478.75 1001.00
  Q 437.77 1014.47 400.22 1036.73
  Q 391.16 1042.11 383.41 1047.55
  Q 368.51 1058.00 354.93 1070.17
  Q 340.83 1082.81 329.25 1097.79"
/>
<path stroke="#edb29f" vector-effect="non-scaling-stroke" d="
  M 880.21 577.25
  Q 879.90 588.42 879.75 590.50
  Q 877.85 617.03 873.68 652.24
  Q 869.18 690.14 865.25 708.75
  Q 861.25 727.72 858.19 737.69
  Q 857.48 739.98 857.75 740.96"
/>
<path stroke="#edb29f" vector-effect="non-scaling-stroke" d="
  M 654.62 948.54
  Q 634.60 956.22 620.00 958.50
  Q 609.68 960.11 599.25 960.56
  Q 579.60 961.40 559.97 960.39
  Q 549.08 959.82 540.14 958.05
  Q 523.32 954.72 507.25 948.54"
/>
<path stroke="#edb29f" vector-effect="non-scaling-stroke" d="
  M 304.75 740.67
  Q 297.34 715.49 293.25 688.50
  Q 286.36 642.98 283.00 599.00
  Q 281.88 584.33 281.79 577.29"
/>
<path stroke="#99807d" vector-effect="non-scaling-stroke" d="
  M 667.09 996.98
  Q 667.02 998.76 666.00 1000.25
  Q 642.85 1034.12 612.12 1059.46
  Q 604.57 1065.68 597.35 1070.34
  Q 589.68 1075.29 581.45 1079.56
  A 1.02 1.00 44.4 0 1 580.54 1079.56
  Q 557.48 1067.62 538.81 1049.94
  Q 511.72 1024.28 494.28 997.34"
/>
<path stroke="#edb29f" vector-effect="non-scaling-stroke" d="
  M 654.51 971.49
  Q 632.85 986.83 607.25 993.48
  Q 602.65 994.68 584.06 998.56
  Q 580.71 999.27 578.08 998.66
  Q 575.45 998.05 575.36 998.04
  Q 548.15 993.80 523.58 981.41
  Q 515.06 977.11 507.54 971.25"
/>
<path stroke="#8d5d56" vector-effect="non-scaling-stroke" d="
  M 885.41 567.48
  L 880.21 577.25"
/>
<path stroke="#a07a6c" vector-effect="non-scaling-stroke" d="
  M 880.21 577.25
  Q 859.24 557.92 840.97 536.02
  Q 834.81 528.64 838.81 518.81
  Q 841.93 511.16 843.15 499.24
  Q 848.13 450.49 846.34 401.54
  Q 845.82 387.20 845.71 385.46
  Q 845.13 376.09 843.50 369.50
  Q 840.86 358.84 836.19 352.81
  Q 832.88 348.55 827.00 346.00
  Q 818.84 342.46 812.21 341.19
  Q 792.04 337.31 771.50 336.93
  Q 731.98 336.22 692.50 337.92
  Q 661.41 339.25 632.80 351.28
  Q 614.58 358.94 609.50 360.50
  Q 578.60 370.02 548.36 358.82
  Q 537.44 354.78 526.66 350.38
  Q 499.08 339.12 469.26 337.84
  Q 430.77 336.20 392.25 336.79
  Q 370.92 337.12 349.98 341.14
  Q 340.40 342.97 331.86 347.66
  Q 326.96 350.35 324.21 355.23
  Q 318.45 365.44 317.22 377.03
  Q 316.66 382.32 316.65 382.44
  Q 316.15 386.71 315.96 391.00
  Q 314.33 429.50 316.23 468.00
  Q 317.31 489.92 319.56 504.94
  Q 320.65 512.15 323.91 521.12
  Q 325.19 524.64 324.92 527.08
  Q 324.56 530.36 322.96 533.13
  Q 322.41 534.09 317.30 540.16
  Q 300.72 559.88 281.79 577.29"
/>
<path stroke="#8d5d56" vector-effect="non-scaling-stroke" d="
  M 281.79 577.29
  L 276.75 567.46"
/>
<path stroke="#a07a6c" vector-effect="non-scaling-stroke" d="
  M 370.10 512.52
  A 3.79 3.76 52.2 0 0 372.63 512.85
  Q 387.00 509.70 401.52 508.55
  Q 408.57 507.99 421.48 507.36
  Q 440.33 506.43 459.18 507.65
  Q 466.87 508.15 474.77 509.33
  Q 485.00 510.87 490.19 512.31
  Q 498.07 514.51 501.19 507.94
  Q 504.12 501.77 499.67 495.56
  Q 496.20 490.71 490.75 488.26
  Q 479.43 483.16 467.02 482.26
  Q 420.90 478.95 378.84 497.62
  Q 373.33 500.06 369.61 504.59
  Q 367.89 506.68 367.66 508.36
  Q 367.30 511.06 370.10 512.52"
/>
<path stroke="#a07a6c" vector-effect="non-scaling-stroke" d="
  M 663.76 511.20
  Q 667.00 513.44 671.81 512.31
  Q 697.03 506.42 724.76 506.88
  Q 733.31 507.02 744.75 507.50
  Q 764.21 508.32 783.43 511.64
  Q 783.77 511.69 787.48 512.70
  Q 789.94 513.37 791.75 512.75
  Q 794.22 511.90 794.40 509.42
  Q 794.53 507.67 793.39 505.76
  Q 792.36 504.03 790.81 502.70
  Q 786.35 498.86 780.94 496.55
  Q 746.34 481.79 708.99 481.97
  Q 696.55 482.03 690.02 482.94
  Q 680.53 484.26 671.60 488.15
  Q 666.13 490.53 662.54 495.27
  Q 659.62 499.13 659.83 504.00
  Q 660.03 508.63 663.76 511.20"
/>
<path stroke="#95a69d" vector-effect="non-scaling-stroke" d="
  M 413.46 561.25
  Q 409.70 568.63 409.00 575.75
  Q 407.18 594.15 413.72 612.39
  Q 415.83 618.28 419.81 623.69
  Q 426.62 632.92 438.00 633.75
  Q 450.55 634.67 459.72 624.98
  Q 467.10 617.19 469.76 606.75
  Q 473.73 591.14 470.73 576.14"
/>
<path stroke="#a07a6c" vector-effect="non-scaling-stroke" d="
  M 470.73 576.14
  Q 478.46 575.37 478.75 568.50
  Q 479.19 558.16 472.31 549.71
  Q 461.77 536.77 445.00 535.22
  Q 429.70 533.81 417.06 540.56
  Q 401.71 548.77 394.05 565.31
  Q 392.73 568.16 392.15 571.21
  Q 391.49 574.64 392.83 577.12
  Q 394.90 580.95 398.80 578.57
  Q 400.56 577.50 402.36 574.63
  Q 404.94 570.48 407.73 566.47
  Q 410.01 563.20 413.46 561.25"
/>
<path stroke="#365254" vector-effect="non-scaling-stroke" d="
  M 470.73 576.14
  Q 462.40 568.53 453.47 561.72
  Q 450.53 559.48 448.01 558.58
  Q 445.02 557.51 441.82 557.13
  Q 427.04 555.37 413.46 561.25"
/>
<path stroke="#95a69d" vector-effect="non-scaling-stroke" d="
  M 691.25 575.79
  Q 688.08 592.20 692.64 608.28
  Q 695.85 619.63 703.94 626.81
  Q 711.84 633.82 722.21 633.79
  Q 728.44 633.76 733.44 631.23
  Q 738.76 628.53 742.42 623.42
  Q 745.33 619.35 747.56 613.56
  Q 754.71 594.98 753.00 575.75
  Q 752.36 568.60 748.50 561.29"
/>
<path stroke="#a07a6c" vector-effect="non-scaling-stroke" d="
  M 748.50 561.29
  Q 754.02 564.69 757.08 570.46
  Q 760.53 576.96 761.94 577.81
  Q 767.78 581.38 769.59 576.55
  Q 770.52 574.07 769.54 570.46
  Q 766.33 558.63 756.94 549.56
  Q 740.04 533.26 716.76 535.39
  Q 699.30 536.99 688.86 550.88
  Q 682.65 559.14 683.25 568.50
  Q 683.72 575.79 691.25 575.79"
/>
<path stroke="#365254" vector-effect="non-scaling-stroke" d="
  M 748.50 561.29
  Q 735.97 555.75 722.23 556.80
  Q 715.30 557.33 710.56 560.06
  Q 703.81 563.96 697.19 571.44
  Q 694.45 574.53 691.25 575.79"
/>
<path stroke="#edb29f" vector-effect="non-scaling-stroke" d="
  M 546.40 729.36
  Q 548.21 730.60 551.69 731.81
  Q 582.89 742.70 612.96 730.64
  Q 619.25 728.12 620.57 722.30
  Q 621.32 718.99 617.96 718.56
  Q 605.02 716.92 592.00 717.08
  Q 577.38 717.25 562.75 717.25
  Q 553.06 717.24 543.49 718.75
  Q 540.90 719.16 541.33 721.74
  Q 542.11 726.43 546.40 729.36"
/>
<path stroke="#ffe7da" vector-effect="non-scaling-stroke" d="
  M 481.71 793.64
  Q 482.37 794.86 482.49 796.02
  Q 482.69 797.90 482.71 797.97
  Q 484.17 804.22 488.19 810.81
  Q 491.99 817.06 495.96 821.98
  Q 500.22 827.27 505.12 831.97
  Q 519.70 845.99 540.50 851.00
  Q 575.26 859.38 609.26 853.55
  Q 621.28 851.48 628.72 849.01
  Q 644.27 843.85 656.23 832.60
  Q 661.84 827.33 666.84 820.99
  Q 671.59 814.97 675.56 807.81
  Q 679.05 801.52 679.65 794.94
  A 1.09 0.73 -20.8 0 1 680.15 794.24
  Q 680.49 794.01 680.47 793.66
  A 0.92 0.63 11.4 0 0 679.85 793.02
  Q 677.34 792.17 673.25 792.25
  Q 659.24 792.53 656.50 792.66
  Q 624.01 794.23 591.50 795.21
  Q 581.52 795.51 571.51 795.23
  Q 533.83 794.17 501.00 792.50
  Q 494.52 792.17 489.69 792.23
  Q 489.52 792.23 487.32 792.18
  Q 484.58 792.11 481.95 793.02
  A 0.44 0.43 -24.1 0 0 481.71 793.64"
/>
</g>
<path fill="#f3f2f1" d="
  M 833.00 1097.79
  Q 820.04 1081.63 806.19 1069.31
  Q 776.09 1042.56 739.28 1024.30
  Q 730.79 1020.10 721.18 1015.78
  Q 709.44 1010.51 696.06 1005.44
  Q 681.22 999.82 667.09 996.98
  L 655.18 995.38
  A 0.58 0.57 -86.0 0 1 654.69 994.81
  L 654.51 971.49
  L 654.62 948.54
  Q 673.13 941.58 698.81 929.31
  Q 738.83 910.20 769.13 881.12
  Q 787.26 863.71 801.44 846.44
  Q 839.57 799.96 857.02 741.51
  Q 857.19 740.95 857.75 740.96
  Q 869.19 746.46 880.75 746.75
  Q 900.37 747.24 918.01 736.97
  Q 938.03 725.33 949.13 705.76
  Q 953.06 698.84 957.45 687.61
  Q 967.63 661.61 969.58 633.51
  Q 971.56 604.87 958.23 579.67
  Q 953.55 570.83 946.23 564.02
  Q 936.87 555.29 924.97 553.92
  Q 916.02 552.88 905.35 556.57
  Q 894.59 560.28 885.41 567.48
  Q 886.93 563.49 888.33 559.67
  Q 889.80 555.65 890.90 551.74
  Q 901.71 513.26 903.41 473.25
  Q 904.61 445.03 904.00 423.00
  Q 903.02 387.88 896.44 351.51
  Q 894.37 340.06 892.59 331.88
  Q 886.50 303.83 875.54 277.23
  Q 866.16 254.44 851.29 234.87
  Q 846.95 229.16 846.39 228.49
  Q 843.91 225.50 840.76 222.70
  A 2.05 2.05 -54.2 0 1 840.35 220.14
  Q 847.15 208.45 848.27 194.23
  Q 848.65 189.39 847.26 184.75
  Q 846.28 181.43 842.25 181.25
  Q 813.70 179.95 784.37 173.71
  A 0.64 0.64 18.2 0 1 783.92 172.82
  Q 787.49 164.53 788.57 156.26
  Q 789.54 148.77 787.52 141.65
  Q 786.57 138.28 784.91 137.04
  Q 782.75 135.43 779.25 135.75
  Q 758.95 137.63 751.51 138.79
  Q 721.29 143.51 689.76 145.31
  A 1.00 0.99 3.2 0 1 688.72 144.15
  Q 691.09 130.62 686.47 118.07
  Q 685.51 115.45 684.46 114.31
  Q 682.77 112.47 680.35 112.47
  Q 679.79 112.47 674.67 113.67
  Q 606.16 129.70 536.31 138.31
  Q 514.12 141.04 474.94 148.19
  Q 429.41 156.49 390.10 174.30
  Q 380.57 178.62 372.25 183.30
  Q 357.30 191.70 344.19 201.69
  Q 309.43 228.16 290.69 268.12
  Q 279.69 291.59 273.50 315.25
  Q 260.61 364.57 258.47 416.76
  Q 257.41 442.75 258.35 468.75
  Q 258.78 480.85 260.50 497.00
  Q 263.88 528.76 273.00 558.00
  Q 274.15 561.70 276.75 567.46
  Q 272.34 564.64 267.91 561.86
  Q 257.05 555.03 244.23 553.94
  Q 231.64 552.87 222.56 558.81
  Q 205.58 569.93 198.50 590.75
  Q 193.31 606.02 192.38 620.76
  Q 191.84 629.43 193.09 640.71
  Q 196.62 672.75 210.96 701.87
  Q 219.23 718.68 234.25 730.50
  Q 250.44 743.24 270.57 746.17
  Q 288.19 748.73 304.75 740.67
  Q 315.01 775.07 331.06 803.44
  Q 350.04 836.98 378.05 866.30
  Q 385.83 874.44 392.11 880.53
  Q 419.44 907.02 453.47 924.56
  Q 479.68 938.06 507.25 948.54
  L 507.54 971.25
  Q 506.89 981.62 507.62 993.98
  A 1.44 1.35 -6.2 0 1 506.40 995.40
  L 494.28 997.34
  Q 486.44 998.47 478.75 1001.00
  Q 437.77 1014.47 400.22 1036.73
  Q 391.16 1042.11 383.41 1047.55
  Q 368.51 1058.00 354.93 1070.17
  Q 340.83 1082.81 329.25 1097.79
  Q 299.09 1083.60 267.94 1063.31
  Q 214.85 1028.73 172.03 985.47
  Q 106.66 919.43 65.44 836.13
  Q 5.25 714.49 5.17 578.75
  Q 5.17 569.03 5.59 558.75
  Q 7.39 515.40 14.25 477.50
  Q 19.83 446.67 30.54 411.31
  Q 33.58 401.25 36.69 392.27
  Q 58.76 328.54 94.56 272.06
  Q 144.77 192.86 217.64 133.44
  Q 225.33 127.17 233.37 121.11
  Q 338.20 42.12 466.06 15.81
  Q 528.37 2.99 594.51 4.45
  Q 604.52 4.67 614.48 5.28
  Q 739.61 12.88 850.00 71.00
  Q 920.35 108.04 978.68 163.81
  Q 1058.61 240.23 1104.56 340.87
  Q 1154.34 449.88 1156.75 571.50
  Q 1157.01 584.79 1156.90 589.75
  Q 1153.60 737.63 1081.56 864.81
  Q 1040.25 937.75 978.19 996.94
  Q 913.46 1058.67 833.00 1097.79
  Z"
/>
<path fill="#402523" d="
  M 885.41 567.48
  L 880.21 577.25
  Q 859.24 557.92 840.97 536.02
  Q 834.81 528.64 838.81 518.81
  Q 841.93 511.16 843.15 499.24
  Q 848.13 450.49 846.34 401.54
  Q 845.82 387.20 845.71 385.46
  Q 845.13 376.09 843.50 369.50
  Q 840.86 358.84 836.19 352.81
  Q 832.88 348.55 827.00 346.00
  Q 818.84 342.46 812.21 341.19
  Q 792.04 337.31 771.50 336.93
  Q 731.98 336.22 692.50 337.92
  Q 661.41 339.25 632.80 351.28
  Q 614.58 358.94 609.50 360.50
  Q 578.60 370.02 548.36 358.82
  Q 537.44 354.78 526.66 350.38
  Q 499.08 339.12 469.26 337.84
  Q 430.77 336.20 392.25 336.79
  Q 370.92 337.12 349.98 341.14
  Q 340.40 342.97 331.86 347.66
  Q 326.96 350.35 324.21 355.23
  Q 318.45 365.44 317.22 377.03
  Q 316.66 382.32 316.65 382.44
  Q 316.15 386.71 315.96 391.00
  Q 314.33 429.50 316.23 468.00
  Q 317.31 489.92 319.56 504.94
  Q 320.65 512.15 323.91 521.12
  Q 325.19 524.64 324.92 527.08
  Q 324.56 530.36 322.96 533.13
  Q 322.41 534.09 317.30 540.16
  Q 300.72 559.88 281.79 577.29
  L 276.75 567.46
  Q 274.15 561.70 273.00 558.00
  Q 263.88 528.76 260.50 497.00
  Q 258.78 480.85 258.35 468.75
  Q 257.41 442.75 258.47 416.76
  Q 260.61 364.57 273.50 315.25
  Q 279.69 291.59 290.69 268.12
  Q 309.43 228.16 344.19 201.69
  Q 357.30 191.70 372.25 183.30
  Q 380.57 178.62 390.10 174.30
  Q 429.41 156.49 474.94 148.19
  Q 514.12 141.04 536.31 138.31
  Q 606.16 129.70 674.67 113.67
  Q 679.79 112.47 680.35 112.47
  Q 682.77 112.47 684.46 114.31
  Q 685.51 115.45 686.47 118.07
  Q 691.09 130.62 688.72 144.15
  A 1.00 0.99 3.2 0 0 689.76 145.31
  Q 721.29 143.51 751.51 138.79
  Q 758.95 137.63 779.25 135.75
  Q 782.75 135.43 784.91 137.04
  Q 786.57 138.28 787.52 141.65
  Q 789.54 148.77 788.57 156.26
  Q 787.49 164.53 783.92 172.82
  A 0.64 0.64 18.2 0 0 784.37 173.71
  Q 813.70 179.95 842.25 181.25
  Q 846.28 181.43 847.26 184.75
  Q 848.65 189.39 848.27 194.23
  Q 847.15 208.45 840.35 220.14
  A 2.05 2.05 -54.2 0 0 840.76 222.70
  Q 843.91 225.50 846.39 228.49
  Q 846.95 229.16 851.29 234.87
  Q 866.16 254.44 875.54 277.23
  Q 886.50 303.83 892.59 331.88
  Q 894.37 340.06 896.44 351.51
  Q 903.02 387.88 904.00 423.00
  Q 904.61 445.03 903.41 473.25
  Q 901.71 513.26 890.90 551.74
  Q 889.80 555.65 888.33 559.67
  Q 886.93 563.49 885.41 567.48
  Z"
/>
<path fill="#ffceb5" d="
  M 880.21 577.25
  Q 879.90 588.42 879.75 590.50
  Q 877.85 617.03 873.68 652.24
  Q 869.18 690.14 865.25 708.75
  Q 861.25 727.72 858.19 737.69
  Q 857.48 739.98 857.75 740.96
  Q 857.19 740.95 857.02 741.51
  Q 839.57 799.96 801.44 846.44
  Q 787.26 863.71 769.13 881.12
  Q 738.83 910.20 698.81 929.31
  Q 673.13 941.58 654.62 948.54
  Q 634.60 956.22 620.00 958.50
  Q 609.68 960.11 599.25 960.56
  Q 579.60 961.40 559.97 960.39
  Q 549.08 959.82 540.14 958.05
  Q 523.32 954.72 507.25 948.54
  Q 479.68 938.06 453.47 924.56
  Q 419.44 907.02 392.11 880.53
  Q 385.83 874.44 378.05 866.30
  Q 350.04 836.98 331.06 803.44
  Q 315.01 775.07 304.75 740.67
  Q 297.34 715.49 293.25 688.50
  Q 286.36 642.98 283.00 599.00
  Q 281.88 584.33 281.79 577.29
  Q 300.72 559.88 317.30 540.16
  Q 322.41 534.09 322.96 533.13
  Q 324.56 530.36 324.92 527.08
  Q 325.19 524.64 323.91 521.12
  Q 320.65 512.15 319.56 504.94
  Q 317.31 489.92 316.23 468.00
  Q 314.33 429.50 315.96 391.00
  Q 316.15 386.71 316.65 382.44
  Q 316.66 382.32 317.22 377.03
  Q 318.45 365.44 324.21 355.23
  Q 326.96 350.35 331.86 347.66
  Q 340.40 342.97 349.98 341.14
  Q 370.92 337.12 392.25 336.79
  Q 430.77 336.20 469.26 337.84
  Q 499.08 339.12 526.66 350.38
  Q 537.44 354.78 548.36 358.82
  Q 578.60 370.02 609.50 360.50
  Q 614.58 358.94 632.80 351.28
  Q 661.41 339.25 692.50 337.92
  Q 731.98 336.22 771.50 336.93
  Q 792.04 337.31 812.21 341.19
  Q 818.84 342.46 827.00 346.00
  Q 832.88 348.55 836.19 352.81
  Q 840.86 358.84 843.50 369.50
  Q 845.13 376.09 845.71 385.46
  Q 845.82 387.20 846.34 401.54
  Q 848.13 450.49 843.15 499.24
  Q 841.93 511.16 838.81 518.81
  Q 834.81 528.64 840.97 536.02
  Q 859.24 557.92 880.21 577.25
  Z
  M 370.10 512.52
  A 3.79 3.76 52.2 0 0 372.63 512.85
  Q 387.00 509.70 401.52 508.55
  Q 408.57 507.99 421.48 507.36
  Q 440.33 506.43 459.18 507.65
  Q 466.87 508.15 474.77 509.33
  Q 485.00 510.87 490.19 512.31
  Q 498.07 514.51 501.19 507.94
  Q 504.12 501.77 499.67 495.56
  Q 496.20 490.71 490.75 488.26
  Q 479.43 483.16 467.02 482.26
  Q 420.90 478.95 378.84 497.62
  Q 373.33 500.06 369.61 504.59
  Q 367.89 506.68 367.66 508.36
  Q 367.30 511.06 370.10 512.52
  Z
  M 663.76 511.20
  Q 667.00 513.44 671.81 512.31
  Q 697.03 506.42 724.76 506.88
  Q 733.31 507.02 744.75 507.50
  Q 764.21 508.32 783.43 511.64
  Q 783.77 511.69 787.48 512.70
  Q 789.94 513.37 791.75 512.75
  Q 794.22 511.90 794.40 509.42
  Q 794.53 507.67 793.39 505.76
  Q 792.36 504.03 790.81 502.70
  Q 786.35 498.86 780.94 496.55
  Q 746.34 481.79 708.99 481.97
  Q 696.55 482.03 690.02 482.94
  Q 680.53 484.26 671.60 488.15
  Q 666.13 490.53 662.54 495.27
  Q 659.62 499.13 659.83 504.00
  Q 660.03 508.63 663.76 511.20
  Z
  M 413.46 561.25
  Q 409.70 568.63 409.00 575.75
  Q 407.18 594.15 413.72 612.39
  Q 415.83 618.28 419.81 623.69
  Q 426.62 632.92 438.00 633.75
  Q 450.55 634.67 459.72 624.98
  Q 467.10 617.19 469.76 606.75
  Q 473.73 591.14 470.73 576.14
  Q 478.46 575.37 478.75 568.50
  Q 479.19 558.16 472.31 549.71
  Q 461.77 536.77 445.00 535.22
  Q 429.70 533.81 417.06 540.56
  Q 401.71 548.77 394.05 565.31
  Q 392.73 568.16 392.15 571.21
  Q 391.49 574.64 392.83 577.12
  Q 394.90 580.95 398.80 578.57
  Q 400.56 577.50 402.36 574.63
  Q 404.94 570.48 407.73 566.47
  Q 410.01 563.20 413.46 561.25
  Z
  M 691.25 575.79
  Q 688.08 592.20 692.64 608.28
  Q 695.85 619.63 703.94 626.81
  Q 711.84 633.82 722.21 633.79
  Q 728.44 633.76 733.44 631.23
  Q 738.76 628.53 742.42 623.42
  Q 745.33 619.35 747.56 613.56
  Q 754.71 594.98 753.00 575.75
  Q 752.36 568.60 748.50 561.29
  Q 754.02 564.69 757.08 570.46
  Q 760.53 576.96 761.94 577.81
  Q 767.78 581.38 769.59 576.55
  Q 770.52 574.07 769.54 570.46
  Q 766.33 558.63 756.94 549.56
  Q 740.04 533.26 716.76 535.39
  Q 699.30 536.99 688.86 550.88
  Q 682.65 559.14 683.25 568.50
  Q 683.72 575.79 691.25 575.79
  Z
  M 546.40 729.36
  Q 548.21 730.60 551.69 731.81
  Q 582.89 742.70 612.96 730.64
  Q 619.25 728.12 620.57 722.30
  Q 621.32 718.99 617.96 718.56
  Q 605.02 716.92 592.00 717.08
  Q 577.38 717.25 562.75 717.25
  Q 553.06 717.24 543.49 718.75
  Q 540.90 719.16 541.33 721.74
  Q 542.11 726.43 546.40 729.36
  Z
  M 481.71 793.64
  Q 482.37 794.86 482.49 796.02
  Q 482.69 797.90 482.71 797.97
  Q 484.17 804.22 488.19 810.81
  Q 491.99 817.06 495.96 821.98
  Q 500.22 827.27 505.12 831.97
  Q 519.70 845.99 540.50 851.00
  Q 575.26 859.38 609.26 853.55
  Q 621.28 851.48 628.72 849.01
  Q 644.27 843.85 656.23 832.60
  Q 661.84 827.33 666.84 820.99
  Q 671.59 814.97 675.56 807.81
  Q 679.05 801.52 679.65 794.94
  A 1.09 0.73 -20.8 0 1 680.15 794.24
  Q 680.49 794.01 680.47 793.66
  A 0.92 0.63 11.4 0 0 679.85 793.02
  Q 677.34 792.17 673.25 792.25
  Q 659.24 792.53 656.50 792.66
  Q 624.01 794.23 591.50 795.21
  Q 581.52 795.51 571.51 795.23
  Q 533.83 794.17 501.00 792.50
  Q 494.52 792.17 489.69 792.23
  Q 489.52 792.23 487.32 792.18
  Q 484.58 792.11 481.95 793.02
  A 0.44 0.43 -24.1 0 0 481.71 793.64
  Z"
/>
<path fill="#402523" d="
  M 370.10 512.52
  Q 367.30 511.06 367.66 508.36
  Q 367.89 506.68 369.61 504.59
  Q 373.33 500.06 378.84 497.62
  Q 420.90 478.95 467.02 482.26
  Q 479.43 483.16 490.75 488.26
  Q 496.20 490.71 499.67 495.56
  Q 504.12 501.77 501.19 507.94
  Q 498.07 514.51 490.19 512.31
  Q 485.00 510.87 474.77 509.33
  Q 466.87 508.15 459.18 507.65
  Q 440.33 506.43 421.48 507.36
  Q 408.57 507.99 401.52 508.55
  Q 387.00 509.70 372.63 512.85
  A 3.79 3.76 52.2 0 1 370.10 512.52
  Z"
/>
<path fill="#402523" d="
  M 663.76 511.20
  Q 660.03 508.63 659.83 504.00
  Q 659.62 499.13 662.54 495.27
  Q 666.13 490.53 671.60 488.15
  Q 680.53 484.26 690.02 482.94
  Q 696.55 482.03 708.99 481.97
  Q 746.34 481.79 780.94 496.55
  Q 786.35 498.86 790.81 502.70
  Q 792.36 504.03 793.39 505.76
  Q 794.53 507.67 794.40 509.42
  Q 794.22 511.90 791.75 512.75
  Q 789.94 513.37 787.48 512.70
  Q 783.77 511.69 783.43 511.64
  Q 764.21 508.32 744.75 507.50
  Q 733.31 507.02 724.76 506.88
  Q 697.03 506.42 671.81 512.31
  Q 667.00 513.44 663.76 511.20
  Z"
/>
<path fill="#402523" d="
  M 470.73 576.14
  Q 462.40 568.53 453.47 561.72
  Q 450.53 559.48 448.01 558.58
  Q 445.02 557.51 441.82 557.13
  Q 427.04 555.37 413.46 561.25
  Q 410.01 563.20 407.73 566.47
  Q 404.94 570.48 402.36 574.63
  Q 400.56 577.50 398.80 578.57
  Q 394.90 580.95 392.83 577.12
  Q 391.49 574.64 392.15 571.21
  Q 392.73 568.16 394.05 565.31
  Q 401.71 548.77 417.06 540.56
  Q 429.70 533.81 445.00 535.22
  Q 461.77 536.77 472.31 549.71
  Q 479.19 558.16 478.75 568.50
  Q 478.46 575.37 470.73 576.14
  Z"
/>
<path fill="#402523" d="
  M 748.50 561.29
  Q 735.97 555.75 722.23 556.80
  Q 715.30 557.33 710.56 560.06
  Q 703.81 563.96 697.19 571.44
  Q 694.45 574.53 691.25 575.79
  Q 683.72 575.79 683.25 568.50
  Q 682.65 559.14 688.86 550.88
  Q 699.30 536.99 716.76 535.39
  Q 740.04 533.26 756.94 549.56
  Q 766.33 558.63 769.54 570.46
  Q 770.52 574.07 769.59 576.55
  Q 767.78 581.38 761.94 577.81
  Q 760.53 576.96 757.08 570.46
  Q 754.02 564.69 748.50 561.29
  Z"
/>
<path fill="#da9588" d="
  M 276.75 567.46
  L 281.79 577.29
  Q 281.88 584.33 283.00 599.00
  Q 286.36 642.98 293.25 688.50
  Q 297.34 715.49 304.75 740.67
  Q 288.19 748.73 270.57 746.17
  Q 250.44 743.24 234.25 730.50
  Q 219.23 718.68 210.96 701.87
  Q 196.62 672.75 193.09 640.71
  Q 191.84 629.43 192.38 620.76
  Q 193.31 606.02 198.50 590.75
  Q 205.58 569.93 222.56 558.81
  Q 231.64 552.87 244.23 553.94
  Q 257.05 555.03 267.91 561.86
  Q 272.34 564.64 276.75 567.46
  Z"
/>
<path fill="#da9588" d="
  M 857.75 740.96
  Q 857.48 739.98 858.19 737.69
  Q 861.25 727.72 865.25 708.75
  Q 869.18 690.14 873.68 652.24
  Q 877.85 617.03 879.75 590.50
  Q 879.90 588.42 880.21 577.25
  L 885.41 567.48
  Q 894.59 560.28 905.35 556.57
  Q 916.02 552.88 924.97 553.92
  Q 936.87 555.29 946.23 564.02
  Q 953.55 570.83 958.23 579.67
  Q 971.56 604.87 969.58 633.51
  Q 967.63 661.61 957.45 687.61
  Q 953.06 698.84 949.13 705.76
  Q 938.03 725.33 918.01 736.97
  Q 900.37 747.24 880.75 746.75
  Q 869.19 746.46 857.75 740.96
  Z"
/>
<path fill="#2b7e84" d="
  M 470.73 576.14
  Q 473.73 591.14 469.76 606.75
  Q 467.10 617.19 459.72 624.98
  Q 450.55 634.67 438.00 633.75
  Q 426.62 632.92 419.81 623.69
  Q 415.83 618.28 413.72 612.39
  Q 407.18 594.15 409.00 575.75
  Q 409.70 568.63 413.46 561.25
  Q 427.04 555.37 441.82 557.13
  Q 445.02 557.51 448.01 558.58
  Q 450.53 559.48 453.47 561.72
  Q 462.40 568.53 470.73 576.14
  Z"
/>
<path fill="#2b7e84" d="
  M 748.50 561.29
  Q 752.36 568.60 753.00 575.75
  Q 754.71 594.98 747.56 613.56
  Q 745.33 619.35 742.42 623.42
  Q 738.76 628.53 733.44 631.23
  Q 728.44 633.76 722.21 633.79
  Q 711.84 633.82 703.94 626.81
  Q 695.85 619.63 692.64 608.28
  Q 688.08 592.20 691.25 575.79
  Q 694.45 574.53 697.19 571.44
  Q 703.81 563.96 710.56 560.06
  Q 715.30 557.33 722.23 556.80
  Q 735.97 555.75 748.50 561.29
  Z"
/>
<path fill="#da9588" d="
  M 546.40 729.36
  Q 542.11 726.43 541.33 721.74
  Q 540.90 719.16 543.49 718.75
  Q 553.06 717.24 562.75 717.25
  Q 577.38 717.25 592.00 717.08
  Q 605.02 716.92 617.96 718.56
  Q 621.32 718.99 620.57 722.30
  Q 619.25 728.12 612.96 730.64
  Q 582.89 742.70 551.69 731.81
  Q 548.21 730.60 546.40 729.36
  Z"
/>
<path fill="#ffffff" d="
  M 481.71 793.64
  A 0.44 0.43 -24.1 0 1 481.95 793.02
  Q 484.58 792.11 487.32 792.18
  Q 489.52 792.23 489.69 792.23
  Q 494.52 792.17 501.00 792.50
  Q 533.83 794.17 571.51 795.23
  Q 581.52 795.51 591.50 795.21
  Q 624.01 794.23 656.50 792.66
  Q 659.24 792.53 673.25 792.25
  Q 677.34 792.17 679.85 793.02
  A 0.92 0.63 11.4 0 1 680.47 793.66
  Q 680.49 794.01 680.15 794.24
  A 1.09 0.73 -20.8 0 0 679.65 794.94
  Q 679.05 801.52 675.56 807.81
  Q 671.59 814.97 666.84 820.99
  Q 661.84 827.33 656.23 832.60
  Q 644.27 843.85 628.72 849.01
  Q 621.28 851.48 609.26 853.55
  Q 575.26 859.38 540.50 851.00
  Q 519.70 845.99 505.12 831.97
  Q 500.22 827.27 495.96 821.98
  Q 491.99 817.06 488.19 810.81
  Q 484.17 804.22 482.71 797.97
  Q 482.69 797.90 482.49 796.02
  Q 482.37 794.86 481.71 793.64
  Z"
/>
<path fill="#da9588" d="
  M 507.25 948.54
  Q 523.32 954.72 540.14 958.05
  Q 549.08 959.82 559.97 960.39
  Q 579.60 961.40 599.25 960.56
  Q 609.68 960.11 620.00 958.50
  Q 634.60 956.22 654.62 948.54
  L 654.51 971.49
  Q 632.85 986.83 607.25 993.48
  Q 602.65 994.68 584.06 998.56
  Q 580.71 999.27 578.08 998.66
  Q 575.45 998.05 575.36 998.04
  Q 548.15 993.80 523.58 981.41
  Q 515.06 977.11 507.54 971.25
  L 507.25 948.54
  Z"
/>
<path fill="#ffceb5" d="
  M 507.54 971.25
  Q 515.06 977.11 523.58 981.41
  Q 548.15 993.80 575.36 998.04
  Q 575.45 998.05 578.08 998.66
  Q 580.71 999.27 584.06 998.56
  Q 602.65 994.68 607.25 993.48
  Q 632.85 986.83 654.51 971.49
  L 654.69 994.81
  A 0.58 0.57 -86.0 0 0 655.18 995.38
  L 667.09 996.98
  Q 667.02 998.76 666.00 1000.25
  Q 642.85 1034.12 612.12 1059.46
  Q 604.57 1065.68 597.35 1070.34
  Q 589.68 1075.29 581.45 1079.56
  A 1.02 1.00 44.4 0 1 580.54 1079.56
  Q 557.48 1067.62 538.81 1049.94
  Q 511.72 1024.28 494.28 997.34
  L 506.40 995.40
  A 1.44 1.35 -6.2 0 0 507.62 993.98
  Q 506.89 981.62 507.54 971.25
  Z"
/>
<path fill="#323244" d="
  M 494.28 997.34
  Q 511.72 1024.28 538.81 1049.94
  Q 557.48 1067.62 580.54 1079.56
  A 1.02 1.00 44.4 0 0 581.45 1079.56
  Q 589.68 1075.29 597.35 1070.34
  Q 604.57 1065.68 612.12 1059.46
  Q 642.85 1034.12 666.00 1000.25
  Q 667.02 998.76 667.09 996.98
  Q 681.22 999.82 696.06 1005.44
  Q 709.44 1010.51 721.18 1015.78
  Q 730.79 1020.10 739.28 1024.30
  Q 776.09 1042.56 806.19 1069.31
  Q 820.04 1081.63 833.00 1097.79
  Q 794.40 1116.72 754.25 1129.25
  Q 720.90 1139.66 685.78 1146.38
  Q 676.13 1148.23 666.06 1149.67
  Q 626.44 1155.32 590.25 1156.00
  Q 555.70 1156.65 516.25 1152.22
  Q 417.97 1141.18 329.25 1097.79
  Q 340.83 1082.81 354.93 1070.17
  Q 368.51 1058.00 383.41 1047.55
  Q 391.16 1042.11 400.22 1036.73
  Q 437.77 1014.47 478.75 1001.00
  Q 486.44 998.47 494.28 997.34
  Z"
/>
</svg>
