<?xml version="1.0" encoding="UTF-8" standalone="no"?>
<!DOCTYPE svg PUBLIC "-//W3C//DTD SVG 1.1//EN" "http://www.w3.org/Graphics/SVG/1.1/DTD/svg11.dtd">
<svg xmlns="http://www.w3.org/2000/svg" version="1.1" viewBox="0 0 1162 1161">
<g stroke-width="0.30" fill="none" stroke-linecap="butt">
<path stroke="#9999a2" vector-effect="non-scaling-stroke" d="
  M 833.00 1097.79
  Q 819.06 1080.44 803.94 1067.31
  Q 773.06 1040.51 735.39 1022.38
  Q 725.63 1017.69 717.27 1013.93
  Q 693.04 1003.04 667.13 996.81"
/>
<path stroke="#ffe7da" vector-effect="non-scaling-stroke" d="
  M 667.13 996.81
  L 655.18 995.39
  A 0.61 0.56 -87.4 0 1 654.69 994.80
  L 654.47 971.58"
/>
<path stroke="#edcac4" vector-effect="non-scaling-stroke" d="
  M 654.47 971.58
  L 654.62 948.53"
/>
<path stroke="#ffe7da" vector-effect="non-scaling-stroke" d="
  M 654.62 948.53
  Q 689.79 935.33 718.69 918.94
  Q 743.98 904.58 765.28 884.78
  Q 788.51 863.18 807.91 838.16
  Q 814.29 829.94 819.55 821.92
  Q 844.35 784.16 857.28 740.64"
/>
<path stroke="#edcac4" vector-effect="non-scaling-stroke" d="
  M 857.28 740.64
  Q 869.55 746.81 882.75 746.70
  Q 899.26 746.56 913.94 739.14
  Q 930.39 730.84 941.64 716.83
  Q 947.09 710.05 952.06 699.83
  Q 962.34 678.73 966.68 655.63
  Q 968.78 644.42 969.43 635.82
  Q 970.67 619.25 967.08 602.83
  Q 964.48 590.96 958.78 580.24
  Q 953.79 570.85 945.56 563.44
  Q 939.37 557.85 931.86 555.40
  Q 924.89 553.12 916.45 553.90
  Q 906.10 554.85 897.44 559.94
  Q 888.06 565.44 885.77 566.66"
/>
<path stroke="#a09291" vector-effect="non-scaling-stroke" d="
  M 885.77 566.66
  Q 890.83 553.52 893.50 542.50
  Q 903.66 500.59 904.09 456.57
  Q 904.17 448.68 904.15 436.56
  Q 904.08 389.23 894.92 342.72
  Q 891.19 323.72 884.25 301.00
  Q 871.96 260.74 846.53 228.94
  Q 843.82 225.56 840.33 222.22
  A 1.21 1.21 36.1 0 1 840.10 220.77
  Q 843.33 214.83 845.31 208.98
  Q 847.85 201.50 848.34 196.54
  Q 849.00 189.88 846.68 183.30
  Q 846.07 181.57 844.24 181.49
  Q 816.86 180.23 789.74 174.82
  Q 787.25 174.33 784.23 173.93
  A 0.55 0.54 -74.7 0 1 783.80 173.17
  Q 787.93 163.54 788.69 153.75
  Q 789.18 147.46 787.48 141.50
  Q 786.57 138.33 785.06 137.11
  Q 783.03 135.49 779.75 135.75
  Q 765.07 136.92 760.32 137.62
  Q 739.70 140.65 719.00 143.01
  Q 704.91 144.61 689.72 145.30
  A 1.00 1.00 3.7 0 1 688.69 144.13
  Q 691.05 130.03 686.15 117.08
  Q 684.02 111.45 678.69 112.69
  Q 612.15 128.07 553.99 135.91
  Q 547.46 136.79 540.94 137.73
  Q 535.36 138.54 527.90 139.46
  Q 509.42 141.76 491.11 145.15
  Q 490.95 145.17 474.34 148.16
  Q 432.81 155.63 394.18 172.45
  Q 384.41 176.70 376.17 181.14
  Q 359.75 190.01 345.19 200.94
  Q 310.13 227.24 291.13 267.10
  Q 280.35 289.71 273.91 313.93
  Q 258.47 371.93 257.83 432.00
  Q 257.71 442.98 258.00 459.25
  Q 258.79 503.54 269.25 545.50
  Q 271.31 553.76 276.36 567.18"
/>
<path stroke="#edcac4" vector-effect="non-scaling-stroke" d="
  M 276.36 567.18
  Q 265.09 558.79 252.31 555.19
  Q 238.51 551.30 226.35 556.87
  Q 219.91 559.83 213.66 565.99
  Q 207.71 571.86 204.06 578.56
  Q 189.45 605.40 192.75 637.25
  Q 195.91 667.72 207.12 693.87
  Q 211.67 704.49 216.45 711.52
  Q 226.48 726.32 242.07 735.92
  Q 258.50 746.05 277.50 746.75
  Q 291.43 747.27 304.77 740.63"
/>
<path stroke="#ffe7da" vector-effect="non-scaling-stroke" d="
  M 304.77 740.63
  Q 320.03 792.71 351.81 835.19
  Q 372.76 863.19 399.80 887.58
  Q 407.78 894.78 415.15 900.42
  Q 427.50 909.86 439.81 916.94
  Q 471.12 934.93 507.25 948.54"
/>
<path stroke="#edcac4" vector-effect="non-scaling-stroke" d="
  M 507.25 948.54
  L 507.54 971.25"
/>
<path stroke="#ffe7da" vector-effect="non-scaling-stroke" d="
  M 507.54 971.25
  L 507.54 994.30
  A 1.23 1.18 88.5 0 1 506.42 995.53
  Q 501.05 995.78 494.35 997.41"
/>
<path stroke="#9999a2" vector-effect="non-scaling-stroke" d="
  M 494.35 997.41
  Q 482.47 999.28 468.69 1004.44
  Q 446.86 1012.60 429.10 1021.00
  Q 387.06 1040.90 352.69 1072.19
  Q 340.59 1083.20 329.25 1097.79"
/>
<path stroke="#edb29f" vector-effect="non-scaling-stroke" d="
  M 654.47 971.58
  Q 633.85 986.06 609.78 992.70
  Q 598.23 995.89 583.25 998.75
  Q 580.51 999.27 578.11 998.68
  Q 575.42 998.02 575.35 998.01
  Q 565.84 996.35 554.00 993.25
  Q 528.31 986.51 507.54 971.25"
/>
<path stroke="#8d5d56" vector-effect="non-scaling-stroke" d="
  M 885.77 566.66
  L 880.21 577.25"
/>
<path stroke="#a07a6c" vector-effect="non-scaling-stroke" d="
  M 880.21 577.25
  Q 859.24 557.92 840.97 536.02
  Q 834.81 528.64 838.81 518.81
  Q 841.93 511.16 843.15 499.24
  Q 848.13 450.49 846.34 401.54
  Q 845.82 387.20 845.71 385.46
  Q 845.13 376.09 843.50 369.50
  Q 840.86 358.84 836.19 352.81
  Q 832.88 348.55 827.00 346.00
  Q 818.84 342.46 812.21 341.19
  Q 792.04 337.31 771.50 336.93
  Q 731.98 336.22 692.50 337.92
  Q 661.41 339.25 632.80 351.28
  Q 614.58 358.94 609.50 360.50
  Q 578.60 370.02 548.36 358.82
  Q 537.44 354.78 526.66 350.38
  Q 499.08 339.12 469.26 337.84
  Q 430.77 336.20 392.25 336.79
  Q 370.92 337.12 349.98 341.14
  Q 340.40 342.97 331.86 347.66
  Q 326.96 350.35 324.21 355.23
  Q 318.45 365.44 317.22 377.03
  Q 316.66 382.32 316.65 382.44
  Q 316.15 386.71 315.96 391.00
  Q 314.33 429.50 316.23 468.00
  Q 317.31 489.92 319.56 504.94
  Q 320.65 512.15 323.91 521.12
  Q 325.19 524.64 324.92 527.08
  Q 324.56 530.36 322.96 533.13
  Q 322.41 534.09 317.30 540.17
  Q 300.75 559.86 281.81 577.26"
/>
<path stroke="#8d5d56" vector-effect="non-scaling-stroke" d="
  M 281.81 577.26
  L 276.36 567.18"
/>
<path stroke="#edb29f" vector-effect="non-scaling-stroke" d="
  M 880.21 577.25
  Q 879.92 587.97 879.75 590.25
  Q 877.47 621.44 871.56 668.56
  Q 866.64 707.85 857.28 740.64"
/>
<path stroke="#edb29f" vector-effect="non-scaling-stroke" d="
  M 654.62 948.53
  Q 634.53 956.27 620.00 958.50
  Q 610.05 960.03 600.00 960.52
  Q 579.97 961.51 559.98 960.42
  Q 549.13 959.83 540.14 958.05
  Q 523.32 954.72 507.25 948.54"
/>
<path stroke="#edb29f" vector-effect="non-scaling-stroke" d="
  M 304.77 740.63
  Q 297.23 715.10 293.24 688.75
  Q 286.47 644.06 283.00 599.00
  Q 281.88 584.42 281.81 577.26"
/>
<path stroke="#99807d" vector-effect="non-scaling-stroke" d="
  M 667.13 996.81
  Q 667.00 998.79 666.00 1000.25
  Q 642.72 1034.22 612.12 1059.46
  Q 604.58 1065.68 597.35 1070.34
  Q 589.68 1075.29 581.46 1079.56
  A 1.02 1.00 -44.4 0 1 580.55 1079.56
  Q 561.89 1069.91 546.13 1056.50
  Q 539.44 1050.81 531.43 1042.94
  Q 510.45 1022.32 494.35 997.41"
/>
<path stroke="#a07a6c" vector-effect="non-scaling-stroke" d="
  M 370.10 512.52
  A 3.79 3.76 52.2 0 0 372.63 512.85
  Q 387.00 509.70 401.52 508.55
  Q 408.57 507.99 421.48 507.36
  Q 440.33 506.43 459.18 507.65
  Q 466.87 508.15 474.77 509.33
  Q 485.00 510.87 490.19 512.31
  Q 498.07 514.51 501.19 507.94
  Q 504.12 501.77 499.67 495.56
  Q 496.20 490.71 490.75 488.26
  Q 479.43 483.16 467.02 482.26
  Q 420.90 478.95 378.84 497.62
  Q 373.33 500.06 369.61 504.59
  Q 367.89 506.68 367.66 508.36
  Q 367.30 511.06 370.10 512.52"
/>
<path stroke="#a07a6c" vector-effect="non-scaling-stroke" d="
  M 663.76 511.20
  Q 667.00 513.44 671.81 512.31
  Q 697.03 506.42 724.76 506.88
  Q 733.31 507.02 744.75 507.50
  Q 764.21 508.32 783.43 511.64
  Q 783.77 511.69 787.48 512.70
  Q 789.94 513.37 791.75 512.75
  Q 794.22 511.90 794.40 509.42
  Q 794.53 507.67 793.39 505.76
  Q 792.36 504.03 790.81 502.70
  Q 786.35 498.86 780.94 496.55
  Q 746.34 481.79 708.99 481.97
  Q 696.55 482.03 690.02 482.94
  Q 680.53 484.26 671.60 488.15
  Q 666.13 490.53 662.54 495.27
  Q 659.62 499.13 659.83 504.00
  Q 660.03 508.63 663.76 511.20"
/>
<path stroke="#95a69d" vector-effect="non-scaling-stroke" d="
  M 413.46 561.25
  Q 409.70 568.63 409.00 575.75
  Q 407.18 594.15 413.72 612.39
  Q 415.83 618.28 419.81 623.69
  Q 426.62 632.92 438.00 633.75
  Q 450.55 634.67 459.72 624.98
  Q 467.10 617.19 469.76 606.75
  Q 473.73 591.14 470.73 576.14"
/>
<path stroke="#a07a6c" vector-effect="non-scaling-stroke" d="
  M 470.73 576.14
  Q 478.46 575.37 478.75 568.50
  Q 479.19 558.16 472.31 549.71
  Q 461.77 536.77 445.00 535.22
  Q 429.70 533.81 417.06 540.56
  Q 401.71 548.77 394.05 565.31
  Q 392.73 568.16 392.15 571.21
  Q 391.49 574.64 392.83 577.12
  Q 394.90 580.95 398.80 578.57
  Q 400.56 577.50 402.36 574.63
  Q 404.94 570.48 407.73 566.47
  Q 410.01 563.20 413.46 561.25"
/>
<path stroke="#365254" vector-effect="non-scaling-stroke" d="
  M 470.73 576.14
  Q 462.40 568.53 453.47 561.72
  Q 450.53 559.48 448.01 558.58
  Q 445.02 557.51 441.82 557.13
  Q 427.04 555.37 413.46 561.25"
/>
<path stroke="#95a69d" vector-effect="non-scaling-stroke" d="
  M 691.25 575.79
  Q 688.08 592.20 692.64 608.28
  Q 695.85 619.63 703.94 626.81
  Q 711.84 633.82 722.21 633.79
  Q 728.44 633.76 733.44 631.23
  Q 738.76 628.53 742.42 623.42
  Q 745.33 619.35 747.56 613.56
  Q 754.71 594.98 753.00 575.75
  Q 752.36 568.60 748.50 561.29"
/>
<path stroke="#a07a6c" vector-effect="non-scaling-stroke" d="
  M 748.50 561.29
  Q 754.02 564.69 757.08 570.46
  Q 760.53 576.96 761.94 577.81
  Q 767.78 581.38 769.59 576.55
  Q 770.52 574.07 769.54 570.46
  Q 766.33 558.63 756.94 549.56
  Q 740.04 533.26 716.76 535.39
  Q 699.30 536.99 688.86 550.88
  Q 682.65 559.14 683.25 568.50
  Q 683.72 575.79 691.25 575.79"
/>
<path stroke="#365254" vector-effect="non-scaling-stroke" d="
  M 748.50 561.29
  Q 735.97 555.75 722.23 556.80
  Q 715.30 557.33 710.56 560.06
  Q 703.81 563.96 697.19 571.44
  Q 694.45 574.53 691.25 575.79"
/>
<path stroke="#edb29f" vector-effect="non-scaling-stroke" d="
  M 546.40 729.36
  Q 548.21 730.60 551.69 731.81
  Q 582.89 742.70 612.96 730.64
  Q 619.25 728.12 620.57 722.30
  Q 621.32 718.99 617.96 718.56
  Q 605.02 716.92 592.00 717.08
  Q 577.38 717.25 562.75 717.25
  Q 553.06 717.24 543.49 718.75
  Q 540.90 719.16 541.33 721.74
  Q 542.11 726.43 546.40 729.36"
/>
<path stroke="#ffe7da" vector-effect="non-scaling-stroke" d="
  M 481.71 793.64
  Q 482.37 794.86 482.49 796.02
  Q 482.69 797.90 482.71 797.97
  Q 484.17 804.22 488.19 810.81
  Q 491.99 817.06 495.96 821.98
  Q 500.22 827.27 505.12 831.97
  Q 519.70 845.99 540.50 851.00
  Q 575.26 859.38 609.26 853.55
  Q 621.28 851.48 628.72 849.01
  Q 644.27 843.85 656.23 832.60
  Q 661.84 827.33 666.84 820.99
  Q 671.59 814.97 675.56 807.81
  Q 679.05 801.52 679.65 794.94
  A 1.09 0.73 -20.8 0 1 680.15 794.24
  Q 680.49 794.01 680.47 793.66
  A 0.92 0.63 11.4 0 0 679.85 793.02
  Q 677.34 792.17 673.25 792.25
  Q 659.24 792.53 656.50 792.66
  Q 624.01 794.23 591.50 795.21
  Q 581.52 795.51 571.51 795.23
  Q 533.83 794.17 501.00 792.50
  Q 494.52 792.17 489.69 792.23
  Q 489.52 792.23 487.32 792.18
  Q 484.58 792.11 481.95 793.02
  A 0.44 0.43 -24.1 0 0 481.71 793.64"
/>
</g>
<path fill="#ffffff" d="
  M 833.00 1097.79
  Q 819.06 1080.44 803.94 1067.31
  Q 773.06 1040.51 735.39 1022.38
  Q 725.63 1017.69 717.27 1013.93
  Q 693.04 1003.04 667.13 996.81
  L 655.18 995.39
  A 0.61 0.56 -87.4 0 1 654.69 994.80
  L 654.47 971.58
  L 654.62 948.53
  Q 689.79 935.33 718.69 918.94
  Q 743.98 904.58 765.28 884.78
  Q 788.51 863.18 807.91 838.16
  Q 814.29 829.94 819.55 821.92
  Q 844.35 784.16 857.28 740.64
  Q 869.55 746.81 882.75 746.70
  Q 899.26 746.56 913.94 739.14
  Q 930.39 730.84 941.64 716.83
  Q 947.09 710.05 952.06 699.83
  Q 962.34 678.73 966.68 655.63
  Q 968.78 644.42 969.43 635.82
  Q 970.67 619.25 967.08 602.83
  Q 964.48 590.96 958.78 580.24
  Q 953.79 570.85 945.56 563.44
  Q 939.37 557.85 931.86 555.40
  Q 924.89 553.12 916.45 553.90
  Q 906.10 554.85 897.44 559.94
  Q 888.06 565.44 885.77 566.66
  Q 890.83 553.52 893.50 542.50
  Q 903.66 500.59 904.09 456.57
  Q 904.17 448.68 904.15 436.56
  Q 904.08 389.23 894.92 342.72
  Q 891.19 323.72 884.25 301.00
  Q 871.96 260.74 846.53 228.94
  Q 843.82 225.56 840.33 222.22
  A 1.21 1.21 36.1 0 1 840.10 220.77
  Q 843.33 214.83 845.31 208.98
  Q 847.85 201.50 848.34 196.54
  Q 849.00 189.88 846.68 183.30
  Q 846.07 181.57 844.24 181.49
  Q 816.86 180.23 789.74 174.82
  Q 787.25 174.33 784.23 173.93
  A 0.55 0.54 -74.7 0 1 783.80 173.17
  Q 787.93 163.54 788.69 153.75
  Q 789.18 147.46 787.48 141.50
  Q 786.57 138.33 785.06 137.11
  Q 783.03 135.49 779.75 135.75
  Q 765.07 136.92 760.32 137.62
  Q 739.70 140.65 719.00 143.01
  Q 704.91 144.61 689.72 145.30
  A 1.00 1.00 3.7 0 1 688.69 144.13
  Q 691.05 130.03 686.15 117.08
  Q 684.02 111.45 678.69 112.69
  Q 612.15 128.07 553.99 135.91
  Q 547.46 136.79 540.94 137.73
  Q 535.36 138.54 527.90 139.46
  Q 509.42 141.76 491.11 145.15
  Q 490.95 145.17 474.34 148.16
  Q 432.81 155.63 394.18 172.45
  Q 384.41 176.70 376.17 181.14
  Q 359.75 190.01 345.19 200.94
  Q 310.13 227.24 291.13 267.10
  Q 280.35 289.71 273.91 313.93
  Q 258.47 371.93 257.83 432.00
  Q 257.71 442.98 258.00 459.25
  Q 258.79 503.54 269.25 545.50
  Q 271.31 553.76 276.36 567.18
  Q 265.09 558.79 252.31 555.19
  Q 238.51 551.30 226.35 556.87
  Q 219.91 559.83 213.66 565.99
  Q 207.71 571.86 204.06 578.56
  Q 189.45 605.40 192.75 637.25
  Q 195.91 667.72 207.12 693.87
  Q 211.67 704.49 216.45 711.52
  Q 226.48 726.32 242.07 735.92
  Q 258.50 746.05 277.50 746.75
  Q 291.43 747.27 304.77 740.63
  Q 320.03 792.71 351.81 835.19
  Q 372.76 863.19 399.80 887.58
  Q 407.78 894.78 415.15 900.42
  Q 427.50 909.86 439.81 916.94
  Q 471.12 934.93 507.25 948.54
  L 507.54 971.25
  L 507.54 994.30
  A 1.23 1.18 88.5 0 1 506.42 995.53
  Q 501.05 995.78 494.35 997.41
  Q 482.47 999.28 468.69 1004.44
  Q 446.86 1012.60 429.10 1021.00
  Q 387.06 1040.90 352.69 1072.19
  Q 340.59 1083.20 329.25 1097.79
  Q 291.85 1080.09 254.06 1053.94
  Q 215.10 1026.97 184.25 997.51
  Q 119.34 935.54 76.94 858.56
  Q 59.76 827.38 45.23 791.25
  Q 41.44 781.83 38.22 772.52
  Q 25.05 734.46 16.74 695.05
  Q 14.63 685.06 13.07 675.39
  Q 7.56 641.09 5.75 603.50
  Q 4.83 584.36 5.08 571.25
  Q 7.07 467.27 44.61 370.85
  Q 48.21 361.59 52.21 352.35
  Q 104.66 231.22 203.94 144.94
  Q 257.87 98.07 323.29 65.34
  Q 410.24 21.84 505.50 9.25
  Q 587.18 -1.54 669.62 11.15
  Q 679.46 12.66 689.32 14.57
  Q 798.35 35.69 890.19 94.31
  Q 1012.10 172.13 1083.66 299.24
  Q 1088.61 308.03 1093.12 316.86
  Q 1150.09 428.26 1156.25 554.50
  Q 1157.47 579.42 1156.34 603.01
  Q 1155.90 612.19 1155.13 622.97
  Q 1152.69 657.16 1146.05 690.81
  Q 1127.32 785.67 1079.56 868.31
  Q 1038.14 940.00 977.15 997.89
  Q 912.80 1058.97 833.00 1097.79
  Z"
/>
<path fill="#402523" d="
  M 885.77 566.66
  L 880.21 577.25
  Q 859.24 557.92 840.97 536.02
  Q 834.81 528.64 838.81 518.81
  Q 841.93 511.16 843.15 499.24
  Q 848.13 450.49 846.34 401.54
  Q 845.82 387.20 845.71 385.46
  Q 845.13 376.09 843.50 369.50
  Q 840.86 358.84 836.19 352.81
  Q 832.88 348.55 827.00 346.00
  Q 818.84 342.46 812.21 341.19
  Q 792.04 337.31 771.50 336.93
  Q 731.98 336.22 692.50 337.92
  Q 661.41 339.25 632.80 351.28
  Q 614.58 358.94 609.50 360.50
  Q 578.60 370.02 548.36 358.82
  Q 537.44 354.78 526.66 350.38
  Q 499.08 339.12 469.26 337.84
  Q 430.77 336.20 392.25 336.79
  Q 370.92 337.12 349.98 341.14
  Q 340.40 342.97 331.86 347.66
  Q 326.96 350.35 324.21 355.23
  Q 318.45 365.44 317.22 377.03
  Q 316.66 382.32 316.65 382.44
  Q 316.15 386.71 315.96 391.00
  Q 314.33 429.50 316.23 468.00
  Q 317.31 489.92 319.56 504.94
  Q 320.65 512.15 323.91 521.12
  Q 325.19 524.64 324.92 527.08
  Q 324.56 530.36 322.96 533.13
  Q 322.41 534.09 317.30 540.17
  Q 300.75 559.86 281.81 577.26
  L 276.36 567.18
  Q 271.31 553.76 269.25 545.50
  Q 258.79 503.54 258.00 459.25
  Q 257.71 442.98 257.83 432.00
  Q 258.47 371.93 273.91 313.93
  Q 280.35 289.71 291.13 267.10
  Q 310.13 227.24 345.19 200.94
  Q 359.75 190.01 376.17 181.14
  Q 384.41 176.70 394.18 172.45
  Q 432.81 155.63 474.34 148.16
  Q 490.95 145.17 491.11 145.15
  Q 509.42 141.76 527.90 139.46
  Q 535.36 138.54 540.94 137.73
  Q 547.46 136.79 553.99 135.91
  Q 612.15 128.07 678.69 112.69
  Q 684.02 111.45 686.15 117.08
  Q 691.05 130.03 688.69 144.13
  A 1.00 1.00 3.7 0 0 689.72 145.30
  Q 704.91 144.61 719.00 143.01
  Q 739.70 140.65 760.32 137.62
  Q 765.07 136.92 779.75 135.75
  Q 783.03 135.49 785.06 137.11
  Q 786.57 138.33 787.48 141.50
  Q 789.18 147.46 788.69 153.75
  Q 787.93 163.54 783.80 173.17
  A 0.55 0.54 -74.7 0 0 784.23 173.93
  Q 787.25 174.33 789.74 174.82
  Q 816.86 180.23 844.24 181.49
  Q 846.07 181.57 846.68 183.30
  Q 849.00 189.88 848.34 196.54
  Q 847.85 201.50 845.31 208.98
  Q 843.33 214.83 840.10 220.77
  A 1.21 1.21 36.1 0 0 840.33 222.22
  Q 843.82 225.56 846.53 228.94
  Q 871.96 260.74 884.25 301.00
  Q 891.19 323.72 894.92 342.72
  Q 904.08 389.23 904.15 436.56
  Q 904.17 448.68 904.09 456.57
  Q 903.66 500.59 893.50 542.50
  Q 890.83 553.52 885.77 566.66
  Z"
/>
<path fill="#ffceb5" d="
  M 880.21 577.25
  Q 879.92 587.97 879.75 590.25
  Q 877.47 621.44 871.56 668.56
  Q 866.64 707.85 857.28 740.64
  Q 844.35 784.16 819.55 821.92
  Q 814.29 829.94 807.91 838.16
  Q 788.51 863.18 765.28 884.78
  Q 743.98 904.58 718.69 918.94
  Q 689.79 935.33 654.62 948.53
  Q 634.53 956.27 620.00 958.50
  Q 610.05 960.03 600.00 960.52
  Q 579.97 961.51 559.98 960.42
  Q 549.13 959.83 540.14 958.05
  Q 523.32 954.72 507.25 948.54
  Q 471.12 934.93 439.81 916.94
  Q 427.50 909.86 415.15 900.42
  Q 407.78 894.78 399.80 887.58
  Q 372.76 863.19 351.81 835.19
  Q 320.03 792.71 304.77 740.63
  Q 297.23 715.10 293.24 688.75
  Q 286.47 644.06 283.00 599.00
  Q 281.88 584.42 281.81 577.26
  Q 300.75 559.86 317.30 540.17
  Q 322.41 534.09 322.96 533.13
  Q 324.56 530.36 324.92 527.08
  Q 325.19 524.64 323.91 521.12
  Q 320.65 512.15 319.56 504.94
  Q 317.31 489.92 316.23 468.00
  Q 314.33 429.50 315.96 391.00
  Q 316.15 386.71 316.65 382.44
  Q 316.66 382.32 317.22 377.03
  Q 318.45 365.44 324.21 355.23
  Q 326.96 350.35 331.86 347.66
  Q 340.40 342.97 349.98 341.14
  Q 370.92 337.12 392.25 336.79
  Q 430.77 336.20 469.26 337.84
  Q 499.08 339.12 526.66 350.38
  Q 537.44 354.78 548.36 358.82
  Q 578.60 370.02 609.50 360.50
  Q 614.58 358.94 632.80 351.28
  Q 661.41 339.25 692.50 337.92
  Q 731.98 336.22 771.50 336.93
  Q 792.04 337.31 812.21 341.19
  Q 818.84 342.46 827.00 346.00
  Q 832.88 348.55 836.19 352.81
  Q 840.86 358.84 843.50 369.50
  Q 845.13 376.09 845.71 385.46
  Q 845.82 387.20 846.34 401.54
  Q 848.13 450.49 843.15 499.24
  Q 841.93 511.16 838.81 518.81
  Q 834.81 528.64 840.97 536.02
  Q 859.24 557.92 880.21 577.25
  Z
  M 370.10 512.52
  A 3.79 3.76 52.2 0 0 372.63 512.85
  Q 387.00 509.70 401.52 508.55
  Q 408.57 507.99 421.48 507.36
  Q 440.33 506.43 459.18 507.65
  Q 466.87 508.15 474.77 509.33
  Q 485.00 510.87 490.19 512.31
  Q 498.07 514.51 501.19 507.94
  Q 504.12 501.77 499.67 495.56
  Q 496.20 490.71 490.75 488.26
  Q 479.43 483.16 467.02 482.26
  Q 420.90 478.95 378.84 497.62
  Q 373.33 500.06 369.61 504.59
  Q 367.89 506.68 367.66 508.36
  Q 367.30 511.06 370.10 512.52
  Z
  M 663.76 511.20
  Q 667.00 513.44 671.81 512.31
  Q 697.03 506.42 724.76 506.88
  Q 733.31 507.02 744.75 507.50
  Q 764.21 508.32 783.43 511.64
  Q 783.77 511.69 787.48 512.70
  Q 789.94 513.37 791.75 512.75
  Q 794.22 511.90 794.40 509.42
  Q 794.53 507.67 793.39 505.76
  Q 792.36 504.03 790.81 502.70
  Q 786.35 498.86 780.94 496.55
  Q 746.34 481.79 708.99 481.97
  Q 696.55 482.03 690.02 482.94
  Q 680.53 484.26 671.60 488.15
  Q 666.13 490.53 662.54 495.27
  Q 659.62 499.13 659.83 504.00
  Q 660.03 508.63 663.76 511.20
  Z
  M 413.46 561.25
  Q 409.70 568.63 409.00 575.75
  Q 407.18 594.15 413.72 612.39
  Q 415.83 618.28 419.81 623.69
  Q 426.62 632.92 438.00 633.75
  Q 450.55 634.67 459.72 624.98
  Q 467.10 617.19 469.76 606.75
  Q 473.73 591.14 470.73 576.14
  Q 478.46 575.37 478.75 568.50
  Q 479.19 558.16 472.31 549.71
  Q 461.77 536.77 445.00 535.22
  Q 429.70 533.81 417.06 540.56
  Q 401.71 548.77 394.05 565.31
  Q 392.73 568.16 392.15 571.21
  Q 391.49 574.64 392.83 577.12
  Q 394.90 580.95 398.80 578.57
  Q 400.56 577.50 402.36 574.63
  Q 404.94 570.48 407.73 566.47
  Q 410.01 563.20 413.46 561.25
  Z
  M 691.25 575.79
  Q 688.08 592.20 692.64 608.28
  Q 695.85 619.63 703.94 626.81
  Q 711.84 633.82 722.21 633.79
  Q 728.44 633.76 733.44 631.23
  Q 738.76 628.53 742.42 623.42
  Q 745.33 619.35 747.56 613.56
  Q 754.71 594.98 753.00 575.75
  Q 752.36 568.60 748.50 561.29
  Q 754.02 564.69 757.08 570.46
  Q 760.53 576.96 761.94 577.81
  Q 767.78 581.38 769.59 576.55
  Q 770.52 574.07 769.54 570.46
  Q 766.33 558.63 756.94 549.56
  Q 740.04 533.26 716.76 535.39
  Q 699.30 536.99 688.86 550.88
  Q 682.65 559.14 683.25 568.50
  Q 683.72 575.79 691.25 575.79
  Z
  M 546.40 729.36
  Q 548.21 730.60 551.69 731.81
  Q 582.89 742.70 612.96 730.64
  Q 619.25 728.12 620.57 722.30
  Q 621.32 718.99 617.96 718.56
  Q 605.02 716.92 592.00 717.08
  Q 577.38 717.25 562.75 717.25
  Q 553.06 717.24 543.49 718.75
  Q 540.90 719.16 541.33 721.74
  Q 542.11 726.43 546.40 729.36
  Z
  M 481.71 793.64
  Q 482.37 794.86 482.49 796.02
  Q 482.69 797.90 482.71 797.97
  Q 484.17 804.22 488.19 810.81
  Q 491.99 817.06 495.96 821.98
  Q 500.22 827.27 505.12 831.97
  Q 519.70 845.99 540.50 851.00
  Q 575.26 859.38 609.26 853.55
  Q 621.28 851.48 628.72 849.01
  Q 644.27 843.85 656.23 832.60
  Q 661.84 827.33 666.84 820.99
  Q 671.59 814.97 675.56 807.81
  Q 679.05 801.52 679.65 794.94
  A 1.09 0.73 -20.8 0 1 680.15 794.24
  Q 680.49 794.01 680.47 793.66
  A 0.92 0.63 11.4 0 0 679.85 793.02
  Q 677.34 792.17 673.25 792.25
  Q 659.24 792.53 656.50 792.66
  Q 624.01 794.23 591.50 795.21
  Q 581.52 795.51 571.51 795.23
  Q 533.83 794.17 501.00 792.50
  Q 494.52 792.17 489.69 792.23
  Q 489.52 792.23 487.32 792.18
  Q 484.58 792.11 481.95 793.02
  A 0.44 0.43 -24.1 0 0 481.71 793.64
  Z"
/>
<path fill="#402523" d="
  M 370.10 512.52
  Q 367.30 511.06 367.66 508.36
  Q 367.89 506.68 369.61 504.59
  Q 373.33 500.06 378.84 497.62
  Q 420.90 478.95 467.02 482.26
  Q 479.43 483.16 490.75 488.26
  Q 496.20 490.71 499.67 495.56
  Q 504.12 501.77 501.19 507.94
  Q 498.07 514.51 490.19 512.31
  Q 485.00 510.87 474.77 509.33
  Q 466.87 508.15 459.18 507.65
  Q 440.33 506.43 421.48 507.36
  Q 408.57 507.99 401.52 508.55
  Q 387.00 509.70 372.63 512.85
  A 3.79 3.76 52.2 0 1 370.10 512.52
  Z"
/>
<path fill="#402523" d="
  M 663.76 511.20
  Q 660.03 508.63 659.83 504.00
  Q 659.62 499.13 662.54 495.27
  Q 666.13 490.53 671.60 488.15
  Q 680.53 484.26 690.02 482.94
  Q 696.55 482.03 708.99 481.97
  Q 746.34 481.79 780.94 496.55
  Q 786.35 498.86 790.81 502.70
  Q 792.36 504.03 793.39 505.76
  Q 794.53 507.67 794.40 509.42
  Q 794.22 511.90 791.75 512.75
  Q 789.94 513.37 787.48 512.70
  Q 783.77 511.69 783.43 511.64
  Q 764.21 508.32 744.75 507.50
  Q 733.31 507.02 724.76 506.88
  Q 697.03 506.42 671.81 512.31
  Q 667.00 513.44 663.76 511.20
  Z"
/>
<path fill="#402523" d="
  M 470.73 576.14
  Q 462.40 568.53 453.47 561.72
  Q 450.53 559.48 448.01 558.58
  Q 445.02 557.51 441.82 557.13
  Q 427.04 555.37 413.46 561.25
  Q 410.01 563.20 407.73 566.47
  Q 404.94 570.48 402.36 574.63
  Q 400.56 577.50 398.80 578.57
  Q 394.90 580.95 392.83 577.12
  Q 391.49 574.64 392.15 571.21
  Q 392.73 568.16 394.05 565.31
  Q 401.71 548.77 417.06 540.56
  Q 429.70 533.81 445.00 535.22
  Q 461.77 536.77 472.31 549.71
  Q 479.19 558.16 478.75 568.50
  Q 478.46 575.37 470.73 576.14
  Z"
/>
<path fill="#402523" d="
  M 748.50 561.29
  Q 735.97 555.75 722.23 556.80
  Q 715.30 557.33 710.56 560.06
  Q 703.81 563.96 697.19 571.44
  Q 694.45 574.53 691.25 575.79
  Q 683.72 575.79 683.25 568.50
  Q 682.65 559.14 688.86 550.88
  Q 699.30 536.99 716.76 535.39
  Q 740.04 533.26 756.94 549.56
  Q 766.33 558.63 769.54 570.46
  Q 770.52 574.07 769.59 576.55
  Q 767.78 581.38 761.94 577.81
  Q 760.53 576.96 757.08 570.46
  Q 754.02 564.69 748.50 561.29
  Z"
/>
<path fill="#da9588" d="
  M 276.36 567.18
  L 281.81 577.26
  Q 281.88 584.42 283.00 599.00
  Q 286.47 644.06 293.24 688.75
  Q 297.23 715.10 304.77 740.63
  Q 291.43 747.27 277.50 746.75
  Q 258.50 746.05 242.07 735.92
  Q 226.48 726.32 216.45 711.52
  Q 211.67 704.49 207.12 693.87
  Q 195.91 667.72 192.75 637.25
  Q 189.45 605.40 204.06 578.56
  Q 207.71 571.86 213.66 565.99
  Q 219.91 559.83 226.35 556.87
  Q 238.51 551.30 252.31 555.19
  Q 265.09 558.79 276.36 567.18
  Z"
/>
<path fill="#da9588" d="
  M 857.28 740.64
  Q 866.64 707.85 871.56 668.56
  Q 877.47 621.44 879.75 590.25
  Q 879.92 587.97 880.21 577.25
  L 885.77 566.66
  Q 888.06 565.44 897.44 559.94
  Q 906.10 554.85 916.45 553.90
  Q 924.89 553.12 931.86 555.40
  Q 939.37 557.85 945.56 563.44
  Q 953.79 570.85 958.78 580.24
  Q 964.48 590.96 967.08 602.83
  Q 970.67 619.25 969.43 635.82
  Q 968.78 644.42 966.68 655.63
  Q 962.34 678.73 952.06 699.83
  Q 947.09 710.05 941.64 716.83
  Q 930.39 730.84 913.94 739.14
  Q 899.26 746.56 882.75 746.70
  Q 869.55 746.81 857.28 740.64
  Z"
/>
<path fill="#2b7e84" d="
  M 470.73 576.14
  Q 473.73 591.14 469.76 606.75
  Q 467.10 617.19 459.72 624.98
  Q 450.55 634.67 438.00 633.75
  Q 426.62 632.92 419.81 623.69
  Q 415.83 618.28 413.72 612.39
  Q 407.18 594.15 409.00 575.75
  Q 409.70 568.63 413.46 561.25
  Q 427.04 555.37 441.82 557.13
  Q 445.02 557.51 448.01 558.58
  Q 450.53 559.48 453.47 561.72
  Q 462.40 568.53 470.73 576.14
  Z"
/>
<path fill="#2b7e84" d="
  M 748.50 561.29
  Q 752.36 568.60 753.00 575.75
  Q 754.71 594.98 747.56 613.56
  Q 745.33 619.35 742.42 623.42
  Q 738.76 628.53 733.44 631.23
  Q 728.44 633.76 722.21 633.79
  Q 711.84 633.82 703.94 626.81
  Q 695.85 619.63 692.64 608.28
  Q 688.08 592.20 691.25 575.79
  Q 694.45 574.53 697.19 571.44
  Q 703.81 563.96 710.56 560.06
  Q 715.30 557.33 722.23 556.80
  Q 735.97 555.75 748.50 561.29
  Z"
/>
<path fill="#da9588" d="
  M 546.40 729.36
  Q 542.11 726.43 541.33 721.74
  Q 540.90 719.16 543.49 718.75
  Q 553.06 717.24 562.75 717.25
  Q 577.38 717.25 592.00 717.08
  Q 605.02 716.92 617.96 718.56
  Q 621.32 718.99 620.57 722.30
  Q 619.25 728.12 612.96 730.64
  Q 582.89 742.70 551.69 731.81
  Q 548.21 730.60 546.40 729.36
  Z"
/>
<path fill="#ffffff" d="
  M 481.71 793.64
  A 0.44 0.43 -24.1 0 1 481.95 793.02
  Q 484.58 792.11 487.32 792.18
  Q 489.52 792.23 489.69 792.23
  Q 494.52 792.17 501.00 792.50
  Q 533.83 794.17 571.51 795.23
  Q 581.52 795.51 591.50 795.21
  Q 624.01 794.23 656.50 792.66
  Q 659.24 792.53 673.25 792.25
  Q 677.34 792.17 679.85 793.02
  A 0.92 0.63 11.4 0 1 680.47 793.66
  Q 680.49 794.01 680.15 794.24
  A 1.09 0.73 -20.8 0 0 679.65 794.94
  Q 679.05 801.52 675.56 807.81
  Q 671.59 814.97 666.84 820.99
  Q 661.84 827.33 656.23 832.60
  Q 644.27 843.85 628.72 849.01
  Q 621.28 851.48 609.26 853.55
  Q 575.26 859.38 540.50 851.00
  Q 519.70 845.99 505.12 831.97
  Q 500.22 827.27 495.96 821.98
  Q 491.99 817.06 488.19 810.81
  Q 484.17 804.22 482.71 797.97
  Q 482.69 797.90 482.49 796.02
  Q 482.37 794.86 481.71 793.64
  Z"
/>
<path fill="#da9588" d="
  M 507.25 948.54
  Q 523.32 954.72 540.14 958.05
  Q 549.13 959.83 559.98 960.42
  Q 579.97 961.51 600.00 960.52
  Q 610.05 960.03 620.00 958.50
  Q 634.53 956.27 654.62 948.53
  L 654.47 971.58
  Q 633.85 986.06 609.78 992.70
  Q 598.23 995.89 583.25 998.75
  Q 580.51 999.27 578.11 998.68
  Q 575.42 998.02 575.35 998.01
  Q 565.84 996.35 554.00 993.25
  Q 528.31 986.51 507.54 971.25
  L 507.25 948.54
  Z"
/>
<path fill="#ffceb5" d="
  M 507.54 971.25
  Q 528.31 986.51 554.00 993.25
  Q 565.84 996.35 575.35 998.01
  Q 575.42 998.02 578.11 998.68
  Q 580.51 999.27 583.25 998.75
  Q 598.23 995.89 609.78 992.70
  Q 633.85 986.06 654.47 971.58
  L 654.69 994.80
  A 0.61 0.56 -87.4 0 0 655.18 995.39
  L 667.13 996.81
  Q 667.00 998.79 666.00 1000.25
  Q 642.72 1034.22 612.12 1059.46
  Q 604.58 1065.68 597.35 1070.34
  Q 589.68 1075.29 581.46 1079.56
  A 1.02 1.00 -44.4 0 1 580.55 1079.56
  Q 561.89 1069.91 546.13 1056.50
  Q 539.44 1050.81 531.43 1042.94
  Q 510.45 1022.32 494.35 997.41
  Q 501.05 995.78 506.42 995.53
  A 1.23 1.18 88.5 0 0 507.54 994.30
  L 507.54 971.25
  Z"
/>
<path fill="#323244" d="
  M 494.35 997.41
  Q 510.45 1022.32 531.43 1042.94
  Q 539.44 1050.81 546.13 1056.50
  Q 561.89 1069.91 580.55 1079.56
  A 1.02 1.00 -44.4 0 0 581.46 1079.56
  Q 589.68 1075.29 597.35 1070.34
  Q 604.58 1065.68 612.12 1059.46
  Q 642.72 1034.22 666.00 1000.25
  Q 667.00 998.79 667.13 996.81
  Q 693.04 1003.04 717.27 1013.93
  Q 725.63 1017.69 735.39 1022.38
  Q 773.06 1040.51 803.94 1067.31
  Q 819.06 1080.44 833.00 1097.79
  Q 794.40 1116.72 754.25 1129.25
  Q 720.90 1139.66 685.78 1146.38
  Q 676.17 1148.22 666.05 1149.67
  Q 626.04 1155.39 590.50 1156.00
  Q 539.78 1156.87 486.17 1148.12
  Q 476.40 1146.53 466.51 1144.46
  Q 430.25 1136.87 397.31 1125.94
  Q 363.62 1114.76 329.25 1097.79
  Q 340.59 1083.20 352.69 1072.19
  Q 387.06 1040.90 429.10 1021.00
  Q 446.86 1012.60 468.69 1004.44
  Q 482.47 999.28 494.35 997.41
  Z"
/>
</svg>
