<?xml version="1.0" encoding="UTF-8" standalone="no"?>
<!DOCTYPE svg PUBLIC "-//W3C//DTD SVG 1.1//EN" "http://www.w3.org/Graphics/SVG/1.1/DTD/svg11.dtd">
<svg xmlns="http://www.w3.org/2000/svg" version="1.1" viewBox="0 0 310 860">
<g stroke-width="0.30" fill="none" stroke-linecap="butt">
<path stroke="#626a7f" vector-effect="non-scaling-stroke" d="
  M 215.96 172.00
  Q 186.39 161.99 157.00 151.51
  Q 156.29 151.26 155.78 151.36"
/>
<path stroke="#c8d0dd" vector-effect="non-scaling-stroke" d="
  M 215.54 266.01
  Q 214.73 265.45 214.20 265.27
  Q 206.22 262.51 198.25 259.71"
/>
</g>
<path fill="#323244" d="
  M 215.96 172.00
  Q 186.39 161.99 157.00 151.51
  Q 156.29 151.26 155.78 151.36
  L 45.61 112.71
  Q 43.21 111.87 45.49 110.76
  L 215.38 27.66
  A 0.43 0.43 -13.3 0 1 216.00 28.04
  L 215.96 172.00
  Z"
/>
<path fill="#91a1ba" d="
  M 215.96 172.00
  Q 216.37 219.01 215.54 266.01
  Q 214.73 265.45 214.20 265.27
  Q 206.22 262.51 198.25 259.71
  L 45.11 206.38
  Q 43.99 205.99 45.05 205.47
  L 155.78 151.36
  Q 156.29 151.26 157.00 151.51
  Q 186.39 161.99 215.96 172.00
  Z"
/>
<path fill="#ffffff" d="
  M 198.25 259.71
  Q 206.22 262.51 214.20 265.27
  Q 214.73 265.45 215.54 266.01
  Q 214.92 292.33 215.00 344.25
  Q 215.18 461.95 214.89 860.00
  L 195.19 860.00
  L 195.06 260.81
  A 0.65 0.58 85.8 0 1 195.55 260.18
  L 198.25 259.71
  Z"
/>
</svg>
