<?xml version="1.0" encoding="UTF-8" standalone="no"?>
<!DOCTYPE svg PUBLIC "-//W3C//DTD SVG 1.1//EN" "http://www.w3.org/Graphics/SVG/1.1/DTD/svg11.dtd">
<svg xmlns="http://www.w3.org/2000/svg" version="1.1" viewBox="0 0 1782 1176">
<g stroke-width="2.00" fill="none" stroke-linecap="butt">
<path stroke="#93929b" vector-effect="non-scaling-stroke" d="
  M 652.50 1176.00
  L 644.70 949.75
  Q 644.62 947.30 647.02 946.95
  Q 667.03 944.06 688.04 938.63
  A 1.23 1.20 7.3 0 0 688.77 938.08
  Q 697.82 922.81 695.79 905.00"
/>
<path stroke="#f9e0d3" vector-effect="non-scaling-stroke" d="
  M 695.79 905.00
  C 726.14 904.43 745.15 903.11 775.17 899.45"
/>
<path stroke="#c2cad6" vector-effect="non-scaling-stroke" d="
  M 775.17 899.45
  L 775.16 930.89
  A 0.35 0.34 -90.0 0 0 775.50 931.24
  L 820.98 931.22
  A 0.50 0.49 -90.0 0 0 821.47 930.72
  L 821.46 891.62"
/>
<path stroke="#f9e0d3" vector-effect="non-scaling-stroke" d="
  M 821.46 891.62
  C 849.67 885.57 870.15 879.59 894.46 873.00"
/>
<path stroke="#93929b" vector-effect="non-scaling-stroke" d="
  M 894.46 873.00
  L 894.46 980.00"
/>
<path stroke="#c2cad6" vector-effect="non-scaling-stroke" d="
  M 894.46 980.00
  L 868.27 980.01
  A 0.50 0.49 -0.0 0 0 867.77 980.50
  L 867.83 1025.89
  A 0.50 0.50 0.0 0 0 868.33 1026.39
  L 894.46 1026.50"
/>
<path stroke="#93929b" vector-effect="non-scaling-stroke" d="
  M 894.46 1026.50
  Q 894.54 1049.00 894.62 1071.50
  C 894.69 1090.51 903.11 1093.98 920.58 1093.99
  Q 1174.42 1094.02 1428.26 1093.99
  C 1438.45 1093.99 1446.86 1092.89 1450.69 1083.23
  Q 1452.25 1079.30 1452.24 1069.07
  Q 1452.23 1034.66 1452.29 1000.25"
/>
<path stroke="#c2cad6" vector-effect="non-scaling-stroke" d="
  M 1452.29 1000.25
  L 1484.38 1000.28
  A 0.50 0.49 -0.0 0 0 1484.88 999.79
  L 1484.89 972.10
  A 0.51 0.51 0.0 0 0 1484.38 971.59
  L 1452.29 971.50"
/>
<path stroke="#93929b" vector-effect="non-scaling-stroke" d="
  M 1452.29 971.50
  L 1452.29 916.00"
/>
<path stroke="#c2cad6" vector-effect="non-scaling-stroke" d="
  M 1452.29 916.00
  L 1533.60 915.94
  A 0.51 0.50 -0.0 0 0 1534.11 915.44
  L 1534.20 887.78
  A 0.51 0.50 0.0 0 0 1533.69 887.28
  L 1452.29 887.25"
/>
<path stroke="#93929b" vector-effect="non-scaling-stroke" d="
  M 1452.29 887.25
  L 1452.25 864.04"
/>
<path stroke="#e7c4bd" vector-effect="non-scaling-stroke" d="
  M 1452.25 864.04
  C 1473.37 860.99 1487.72 843.86 1493.25 824.29"
/>
<path stroke="#f9e0d3" vector-effect="non-scaling-stroke" d="
  M 1493.25 824.29
  C 1500.73 799.55 1497.20 771.75 1480.61 751.44"
/>
<path stroke="#e7c4bd" vector-effect="non-scaling-stroke" d="
  M 1480.61 751.44
  C 1498.36 742.24 1510.54 723.43 1515.96 704.75"
/>
<path stroke="#f9e0d3" vector-effect="non-scaling-stroke" d="
  M 1515.96 704.75
  C 1524.35 676.36 1521.90 641.33 1504.07 616.70
  Q 1498.78 609.39 1490.59 602.58"
/>
<path stroke="#e7c4bd" vector-effect="non-scaling-stroke" d="
  M 1490.59 602.58
  Q 1508.94 586.09 1515.90 562.43"
/>
<path stroke="#f9e0d3" vector-effect="non-scaling-stroke" d="
  M 1515.90 562.43
  C 1526.09 527.86 1520.36 477.68 1485.84 457.47
  C 1485.60 457.33 1485.47 457.01 1485.46 456.75"
/>
<path stroke="#e7c4bd" vector-effect="non-scaling-stroke" d="
  M 1485.46 456.75
  Q 1495.71 444.69 1500.21 429.50"
/>
<path stroke="#f9e0d3" vector-effect="non-scaling-stroke" d="
  M 1500.21 429.50
  C 1509.24 398.64 1503.13 353.99 1469.67 339.11
  Q 1461.29 335.38 1452.29 333.50"
/>
<path stroke="#93929b" vector-effect="non-scaling-stroke" d="
  M 1452.29 333.50
  Q 1452.21 206.67 1452.26 79.82
  Q 1452.26 70.54 1450.96 66.82
  C 1447.25 56.24 1438.36 55.26 1427.44 55.26
  Q 1173.41 55.23 919.39 55.26
  C 907.28 55.26 898.91 56.62 895.28 68.70
  Q 894.49 71.32 894.49 72.50
  L 894.46 322.50"
/>
<path stroke="#c2cad6" vector-effect="non-scaling-stroke" d="
  M 894.46 322.50
  Q 866.25 322.47 838.05 322.53
  C 821.75 322.57 807.26 329.77 807.25 348.25
  Q 807.23 384.84 807.26 421.27
  A 0.48 0.48 0.0 0 0 807.74 421.75
  L 853.04 421.74
  A 0.46 0.46 0.0 0 0 853.50 421.28
  L 853.58 369.61
  A 0.52 0.49 -90.0 0 1 854.07 369.09
  L 894.50 369.21"
/>
<path stroke="#93929b" vector-effect="non-scaling-stroke" d="
  M 894.50 369.21
  L 894.54 622.50"
/>
<path stroke="#f9e0d3" vector-effect="non-scaling-stroke" d="
  M 894.54 622.50
  C 864.30 627.36 843.79 643.33 834.72 673.20
  Q 824.80 705.90 834.79 738.02"
/>
<path stroke="#e7c4bd" vector-effect="non-scaling-stroke" d="
  M 834.79 738.02
  Q 838.78 752.14 847.57 764.13"
/>
<path stroke="#f9e0d3" vector-effect="non-scaling-stroke" d="
  M 847.57 764.13
  Q 835.02 772.98 821.50 779.46"
/>
<path stroke="#c2cad6" vector-effect="non-scaling-stroke" d="
  M 821.50 779.46
  Q 821.49 749.53 821.50 719.59
  Q 821.51 706.84 819.92 702.08
  C 815.82 689.75 805.34 686.24 793.08 686.11
  Q 768.96 685.86 744.79 686.05
  A 0.52 0.50 -0.6 0 0 744.28 686.55
  L 744.26 731.82
  A 0.72 0.71 0.0 0 0 744.98 732.53
  L 774.58 732.60
  A 0.52 0.51 89.4 0 1 775.09 733.11
  Q 775.30 743.10 775.23 752.99
  C 775.11 769.28 775.40 784.72 775.14 800.63"
/>
<path stroke="#f9e0d3" vector-effect="non-scaling-stroke" d="
  M 775.14 800.63
  C 748.67 811.54 721.63 821.10 694.32 829.67"
/>
<path stroke="#93929b" vector-effect="non-scaling-stroke" d="
  M 694.32 829.67
  L 693.96 828.50"
/>
<path stroke="#c2cad6" vector-effect="non-scaling-stroke" d="
  M 693.96 828.50
  C 695.27 825.78 695.92 823.01 697.41 820.38
  Q 699.60 816.53 701.09 812.24
  A 0.89 0.87 -55.7 0 0 700.94 811.38
  L 671.43 777.00
  A 1.20 1.16 27.5 0 1 671.14 776.13
  Q 671.43 771.92 672.17 768.01
  Q 674.91 753.42 673.88 738.37"
/>
<path stroke="#f9e0d3" vector-effect="non-scaling-stroke" d="
  M 673.88 738.37
  Q 675.61 735.02 678.46 732.25"
/>
<path stroke="#c2cad6" vector-effect="non-scaling-stroke" d="
  M 678.46 732.25
  L 730.65 732.37
  A 0.50 0.49 -90.0 0 0 731.14 731.87
  L 731.20 686.54
  A 0.50 0.50 0.0 0 0 730.70 686.04
  L 705.79 686.01
  A 1.19 1.05 -18.4 0 1 704.94 685.65
  Q 703.77 684.30 703.46 682.50"
/>
<path stroke="#f9e0d3" vector-effect="non-scaling-stroke" d="
  M 703.46 682.50
  L 704.79 678.00"
/>
<path stroke="#e7c4bd" vector-effect="non-scaling-stroke" d="
  M 704.79 678.00
  C 727.32 689.73 752.66 672.73 761.80 652.06
  C 770.96 631.34 775.92 606.08 765.88 584.74
  C 759.68 571.57 748.00 563.35 733.02 568.82
  Q 729.18 570.23 723.22 573.97
  Q 722.19 574.62 721.96 573.50"
/>
<path stroke="#9a8c8a" vector-effect="non-scaling-stroke" d="
  M 721.96 573.50
  Q 727.11 559.24 729.42 544.68"
/>
<path stroke="#c2cad6" vector-effect="non-scaling-stroke" d="
  M 729.42 544.68
  Q 743.05 545.63 756.66 545.31
  A 0.52 0.52 0.0 0 0 757.17 544.80
  L 757.21 499.25
  A 0.51 0.48 0.0 0 0 756.70 498.77
  L 732.54 498.75"
/>
<path stroke="#9a8c8a" vector-effect="non-scaling-stroke" d="
  M 732.54 498.75
  L 732.21 492.00"
/>
<path stroke="#c2cad6" vector-effect="non-scaling-stroke" d="
  M 732.21 492.00
  Q 732.81 487.36 732.04 482.75"
/>
<path stroke="#9a8c8a" vector-effect="non-scaling-stroke" d="
  M 732.04 482.75
  C 730.27 449.26 723.53 413.52 705.97 384.41"
/>
<path stroke="#a2b9c0" vector-effect="non-scaling-stroke" d="
  M 705.97 384.41
  L 724.59 387.47
  A 0.86 0.80 23.6 0 0 725.39 387.19
  Q 743.94 365.28 754.37 338.50
  A 0.95 0.92 -51.6 0 0 754.28 337.62
  Q 752.04 334.42 750.79 332.97
  Q 737.84 317.92 724.79 302.94
  A 1.22 1.22 29.2 0 1 724.51 301.95
  C 727.66 283.67 728.97 267.21 725.82 247.47
  A 0.99 0.97 63.4 0 1 726.09 246.62
  L 758.26 214.55
  A 1.02 1.01 -31.5 0 0 758.51 213.52
  Q 747.20 178.62 723.28 150.94
  A 0.83 0.80 -26.9 0 0 722.47 150.69
  L 678.51 161.48
  A 1.37 1.36 58.8 0 1 677.30 161.18
  C 663.19 149.00 647.40 140.98 630.19 133.91
  A 1.11 1.09 -88.4 0 1 629.57 133.24
  Q 623.59 114.48 617.49 95.75
  Q 616.47 92.63 615.21 89.87
  A 0.81 0.80 82.2 0 0 614.61 89.41
  Q 586.15 84.74 558.81 88.62
  A 2.70 2.63 5.3 0 0 556.66 90.36
  L 542.22 131.79
  A 1.18 1.15 88.4 0 1 541.60 132.46
  C 538.74 133.76 536.02 135.09 533.01 136.24
  Q 511.54 144.39 493.62 159.00
  A 1.00 0.93 -55.8 0 1 492.75 159.20
  L 448.71 147.36
  A 0.83 0.81 28.0 0 0 447.89 147.60
  Q 423.21 174.79 411.11 209.50
  A 0.80 0.80 32.9 0 0 411.29 210.33
  L 442.76 243.03
  A 0.97 0.92 -62.3 0 1 443.00 243.88
  Q 439.08 264.65 441.48 285.68
  Q 442.22 292.14 442.94 298.74
  A 1.12 1.09 -27.1 0 1 442.65 299.60
  L 412.42 333.06
  A 0.85 0.80 -35.6 0 0 412.25 333.91
  L 417.04 346.50"
/>
<path stroke="#9a8c8a" vector-effect="non-scaling-stroke" d="
  M 417.04 346.50
  Q 404.82 353.77 393.72 362.85"
/>
<path stroke="#dfbcbd" vector-effect="non-scaling-stroke" d="
  M 393.72 362.85
  Q 391.13 359.78 392.01 356.04
  Q 392.99 351.88 393.00 351.83
  Q 394.52 338.26 392.27 324.72
  A 0.95 0.94 62.4 0 1 392.53 323.88
  L 413.23 302.85
  A 0.82 0.80 -32.3 0 0 413.43 302.02
  Q 405.70 279.21 389.85 261.10
  A 0.81 0.78 -27.4 0 0 389.04 260.86
  L 360.31 268.31
  A 1.01 0.98 56.9 0 1 359.42 268.11
  C 349.68 260.02 340.20 255.23 328.17 250.46
  A 1.10 1.04 -89.4 0 1 327.56 249.80
  L 318.09 221.80
  A 0.89 0.85 -3.6 0 0 317.40 221.22
  Q 298.65 218.24 279.98 221.28
  A 0.72 0.70 3.8 0 0 279.41 221.76
  L 270.08 249.63
  A 1.80 1.73 -89.6 0 1 268.99 250.75
  Q 252.29 256.51 238.19 268.00
  A 1.03 0.97 -56.8 0 1 237.31 268.21
  L 208.57 260.77
  A 0.83 0.78 26.9 0 0 207.75 261.01
  Q 191.80 279.12 184.12 302.00
  A 0.81 0.77 32.7 0 0 184.32 302.82
  L 205.07 323.96
  A 1.02 1.01 27.3 0 1 205.35 324.81
  C 203.20 338.46 203.96 348.11 205.70 360.09
  A 2.31 2.22 -29.3 0 1 205.15 361.91
  L 185.97 383.62
  A 0.88 0.84 56.3 0 0 185.82 384.47
  Q 191.34 399.31 201.69 413.31
  Q 203.52 415.79 204.86 416.99
  A 1.05 0.99 -28.7 0 0 205.74 417.22
  L 234.29 411.46
  A 1.10 1.06 57.2 0 1 235.17 411.67
  C 246.09 420.10 254.46 425.48 266.04 429.92
  A 1.00 0.96 3.4 0 1 266.64 430.57
  L 274.56 459.10
  A 0.85 0.81 87.3 0 0 275.18 459.69
  Q 298.73 464.41 322.35 459.67
  A 0.81 0.81 1.7 0 0 322.97 459.09
  L 330.85 430.72
  A 1.02 1.01 87.8 0 1 331.46 430.05
  Q 347.30 423.83 360.35 413.05
  A 1.21 0.65 -48.2 0 1 361.23 412.73
  Q 361.68 412.85 361.54 413.50"
/>
<path stroke="#9a8c8a" vector-effect="non-scaling-stroke" d="
  M 361.54 413.50
  Q 350.92 446.94 348.96 482.00"
/>
<path stroke="#c2cad6" vector-effect="non-scaling-stroke" d="
  M 348.96 482.00
  Q 348.65 483.37 347.47 482.55
  Q 338.82 476.51 332.54 473.07
  A 0.82 0.77 -47.5 0 0 331.69 473.13
  L 307.41 490.05
  A 1.05 1.00 36.1 0 1 306.51 490.17
  Q 289.38 484.50 271.32 484.69
  A 1.11 1.07 -20.7 0 1 270.48 484.33
  C 263.74 476.95 258.01 468.65 251.30 461.20
  A 0.84 0.83 62.6 0 0 250.49 460.94
  Q 232.51 464.87 216.27 473.66
  A 1.54 1.48 -15.5 0 0 215.46 475.03
  L 216.31 503.98
  A 1.21 1.11 68.6 0 1 215.98 504.83
  C 207.18 513.74 199.81 520.49 192.72 532.55
  A 1.01 0.96 -76.5 0 1 191.98 533.03
  L 162.74 536.03
  A 1.24 1.21 6.8 0 0 161.71 536.82
  Q 153.67 558.15 153.86 582.57
  A 1.58 1.54 12.5 0 0 154.77 583.96
  L 181.24 596.34
  A 1.05 0.99 -84.5 0 1 181.79 597.05
  C 184.50 610.11 188.07 618.15 194.66 630.56
  A 1.08 1.06 41.7 0 1 194.72 631.46
  L 184.29 658.59
  A 1.62 1.59 35.3 0 0 184.59 660.23
  Q 197.08 674.32 212.85 683.61
  A 1.36 1.29 43.6 0 0 214.23 683.61
  L 238.68 668.49
  A 2.70 2.56 -50.0 0 1 240.97 668.23
  Q 257.50 674.28 275.27 674.47
  A 1.02 0.99 -17.1 0 1 276.06 674.87
  L 293.51 698.84
  A 0.80 0.79 67.6 0 0 294.29 699.17
  Q 318.12 695.40 338.54 682.72
  A 0.88 0.72 75.5 0 0 338.89 681.96
  L 338.50 675.04"
/>
<path stroke="#e7c4bd" vector-effect="non-scaling-stroke" d="
  M 338.50 675.04
  Q 347.82 680.39 358.50 681.79"
/>
<path stroke="#c2cad6" vector-effect="non-scaling-stroke" d="
  M 358.50 681.79
  Q 357.85 682.59 357.63 683.46
  A 0.97 0.83 32.5 0 0 357.89 684.31
  L 389.35 717.19
  A 1.03 0.98 -62.0 0 1 389.59 718.05
  C 385.88 736.91 387.20 753.86 389.47 772.73
  A 1.16 1.11 -27.9 0 1 389.18 773.60
  L 359.76 806.08
  Q 358.46 807.52 359.14 809.37
  Q 368.72 835.34 386.11 857.15
  A 2.53 2.51 -24.3 0 0 388.55 858.06
  Q 410.27 854.08 431.73 849.92
  Q 432.65 849.74 433.79 850.75"
/>
<path stroke="#93929b" vector-effect="non-scaling-stroke" d="
  M 433.79 850.75
  C 405.36 871.19 383.91 899.61 367.41 930.07
  A 0.60 0.55 -59.1 0 0 367.57 930.83
  L 370.04 932.50"
/>
<path stroke="#f9e0d3" vector-effect="non-scaling-stroke" d="
  M 370.04 932.50
  C 370.04 933.14 370.07 933.44 369.68 933.99
  Q 343.85 970.48 339.24 978.26
  C 331.94 990.55 322.29 1007.87 333.05 1021.45
  C 339.70 1029.86 345.46 1035.64 354.55 1042.54
  Q 371.22 1055.21 387.81 1068.33
  Q 389.74 1069.86 389.34 1072.29
  C 388.25 1078.82 391.63 1086.19 395.26 1091.83
  A 0.51 0.49 -33.7 0 1 395.11 1092.51
  C 387.58 1097.58 395.82 1108.45 400.22 1112.05
  C 407.80 1118.25 422.76 1109.15 429.45 1104.64"
/>
<path stroke="#93929b" vector-effect="non-scaling-stroke" d="
  M 429.45 1104.64
  L 427.44 1176.00"
/>
<path stroke="#c2cad6" vector-effect="non-scaling-stroke" d="
  M 1534.31 299.38
  Q 1548.18 311.10 1565.12 317.72
  A 1.04 0.97 4.3 0 1 1565.73 318.38
  L 1573.57 346.83
  A 0.82 0.81 88.1 0 0 1574.19 347.42
  Q 1597.90 352.18 1621.55 347.42
  A 0.81 0.80 -88.1 0 0 1622.16 346.84
  L 1630.02 318.36
  A 1.03 0.99 -4.0 0 1 1630.63 317.69
  Q 1647.39 311.24 1661.12 299.49
  A 1.06 1.03 -58.9 0 1 1662.00 299.26
  L 1690.02 304.84
  Q 1691.82 305.20 1692.95 303.78
  Q 1703.85 290.22 1710.69 272.87
  A 1.79 1.74 -55.4 0 0 1710.38 271.05
  L 1691.05 249.13
  A 1.05 1.03 30.0 0 1 1690.81 248.26
  Q 1694.25 230.46 1691.36 212.56
  A 1.04 0.97 63.8 0 1 1691.62 211.70
  L 1712.20 190.68
  A 1.20 1.18 -32.6 0 0 1712.48 189.46
  Q 1704.31 166.35 1689.00 148.93
  A 0.82 0.81 62.2 0 0 1688.19 148.67
  L 1659.62 156.07
  A 0.99 0.98 -32.6 0 1 1658.74 155.88
  Q 1644.66 144.48 1627.46 138.42
  A 1.04 0.97 1.8 0 1 1626.83 137.79
  L 1617.67 110.51
  A 2.51 2.51 -4.6 0 0 1615.68 108.82
  Q 1598.05 105.97 1579.23 108.94
  A 0.85 0.81 4.4 0 0 1578.57 109.48
  L 1569.17 137.26
  A 1.27 1.13 88.9 0 1 1568.57 137.96
  C 1557.28 143.33 1547.55 147.20 1537.36 155.73
  A 1.03 0.97 -56.8 0 1 1536.48 155.94
  L 1507.67 148.58
  A 0.83 0.81 28.0 0 0 1506.85 148.82
  Q 1491.00 166.80 1483.18 189.57
  A 0.82 0.81 32.5 0 0 1483.37 190.40
  L 1504.13 211.69
  A 0.99 0.97 -63.4 0 1 1504.40 212.54
  Q 1501.69 228.92 1504.72 246.47
  Q 1505.09 248.62 1503.60 250.31
  L 1485.42 270.89
  A 1.95 1.89 55.7 0 0 1485.08 272.85
  Q 1491.80 290.17 1502.87 303.87
  A 2.74 2.71 64.8 0 0 1505.52 304.84
  L 1533.45 299.17
  A 1.04 1.00 -30.0 0 1 1534.31 299.38"
/>
<path stroke="#b3cab4" vector-effect="non-scaling-stroke" d="
  M 1693.67 376.87
  C 1685.90 370.69 1679.67 367.96 1671.67 364.46
  A 1.19 1.14 -88.7 0 1 1671.05 363.78
  L 1664.51 344.34
  A 0.84 0.82 -4.6 0 0 1663.85 343.79
  Q 1650.83 341.67 1638.00 343.70
  A 1.56 1.55 4.9 0 0 1636.75 344.75
  L 1630.30 363.94
  A 1.04 1.03 89.5 0 1 1629.68 364.58
  Q 1617.75 368.96 1607.69 376.78
  A 1.02 1.00 -56.7 0 1 1606.80 376.97
  L 1586.87 371.97
  A 0.83 0.83 -61.6 0 0 1586.04 372.22
  Q 1574.92 384.78 1569.59 400.78
  A 0.82 0.81 32.5 0 0 1569.78 401.61
  L 1584.18 416.37
  A 1.01 1.00 -62.7 0 1 1584.45 417.23
  Q 1582.39 429.39 1584.79 441.51
  A 2.46 2.36 -30.7 0 1 1584.22 443.57
  L 1570.97 458.56
  A 1.18 1.16 55.4 0 0 1570.76 459.76
  Q 1575.48 471.92 1583.69 482.17
  A 0.84 0.82 64.6 0 0 1584.50 482.47
  L 1605.04 478.50
  A 1.04 1.00 -30.0 0 1 1605.90 478.71
  Q 1615.61 486.95 1627.49 491.58
  A 1.03 0.98 4.1 0 1 1628.09 492.24
  L 1633.59 512.07
  A 0.82 0.81 -1.7 0 0 1634.22 512.66
  Q 1650.60 515.93 1667.14 512.70
  A 0.84 0.82 2.2 0 0 1667.77 512.13
  L 1673.41 492.24
  A 0.99 0.98 87.1 0 1 1674.01 491.57
  Q 1685.80 486.92 1695.57 478.71
  A 1.06 1.03 30.0 0 1 1696.45 478.49
  L 1716.65 482.43
  A 1.26 1.22 -64.8 0 0 1717.87 481.97
  Q 1726.22 471.48 1730.74 459.48
  A 0.78 0.77 -55.3 0 0 1730.60 458.69
  L 1716.76 442.93
  A 1.04 1.02 -60.1 0 1 1716.53 442.05
  Q 1719.10 429.67 1716.98 417.18
  A 1.00 0.91 64.0 0 1 1717.23 416.33
  L 1731.70 401.63
  A 0.86 0.80 -32.9 0 0 1731.91 400.80
  Q 1726.42 384.76 1715.36 372.12
  A 0.80 0.79 61.8 0 0 1714.55 371.87
  L 1694.55 377.06
  A 1.01 0.98 56.1 0 1 1693.67 376.87"
/>
<path stroke="#c2cad6" vector-effect="non-scaling-stroke" d="
  M 802.06 498.94
  Q 788.67 498.53 771.02 498.81
  A 0.51 0.50 89.4 0 0 770.53 499.32
  L 770.54 544.72
  A 0.51 0.49 -0.0 0 0 771.05 545.21
  Q 797.48 545.31 823.91 545.21
  C 840.36 545.15 853.80 537.91 853.72 519.49
  Q 853.52 477.41 853.48 435.29
  A 0.50 0.49 90.0 0 0 852.99 434.79
  L 807.77 434.79
  A 0.50 0.49 -90.0 0 0 807.28 435.29
  L 807.25 497.95
  A 0.63 0.62 -6.4 0 1 806.76 498.56
  Q 804.67 499.02 802.06 498.94"
/>
<path stroke="#c2cad6" vector-effect="non-scaling-stroke" d="
  M 1625.62 623.58
  L 1652.07 623.73
  A 1.67 1.63 0.3 0 0 1653.76 622.10
  Q 1653.76 585.54 1653.73 547.90
  Q 1653.73 542.04 1652.77 539.35
  C 1648.43 527.23 1631.03 526.99 1626.41 538.80
  C 1625.04 542.28 1625.07 546.99 1625.06 551.00
  Q 1625.00 587.22 1625.00 622.97
  A 0.63 0.61 0.5 0 0 1625.62 623.58"
/>
<path stroke="#c2cad6" vector-effect="non-scaling-stroke" d="
  M 1653.75 635.28
  A 0.27 0.27 0.0 0 0 1653.48 635.01
  L 1625.30 635.01
  A 0.27 0.27 0.0 0 0 1625.03 635.28
  L 1625.03 763.48
  A 0.27 0.27 0.0 0 0 1625.30 763.75
  L 1653.48 763.75
  A 0.27 0.27 0.0 0 0 1653.75 763.48
  L 1653.75 635.28"
/>
<path stroke="#c2cad6" vector-effect="non-scaling-stroke" d="
  M 262.98 711.33
  C 262.70 692.41 237.39 687.42 230.37 703.96
  Q 228.77 707.72 228.64 716.33
  Q 228.30 738.17 228.61 760.13
  A 0.51 0.51 89.4 0 0 229.12 760.63
  L 262.70 760.70
  A 0.51 0.51 0.0 0 0 263.21 760.19
  Q 263.33 735.73 262.98 711.33"
/>
<path stroke="#c2cad6" vector-effect="non-scaling-stroke" d="
  M 285.89 789.80
  L 319.82 789.94
  A 0.42 0.41 90.0 0 0 320.23 789.52
  Q 320.30 763.53 320.21 737.57
  Q 320.19 730.51 319.33 727.66
  C 314.63 711.98 292.66 711.03 286.96 726.40
  Q 285.75 729.68 285.77 737.76
  Q 285.82 763.69 285.44 789.34
  A 0.45 0.45 -89.4 0 0 285.89 789.80"
/>
<path stroke="#b3cab4" vector-effect="non-scaling-stroke" d="
  M 191.29 830.75
  Q 191.22 811.82 191.25 792.85
  C 191.26 781.87 190.07 774.61 177.49 774.56
  Q 132.78 774.40 88.06 774.55
  Q 74.98 774.59 74.90 787.24
  Q 74.55 840.24 74.79 972.21
  C 74.81 980.24 76.78 988.24 86.51 988.24
  Q 130.48 988.27 174.47 988.24
  C 184.20 988.23 191.00 986.49 191.11 975.49
  Q 191.24 960.51 191.29 945.50"
/>
<path stroke="#c2cad6" vector-effect="non-scaling-stroke" d="
  M 191.29 945.50
  Q 213.39 946.05 236.40 945.46
  A 0.62 0.61 -1.0 0 0 237.00 944.85
  L 236.99 911.77
  A 0.76 0.76 0.0 0 0 236.23 911.01
  L 191.29 911.00"
/>
<path stroke="#b3cab4" vector-effect="non-scaling-stroke" d="
  M 191.29 911.00
  L 191.29 865.50"
/>
<path stroke="#c2cad6" vector-effect="non-scaling-stroke" d="
  M 191.29 865.50
  Q 234.54 865.60 242.53 865.42
  Q 257.48 865.10 261.72 853.70
  Q 263.31 849.42 263.28 837.64
  Q 263.23 806.11 263.23 774.54
  A 0.50 0.50 0.0 0 0 262.73 774.04
  L 229.03 774.05
  A 0.51 0.50 -0.0 0 0 228.52 774.55
  L 228.48 830.21
  A 0.51 0.50 -0.0 0 1 227.97 830.71
  L 191.29 830.75"
/>
<path stroke="#82a298" vector-effect="non-scaling-stroke" d="
  M 191.29 865.50
  L 191.29 830.75"
/>
<path stroke="#82a298" vector-effect="non-scaling-stroke" d="
  M 191.29 911.00
  L 191.29 945.50"
/>
<path stroke="#c2cad6" vector-effect="non-scaling-stroke" d="
  M 1579.94 916.56
  Q 1579.96 928.94 1580.02 941.30
  C 1580.07 951.90 1587.33 953.92 1596.25 953.94
  Q 1610.33 953.97 1624.45 954.03
  A 0.51 0.50 0.0 0 1 1624.96 954.53
  L 1624.96 970.98
  A 0.52 0.50 -0.0 0 1 1624.44 971.48
  L 1590.79 971.53
  A 0.50 0.49 -0.0 0 0 1590.29 972.02
  L 1590.29 999.72
  A 0.51 0.50 0.0 0 0 1590.80 1000.22
  Q 1612.72 1000.28 1634.63 1000.24
  C 1650.37 1000.22 1653.78 993.80 1653.75 978.57
  Q 1653.73 966.59 1653.78 954.49
  A 0.53 0.52 -90.0 0 1 1654.29 953.97
  Q 1665.66 953.62 1677.07 953.73
  C 1686.54 953.82 1693.98 952.13 1693.99 941.25
  Q 1694.02 898.88 1693.99 856.49
  C 1693.98 847.13 1692.49 840.39 1681.98 840.01
  Q 1670.48 839.58 1654.27 839.72
  A 0.49 0.49 -0.6 0 1 1653.77 839.23
  L 1653.76 775.64
  A 0.57 0.56 89.5 0 0 1653.19 775.07
  L 1625.68 775.18
  A 0.52 0.50 89.4 0 0 1625.19 775.70
  L 1625.02 839.11
  A 0.51 0.51 -0.6 0 1 1624.52 839.62
  C 1613.77 839.84 1603.03 839.55 1592.28 840.02
  C 1584.30 840.37 1580.11 844.58 1580.06 853.04
  Q 1579.97 869.84 1579.98 886.71
  A 0.51 0.50 -90.0 0 1 1579.48 887.22
  L 1545.99 887.24
  A 0.44 0.42 0.0 0 0 1545.55 887.66
  L 1545.65 915.36
  A 0.52 0.51 0.0 0 0 1546.17 915.87
  L 1579.44 916.06
  A 0.50 0.50 0.0 0 1 1579.94 916.56"
/>
<path stroke="#c2cad6" vector-effect="non-scaling-stroke" d="
  M 320.3109 803.5002
  A 0.47 0.47 0.0 0 0 319.8417 803.0294
  L 286.2218 802.9707
  A 0.47 0.47 0.0 0 0 285.7509 803.4399
  L 285.6291 873.2398
  A 0.47 0.47 0.0 0 0 286.0983 873.7106
  L 319.7182 873.7693
  A 0.47 0.47 0.0 0 0 320.1891 873.3001
  L 320.3109 803.5002"
/>
<path stroke="#c2cad6" vector-effect="non-scaling-stroke" d="
  M 284.94 910.94
  L 250.77 910.98
  A 0.77 0.76 0.0 0 0 250.00 911.74
  L 250.01 944.71
  A 0.80 0.80 0.1 0 0 250.81 945.51
  Q 275.09 945.45 298.19 945.71
  Q 314.10 945.89 318.61 933.55
  Q 320.21 929.16 320.24 918.09
  Q 320.29 902.71 320.21 887.29
  A 0.50 0.50 0.0 0 0 319.71 886.79
  L 286.04 886.78
  A 0.53 0.51 -89.4 0 0 285.53 887.30
  L 285.44 910.44
  A 0.50 0.50 0.0 0 1 284.94 910.94"
/>
<path stroke="#c2cad6" vector-effect="non-scaling-stroke" d="
  M 775.47 1001.98
  C 775.55 1016.77 787.79 1026.07 801.77 1026.31
  Q 827.87 1026.77 854.14 1026.37
  A 0.51 0.50 -0.6 0 0 854.64 1025.87
  L 854.70 980.54
  A 0.49 0.49 -89.4 0 0 854.21 980.04
  L 822.00 980.01
  A 0.50 0.50 0.0 0 1 821.50 979.51
  L 821.49 944.70
  A 0.47 0.47 0.0 0 0 821.02 944.23
  Q 809.27 944.25 797.55 944.41
  C 791.68 944.49 782.97 943.95 775.68 944.50
  A 0.54 0.54 -2.8 0 0 775.18 945.05
  Q 775.31 973.56 775.47 1001.98"
/>
<path stroke="#c2cad6" vector-effect="non-scaling-stroke" d="
  M 1578.75 971.77
  A 0.26 0.26 0.0 0 0 1578.49 971.51
  L 1496.51 971.51
  A 0.26 0.26 0.0 0 0 1496.25 971.77
  L 1496.25 999.99
  A 0.26 0.26 0.0 0 0 1496.51 1000.25
  L 1578.49 1000.25
  A 0.26 0.26 0.0 0 0 1578.75 999.99
  L 1578.75 971.77"
/>
<path stroke="#99807d" vector-effect="non-scaling-stroke" d="
  M 1452.29 333.50
  Q 1443.62 332.83 1434.99 333.99
  C 1420.17 335.97 1419.87 355.51 1419.93 366.75
  Q 1420.10 400.38 1420.60 433.59"
/>
<path stroke="#866466" vector-effect="non-scaling-stroke" d="
  M 1420.60 433.59
  Q 1420.93 445.51 1425.10 456.36"
/>
<path stroke="#99807d" vector-effect="non-scaling-stroke" d="
  M 1425.10 456.36
  Q 1421.80 463.42 1421.21 467.99
  C 1419.27 483.05 1420.28 501.61 1420.19 515.75
  Q 1420.03 541.29 1420.81 566.66"
/>
<path stroke="#866466" vector-effect="non-scaling-stroke" d="
  M 1420.81 566.66
  Q 1421.26 582.35 1426.79 596.75"
/>
<path stroke="#99807d" vector-effect="non-scaling-stroke" d="
  M 1426.79 596.75
  C 1420.29 606.28 1419.85 620.02 1419.96 630.25
  C 1420.26 656.43 1419.81 682.68 1420.77 708.84"
/>
<path stroke="#866466" vector-effect="non-scaling-stroke" d="
  M 1420.77 708.84
  Q 1421.26 724.81 1426.85 739.64"
/>
<path stroke="#99807d" vector-effect="non-scaling-stroke" d="
  M 1426.85 739.64
  C 1420.26 745.95 1419.94 756.85 1419.95 765.50
  Q 1420.00 796.50 1420.54 827.50"
/>
<path stroke="#866466" vector-effect="non-scaling-stroke" d="
  M 1420.54 827.50
  C 1421.82 848.20 1427.84 865.02 1452.25 864.04"
/>
<path stroke="#626a7f" vector-effect="non-scaling-stroke" d="
  M 1452.29 887.25
  L 1452.29 916.00"
/>
<path stroke="#626a7f" vector-effect="non-scaling-stroke" d="
  M 1452.29 971.50
  L 1452.29 1000.25"
/>
<path stroke="#626a7f" vector-effect="non-scaling-stroke" d="
  M 894.46 1026.50
  L 894.46 980.00"
/>
<path stroke="#99807d" vector-effect="non-scaling-stroke" d="
  M 894.46 873.00
  L 894.54 790.00"
/>
<path stroke="#866466" vector-effect="non-scaling-stroke" d="
  M 894.54 790.00
  C 920.89 788.03 929.29 765.96 929.37 742.82"
/>
<path stroke="#99807d" vector-effect="non-scaling-stroke" d="
  M 929.37 742.82
  Q 930.19 734.65 930.19 726.00
  Q 930.21 696.80 930.46 667.61
  C 930.58 654.66 931.63 626.79 913.99 623.55
  Q 906.92 622.26 894.54 622.50"
/>
<path stroke="#626a7f" vector-effect="non-scaling-stroke" d="
  M 894.50 369.21
  L 894.46 322.50"
/>
<path stroke="#415969" vector-effect="non-scaling-stroke" d="
  M 922.88 256.11
  Q 985.36 165.56 1047.48 74.78
  Q 1047.77 74.35 1047.26 74.34
  L 1010.29 74.02
  A 1.61 1.52 -70.1 0 0 1009.06 74.64
  L 916.86 193.66
  A 1.57 1.47 65.7 0 0 916.55 194.56
  L 914.78 267.34
  Q 914.77 268.05 915.16 267.46
  Q 918.99 261.75 922.88 256.11"
/>
<path stroke="#415969" vector-effect="non-scaling-stroke" d="
  M 1079.47 74.91
  L 913.98 315.55
  A 2.36 2.22 64.6 0 0 913.58 316.79
  L 912.73 356.18
  Q 912.70 357.45 913.40 356.40
  L 1100.99 75.02
  Q 1101.28 74.58 1100.76 74.58
  L 1080.54 74.32
  A 1.36 1.21 -70.6 0 0 1079.47 74.91"
/>
<path stroke="#415969" vector-effect="non-scaling-stroke" d="
  M 1412.99 99.86
  A 12.35 12.35 0.0 0 0 1400.64 87.51
  A 12.35 12.35 0.0 0 0 1388.29 99.86
  A 12.35 12.35 0.0 0 0 1400.64 112.21
  A 12.35 12.35 0.0 0 0 1412.99 99.86"
/>
<path stroke="#415969" vector-effect="non-scaling-stroke" d="
  M 1432.56 866.52
  L 1275.42 1076.23
  Q 1275.00 1076.79 1275.70 1076.78
  L 1307.61 1076.38
  A 1.06 1.03 -71.4 0 0 1308.42 1075.96
  L 1431.20 912.15
  A 1.73 1.72 65.9 0 0 1431.54 911.25
  C 1432.32 900.98 1433.87 890.82 1433.51 880.48
  Q 1433.26 873.51 1433.21 866.73
  Q 1433.20 865.67 1432.56 866.52"
/>
<path stroke="#485359" vector-effect="non-scaling-stroke" d="
  M 705.97 384.41
  Q 700.87 376.93 694.73 369.90
  A 0.75 0.75 -52.0 0 1 694.63 369.07
  C 698.02 362.62 700.77 354.55 698.44 347.29
  A 2.10 2.10 -7.9 0 0 696.51 345.83
  Q 678.94 345.16 661.48 341.31
  A 0.41 0.41 18.4 0 1 661.20 340.75
  C 662.83 337.03 667.25 318.86 659.51 318.72
  C 655.10 318.64 648.72 319.61 642.94 320.48
  Q 624.23 323.30 605.32 324.48
  A 0.53 0.45 -0.8 0 1 604.75 324.01
  L 605.00 319.96"
/>
<path stroke="#a2b9c0" vector-effect="non-scaling-stroke" d="
  M 605.00 319.96
  C 620.73 314.22 632.51 299.01 636.45 283.55
  C 645.67 247.33 616.11 213.20 579.04 216.54
  C 550.45 219.11 528.91 244.15 530.23 272.74
  Q 531.42 298.45 553.24 314.59"
/>
<path stroke="#485359" vector-effect="non-scaling-stroke" d="
  M 553.24 314.59
  Q 531.54 318.04 509.67 320.97
  C 476.23 325.45 447.04 331.21 417.04 346.50"
/>
<path stroke="#c2cad6" vector-effect="non-scaling-stroke" d="
  M 1633.49 228.66
  A 35.63 35.63 0.0 0 0 1597.86 193.03
  A 35.63 35.63 0.0 0 0 1562.23 228.66
  A 35.63 35.63 0.0 0 0 1597.86 264.29
  A 35.63 35.63 0.0 0 0 1633.49 228.66"
/>
<path stroke="#9a8c8a" vector-effect="non-scaling-stroke" d="
  M 605.00 319.96
  C 605.12 315.39 604.77 303.52 597.51 305.25
  Q 575.57 310.50 553.24 314.59"
/>
<path stroke="#865556" vector-effect="non-scaling-stroke" d="
  M 393.72 362.85
  Q 371.00 383.81 361.54 413.50"
/>
<path stroke="#dfbcbd" vector-effect="non-scaling-stroke" d="
  M 334.41 340.92
  A 35.62 35.62 0.0 0 0 298.79 305.30
  A 35.62 35.62 0.0 0 0 263.17 340.92
  A 35.62 35.62 0.0 0 0 298.79 376.54
  A 35.62 35.62 0.0 0 0 334.41 340.92"
/>
<path stroke="#69636f" vector-effect="non-scaling-stroke" d="
  M 732.04 482.75
  L 732.21 492.00"
/>
<path stroke="#69636f" vector-effect="non-scaling-stroke" d="
  M 732.54 498.75
  Q 732.86 521.62 729.42 544.68"
/>
<path stroke="#8d5d56" vector-effect="non-scaling-stroke" d="
  M 721.96 573.50
  L 718.25 580.79"
/>
<path stroke="#a07a6c" vector-effect="non-scaling-stroke" d="
  M 718.25 580.79
  Q 703.56 567.64 694.05 555.19
  C 690.82 550.94 694.07 545.97 695.00 542.25
  C 697.20 533.49 697.50 522.47 697.95 511.96
  Q 698.70 494.04 697.79 469.00
  C 697.35 456.87 695.02 444.98 681.75 441.76
  C 660.56 436.62 636.32 437.88 614.48 438.63
  C 596.29 439.25 581.73 441.67 565.83 449.08
  Q 546.05 458.30 525.73 452.83
  C 518.32 450.84 507.65 445.47 500.42 443.35
  Q 489.24 440.08 482.00 439.48
  Q 457.66 437.45 425.43 438.36
  C 416.40 438.61 393.41 439.77 388.19 449.07
  C 383.45 457.52 383.46 464.22 383.01 475.84
  Q 381.91 503.96 384.42 532.00
  Q 385.15 540.14 387.90 547.78
  C 388.67 549.91 388.48 553.30 387.30 554.80
  Q 376.21 568.89 362.79 580.75"
/>
<path stroke="#8d5d56" vector-effect="non-scaling-stroke" d="
  M 362.79 580.75
  L 359.35 574.74"
/>
<path stroke="#69636f" vector-effect="non-scaling-stroke" d="
  M 359.35 574.74
  C 349.01 544.89 347.61 513.51 348.96 482.00"
/>
<path stroke="#edb29f" vector-effect="non-scaling-stroke" d="
  M 1500.21 429.50
  C 1482.97 440.94 1460.74 446.86 1440.44 441.60
  Q 1430.09 438.91 1420.60 433.59"
/>
<path stroke="#b3cab4" vector-effect="non-scaling-stroke" d="
  M 1675.94 428.53
  A 25.22 25.22 0.0 0 0 1650.72 403.31
  A 25.22 25.22 0.0 0 0 1625.50 428.53
  A 25.22 25.22 0.0 0 0 1650.72 453.75
  A 25.22 25.22 0.0 0 0 1675.94 428.53"
/>
<path stroke="#edb29f" vector-effect="non-scaling-stroke" d="
  M 1485.46 456.75
  Q 1484.56 456.82 1484.34 456.69
  Q 1461.26 443.81 1436.25 448.47
  Q 1429.51 449.73 1425.10 456.36"
/>
<path stroke="#edb29f" vector-effect="non-scaling-stroke" d="
  M 718.25 580.79
  C 716.65 612.97 713.35 646.86 704.79 678.00"
/>
<path stroke="#c8b8b8" vector-effect="non-scaling-stroke" d="
  M 703.46 682.50
  Q 694.39 709.11 678.46 732.25"
/>
<path stroke="#c8b8b8" vector-effect="non-scaling-stroke" d="
  M 673.88 738.37
  Q 663.19 750.87 652.79 761.04
  C 633.40 779.99 609.18 792.07 584.00 801.71"
/>
<path stroke="#edb29f" vector-effect="non-scaling-stroke" d="
  M 584.00 801.71
  Q 569.62 807.25 554.36 808.51
  C 534.82 810.12 514.89 808.72 496.75 801.54"
/>
<path stroke="#c8b8b8" vector-effect="non-scaling-stroke" d="
  M 496.75 801.54
  Q 478.39 794.54 462.80 786.22
  C 421.83 764.36 389.56 722.34 376.46 678.00"
/>
<path stroke="#edb29f" vector-effect="non-scaling-stroke" d="
  M 376.46 678.00
  C 367.87 647.93 364.15 610.44 362.79 580.75"
/>
<path stroke="#a07a6c" vector-effect="non-scaling-stroke" d="
  M 415.70 527.07
  A 2.52 2.50 -36.2 0 0 417.49 527.34
  C 430.84 524.31 443.04 523.99 458.75 523.92
  Q 472.92 523.86 486.75 526.89
  C 497.13 529.16 495.40 517.12 489.20 513.54
  C 486.54 512.01 481.24 510.15 477.75 509.74
  Q 450.74 506.57 424.18 516.93
  C 421.97 517.79 409.92 523.75 415.70 527.07"
/>
<path stroke="#a07a6c" vector-effect="non-scaling-stroke" d="
  M 588.65 518.40
  C 586.42 523.08 589.36 528.35 595.01 527.00
  Q 608.92 523.68 625.25 523.89
  C 638.33 524.06 651.47 524.42 664.30 527.21
  Q 665.68 527.51 666.51 527.08
  C 670.04 525.20 665.69 520.91 663.93 519.83
  Q 658.98 516.79 652.32 514.57
  C 639.59 510.31 596.15 502.60 588.65 518.40"
/>
<path stroke="#95a69d" vector-effect="non-scaling-stroke" d="
  M 441.01 571.86
  Q 439.15 578.22 438.96 580.74
  C 438.12 591.63 441.39 612.82 455.00 614.49
  C 468.97 616.20 476.21 602.15 476.15 589.75
  Q 476.12 584.86 476.32 580.06"
/>
<path stroke="#a07a6c" vector-effect="non-scaling-stroke" d="
  M 476.32 580.06
  C 483.03 579.11 480.01 569.89 477.73 566.52
  C 466.28 549.56 442.87 554.41 432.40 569.68
  C 430.73 572.12 427.80 577.69 429.26 580.64
  C 431.27 584.65 434.28 580.80 435.54 578.51
  Q 437.62 574.75 441.01 571.86"
/>
<path stroke="#365254" vector-effect="non-scaling-stroke" d="
  M 476.32 580.06
  Q 475.87 579.70 474.99 579.74
  A 1.23 1.03 -20.2 0 1 474.13 579.43
  Q 470.79 576.09 467.27 573.02
  C 460.50 567.13 448.77 568.11 441.01 571.86"
/>
<path stroke="#95a69d" vector-effect="non-scaling-stroke" d="
  M 606.40 580.39
  C 604.41 593.68 608.77 617.65 627.99 614.37
  Q 634.26 613.31 637.59 607.61
  Q 647.15 591.32 641.29 572.00"
/>
<path stroke="#a07a6c" vector-effect="non-scaling-stroke" d="
  M 641.29 572.00
  Q 644.92 575.03 647.12 579.14
  C 648.19 581.14 650.86 583.84 652.68 581.43
  Q 654.33 579.24 653.31 576.68
  Q 646.38 559.26 629.57 556.46
  C 618.01 554.54 607.58 558.90 602.90 569.86
  C 601.04 574.22 601.10 578.91 606.40 580.39"
/>
<path stroke="#365254" vector-effect="non-scaling-stroke" d="
  M 641.29 572.00
  C 634.91 568.82 621.75 566.75 615.95 572.21
  Q 611.36 576.53 606.40 580.39"
/>
<path stroke="#edb29f" vector-effect="non-scaling-stroke" d="
  M 517.57 666.55
  C 518.49 675.77 540.74 676.27 547.01 675.42
  C 552.96 674.61 563.30 673.62 564.78 666.28
  A 0.68 0.67 -77.6 0 0 564.28 665.49
  C 560.02 664.46 556.13 664.42 551.81 664.27
  Q 535.39 663.70 518.98 664.88
  A 1.52 1.52 -4.9 0 0 517.57 666.55"
/>
<path stroke="#ffe7da" vector-effect="non-scaling-stroke" d="
  M 482.34 709.50
  C 483.91 724.21 500.96 738.75 514.21 742.90
  C 534.92 749.38 567.98 748.25 584.52 733.78
  C 591.06 728.06 599.05 718.53 599.84 709.56
  A 0.52 0.52 6.2 0 0 599.38 708.99
  Q 595.04 708.52 589.43 708.90
  C 565.17 710.57 534.06 710.90 497.94 708.99
  Q 490.47 708.60 482.98 708.78
  A 0.66 0.65 86.8 0 0 482.34 709.50"
/>
<path stroke="#edb29f" vector-effect="non-scaling-stroke" d="
  M 1515.90 562.43
  C 1486.78 581.36 1451.11 585.93 1420.81 566.66"
/>
<path stroke="#b69ba1" vector-effect="non-scaling-stroke" d="
  M 359.35 574.74
  Q 351.81 569.08 342.78 567.56
  C 336.04 566.42 329.96 567.81 324.85 572.12
  C 301.87 591.50 309.03 630.94 320.20 654.07
  Q 326.35 666.83 338.50 675.04"
/>
<path stroke="#c2cad6" vector-effect="non-scaling-stroke" d="
  M 310.65 579.65
  A 35.63 35.63 0.0 0 0 275.02 544.02
  A 35.63 35.63 0.0 0 0 239.39 579.65
  A 35.63 35.63 0.0 0 0 275.02 615.28
  A 35.63 35.63 0.0 0 0 310.65 579.65"
/>
<path stroke="#edb29f" vector-effect="non-scaling-stroke" d="
  M 1490.59 602.58
  Q 1489.95 602.62 1489.28 602.19
  Q 1465.09 586.41 1436.26 590.99
  Q 1431.06 591.81 1426.79 596.75"
/>
<path stroke="#b69ba1" vector-effect="non-scaling-stroke" d="
  M 376.46 678.00
  Q 368.00 682.19 358.50 681.79"
/>
<path stroke="#edb29f" vector-effect="non-scaling-stroke" d="
  M 1515.96 704.75
  C 1487.18 723.94 1450.55 728.76 1420.77 708.84"
/>
<path stroke="#edb29f" vector-effect="non-scaling-stroke" d="
  M 929.37 742.82
  C 913.77 750.19 900.27 755.56 883.01 754.13
  Q 856.96 751.97 834.79 738.02"
/>
<path stroke="#b69ba1" vector-effect="non-scaling-stroke" d="
  M 496.75 801.54
  L 496.78 815.28"
/>
<path stroke="#c8b8b8" vector-effect="non-scaling-stroke" d="
  M 496.78 815.28
  L 496.70 826.19
  A 0.61 0.55 -4.4 0 1 496.19 826.73
  L 487.39 828.05"
/>
<path stroke="#626a7f" vector-effect="non-scaling-stroke" d="
  M 487.39 828.05
  Q 458.12 833.55 433.79 850.75"
/>
<path stroke="#c8b8b8" vector-effect="non-scaling-stroke" d="
  M 821.50 779.46
  Q 798.81 791.24 775.14 800.63"
/>
<path stroke="#edb29f" vector-effect="non-scaling-stroke" d="
  M 1480.61 751.44
  Q 1479.81 751.11 1479.08 750.46
  Q 1459.07 732.77 1432.31 736.80
  Q 1429.71 737.19 1426.85 739.64"
/>
<path stroke="#edb29f" vector-effect="non-scaling-stroke" d="
  M 1493.25 824.29
  C 1469.77 838.59 1444.86 842.04 1420.54 827.50"
/>
<path stroke="#edb29f" vector-effect="non-scaling-stroke" d="
  M 894.54 790.00
  Q 864.28 788.84 847.57 764.13"
/>
<path stroke="#626a7f" vector-effect="non-scaling-stroke" d="
  M 693.96 828.50
  Q 689.37 818.99 679.84 817.47
  Q 676.32 816.92 670.30 818.27
  C 642.48 824.54 618.76 829.87 591.69 831.03"
/>
<path stroke="#c8b8b8" vector-effect="non-scaling-stroke" d="
  M 591.69 831.03
  L 584.90 829.49
  A 0.71 0.62 -84.5 0 1 584.42 828.81
  L 584.21 815.00"
/>
<path stroke="#b69ba1" vector-effect="non-scaling-stroke" d="
  M 584.21 815.00
  L 584.00 801.71"
/>
<path stroke="#c8b8b8" vector-effect="non-scaling-stroke" d="
  M 821.46 891.62
  Q 798.51 896.17 775.17 899.45"
/>
<path stroke="#99807d" vector-effect="non-scaling-stroke" d="
  M 695.79 905.00
  Q 687.17 904.28 678.48 904.38
  Q 672.17 904.45 671.42 897.83
  Q 668.66 873.45 670.10 853.43
  C 670.82 843.50 671.05 833.68 682.72 832.08
  Q 688.59 831.28 694.32 829.67"
/>
<path stroke="#b3cab4" vector-effect="non-scaling-stroke" d="
  M 107.70 806.34
  A 9.69 9.69 0.0 0 0 98.01 796.65
  A 9.69 9.69 0.0 0 0 88.32 806.34
  A 9.69 9.69 0.0 0 0 98.01 816.03
  A 9.69 9.69 0.0 0 0 107.70 806.34"
/>
<path stroke="#b3cab4" vector-effect="non-scaling-stroke" d="
  M 133.54 806.35
  A 9.69 9.69 0.0 0 0 123.85 796.66
  A 9.69 9.69 0.0 0 0 114.16 806.35
  A 9.69 9.69 0.0 0 0 123.85 816.04
  A 9.69 9.69 0.0 0 0 133.54 806.35"
/>
<path stroke="#c2cad6" vector-effect="non-scaling-stroke" d="
  M 1650.02 895.74
  A 14.14 14.14 0.0 0 0 1635.88 881.60
  A 14.14 14.14 0.0 0 0 1621.74 895.74
  A 14.14 14.14 0.0 0 0 1635.88 909.88
  A 14.14 14.14 0.0 0 0 1650.02 895.74"
/>
<path stroke="#edb29f" vector-effect="non-scaling-stroke" d="
  M 584.21 815.00
  Q 569.58 825.56 551.97 829.23
  C 548.85 829.89 542.82 831.78 540.27 831.45
  Q 516.59 828.42 496.78 815.28"
/>
<path stroke="#99807d" vector-effect="non-scaling-stroke" d="
  M 591.69 831.03
  C 578.76 850.61 561.51 868.49 541.01 879.25
  A 0.97 0.96 -45.3 0 1 540.13 879.26
  C 518.56 868.10 500.42 848.63 487.39 828.05"
/>
<path stroke="#99807d" vector-effect="non-scaling-stroke" d="
  M 429.45 1104.64
  Q 429.43 1104.04 430.08 1103.57
  C 435.28 1099.78 445.63 1089.28 444.91 1082.30
  Q 442.72 1061.16 431.10 1043.32"
/>
<path stroke="#93929b" vector-effect="non-scaling-stroke" d="
  M 431.10 1043.32
  L 433.18 976.82
  A 1.06 0.96 -72.2 0 0 432.80 975.99
  L 418.09 964.88"
/>
<path stroke="#99807d" vector-effect="non-scaling-stroke" d="
  M 418.09 964.88
  L 419.62 962.22
  A 1.16 0.71 54.9 0 0 419.56 961.30
  C 411.39 943.98 392.83 929.20 372.79 929.97
  A 0.97 0.89 -74.0 0 0 372.04 930.43
  Q 371.24 931.73 370.04 932.50"
/>
<path stroke="#f9e0d3" vector-effect="non-scaling-stroke" d="
  M 418.09 964.88
  Q 405.83 982.38 394.91 1001.87
  A 1.20 1.20 -53.6 0 0 395.13 1003.32
  Q 406.28 1014.02 417.00 1025.64
  C 421.73 1030.76 425.97 1037.69 431.10 1043.32"
/>
<path stroke="#e09d88" vector-effect="non-scaling-stroke" d="
  M 396.24 1094.22
  C 396.33 1098.82 400.79 1104.35 405.91 1104.70
  Q 406.83 1104.77 406.21 1104.05
  L 397.41 1093.82
  Q 396.20 1092.42 396.24 1094.22"
/>
</g>
<path fill="#f3f2f1" d="
  M 0.00 0.00
  L 1782.00 0.00
  L 1782.00 1176.00
  L 652.50 1176.00
  L 644.70 949.75
  Q 644.62 947.30 647.02 946.95
  Q 667.03 944.06 688.04 938.63
  A 1.23 1.20 7.3 0 0 688.77 938.08
  Q 697.82 922.81 695.79 905.00
  C 726.14 904.43 745.15 903.11 775.17 899.45
  L 775.16 930.89
  A 0.35 0.34 -90.0 0 0 775.50 931.24
  L 820.98 931.22
  A 0.50 0.49 -90.0 0 0 821.47 930.72
  L 821.46 891.62
  C 849.67 885.57 870.15 879.59 894.46 873.00
  L 894.46 980.00
  L 868.27 980.01
  A 0.50 0.49 -0.0 0 0 867.77 980.50
  L 867.83 1025.89
  A 0.50 0.50 0.0 0 0 868.33 1026.39
  L 894.46 1026.50
  Q 894.54 1049.00 894.62 1071.50
  C 894.69 1090.51 903.11 1093.98 920.58 1093.99
  Q 1174.42 1094.02 1428.26 1093.99
  C 1438.45 1093.99 1446.86 1092.89 1450.69 1083.23
  Q 1452.25 1079.30 1452.24 1069.07
  Q 1452.23 1034.66 1452.29 1000.25
  L 1484.38 1000.28
  A 0.50 0.49 -0.0 0 0 1484.88 999.79
  L 1484.89 972.10
  A 0.51 0.51 0.0 0 0 1484.38 971.59
  L 1452.29 971.50
  L 1452.29 916.00
  L 1533.60 915.94
  A 0.51 0.50 -0.0 0 0 1534.11 915.44
  L 1534.20 887.78
  A 0.51 0.50 0.0 0 0 1533.69 887.28
  L 1452.29 887.25
  L 1452.25 864.04
  C 1473.37 860.99 1487.72 843.86 1493.25 824.29
  C 1500.73 799.55 1497.20 771.75 1480.61 751.44
  C 1498.36 742.24 1510.54 723.43 1515.96 704.75
  C 1524.35 676.36 1521.90 641.33 1504.07 616.70
  Q 1498.78 609.39 1490.59 602.58
  Q 1508.94 586.09 1515.90 562.43
  C 1526.09 527.86 1520.36 477.68 1485.84 457.47
  C 1485.60 457.33 1485.47 457.01 1485.46 456.75
  Q 1495.71 444.69 1500.21 429.50
  C 1509.24 398.64 1503.13 353.99 1469.67 339.11
  Q 1461.29 335.38 1452.29 333.50
  Q 1452.21 206.67 1452.26 79.82
  Q 1452.26 70.54 1450.96 66.82
  C 1447.25 56.24 1438.36 55.26 1427.44 55.26
  Q 1173.41 55.23 919.39 55.26
  C 907.28 55.26 898.91 56.62 895.28 68.70
  Q 894.49 71.32 894.49 72.50
  L 894.46 322.50
  Q 866.25 322.47 838.05 322.53
  C 821.75 322.57 807.26 329.77 807.25 348.25
  Q 807.23 384.84 807.26 421.27
  A 0.48 0.48 0.0 0 0 807.74 421.75
  L 853.04 421.74
  A 0.46 0.46 0.0 0 0 853.50 421.28
  L 853.58 369.61
  A 0.52 0.49 -90.0 0 1 854.07 369.09
  L 894.50 369.21
  L 894.54 622.50
  C 864.30 627.36 843.79 643.33 834.72 673.20
  Q 824.80 705.90 834.79 738.02
  Q 838.78 752.14 847.57 764.13
  Q 835.02 772.98 821.50 779.46
  Q 821.49 749.53 821.50 719.59
  Q 821.51 706.84 819.92 702.08
  C 815.82 689.75 805.34 686.24 793.08 686.11
  Q 768.96 685.86 744.79 686.05
  A 0.52 0.50 -0.6 0 0 744.28 686.55
  L 744.26 731.82
  A 0.72 0.71 0.0 0 0 744.98 732.53
  L 774.58 732.60
  A 0.52 0.51 89.4 0 1 775.09 733.11
  Q 775.30 743.10 775.23 752.99
  C 775.11 769.28 775.40 784.72 775.14 800.63
  C 748.67 811.54 721.63 821.10 694.32 829.67
  L 693.96 828.50
  C 695.27 825.78 695.92 823.01 697.41 820.38
  Q 699.60 816.53 701.09 812.24
  A 0.89 0.87 -55.7 0 0 700.94 811.38
  L 671.43 777.00
  A 1.20 1.16 27.5 0 1 671.14 776.13
  Q 671.43 771.92 672.17 768.01
  Q 674.91 753.42 673.88 738.37
  Q 675.61 735.02 678.46 732.25
  L 730.65 732.37
  A 0.50 0.49 -90.0 0 0 731.14 731.87
  L 731.20 686.54
  A 0.50 0.50 0.0 0 0 730.70 686.04
  L 705.79 686.01
  A 1.19 1.05 -18.4 0 1 704.94 685.65
  Q 703.77 684.30 703.46 682.50
  L 704.79 678.00
  C 727.32 689.73 752.66 672.73 761.80 652.06
  C 770.96 631.34 775.92 606.08 765.88 584.74
  C 759.68 571.57 748.00 563.35 733.02 568.82
  Q 729.18 570.23 723.22 573.97
  Q 722.19 574.62 721.96 573.50
  Q 727.11 559.24 729.42 544.68
  Q 743.05 545.63 756.66 545.31
  A 0.52 0.52 0.0 0 0 757.17 544.80
  L 757.21 499.25
  A 0.51 0.48 0.0 0 0 756.70 498.77
  L 732.54 498.75
  L 732.21 492.00
  Q 732.81 487.36 732.04 482.75
  C 730.27 449.26 723.53 413.52 705.97 384.41
  L 724.59 387.47
  A 0.86 0.80 23.6 0 0 725.39 387.19
  Q 743.94 365.28 754.37 338.50
  A 0.95 0.92 -51.6 0 0 754.28 337.62
  Q 752.04 334.42 750.79 332.97
  Q 737.84 317.92 724.79 302.94
  A 1.22 1.22 29.2 0 1 724.51 301.95
  C 727.66 283.67 728.97 267.21 725.82 247.47
  A 0.99 0.97 63.4 0 1 726.09 246.62
  L 758.26 214.55
  A 1.02 1.01 -31.5 0 0 758.51 213.52
  Q 747.20 178.62 723.28 150.94
  A 0.83 0.80 -26.9 0 0 722.47 150.69
  L 678.51 161.48
  A 1.37 1.36 58.8 0 1 677.30 161.18
  C 663.19 149.00 647.40 140.98 630.19 133.91
  A 1.11 1.09 -88.4 0 1 629.57 133.24
  Q 623.59 114.48 617.49 95.75
  Q 616.47 92.63 615.21 89.87
  A 0.81 0.80 82.2 0 0 614.61 89.41
  Q 586.15 84.74 558.81 88.62
  A 2.70 2.63 5.3 0 0 556.66 90.36
  L 542.22 131.79
  A 1.18 1.15 88.4 0 1 541.60 132.46
  C 538.74 133.76 536.02 135.09 533.01 136.24
  Q 511.54 144.39 493.62 159.00
  A 1.00 0.93 -55.8 0 1 492.75 159.20
  L 448.71 147.36
  A 0.83 0.81 28.0 0 0 447.89 147.60
  Q 423.21 174.79 411.11 209.50
  A 0.80 0.80 32.9 0 0 411.29 210.33
  L 442.76 243.03
  A 0.97 0.92 -62.3 0 1 443.00 243.88
  Q 439.08 264.65 441.48 285.68
  Q 442.22 292.14 442.94 298.74
  A 1.12 1.09 -27.1 0 1 442.65 299.60
  L 412.42 333.06
  A 0.85 0.80 -35.6 0 0 412.25 333.91
  L 417.04 346.50
  Q 404.82 353.77 393.72 362.85
  Q 391.13 359.78 392.01 356.04
  Q 392.99 351.88 393.00 351.83
  Q 394.52 338.26 392.27 324.72
  A 0.95 0.94 62.4 0 1 392.53 323.88
  L 413.23 302.85
  A 0.82 0.80 -32.3 0 0 413.43 302.02
  Q 405.70 279.21 389.85 261.10
  A 0.81 0.78 -27.4 0 0 389.04 260.86
  L 360.31 268.31
  A 1.01 0.98 56.9 0 1 359.42 268.11
  C 349.68 260.02 340.20 255.23 328.17 250.46
  A 1.10 1.04 -89.4 0 1 327.56 249.80
  L 318.09 221.80
  A 0.89 0.85 -3.6 0 0 317.40 221.22
  Q 298.65 218.24 279.98 221.28
  A 0.72 0.70 3.8 0 0 279.41 221.76
  L 270.08 249.63
  A 1.80 1.73 -89.6 0 1 268.99 250.75
  Q 252.29 256.51 238.19 268.00
  A 1.03 0.97 -56.8 0 1 237.31 268.21
  L 208.57 260.77
  A 0.83 0.78 26.9 0 0 207.75 261.01
  Q 191.80 279.12 184.12 302.00
  A 0.81 0.77 32.7 0 0 184.32 302.82
  L 205.07 323.96
  A 1.02 1.01 27.3 0 1 205.35 324.81
  C 203.20 338.46 203.96 348.11 205.70 360.09
  A 2.31 2.22 -29.3 0 1 205.15 361.91
  L 185.97 383.62
  A 0.88 0.84 56.3 0 0 185.82 384.47
  Q 191.34 399.31 201.69 413.31
  Q 203.52 415.79 204.86 416.99
  A 1.05 0.99 -28.7 0 0 205.74 417.22
  L 234.29 411.46
  A 1.10 1.06 57.2 0 1 235.17 411.67
  C 246.09 420.10 254.46 425.48 266.04 429.92
  A 1.00 0.96 3.4 0 1 266.64 430.57
  L 274.56 459.10
  A 0.85 0.81 87.3 0 0 275.18 459.69
  Q 298.73 464.41 322.35 459.67
  A 0.81 0.81 1.7 0 0 322.97 459.09
  L 330.85 430.72
  A 1.02 1.01 87.8 0 1 331.46 430.05
  Q 347.30 423.83 360.35 413.05
  A 1.21 0.65 -48.2 0 1 361.23 412.73
  Q 361.68 412.85 361.54 413.50
  Q 350.92 446.94 348.96 482.00
  Q 348.65 483.37 347.47 482.55
  Q 338.82 476.51 332.54 473.07
  A 0.82 0.77 -47.5 0 0 331.69 473.13
  L 307.41 490.05
  A 1.05 1.00 36.1 0 1 306.51 490.17
  Q 289.38 484.50 271.32 484.69
  A 1.11 1.07 -20.7 0 1 270.48 484.33
  C 263.74 476.95 258.01 468.65 251.30 461.20
  A 0.84 0.83 62.6 0 0 250.49 460.94
  Q 232.51 464.87 216.27 473.66
  A 1.54 1.48 -15.5 0 0 215.46 475.03
  L 216.31 503.98
  A 1.21 1.11 68.6 0 1 215.98 504.83
  C 207.18 513.74 199.81 520.49 192.72 532.55
  A 1.01 0.96 -76.5 0 1 191.98 533.03
  L 162.74 536.03
  A 1.24 1.21 6.8 0 0 161.71 536.82
  Q 153.67 558.15 153.86 582.57
  A 1.58 1.54 12.5 0 0 154.77 583.96
  L 181.24 596.34
  A 1.05 0.99 -84.5 0 1 181.79 597.05
  C 184.50 610.11 188.07 618.15 194.66 630.56
  A 1.08 1.06 41.7 0 1 194.72 631.46
  L 184.29 658.59
  A 1.62 1.59 35.3 0 0 184.59 660.23
  Q 197.08 674.32 212.85 683.61
  A 1.36 1.29 43.6 0 0 214.23 683.61
  L 238.68 668.49
  A 2.70 2.56 -50.0 0 1 240.97 668.23
  Q 257.50 674.28 275.27 674.47
  A 1.02 0.99 -17.1 0 1 276.06 674.87
  L 293.51 698.84
  A 0.80 0.79 67.6 0 0 294.29 699.17
  Q 318.12 695.40 338.54 682.72
  A 0.88 0.72 75.5 0 0 338.89 681.96
  L 338.50 675.04
  Q 347.82 680.39 358.50 681.79
  Q 357.85 682.59 357.63 683.46
  A 0.97 0.83 32.5 0 0 357.89 684.31
  L 389.35 717.19
  A 1.03 0.98 -62.0 0 1 389.59 718.05
  C 385.88 736.91 387.20 753.86 389.47 772.73
  A 1.16 1.11 -27.9 0 1 389.18 773.60
  L 359.76 806.08
  Q 358.46 807.52 359.14 809.37
  Q 368.72 835.34 386.11 857.15
  A 2.53 2.51 -24.3 0 0 388.55 858.06
  Q 410.27 854.08 431.73 849.92
  Q 432.65 849.74 433.79 850.75
  C 405.36 871.19 383.91 899.61 367.41 930.07
  A 0.60 0.55 -59.1 0 0 367.57 930.83
  L 370.04 932.50
  C 370.04 933.14 370.07 933.44 369.68 933.99
  Q 343.85 970.48 339.24 978.26
  C 331.94 990.55 322.29 1007.87 333.05 1021.45
  C 339.70 1029.86 345.46 1035.64 354.55 1042.54
  Q 371.22 1055.21 387.81 1068.33
  Q 389.74 1069.86 389.34 1072.29
  C 388.25 1078.82 391.63 1086.19 395.26 1091.83
  A 0.51 0.49 -33.7 0 1 395.11 1092.51
  C 387.58 1097.58 395.82 1108.45 400.22 1112.05
  C 407.80 1118.25 422.76 1109.15 429.45 1104.64
  L 427.44 1176.00
  L 0.00 1176.00
  L 0.00 0.00
  Z
  M 1534.31 299.38
  Q 1548.18 311.10 1565.12 317.72
  A 1.04 0.97 4.3 0 1 1565.73 318.38
  L 1573.57 346.83
  A 0.82 0.81 88.1 0 0 1574.19 347.42
  Q 1597.90 352.18 1621.55 347.42
  A 0.81 0.80 -88.1 0 0 1622.16 346.84
  L 1630.02 318.36
  A 1.03 0.99 -4.0 0 1 1630.63 317.69
  Q 1647.39 311.24 1661.12 299.49
  A 1.06 1.03 -58.9 0 1 1662.00 299.26
  L 1690.02 304.84
  Q 1691.82 305.20 1692.95 303.78
  Q 1703.85 290.22 1710.69 272.87
  A 1.79 1.74 -55.4 0 0 1710.38 271.05
  L 1691.05 249.13
  A 1.05 1.03 30.0 0 1 1690.81 248.26
  Q 1694.25 230.46 1691.36 212.56
  A 1.04 0.97 63.8 0 1 1691.62 211.70
  L 1712.20 190.68
  A 1.20 1.18 -32.6 0 0 1712.48 189.46
  Q 1704.31 166.35 1689.00 148.93
  A 0.82 0.81 62.2 0 0 1688.19 148.67
  L 1659.62 156.07
  A 0.99 0.98 -32.6 0 1 1658.74 155.88
  Q 1644.66 144.48 1627.46 138.42
  A 1.04 0.97 1.8 0 1 1626.83 137.79
  L 1617.67 110.51
  A 2.51 2.51 -4.6 0 0 1615.68 108.82
  Q 1598.05 105.97 1579.23 108.94
  A 0.85 0.81 4.4 0 0 1578.57 109.48
  L 1569.17 137.26
  A 1.27 1.13 88.9 0 1 1568.57 137.96
  C 1557.28 143.33 1547.55 147.20 1537.36 155.73
  A 1.03 0.97 -56.8 0 1 1536.48 155.94
  L 1507.67 148.58
  A 0.83 0.81 28.0 0 0 1506.85 148.82
  Q 1491.00 166.80 1483.18 189.57
  A 0.82 0.81 32.5 0 0 1483.37 190.40
  L 1504.13 211.69
  A 0.99 0.97 -63.4 0 1 1504.40 212.54
  Q 1501.69 228.92 1504.72 246.47
  Q 1505.09 248.62 1503.60 250.31
  L 1485.42 270.89
  A 1.95 1.89 55.7 0 0 1485.08 272.85
  Q 1491.80 290.17 1502.87 303.87
  A 2.74 2.71 64.8 0 0 1505.52 304.84
  L 1533.45 299.17
  A 1.04 1.00 -30.0 0 1 1534.31 299.38
  Z
  M 1693.67 376.87
  C 1685.90 370.69 1679.67 367.96 1671.67 364.46
  A 1.19 1.14 -88.7 0 1 1671.05 363.78
  L 1664.51 344.34
  A 0.84 0.82 -4.6 0 0 1663.85 343.79
  Q 1650.83 341.67 1638.00 343.70
  A 1.56 1.55 4.9 0 0 1636.75 344.75
  L 1630.30 363.94
  A 1.04 1.03 89.5 0 1 1629.68 364.58
  Q 1617.75 368.96 1607.69 376.78
  A 1.02 1.00 -56.7 0 1 1606.80 376.97
  L 1586.87 371.97
  A 0.83 0.83 -61.6 0 0 1586.04 372.22
  Q 1574.92 384.78 1569.59 400.78
  A 0.82 0.81 32.5 0 0 1569.78 401.61
  L 1584.18 416.37
  A 1.01 1.00 -62.7 0 1 1584.45 417.23
  Q 1582.39 429.39 1584.79 441.51
  A 2.46 2.36 -30.7 0 1 1584.22 443.57
  L 1570.97 458.56
  A 1.18 1.16 55.4 0 0 1570.76 459.76
  Q 1575.48 471.92 1583.69 482.17
  A 0.84 0.82 64.6 0 0 1584.50 482.47
  L 1605.04 478.50
  A 1.04 1.00 -30.0 0 1 1605.90 478.71
  Q 1615.61 486.95 1627.49 491.58
  A 1.03 0.98 4.1 0 1 1628.09 492.24
  L 1633.59 512.07
  A 0.82 0.81 -1.7 0 0 1634.22 512.66
  Q 1650.60 515.93 1667.14 512.70
  A 0.84 0.82 2.2 0 0 1667.77 512.13
  L 1673.41 492.24
  A 0.99 0.98 87.1 0 1 1674.01 491.57
  Q 1685.80 486.92 1695.57 478.71
  A 1.06 1.03 30.0 0 1 1696.45 478.49
  L 1716.65 482.43
  A 1.26 1.22 -64.8 0 0 1717.87 481.97
  Q 1726.22 471.48 1730.74 459.48
  A 0.78 0.77 -55.3 0 0 1730.60 458.69
  L 1716.76 442.93
  A 1.04 1.02 -60.1 0 1 1716.53 442.05
  Q 1719.10 429.67 1716.98 417.18
  A 1.00 0.91 64.0 0 1 1717.23 416.33
  L 1731.70 401.63
  A 0.86 0.80 -32.9 0 0 1731.91 400.80
  Q 1726.42 384.76 1715.36 372.12
  A 0.80 0.79 61.8 0 0 1714.55 371.87
  L 1694.55 377.06
  A 1.01 0.98 56.1 0 1 1693.67 376.87
  Z
  M 802.06 498.94
  Q 788.67 498.53 771.02 498.81
  A 0.51 0.50 89.4 0 0 770.53 499.32
  L 770.54 544.72
  A 0.51 0.49 -0.0 0 0 771.05 545.21
  Q 797.48 545.31 823.91 545.21
  C 840.36 545.15 853.80 537.91 853.72 519.49
  Q 853.52 477.41 853.48 435.29
  A 0.50 0.49 90.0 0 0 852.99 434.79
  L 807.77 434.79
  A 0.50 0.49 -90.0 0 0 807.28 435.29
  L 807.25 497.95
  A 0.63 0.62 -6.4 0 1 806.76 498.56
  Q 804.67 499.02 802.06 498.94
  Z
  M 1625.62 623.58
  L 1652.07 623.73
  A 1.67 1.63 0.3 0 0 1653.76 622.10
  Q 1653.76 585.54 1653.73 547.90
  Q 1653.73 542.04 1652.77 539.35
  C 1648.43 527.23 1631.03 526.99 1626.41 538.80
  C 1625.04 542.28 1625.07 546.99 1625.06 551.00
  Q 1625.00 587.22 1625.00 622.97
  A 0.63 0.61 0.5 0 0 1625.62 623.58
  Z
  M 1653.75 635.28
  A 0.27 0.27 0.0 0 0 1653.48 635.01
  L 1625.30 635.01
  A 0.27 0.27 0.0 0 0 1625.03 635.28
  L 1625.03 763.48
  A 0.27 0.27 0.0 0 0 1625.30 763.75
  L 1653.48 763.75
  A 0.27 0.27 0.0 0 0 1653.75 763.48
  L 1653.75 635.28
  Z
  M 262.98 711.33
  C 262.70 692.41 237.39 687.42 230.37 703.96
  Q 228.77 707.72 228.64 716.33
  Q 228.30 738.17 228.61 760.13
  A 0.51 0.51 89.4 0 0 229.12 760.63
  L 262.70 760.70
  A 0.51 0.51 0.0 0 0 263.21 760.19
  Q 263.33 735.73 262.98 711.33
  Z
  M 285.89 789.80
  L 319.82 789.94
  A 0.42 0.41 90.0 0 0 320.23 789.52
  Q 320.30 763.53 320.21 737.57
  Q 320.19 730.51 319.33 727.66
  C 314.63 711.98 292.66 711.03 286.96 726.40
  Q 285.75 729.68 285.77 737.76
  Q 285.82 763.69 285.44 789.34
  A 0.45 0.45 -89.4 0 0 285.89 789.80
  Z
  M 191.29 830.75
  Q 191.22 811.82 191.25 792.85
  C 191.26 781.87 190.07 774.61 177.49 774.56
  Q 132.78 774.40 88.06 774.55
  Q 74.98 774.59 74.90 787.24
  Q 74.55 840.24 74.79 972.21
  C 74.81 980.24 76.78 988.24 86.51 988.24
  Q 130.48 988.27 174.47 988.24
  C 184.20 988.23 191.00 986.49 191.11 975.49
  Q 191.24 960.51 191.29 945.50
  Q 213.39 946.05 236.40 945.46
  A 0.62 0.61 -1.0 0 0 237.00 944.85
  L 236.99 911.77
  A 0.76 0.76 0.0 0 0 236.23 911.01
  L 191.29 911.00
  L 191.29 865.50
  Q 234.54 865.60 242.53 865.42
  Q 257.48 865.10 261.72 853.70
  Q 263.31 849.42 263.28 837.64
  Q 263.23 806.11 263.23 774.54
  A 0.50 0.50 0.0 0 0 262.73 774.04
  L 229.03 774.05
  A 0.51 0.50 -0.0 0 0 228.52 774.55
  L 228.48 830.21
  A 0.51 0.50 -0.0 0 1 227.97 830.71
  L 191.29 830.75
  Z
  M 1579.94 916.56
  Q 1579.96 928.94 1580.02 941.30
  C 1580.07 951.90 1587.33 953.92 1596.25 953.94
  Q 1610.33 953.97 1624.45 954.03
  A 0.51 0.50 0.0 0 1 1624.96 954.53
  L 1624.96 970.98
  A 0.52 0.50 -0.0 0 1 1624.44 971.48
  L 1590.79 971.53
  A 0.50 0.49 -0.0 0 0 1590.29 972.02
  L 1590.29 999.72
  A 0.51 0.50 0.0 0 0 1590.80 1000.22
  Q 1612.72 1000.28 1634.63 1000.24
  C 1650.37 1000.22 1653.78 993.80 1653.75 978.57
  Q 1653.73 966.59 1653.78 954.49
  A 0.53 0.52 -90.0 0 1 1654.29 953.97
  Q 1665.66 953.62 1677.07 953.73
  C 1686.54 953.82 1693.98 952.13 1693.99 941.25
  Q 1694.02 898.88 1693.99 856.49
  C 1693.98 847.13 1692.49 840.39 1681.98 840.01
  Q 1670.48 839.58 1654.27 839.72
  A 0.49 0.49 -0.6 0 1 1653.77 839.23
  L 1653.76 775.64
  A 0.57 0.56 89.5 0 0 1653.19 775.07
  L 1625.68 775.18
  A 0.52 0.50 89.4 0 0 1625.19 775.70
  L 1625.02 839.11
  A 0.51 0.51 -0.6 0 1 1624.52 839.62
  C 1613.77 839.84 1603.03 839.55 1592.28 840.02
  C 1584.30 840.37 1580.11 844.58 1580.06 853.04
  Q 1579.97 869.84 1579.98 886.71
  A 0.51 0.50 -90.0 0 1 1579.48 887.22
  L 1545.99 887.24
  A 0.44 0.42 0.0 0 0 1545.55 887.66
  L 1545.65 915.36
  A 0.52 0.51 0.0 0 0 1546.17 915.87
  L 1579.44 916.06
  A 0.50 0.50 0.0 0 1 1579.94 916.56
  Z
  M 320.3109 803.5002
  A 0.47 0.47 0.0 0 0 319.8417 803.0294
  L 286.2218 802.9707
  A 0.47 0.47 0.0 0 0 285.7509 803.4399
  L 285.6291 873.2398
  A 0.47 0.47 0.0 0 0 286.0983 873.7106
  L 319.7182 873.7693
  A 0.47 0.47 0.0 0 0 320.1891 873.3001
  L 320.3109 803.5002
  Z
  M 284.94 910.94
  L 250.77 910.98
  A 0.77 0.76 0.0 0 0 250.00 911.74
  L 250.01 944.71
  A 0.80 0.80 0.1 0 0 250.81 945.51
  Q 275.09 945.45 298.19 945.71
  Q 314.10 945.89 318.61 933.55
  Q 320.21 929.16 320.24 918.09
  Q 320.29 902.71 320.21 887.29
  A 0.50 0.50 0.0 0 0 319.71 886.79
  L 286.04 886.78
  A 0.53 0.51 -89.4 0 0 285.53 887.30
  L 285.44 910.44
  A 0.50 0.50 0.0 0 1 284.94 910.94
  Z
  M 775.47 1001.98
  C 775.55 1016.77 787.79 1026.07 801.77 1026.31
  Q 827.87 1026.77 854.14 1026.37
  A 0.51 0.50 -0.6 0 0 854.64 1025.87
  L 854.70 980.54
  A 0.49 0.49 -89.4 0 0 854.21 980.04
  L 822.00 980.01
  A 0.50 0.50 0.0 0 1 821.50 979.51
  L 821.49 944.70
  A 0.47 0.47 0.0 0 0 821.02 944.23
  Q 809.27 944.25 797.55 944.41
  C 791.68 944.49 782.97 943.95 775.68 944.50
  A 0.54 0.54 -2.8 0 0 775.18 945.05
  Q 775.31 973.56 775.47 1001.98
  Z
  M 1578.75 971.77
  A 0.26 0.26 0.0 0 0 1578.49 971.51
  L 1496.51 971.51
  A 0.26 0.26 0.0 0 0 1496.25 971.77
  L 1496.25 999.99
  A 0.26 0.26 0.0 0 0 1496.51 1000.25
  L 1578.49 1000.25
  A 0.26 0.26 0.0 0 0 1578.75 999.99
  L 1578.75 971.77
  Z"
/>
<path fill="#323244" d="
  M 1452.29 333.50
  Q 1443.62 332.83 1434.99 333.99
  C 1420.17 335.97 1419.87 355.51 1419.93 366.75
  Q 1420.10 400.38 1420.60 433.59
  Q 1420.93 445.51 1425.10 456.36
  Q 1421.80 463.42 1421.21 467.99
  C 1419.27 483.05 1420.28 501.61 1420.19 515.75
  Q 1420.03 541.29 1420.81 566.66
  Q 1421.26 582.35 1426.79 596.75
  C 1420.29 606.28 1419.85 620.02 1419.96 630.25
  C 1420.26 656.43 1419.81 682.68 1420.77 708.84
  Q 1421.26 724.81 1426.85 739.64
  C 1420.26 745.95 1419.94 756.85 1419.95 765.50
  Q 1420.00 796.50 1420.54 827.50
  C 1421.82 848.20 1427.84 865.02 1452.25 864.04
  L 1452.29 887.25
  L 1452.29 916.00
  L 1452.29 971.50
  L 1452.29 1000.25
  Q 1452.23 1034.66 1452.24 1069.07
  Q 1452.25 1079.30 1450.69 1083.23
  C 1446.86 1092.89 1438.45 1093.99 1428.26 1093.99
  Q 1174.42 1094.02 920.58 1093.99
  C 903.11 1093.98 894.69 1090.51 894.62 1071.50
  Q 894.54 1049.00 894.46 1026.50
  L 894.46 980.00
  L 894.46 873.00
  L 894.54 790.00
  C 920.89 788.03 929.29 765.96 929.37 742.82
  Q 930.19 734.65 930.19 726.00
  Q 930.21 696.80 930.46 667.61
  C 930.58 654.66 931.63 626.79 913.99 623.55
  Q 906.92 622.26 894.54 622.50
  L 894.50 369.21
  L 894.46 322.50
  L 894.49 72.50
  Q 894.49 71.32 895.28 68.70
  C 898.91 56.62 907.28 55.26 919.39 55.26
  Q 1173.41 55.23 1427.44 55.26
  C 1438.36 55.26 1447.25 56.24 1450.96 66.82
  Q 1452.26 70.54 1452.26 79.82
  Q 1452.21 206.67 1452.29 333.50
  Z
  M 922.88 256.11
  Q 985.36 165.56 1047.48 74.78
  Q 1047.77 74.35 1047.26 74.34
  L 1010.29 74.02
  A 1.61 1.52 -70.1 0 0 1009.06 74.64
  L 916.86 193.66
  A 1.57 1.47 65.7 0 0 916.55 194.56
  L 914.78 267.34
  Q 914.77 268.05 915.16 267.46
  Q 918.99 261.75 922.88 256.11
  Z
  M 1079.47 74.91
  L 913.98 315.55
  A 2.36 2.22 64.6 0 0 913.58 316.79
  L 912.73 356.18
  Q 912.70 357.45 913.40 356.40
  L 1100.99 75.02
  Q 1101.28 74.58 1100.76 74.58
  L 1080.54 74.32
  A 1.36 1.21 -70.6 0 0 1079.47 74.91
  Z
  M 1412.99 99.86
  A 12.35 12.35 0.0 0 0 1400.64 87.51
  A 12.35 12.35 0.0 0 0 1388.29 99.86
  A 12.35 12.35 0.0 0 0 1400.64 112.21
  A 12.35 12.35 0.0 0 0 1412.99 99.86
  Z
  M 1432.56 866.52
  L 1275.42 1076.23
  Q 1275.00 1076.79 1275.70 1076.78
  L 1307.61 1076.38
  A 1.06 1.03 -71.4 0 0 1308.42 1075.96
  L 1431.20 912.15
  A 1.73 1.72 65.9 0 0 1431.54 911.25
  C 1432.32 900.98 1433.87 890.82 1433.51 880.48
  Q 1433.26 873.51 1433.21 866.73
  Q 1433.20 865.67 1432.56 866.52
  Z"
/>
<path fill="#50808e" d="
  M 922.88 256.11
  Q 918.99 261.75 915.16 267.46
  Q 914.77 268.05 914.78 267.34
  L 916.55 194.56
  A 1.57 1.47 65.7 0 1 916.86 193.66
  L 1009.06 74.64
  A 1.61 1.52 -70.1 0 1 1010.29 74.02
  L 1047.26 74.34
  Q 1047.77 74.35 1047.48 74.78
  Q 985.36 165.56 922.88 256.11
  Z"
/>
<path fill="#50808e" d="
  M 1079.47 74.91
  A 1.36 1.21 -70.6 0 1 1080.54 74.32
  L 1100.76 74.58
  Q 1101.28 74.58 1100.99 75.02
  L 913.40 356.40
  Q 912.70 357.45 912.73 356.18
  L 913.58 316.79
  A 2.36 2.22 64.6 0 1 913.98 315.55
  L 1079.47 74.91
  Z"
/>
<path fill="#50808e" d="
  M 705.97 384.41
  Q 700.87 376.93 694.73 369.90
  A 0.75 0.75 -52.0 0 1 694.63 369.07
  C 698.02 362.62 700.77 354.55 698.44 347.29
  A 2.10 2.10 -7.9 0 0 696.51 345.83
  Q 678.94 345.16 661.48 341.31
  A 0.41 0.41 18.4 0 1 661.20 340.75
  C 662.83 337.03 667.25 318.86 659.51 318.72
  C 655.10 318.64 648.72 319.61 642.94 320.48
  Q 624.23 323.30 605.32 324.48
  A 0.53 0.45 -0.8 0 1 604.75 324.01
  L 605.00 319.96
  C 620.73 314.22 632.51 299.01 636.45 283.55
  C 645.67 247.33 616.11 213.20 579.04 216.54
  C 550.45 219.11 528.91 244.15 530.23 272.74
  Q 531.42 298.45 553.24 314.59
  Q 531.54 318.04 509.67 320.97
  C 476.23 325.45 447.04 331.21 417.04 346.50
  L 412.25 333.91
  A 0.85 0.80 -35.6 0 1 412.42 333.06
  L 442.65 299.60
  A 1.12 1.09 -27.1 0 0 442.94 298.74
  Q 442.22 292.14 441.48 285.68
  Q 439.08 264.65 443.00 243.88
  A 0.97 0.92 -62.3 0 0 442.76 243.03
  L 411.29 210.33
  A 0.80 0.80 32.9 0 1 411.11 209.50
  Q 423.21 174.79 447.89 147.60
  A 0.83 0.81 28.0 0 1 448.71 147.36
  L 492.75 159.20
  A 1.00 0.93 -55.8 0 0 493.62 159.00
  Q 511.54 144.39 533.01 136.24
  C 536.02 135.09 538.74 133.76 541.60 132.46
  A 1.18 1.15 88.4 0 0 542.22 131.79
  L 556.66 90.36
  A 2.70 2.63 5.3 0 1 558.81 88.62
  Q 586.15 84.74 614.61 89.41
  A 0.81 0.80 82.2 0 1 615.21 89.87
  Q 616.47 92.63 617.49 95.75
  Q 623.59 114.48 629.57 133.24
  A 1.11 1.09 -88.4 0 0 630.19 133.91
  C 647.40 140.98 663.19 149.00 677.30 161.18
  A 1.37 1.36 58.8 0 0 678.51 161.48
  L 722.47 150.69
  A 0.83 0.80 -26.9 0 1 723.28 150.94
  Q 747.20 178.62 758.51 213.52
  A 1.02 1.01 -31.5 0 1 758.26 214.55
  L 726.09 246.62
  A 0.99 0.97 63.4 0 0 725.82 247.47
  C 728.97 267.21 727.66 283.67 724.51 301.95
  A 1.22 1.22 29.2 0 0 724.79 302.94
  Q 737.84 317.92 750.79 332.97
  Q 752.04 334.42 754.28 337.62
  A 0.95 0.92 -51.6 0 1 754.37 338.50
  Q 743.94 365.28 725.39 387.19
  A 0.86 0.80 23.6 0 1 724.59 387.47
  L 705.97 384.41
  Z"
/>
<circle fill="#50808e" cx="1400.64" cy="99.86" r="12.35"/>
<path fill="#91a1ba" d="
  M 1533.45 299.17
  L 1505.52 304.84
  A 2.74 2.71 64.8 0 1 1502.87 303.87
  Q 1491.80 290.17 1485.08 272.85
  A 1.95 1.89 55.7 0 1 1485.42 270.89
  L 1503.60 250.31
  Q 1505.09 248.62 1504.72 246.47
  Q 1501.69 228.92 1504.40 212.54
  A 0.99 0.97 -63.4 0 0 1504.13 211.69
  L 1483.37 190.40
  A 0.82 0.81 32.5 0 1 1483.18 189.57
  Q 1491.00 166.80 1506.85 148.82
  A 0.83 0.81 28.0 0 1 1507.67 148.58
  L 1536.48 155.94
  A 1.03 0.97 -56.8 0 0 1537.36 155.73
  C 1547.55 147.20 1557.28 143.33 1568.57 137.96
  A 1.27 1.13 88.9 0 0 1569.17 137.26
  L 1578.57 109.48
  A 0.85 0.81 4.4 0 1 1579.23 108.94
  Q 1598.05 105.97 1615.68 108.82
  A 2.51 2.51 -4.6 0 1 1617.67 110.51
  L 1626.83 137.79
  A 1.04 0.97 1.8 0 0 1627.46 138.42
  Q 1644.66 144.48 1658.74 155.88
  A 0.99 0.98 -32.6 0 0 1659.62 156.07
  L 1688.19 148.67
  A 0.82 0.81 62.2 0 1 1689.00 148.93
  Q 1704.31 166.35 1712.48 189.46
  A 1.20 1.18 -32.6 0 1 1712.20 190.68
  L 1691.62 211.70
  A 1.04 0.97 63.8 0 0 1691.36 212.56
  Q 1694.25 230.46 1690.81 248.26
  A 1.05 1.03 30.0 0 0 1691.05 249.13
  L 1710.38 271.05
  A 1.79 1.74 -55.4 0 1 1710.69 272.87
  Q 1703.85 290.22 1692.95 303.78
  Q 1691.82 305.20 1690.02 304.84
  L 1662.00 299.26
  A 1.06 1.03 -58.9 0 0 1661.12 299.49
  Q 1647.39 311.24 1630.63 317.69
  A 1.03 0.99 -4.0 0 0 1630.02 318.36
  L 1622.16 346.84
  A 0.81 0.80 -88.1 0 1 1621.55 347.42
  Q 1597.90 352.18 1574.19 347.42
  A 0.82 0.81 88.1 0 1 1573.57 346.83
  L 1565.73 318.38
  A 1.04 0.97 4.3 0 0 1565.12 317.72
  Q 1548.18 311.10 1534.31 299.38
  A 1.04 1.00 -30.0 0 0 1533.45 299.17
  Z
  M 1633.49 228.66
  A 35.63 35.63 0.0 0 0 1597.86 193.03
  A 35.63 35.63 0.0 0 0 1562.23 228.66
  A 35.63 35.63 0.0 0 0 1597.86 264.29
  A 35.63 35.63 0.0 0 0 1633.49 228.66
  Z"
/>
<circle fill="#f3f2f1" cx="1597.86" cy="228.66" r="35.63"/>
<path fill="#f3f2f1" d="
  M 605.00 319.96
  C 605.12 315.39 604.77 303.52 597.51 305.25
  Q 575.57 310.50 553.24 314.59
  Q 531.42 298.45 530.23 272.74
  C 528.91 244.15 550.45 219.11 579.04 216.54
  C 616.11 213.20 645.67 247.33 636.45 283.55
  C 632.51 299.01 620.73 314.22 605.00 319.96
  Z"
/>
<path fill="#cb8589" d="
  M 393.72 362.85
  Q 371.00 383.81 361.54 413.50
  Q 361.68 412.85 361.23 412.73
  A 1.21 0.65 -48.2 0 0 360.35 413.05
  Q 347.30 423.83 331.46 430.05
  A 1.02 1.01 87.8 0 0 330.85 430.72
  L 322.97 459.09
  A 0.81 0.81 1.7 0 1 322.35 459.67
  Q 298.73 464.41 275.18 459.69
  A 0.85 0.81 87.3 0 1 274.56 459.10
  L 266.64 430.57
  A 1.00 0.96 3.4 0 0 266.04 429.92
  C 254.46 425.48 246.09 420.10 235.17 411.67
  A 1.10 1.06 57.2 0 0 234.29 411.46
  L 205.74 417.22
  A 1.05 0.99 -28.7 0 1 204.86 416.99
  Q 203.52 415.79 201.69 413.31
  Q 191.34 399.31 185.82 384.47
  A 0.88 0.84 56.3 0 1 185.97 383.62
  L 205.15 361.91
  A 2.31 2.22 -29.3 0 0 205.70 360.09
  C 203.96 348.11 203.20 338.46 205.35 324.81
  A 1.02 1.01 27.3 0 0 205.07 323.96
  L 184.32 302.82
  A 0.81 0.77 32.7 0 1 184.12 302.00
  Q 191.80 279.12 207.75 261.01
  A 0.83 0.78 26.9 0 1 208.57 260.77
  L 237.31 268.21
  A 1.03 0.97 -56.8 0 0 238.19 268.00
  Q 252.29 256.51 268.99 250.75
  A 1.80 1.73 -89.6 0 0 270.08 249.63
  L 279.41 221.76
  A 0.72 0.70 3.8 0 1 279.98 221.28
  Q 298.65 218.24 317.40 221.22
  A 0.89 0.85 -3.6 0 1 318.09 221.80
  L 327.56 249.80
  A 1.10 1.04 -89.4 0 0 328.17 250.46
  C 340.20 255.23 349.68 260.02 359.42 268.11
  A 1.01 0.98 56.9 0 0 360.31 268.31
  L 389.04 260.86
  A 0.81 0.78 -27.4 0 1 389.85 261.10
  Q 405.70 279.21 413.43 302.02
  A 0.82 0.80 -32.3 0 1 413.23 302.85
  L 392.53 323.88
  A 0.95 0.94 62.4 0 0 392.27 324.72
  Q 394.52 338.26 393.00 351.83
  Q 392.99 351.88 392.01 356.04
  Q 391.13 359.78 393.72 362.85
  Z
  M 334.41 340.92
  A 35.62 35.62 0.0 0 0 298.79 305.30
  A 35.62 35.62 0.0 0 0 263.17 340.92
  A 35.62 35.62 0.0 0 0 298.79 376.54
  A 35.62 35.62 0.0 0 0 334.41 340.92
  Z"
/>
<path fill="#402523" d="
  M 605.00 319.96
  L 604.75 324.01
  A 0.53 0.45 -0.8 0 0 605.32 324.48
  Q 624.23 323.30 642.94 320.48
  C 648.72 319.61 655.10 318.64 659.51 318.72
  C 667.25 318.86 662.83 337.03 661.20 340.75
  A 0.41 0.41 18.1 0 0 661.48 341.31
  Q 678.94 345.16 696.51 345.83
  A 2.10 2.10 -7.9 0 1 698.44 347.29
  C 700.77 354.55 698.02 362.62 694.63 369.07
  A 0.75 0.75 -52.0 0 0 694.73 369.90
  Q 700.87 376.93 705.97 384.41
  C 723.53 413.52 730.27 449.26 732.04 482.75
  L 732.21 492.00
  L 732.54 498.75
  Q 732.86 521.62 729.42 544.68
  Q 727.11 559.24 721.96 573.50
  L 718.25 580.79
  Q 703.56 567.64 694.05 555.19
  C 690.82 550.94 694.07 545.97 695.00 542.25
  C 697.20 533.49 697.50 522.47 697.95 511.96
  Q 698.70 494.04 697.79 469.00
  C 697.35 456.87 695.02 444.98 681.75 441.76
  C 660.56 436.62 636.32 437.88 614.48 438.63
  C 596.29 439.25 581.73 441.67 565.83 449.08
  Q 546.05 458.30 525.73 452.83
  C 518.32 450.84 507.65 445.47 500.42 443.35
  Q 489.24 440.08 482.00 439.48
  Q 457.66 437.45 425.43 438.36
  C 416.40 438.61 393.41 439.77 388.19 449.07
  C 383.45 457.52 383.46 464.22 383.01 475.84
  Q 381.91 503.96 384.42 532.00
  Q 385.15 540.14 387.90 547.78
  C 388.67 549.91 388.48 553.30 387.30 554.80
  Q 376.21 568.89 362.79 580.75
  L 359.35 574.74
  C 349.01 544.89 347.61 513.51 348.96 482.00
  Q 350.92 446.94 361.54 413.50
  Q 371.00 383.81 393.72 362.85
  Q 404.82 353.77 417.04 346.50
  C 447.04 331.21 476.23 325.45 509.67 320.97
  Q 531.54 318.04 553.24 314.59
  Q 575.57 310.50 597.51 305.25
  C 604.77 303.52 605.12 315.39 605.00 319.96
  Z"
/>
<circle fill="#f3f2f1" cx="298.79" cy="340.92" r="35.62"/>
<path fill="#91a1ba" d="
  M 894.46 322.50
  L 894.50 369.21
  L 854.07 369.09
  A 0.52 0.49 90.0 0 0 853.58 369.61
  L 853.50 421.28
  A 0.46 0.46 0.0 0 1 853.04 421.74
  L 807.74 421.75
  A 0.48 0.48 0.0 0 1 807.26 421.27
  Q 807.23 384.84 807.25 348.25
  C 807.26 329.77 821.75 322.57 838.05 322.53
  Q 866.25 322.47 894.46 322.50
  Z"
/>
<path fill="#ffceb5" d="
  M 1452.29 333.50
  Q 1461.29 335.38 1469.67 339.11
  C 1503.13 353.99 1509.24 398.64 1500.21 429.50
  C 1482.97 440.94 1460.74 446.86 1440.44 441.60
  Q 1430.09 438.91 1420.60 433.59
  Q 1420.10 400.38 1419.93 366.75
  C 1419.87 355.51 1420.17 335.97 1434.99 333.99
  Q 1443.62 332.83 1452.29 333.50
  Z"
/>
<path fill="#72a276" d="
  M 1694.55 377.06
  L 1714.55 371.87
  A 0.80 0.79 61.8 0 1 1715.36 372.12
  Q 1726.42 384.76 1731.91 400.80
  A 0.86 0.80 -32.9 0 1 1731.70 401.63
  L 1717.23 416.33
  A 1.00 0.91 64.0 0 0 1716.98 417.18
  Q 1719.10 429.67 1716.53 442.05
  A 1.04 1.02 -60.1 0 0 1716.76 442.93
  L 1730.60 458.69
  A 0.78 0.77 -55.3 0 1 1730.74 459.48
  Q 1726.22 471.48 1717.87 481.97
  A 1.26 1.22 -64.8 0 1 1716.65 482.43
  L 1696.45 478.49
  A 1.06 1.03 30.0 0 0 1695.57 478.71
  Q 1685.80 486.92 1674.01 491.57
  A 0.99 0.98 87.1 0 0 1673.41 492.24
  L 1667.77 512.13
  A 0.84 0.82 2.2 0 1 1667.14 512.70
  Q 1650.60 515.93 1634.22 512.66
  A 0.82 0.81 -1.7 0 1 1633.59 512.07
  L 1628.09 492.24
  A 1.03 0.98 4.1 0 0 1627.49 491.58
  Q 1615.61 486.95 1605.90 478.71
  A 1.04 1.00 -30.0 0 0 1605.04 478.50
  L 1584.50 482.47
  A 0.84 0.82 64.6 0 1 1583.69 482.17
  Q 1575.48 471.92 1570.76 459.76
  A 1.18 1.16 55.4 0 1 1570.97 458.56
  L 1584.22 443.57
  A 2.46 2.36 -30.7 0 0 1584.79 441.51
  Q 1582.39 429.39 1584.45 417.23
  A 1.01 1.00 -62.7 0 0 1584.18 416.37
  L 1569.78 401.61
  A 0.82 0.81 32.5 0 1 1569.59 400.78
  Q 1574.92 384.78 1586.04 372.22
  A 0.83 0.83 -61.6 0 1 1586.87 371.97
  L 1606.80 376.97
  A 1.02 1.00 -56.7 0 0 1607.69 376.78
  Q 1617.75 368.96 1629.68 364.58
  A 1.04 1.03 89.5 0 0 1630.30 363.94
  L 1636.75 344.75
  A 1.56 1.55 4.9 0 1 1638.00 343.70
  Q 1650.83 341.67 1663.85 343.79
  A 0.84 0.82 -4.6 0 1 1664.51 344.34
  L 1671.05 363.78
  A 1.19 1.14 -88.7 0 0 1671.67 364.46
  C 1679.67 367.96 1685.90 370.69 1693.67 376.87
  A 1.01 0.98 56.1 0 0 1694.55 377.06
  Z
  M 1675.94 428.53
  A 25.22 25.22 0.0 0 0 1650.72 403.31
  A 25.22 25.22 0.0 0 0 1625.50 428.53
  A 25.22 25.22 0.0 0 0 1650.72 453.75
  A 25.22 25.22 0.0 0 0 1675.94 428.53
  Z"
/>
<circle fill="#f3f2f1" cx="1650.72" cy="428.53" r="25.22"/>
<path fill="#da9588" d="
  M 1500.21 429.50
  Q 1495.71 444.69 1485.46 456.75
  Q 1484.56 456.82 1484.34 456.69
  Q 1461.26 443.81 1436.25 448.47
  Q 1429.51 449.73 1425.10 456.36
  Q 1420.93 445.51 1420.60 433.59
  Q 1430.09 438.91 1440.44 441.60
  C 1460.74 446.86 1482.97 440.94 1500.21 429.50
  Z"
/>
<path fill="#91a1ba" d="
  M 802.06 498.94
  Q 804.67 499.02 806.76 498.56
  A 0.63 0.62 -6.4 0 0 807.25 497.95
  L 807.28 435.29
  A 0.50 0.49 -90.0 0 1 807.77 434.79
  L 852.99 434.79
  A 0.50 0.49 90.0 0 1 853.48 435.29
  Q 853.52 477.41 853.72 519.49
  C 853.80 537.91 840.36 545.15 823.91 545.21
  Q 797.48 545.31 771.05 545.21
  A 0.51 0.49 0.0 0 1 770.54 544.72
  L 770.53 499.32
  A 0.51 0.50 89.4 0 1 771.02 498.81
  Q 788.67 498.53 802.06 498.94
  Z"
/>
<path fill="#ffceb5" d="
  M 718.25 580.79
  C 716.65 612.97 713.35 646.86 704.79 678.00
  L 703.46 682.50
  Q 694.39 709.11 678.46 732.25
  Q 675.61 735.02 673.88 738.37
  Q 663.19 750.87 652.79 761.04
  C 633.40 779.99 609.18 792.07 584.00 801.71
  Q 569.62 807.25 554.36 808.51
  C 534.82 810.12 514.89 808.72 496.75 801.54
  Q 478.39 794.54 462.80 786.22
  C 421.83 764.36 389.56 722.34 376.46 678.00
  C 367.87 647.93 364.15 610.44 362.79 580.75
  Q 376.21 568.89 387.30 554.80
  C 388.48 553.30 388.67 549.91 387.90 547.78
  Q 385.15 540.14 384.42 532.00
  Q 381.91 503.96 383.01 475.84
  C 383.46 464.22 383.45 457.52 388.19 449.07
  C 393.41 439.77 416.40 438.61 425.43 438.36
  Q 457.66 437.45 482.00 439.48
  Q 489.24 440.08 500.42 443.35
  C 507.65 445.47 518.32 450.84 525.73 452.83
  Q 546.05 458.30 565.83 449.08
  C 581.73 441.67 596.29 439.25 614.48 438.63
  C 636.32 437.88 660.56 436.62 681.75 441.76
  C 695.02 444.98 697.35 456.87 697.79 469.00
  Q 698.70 494.04 697.95 511.96
  C 697.50 522.47 697.20 533.49 695.00 542.25
  C 694.07 545.97 690.82 550.94 694.05 555.19
  Q 703.56 567.64 718.25 580.79
  Z
  M 415.70 527.07
  A 2.52 2.50 -36.2 0 0 417.49 527.34
  C 430.84 524.31 443.04 523.99 458.75 523.92
  Q 472.92 523.86 486.75 526.89
  C 497.13 529.16 495.40 517.12 489.20 513.54
  C 486.54 512.01 481.24 510.15 477.75 509.74
  Q 450.74 506.57 424.18 516.93
  C 421.97 517.79 409.92 523.75 415.70 527.07
  Z
  M 588.65 518.40
  C 586.42 523.08 589.36 528.35 595.01 527.00
  Q 608.92 523.68 625.25 523.89
  C 638.33 524.06 651.47 524.42 664.30 527.21
  Q 665.68 527.51 666.51 527.08
  C 670.04 525.20 665.69 520.91 663.93 519.83
  Q 658.98 516.79 652.32 514.57
  C 639.59 510.31 596.15 502.60 588.65 518.40
  Z
  M 441.01 571.86
  Q 439.15 578.22 438.96 580.74
  C 438.12 591.63 441.39 612.82 455.00 614.49
  C 468.97 616.20 476.21 602.15 476.15 589.75
  Q 476.12 584.86 476.32 580.06
  C 483.03 579.11 480.01 569.89 477.73 566.52
  C 466.28 549.56 442.87 554.41 432.40 569.68
  C 430.73 572.12 427.80 577.69 429.26 580.64
  C 431.27 584.65 434.28 580.80 435.54 578.51
  Q 437.62 574.75 441.01 571.86
  Z
  M 606.40 580.39
  C 604.41 593.68 608.77 617.65 627.99 614.37
  Q 634.26 613.31 637.59 607.61
  Q 647.15 591.32 641.29 572.00
  Q 644.92 575.03 647.12 579.14
  C 648.19 581.14 650.86 583.84 652.68 581.43
  Q 654.33 579.24 653.31 576.68
  Q 646.38 559.26 629.57 556.46
  C 618.01 554.54 607.58 558.90 602.90 569.86
  C 601.04 574.22 601.10 578.91 606.40 580.39
  Z
  M 517.57 666.55
  C 518.49 675.77 540.74 676.27 547.01 675.42
  C 552.96 674.61 563.30 673.62 564.78 666.28
  A 0.68 0.67 -77.6 0 0 564.28 665.49
  C 560.02 664.46 556.13 664.42 551.81 664.27
  Q 535.39 663.70 518.98 664.88
  A 1.52 1.52 -4.9 0 0 517.57 666.55
  Z
  M 482.34 709.50
  C 483.91 724.21 500.96 738.75 514.21 742.90
  C 534.92 749.38 567.98 748.25 584.52 733.78
  C 591.06 728.06 599.05 718.53 599.84 709.56
  A 0.52 0.52 6.2 0 0 599.38 708.99
  Q 595.04 708.52 589.43 708.90
  C 565.17 710.57 534.06 710.90 497.94 708.99
  Q 490.47 708.60 482.98 708.78
  A 0.66 0.65 86.8 0 0 482.34 709.50
  Z"
/>
<path fill="#ffceb5" d="
  M 1485.46 456.75
  C 1485.47 457.01 1485.60 457.33 1485.84 457.47
  C 1520.36 477.68 1526.09 527.86 1515.90 562.43
  C 1486.78 581.36 1451.11 585.93 1420.81 566.66
  Q 1420.03 541.29 1420.19 515.75
  C 1420.28 501.61 1419.27 483.05 1421.21 467.99
  Q 1421.80 463.42 1425.10 456.36
  Q 1429.51 449.73 1436.25 448.47
  Q 1461.26 443.81 1484.34 456.69
  Q 1484.56 456.82 1485.46 456.75
  Z"
/>
<path fill="#91a1ba" d="
  M 348.96 482.00
  C 347.61 513.51 349.01 544.89 359.35 574.74
  Q 351.81 569.08 342.78 567.56
  C 336.04 566.42 329.96 567.81 324.85 572.12
  C 301.87 591.50 309.03 630.94 320.20 654.07
  Q 326.35 666.83 338.50 675.04
  L 338.89 681.96
  A 0.88 0.72 75.5 0 1 338.54 682.72
  Q 318.12 695.40 294.29 699.17
  A 0.80 0.79 67.6 0 1 293.51 698.84
  L 276.06 674.87
  A 1.02 0.99 -17.1 0 0 275.27 674.47
  Q 257.50 674.28 240.97 668.23
  A 2.70 2.56 -50.0 0 0 238.68 668.49
  L 214.23 683.61
  A 1.36 1.29 43.6 0 1 212.85 683.61
  Q 197.08 674.32 184.59 660.23
  A 1.62 1.59 35.3 0 1 184.29 658.59
  L 194.72 631.46
  A 1.08 1.06 41.7 0 0 194.66 630.56
  C 188.07 618.15 184.50 610.11 181.79 597.05
  A 1.05 0.99 -84.5 0 0 181.24 596.34
  L 154.77 583.96
  A 1.58 1.54 12.5 0 1 153.86 582.57
  Q 153.67 558.15 161.71 536.82
  A 1.24 1.21 6.8 0 1 162.74 536.03
  L 191.98 533.03
  A 1.01 0.96 -76.5 0 0 192.72 532.55
  C 199.81 520.49 207.18 513.74 215.98 504.83
  A 1.21 1.11 68.6 0 0 216.31 503.98
  L 215.46 475.03
  A 1.54 1.48 -15.5 0 1 216.27 473.66
  Q 232.51 464.87 250.49 460.94
  A 0.84 0.83 62.6 0 1 251.30 461.20
  C 258.01 468.65 263.74 476.95 270.48 484.33
  A 1.11 1.07 -20.7 0 0 271.32 484.69
  Q 289.38 484.50 306.51 490.17
  A 1.05 1.00 36.1 0 0 307.41 490.05
  L 331.69 473.13
  A 0.82 0.77 -47.5 0 1 332.54 473.07
  Q 338.82 476.51 347.47 482.55
  Q 348.65 483.37 348.96 482.00
  Z
  M 310.65 579.65
  A 35.63 35.63 0.0 0 0 275.02 544.02
  A 35.63 35.63 0.0 0 0 239.39 579.65
  A 35.63 35.63 0.0 0 0 275.02 615.28
  A 35.63 35.63 0.0 0 0 310.65 579.65
  Z"
/>
<path fill="#91a1ba" d="
  M 732.04 482.75
  Q 732.81 487.36 732.21 492.00
  L 732.04 482.75
  Z"
/>
<path fill="#91a1ba" d="
  M 729.42 544.68
  Q 732.86 521.62 732.54 498.75
  L 756.70 498.77
  A 0.51 0.48 0.0 0 1 757.21 499.25
  L 757.17 544.80
  A 0.52 0.52 0.0 0 1 756.66 545.31
  Q 743.05 545.63 729.42 544.68
  Z"
/>
<path fill="#402523" d="
  M 415.70 527.07
  C 409.92 523.75 421.97 517.79 424.18 516.93
  Q 450.74 506.57 477.75 509.74
  C 481.24 510.15 486.54 512.01 489.20 513.54
  C 495.40 517.12 497.13 529.16 486.75 526.89
  Q 472.92 523.86 458.75 523.92
  C 443.04 523.99 430.84 524.31 417.49 527.34
  A 2.52 2.50 -36.2 0 1 415.70 527.07
  Z"
/>
<path fill="#402523" d="
  M 595.01 527.00
  C 589.36 528.35 586.42 523.08 588.65 518.40
  C 596.15 502.60 639.59 510.31 652.32 514.57
  Q 658.98 516.79 663.93 519.83
  C 665.69 520.91 670.04 525.20 666.51 527.08
  Q 665.68 527.51 664.30 527.21
  C 651.47 524.42 638.33 524.06 625.25 523.89
  Q 608.92 523.68 595.01 527.00
  Z"
/>
<path fill="#91a1ba" d="
  M 1625.62 623.58
  A 0.63 0.61 0.5 0 1 1625.00 622.97
  Q 1625.00 587.22 1625.06 551.00
  C 1625.07 546.99 1625.04 542.28 1626.41 538.80
  C 1631.03 526.99 1648.43 527.23 1652.77 539.35
  Q 1653.73 542.04 1653.73 547.90
  Q 1653.76 585.54 1653.76 622.10
  A 1.67 1.63 0.3 0 1 1652.07 623.73
  L 1625.62 623.58
  Z"
/>
<circle fill="#f3f2f1" cx="275.02" cy="579.65" r="35.63"/>
<path fill="#402523" d="
  M 476.32 580.06
  Q 475.87 579.70 474.99 579.74
  A 1.23 1.03 -20.2 0 1 474.13 579.43
  Q 470.79 576.09 467.27 573.02
  C 460.50 567.13 448.77 568.11 441.01 571.86
  Q 437.62 574.75 435.54 578.51
  C 434.28 580.80 431.27 584.65 429.26 580.64
  C 427.80 577.69 430.73 572.12 432.40 569.68
  C 442.87 554.41 466.28 549.56 477.73 566.52
  C 480.01 569.89 483.03 579.11 476.32 580.06
  Z"
/>
<path fill="#402523" d="
  M 641.29 572.00
  C 634.91 568.82 621.75 566.75 615.95 572.21
  Q 611.36 576.53 606.40 580.39
  C 601.10 578.91 601.04 574.22 602.90 569.86
  C 607.58 558.90 618.01 554.54 629.57 556.46
  Q 646.38 559.26 653.31 576.68
  Q 654.33 579.24 652.68 581.43
  C 650.86 583.84 648.19 581.14 647.12 579.14
  Q 644.92 575.03 641.29 572.00
  Z"
/>
<path fill="#da9588" d="
  M 1515.90 562.43
  Q 1508.94 586.09 1490.59 602.58
  Q 1489.95 602.62 1489.28 602.19
  Q 1465.09 586.41 1436.26 590.99
  Q 1431.06 591.81 1426.79 596.75
  Q 1421.26 582.35 1420.81 566.66
  C 1451.11 585.93 1486.78 581.36 1515.90 562.43
  Z"
/>
<path fill="#da9588" d="
  M 359.35 574.74
  L 362.79 580.75
  C 364.15 610.44 367.87 647.93 376.46 678.00
  Q 368.00 682.19 358.50 681.79
  Q 347.82 680.39 338.50 675.04
  Q 326.35 666.83 320.20 654.07
  C 309.03 630.94 301.87 591.50 324.85 572.12
  C 329.96 567.81 336.04 566.42 342.78 567.56
  Q 351.81 569.08 359.35 574.74
  Z"
/>
<path fill="#da9588" d="
  M 704.79 678.00
  C 713.35 646.86 716.65 612.97 718.25 580.79
  L 721.96 573.50
  Q 722.19 574.62 723.22 573.97
  Q 729.18 570.23 733.02 568.82
  C 748.00 563.35 759.68 571.57 765.88 584.74
  C 775.92 606.08 770.96 631.34 761.80 652.06
  C 752.66 672.73 727.32 689.73 704.79 678.00
  Z"
/>
<path fill="#2b7e84" d="
  M 476.32 580.06
  Q 476.12 584.86 476.15 589.75
  C 476.21 602.15 468.97 616.20 455.00 614.49
  C 441.39 612.82 438.12 591.63 438.96 580.74
  Q 439.15 578.22 441.01 571.86
  C 448.77 568.11 460.50 567.13 467.27 573.02
  Q 470.79 576.09 474.13 579.43
  A 1.23 1.03 -20.2 0 0 474.99 579.74
  Q 475.87 579.70 476.32 580.06
  Z"
/>
<path fill="#2b7e84" d="
  M 641.29 572.00
  Q 647.15 591.32 637.59 607.61
  Q 634.26 613.31 627.99 614.37
  C 608.77 617.65 604.41 593.68 606.40 580.39
  Q 611.36 576.53 615.95 572.21
  C 621.75 566.75 634.91 568.82 641.29 572.00
  Z"
/>
<path fill="#ffceb5" d="
  M 1490.59 602.58
  Q 1498.78 609.39 1504.07 616.70
  C 1521.90 641.33 1524.35 676.36 1515.96 704.75
  C 1487.18 723.94 1450.55 728.76 1420.77 708.84
  C 1419.81 682.68 1420.26 656.43 1419.96 630.25
  C 1419.85 620.02 1420.29 606.28 1426.79 596.75
  Q 1431.06 591.81 1436.26 590.99
  Q 1465.09 586.41 1489.28 602.19
  Q 1489.95 602.62 1490.59 602.58
  Z"
/>
<path fill="#ffceb5" d="
  M 894.54 622.50
  Q 906.92 622.26 913.99 623.55
  C 931.63 626.79 930.58 654.66 930.46 667.61
  Q 930.21 696.80 930.19 726.00
  Q 930.19 734.65 929.37 742.82
  C 913.77 750.19 900.27 755.56 883.01 754.13
  Q 856.96 751.97 834.79 738.02
  Q 824.80 705.90 834.72 673.20
  C 843.79 643.33 864.30 627.36 894.54 622.50
  Z"
/>
<rect fill="#91a1ba" x="1625.03" y="635.01" width="28.72" height="128.74" rx="0.27"/>
<path fill="#da9588" d="
  M 547.01 675.42
  C 540.74 676.27 518.49 675.77 517.57 666.55
  A 1.52 1.52 -4.9 0 1 518.98 664.88
  Q 535.39 663.70 551.81 664.27
  C 556.13 664.42 560.02 664.46 564.28 665.49
  A 0.68 0.67 -77.6 0 1 564.78 666.28
  C 563.30 673.62 552.96 674.61 547.01 675.42
  Z"
/>
<path fill="#91a1ba" d="
  M 376.46 678.00
  C 389.56 722.34 421.83 764.36 462.80 786.22
  Q 478.39 794.54 496.75 801.54
  L 496.78 815.28
  L 496.70 826.19
  A 0.61 0.55 -4.4 0 1 496.19 826.73
  L 487.39 828.05
  Q 458.12 833.55 433.79 850.75
  Q 432.65 849.74 431.73 849.92
  Q 410.27 854.08 388.55 858.06
  A 2.53 2.51 -24.3 0 1 386.11 857.15
  Q 368.72 835.34 359.14 809.37
  Q 358.46 807.52 359.76 806.08
  L 389.18 773.60
  A 1.16 1.11 -27.9 0 0 389.47 772.73
  C 387.20 753.86 385.88 736.91 389.59 718.05
  A 1.03 0.98 -62.0 0 0 389.35 717.19
  L 357.89 684.31
  A 0.97 0.83 32.5 0 1 357.63 683.46
  Q 357.85 682.59 358.50 681.79
  Q 368.00 682.19 376.46 678.00
  Z"
/>
<path fill="#91a1ba" d="
  M 703.46 682.50
  Q 703.77 684.30 704.94 685.65
  A 1.19 1.05 -18.4 0 0 705.79 686.01
  L 730.70 686.04
  A 0.50 0.50 0.0 0 1 731.20 686.54
  L 731.14 731.87
  A 0.50 0.49 -90.0 0 1 730.65 732.37
  L 678.46 732.25
  Q 694.39 709.11 703.46 682.50
  Z"
/>
<path fill="#91a1ba" d="
  M 821.50 779.46
  Q 798.81 791.24 775.14 800.63
  C 775.40 784.72 775.11 769.28 775.23 752.99
  Q 775.30 743.10 775.09 733.11
  A 0.52 0.51 89.4 0 0 774.58 732.60
  L 744.98 732.53
  A 0.72 0.71 -0.0 0 1 744.26 731.82
  L 744.28 686.55
  A 0.52 0.50 -0.6 0 1 744.79 686.05
  Q 768.96 685.86 793.08 686.11
  C 805.34 686.24 815.82 689.75 819.92 702.08
  Q 821.51 706.84 821.50 719.59
  Q 821.49 749.53 821.50 779.46
  Z"
/>
<path fill="#91a1ba" d="
  M 230.37 703.96
  C 237.39 687.42 262.70 692.41 262.98 711.33
  Q 263.33 735.73 263.21 760.19
  A 0.51 0.51 0.0 0 1 262.70 760.70
  L 229.12 760.63
  A 0.51 0.51 89.4 0 1 228.61 760.13
  Q 228.30 738.17 228.64 716.33
  Q 228.77 707.72 230.37 703.96
  Z"
/>
<path fill="#da9588" d="
  M 1515.96 704.75
  C 1510.54 723.43 1498.36 742.24 1480.61 751.44
  Q 1479.81 751.11 1479.08 750.46
  Q 1459.07 732.77 1432.31 736.80
  Q 1429.71 737.19 1426.85 739.64
  Q 1421.26 724.81 1420.77 708.84
  C 1450.55 728.76 1487.18 723.94 1515.96 704.75
  Z"
/>
<path fill="#ffffff" d="
  M 514.21 742.90
  C 500.96 738.75 483.91 724.21 482.34 709.50
  A 0.66 0.65 86.8 0 1 482.98 708.78
  Q 490.47 708.60 497.94 708.99
  C 534.06 710.90 565.17 710.57 589.43 708.90
  Q 595.04 708.52 599.38 708.99
  A 0.52 0.52 6.2 0 1 599.84 709.56
  C 599.05 718.53 591.06 728.06 584.52 733.78
  C 567.98 748.25 534.92 749.38 514.21 742.90
  Z"
/>
<path fill="#91a1ba" d="
  M 285.89 789.80
  A 0.45 0.45 -89.4 0 1 285.44 789.34
  Q 285.82 763.69 285.77 737.76
  Q 285.75 729.68 286.96 726.40
  C 292.66 711.03 314.63 711.98 319.33 727.66
  Q 320.19 730.51 320.21 737.57
  Q 320.30 763.53 320.23 789.52
  A 0.42 0.41 90.0 0 1 319.82 789.94
  L 285.89 789.80
  Z"
/>
<path fill="#ffceb5" d="
  M 1480.61 751.44
  C 1497.20 771.75 1500.73 799.55 1493.25 824.29
  C 1469.77 838.59 1444.86 842.04 1420.54 827.50
  Q 1420.00 796.50 1419.95 765.50
  C 1419.94 756.85 1420.26 745.95 1426.85 739.64
  Q 1429.71 737.19 1432.31 736.80
  Q 1459.07 732.77 1479.08 750.46
  Q 1479.81 751.11 1480.61 751.44
  Z"
/>
<path fill="#da9588" d="
  M 929.37 742.82
  C 929.29 765.96 920.89 788.03 894.54 790.00
  Q 864.28 788.84 847.57 764.13
  Q 838.78 752.14 834.79 738.02
  Q 856.96 751.97 883.01 754.13
  C 900.27 755.56 913.77 750.19 929.37 742.82
  Z"
/>
<path fill="#91a1ba" d="
  M 673.88 738.37
  Q 674.91 753.42 672.17 768.01
  Q 671.43 771.92 671.14 776.13
  A 1.20 1.16 27.5 0 0 671.43 777.00
  L 700.94 811.38
  A 0.89 0.87 -55.7 0 1 701.09 812.24
  Q 699.60 816.53 697.41 820.38
  C 695.92 823.01 695.27 825.78 693.96 828.50
  Q 689.37 818.99 679.84 817.47
  Q 676.32 816.92 670.30 818.27
  C 642.48 824.54 618.76 829.87 591.69 831.03
  L 584.90 829.49
  A 0.71 0.62 -84.5 0 1 584.42 828.81
  L 584.21 815.00
  L 584.00 801.71
  C 609.18 792.07 633.40 779.99 652.79 761.04
  Q 663.19 750.87 673.88 738.37
  Z"
/>
<path fill="#ffceb5" d="
  M 847.57 764.13
  Q 864.28 788.84 894.54 790.00
  L 894.46 873.00
  C 870.15 879.59 849.67 885.57 821.46 891.62
  Q 798.51 896.17 775.17 899.45
  C 745.15 903.11 726.14 904.43 695.79 905.00
  Q 687.17 904.28 678.48 904.38
  Q 672.17 904.45 671.42 897.83
  Q 668.66 873.45 670.10 853.43
  C 670.82 843.50 671.05 833.68 682.72 832.08
  Q 688.59 831.28 694.32 829.67
  C 721.63 821.10 748.67 811.54 775.14 800.63
  Q 798.81 791.24 821.50 779.46
  Q 835.02 772.98 847.57 764.13
  Z"
/>
<path fill="#91a1ba" d="
  M 191.29 865.50
  L 191.29 830.75
  L 227.97 830.71
  A 0.51 0.50 -0.0 0 0 228.48 830.21
  L 228.52 774.55
  A 0.51 0.50 -0.0 0 1 229.03 774.05
  L 262.73 774.04
  A 0.50 0.50 0.0 0 1 263.23 774.54
  Q 263.23 806.11 263.28 837.64
  Q 263.31 849.42 261.72 853.70
  Q 257.48 865.10 242.53 865.42
  Q 234.54 865.60 191.29 865.50
  Z"
/>
<path fill="#72a276" d="
  M 191.29 830.75
  L 191.29 865.50
  L 191.29 911.00
  L 191.29 945.50
  Q 191.24 960.51 191.11 975.49
  C 191.00 986.49 184.20 988.23 174.47 988.24
  Q 130.48 988.27 86.51 988.24
  C 76.78 988.24 74.81 980.24 74.79 972.21
  Q 74.55 840.24 74.90 787.24
  Q 74.98 774.59 88.06 774.55
  Q 132.78 774.40 177.49 774.56
  C 190.07 774.61 191.26 781.87 191.25 792.85
  Q 191.22 811.82 191.29 830.75
  Z
  M 107.70 806.34
  A 9.69 9.69 0.0 0 0 98.01 796.65
  A 9.69 9.69 0.0 0 0 88.32 806.34
  A 9.69 9.69 0.0 0 0 98.01 816.03
  A 9.69 9.69 0.0 0 0 107.70 806.34
  Z
  M 133.54 806.35
  A 9.69 9.69 0.0 0 0 123.85 796.66
  A 9.69 9.69 0.0 0 0 114.16 806.35
  A 9.69 9.69 0.0 0 0 123.85 816.04
  A 9.69 9.69 0.0 0 0 133.54 806.35
  Z"
/>
<path fill="#91a1ba" d="
  M 1579.44 916.06
  L 1546.17 915.87
  A 0.52 0.51 -0.0 0 1 1545.65 915.36
  L 1545.55 887.66
  A 0.44 0.42 -0.0 0 1 1545.99 887.24
  L 1579.48 887.22
  A 0.51 0.50 -90.0 0 0 1579.98 886.71
  Q 1579.97 869.84 1580.06 853.04
  C 1580.11 844.58 1584.30 840.37 1592.28 840.02
  C 1603.03 839.55 1613.77 839.84 1624.52 839.62
  A 0.51 0.51 -0.6 0 0 1625.02 839.11
  L 1625.19 775.70
  A 0.52 0.50 89.4 0 1 1625.68 775.18
  L 1653.19 775.07
  A 0.57 0.56 89.5 0 1 1653.76 775.64
  L 1653.77 839.23
  A 0.49 0.49 -0.6 0 0 1654.27 839.72
  Q 1670.48 839.58 1681.98 840.01
  C 1692.49 840.39 1693.98 847.13 1693.99 856.49
  Q 1694.02 898.88 1693.99 941.25
  C 1693.98 952.13 1686.54 953.82 1677.07 953.73
  Q 1665.66 953.62 1654.29 953.97
  A 0.53 0.52 -90.0 0 0 1653.78 954.49
  Q 1653.73 966.59 1653.75 978.57
  C 1653.78 993.80 1650.37 1000.22 1634.63 1000.24
  Q 1612.72 1000.28 1590.80 1000.22
  A 0.51 0.50 0.0 0 1 1590.29 999.72
  L 1590.29 972.02
  A 0.50 0.49 -0.0 0 1 1590.79 971.53
  L 1624.44 971.48
  A 0.52 0.50 0.0 0 0 1624.96 970.98
  L 1624.96 954.53
  A 0.51 0.50 0.0 0 0 1624.45 954.03
  Q 1610.33 953.97 1596.25 953.94
  C 1587.33 953.92 1580.07 951.90 1580.02 941.30
  Q 1579.96 928.94 1579.94 916.56
  A 0.50 0.50 0.0 0 0 1579.44 916.06
  Z
  M 1650.02 895.74
  A 14.14 14.14 0.0 0 0 1635.88 881.60
  A 14.14 14.14 0.0 0 0 1621.74 895.74
  A 14.14 14.14 0.0 0 0 1635.88 909.88
  A 14.14 14.14 0.0 0 0 1650.02 895.74
  Z"
/>
<circle fill="#f3f2f1" cx="98.01" cy="806.34" r="9.69"/>
<circle fill="#f3f2f1" cx="123.85" cy="806.35" r="9.69"/>
<path fill="#da9588" d="
  M 496.75 801.54
  C 514.89 808.72 534.82 810.12 554.36 808.51
  Q 569.62 807.25 584.00 801.71
  L 584.21 815.00
  Q 569.58 825.56 551.97 829.23
  C 548.85 829.89 542.82 831.78 540.27 831.45
  Q 516.59 828.42 496.78 815.28
  L 496.75 801.54
  Z"
/>
<rect fill="#91a1ba" x="-17.28" y="-35.37" transform="translate(302.97,838.37) rotate(0.1)" width="34.56" height="70.74" rx="0.47"/>
<path fill="#ffceb5" d="
  M 584.21 815.00
  L 584.42 828.81
  A 0.71 0.62 -84.5 0 0 584.90 829.49
  L 591.69 831.03
  C 578.76 850.61 561.51 868.49 541.01 879.25
  A 0.97 0.96 -45.3 0 1 540.13 879.26
  C 518.56 868.10 500.42 848.63 487.39 828.05
  L 496.19 826.73
  A 0.61 0.55 -4.4 0 0 496.70 826.19
  L 496.78 815.28
  Q 516.59 828.42 540.27 831.45
  C 542.82 831.78 548.85 829.89 551.97 829.23
  Q 569.58 825.56 584.21 815.00
  Z"
/>
<path fill="#323244" d="
  M 693.96 828.50
  L 694.32 829.67
  Q 688.59 831.28 682.72 832.08
  C 671.05 833.68 670.82 843.50 670.10 853.43
  Q 668.66 873.45 671.42 897.83
  Q 672.17 904.45 678.48 904.38
  Q 687.17 904.28 695.79 905.00
  Q 697.82 922.81 688.77 938.08
  A 1.23 1.20 7.3 0 1 688.04 938.63
  Q 667.03 944.06 647.02 946.95
  Q 644.62 947.30 644.70 949.75
  L 652.50 1176.00
  L 427.44 1176.00
  L 429.45 1104.64
  Q 429.43 1104.04 430.08 1103.57
  C 435.28 1099.78 445.63 1089.28 444.91 1082.30
  Q 442.72 1061.16 431.10 1043.32
  L 433.18 976.82
  A 1.06 0.96 -72.2 0 0 432.80 975.99
  L 418.09 964.88
  L 419.62 962.22
  A 1.16 0.71 54.9 0 0 419.56 961.30
  C 411.39 943.98 392.83 929.20 372.79 929.97
  A 0.97 0.89 -74.0 0 0 372.04 930.43
  Q 371.24 931.73 370.04 932.50
  L 367.57 930.83
  A 0.60 0.55 -59.1 0 1 367.41 930.07
  C 383.91 899.61 405.36 871.19 433.79 850.75
  Q 458.12 833.55 487.39 828.05
  C 500.42 848.63 518.56 868.10 540.13 879.26
  A 0.97 0.96 -45.3 0 0 541.01 879.25
  C 561.51 868.49 578.76 850.61 591.69 831.03
  C 618.76 829.87 642.48 824.54 670.30 818.27
  Q 676.32 816.92 679.84 817.47
  Q 689.37 818.99 693.96 828.50
  Z"
/>
<path fill="#da9588" d="
  M 1493.25 824.29
  C 1487.72 843.86 1473.37 860.99 1452.25 864.04
  C 1427.84 865.02 1421.82 848.20 1420.54 827.50
  C 1444.86 842.04 1469.77 838.59 1493.25 824.29
  Z"
/>
<path fill="#50808e" d="
  M 1432.56 866.52
  Q 1433.20 865.67 1433.21 866.73
  Q 1433.26 873.51 1433.51 880.48
  C 1433.87 890.82 1432.32 900.98 1431.54 911.25
  A 1.73 1.72 65.9 0 1 1431.20 912.15
  L 1308.42 1075.96
  A 1.06 1.03 -71.4 0 1 1307.61 1076.38
  L 1275.70 1076.78
  Q 1275.00 1076.79 1275.42 1076.23
  L 1432.56 866.52
  Z"
/>
<circle fill="#f3f2f1" cx="1635.88" cy="895.74" r="14.14"/>
<path fill="#91a1ba" d="
  M 285.44 910.44
  L 285.53 887.30
  A 0.53 0.51 -89.4 0 1 286.04 886.78
  L 319.71 886.79
  A 0.50 0.50 0.0 0 1 320.21 887.29
  Q 320.29 902.71 320.24 918.09
  Q 320.21 929.16 318.61 933.55
  Q 314.10 945.89 298.19 945.71
  Q 275.09 945.45 250.81 945.51
  A 0.80 0.80 -0.2 0 1 250.01 944.71
  L 250.00 911.74
  A 0.77 0.76 0.0 0 1 250.77 910.98
  L 284.94 910.94
  A 0.50 0.50 0.0 0 0 285.44 910.44
  Z"
/>
<path fill="#91a1ba" d="
  M 1452.29 916.00
  L 1452.29 887.25
  L 1533.69 887.28
  A 0.51 0.50 0.0 0 1 1534.20 887.78
  L 1534.11 915.44
  A 0.51 0.50 -0.0 0 1 1533.60 915.94
  L 1452.29 916.00
  Z"
/>
<path fill="#91a1ba" d="
  M 821.46 891.62
  L 821.47 930.72
  A 0.50 0.49 -90.0 0 1 820.98 931.22
  L 775.50 931.24
  A 0.35 0.34 90.0 0 1 775.16 930.89
  L 775.17 899.45
  Q 798.51 896.17 821.46 891.62
  Z"
/>
<path fill="#91a1ba" d="
  M 191.29 945.50
  L 191.29 911.00
  L 236.23 911.01
  A 0.76 0.76 -0.3 0 1 236.99 911.77
  L 237.00 944.85
  A 0.62 0.61 -1.0 0 1 236.40 945.46
  Q 213.39 946.05 191.29 945.50
  Z"
/>
<path fill="#ffceb5" d="
  M 418.09 964.88
  Q 405.83 982.38 394.91 1001.87
  A 1.20 1.20 -53.6 0 0 395.13 1003.32
  Q 406.28 1014.02 417.00 1025.64
  C 421.73 1030.76 425.97 1037.69 431.10 1043.32
  Q 442.72 1061.16 444.91 1082.30
  C 445.63 1089.28 435.28 1099.78 430.08 1103.57
  Q 429.43 1104.04 429.45 1104.64
  C 422.76 1109.15 407.80 1118.25 400.22 1112.05
  C 395.82 1108.45 387.58 1097.58 395.11 1092.51
  A 0.51 0.49 -33.7 0 0 395.26 1091.83
  C 391.63 1086.19 388.25 1078.82 389.34 1072.29
  Q 389.74 1069.86 387.81 1068.33
  Q 371.22 1055.21 354.55 1042.54
  C 345.46 1035.64 339.70 1029.86 333.05 1021.45
  C 322.29 1007.87 331.94 990.55 339.24 978.26
  Q 343.85 970.48 369.68 933.99
  C 370.07 933.44 370.04 933.14 370.04 932.50
  Q 371.24 931.73 372.04 930.43
  A 0.97 0.89 -74.0 0 1 372.79 929.97
  C 392.83 929.20 411.39 943.98 419.56 961.30
  A 1.16 0.71 54.9 0 1 419.62 962.22
  L 418.09 964.88
  Z
  M 396.24 1094.22
  C 396.33 1098.82 400.79 1104.35 405.91 1104.70
  Q 406.83 1104.77 406.21 1104.05
  L 397.41 1093.82
  Q 396.20 1092.42 396.24 1094.22
  Z"
/>
<path fill="#91a1ba" d="
  M 801.77 1026.31
  C 787.79 1026.07 775.55 1016.77 775.47 1001.98
  Q 775.31 973.56 775.18 945.05
  A 0.54 0.54 -2.8 0 1 775.68 944.50
  C 782.97 943.95 791.68 944.49 797.55 944.41
  Q 809.27 944.25 821.02 944.23
  A 0.47 0.47 0.0 0 1 821.49 944.70
  L 821.50 979.51
  A 0.50 0.50 0.0 0 0 822.00 980.01
  L 854.21 980.04
  A 0.49 0.49 -89.4 0 1 854.70 980.54
  L 854.64 1025.87
  A 0.51 0.50 -0.6 0 1 854.14 1026.37
  Q 827.87 1026.77 801.77 1026.31
  Z"
/>
<path fill="#f3f2f1" d="
  M 418.09 964.88
  L 432.80 975.99
  A 1.06 0.96 -72.2 0 1 433.18 976.82
  L 431.10 1043.32
  C 425.97 1037.69 421.73 1030.76 417.00 1025.64
  Q 406.28 1014.02 395.13 1003.32
  A 1.20 1.20 -53.6 0 1 394.91 1001.87
  Q 405.83 982.38 418.09 964.88
  Z"
/>
<path fill="#91a1ba" d="
  M 1452.29 971.50
  L 1484.38 971.59
  A 0.51 0.51 0.0 0 1 1484.89 972.10
  L 1484.88 999.79
  A 0.50 0.49 -0.0 0 1 1484.38 1000.28
  L 1452.29 1000.25
  L 1452.29 971.50
  Z"
/>
<rect fill="#91a1ba" x="1496.25" y="971.51" width="82.50" height="28.74" rx="0.26"/>
<path fill="#91a1ba" d="
  M 894.46 980.00
  L 894.46 1026.50
  L 868.33 1026.39
  A 0.50 0.50 0.0 0 1 867.83 1025.89
  L 867.77 980.50
  A 0.50 0.49 -0.0 0 1 868.27 980.01
  L 894.46 980.00
  Z"
/>
<path fill="#c06c5b" d="
  M 405.91 1104.70
  C 400.79 1104.35 396.33 1098.82 396.24 1094.22
  Q 396.20 1092.42 397.41 1093.82
  L 406.21 1104.05
  Q 406.83 1104.77 405.91 1104.70
  Z"
/>
</svg>
