<?xml version="1.0" encoding="UTF-8" standalone="no"?>
<!DOCTYPE svg PUBLIC "-//W3C//DTD SVG 1.1//EN" "http://www.w3.org/Graphics/SVG/1.1/DTD/svg11.dtd">
<svg xmlns="http://www.w3.org/2000/svg" version="1.1" viewBox="0 0 996 1380">
<g stroke-width="0.30" fill="none" stroke-linecap="butt">
<path stroke="#b27989" vector-effect="non-scaling-stroke" d="
  M 477.00 204.54
  Q 474.59 210.65 475.19 217.26
  Q 476.35 229.92 482.58 240.98
  Q 485.43 246.04 488.31 247.69
  Q 495.33 251.71 501.42 248.47
  Q 505.12 246.51 507.78 242.18
  Q 510.08 238.43 511.19 233.69
  Q 515.64 214.61 506.66 197.82"
/>
<path stroke="#626a7f" vector-effect="non-scaling-stroke" d="
  M 506.66 197.82
  Q 512.05 194.28 516.31 190.56
  Q 526.21 181.95 529.43 168.94
  Q 531.37 161.14 529.56 152.94
  Q 528.59 148.50 525.66 145.64
  Q 522.96 143.01 519.56 143.01
  Q 515.88 143.02 512.92 145.92
  Q 508.03 150.70 505.10 156.90
  Q 501.33 164.87 499.69 167.19
  Q 491.07 179.33 476.55 183.20
  Q 467.13 185.71 469.50 195.50
  Q 471.04 201.88 477.00 204.54"
/>
<path stroke="#83424e" vector-effect="non-scaling-stroke" d="
  M 506.66 197.82
  Q 498.52 202.49 489.94 204.68
  Q 483.43 206.34 477.00 204.54"
/>
<path stroke="#b27989" vector-effect="non-scaling-stroke" d="
  M 418.51 209.59
  Q 413.36 227.52 421.28 244.13
  Q 424.19 250.24 428.44 254.06
  Q 433.87 258.96 440.52 257.61
  Q 444.32 256.84 447.15 253.98
  Q 450.01 251.09 451.25 247.25
  Q 453.73 239.57 453.90 231.12
  Q 454.05 223.66 453.19 219.41
  Q 451.99 213.50 448.21 208.50"
/>
<path stroke="#626a7f" vector-effect="non-scaling-stroke" d="
  M 448.21 208.50
  Q 454.30 201.34 450.81 193.46
  Q 449.82 191.24 447.64 190.02
  Q 445.04 188.59 443.00 188.50
  Q 428.07 187.86 417.92 178.17
  Q 417.06 177.35 410.69 169.31
  Q 406.78 164.39 402.04 160.21
  Q 397.88 156.53 392.93 157.28
  Q 389.98 157.73 388.10 160.29
  Q 384.19 165.60 385.25 173.25
  Q 387.75 191.21 401.70 201.05
  Q 409.80 206.76 418.51 209.59"
/>
<path stroke="#83424e" vector-effect="non-scaling-stroke" d="
  M 448.21 208.50
  Q 441.57 211.78 436.50 212.25
  Q 428.71 212.97 418.51 209.59"
/>
<path stroke="#c8d0dd" vector-effect="non-scaling-stroke" d="
  M 366.03 325.27
  Q 364.89 325.22 365.43 326.35
  Q 365.81 327.14 365.87 327.31
  Q 369.84 338.25 375.62 348.35
  Q 388.90 371.51 412.35 384.38"
/>
<path stroke="#626a7f" vector-effect="non-scaling-stroke" d="
  M 412.35 384.38
  Q 425.80 392.52 441.25 395.96"
/>
<path stroke="#c8d0dd" vector-effect="non-scaling-stroke" d="
  M 441.25 395.96
  Q 462.42 401.18 484.03 398.14"
/>
<path stroke="#626a7f" vector-effect="non-scaling-stroke" d="
  M 484.03 398.14
  Q 496.82 397.55 508.94 393.59"
/>
<path stroke="#c8d0dd" vector-effect="non-scaling-stroke" d="
  M 508.94 393.59
  Q 528.34 388.49 545.29 378.00"
/>
<path stroke="#626a7f" vector-effect="non-scaling-stroke" d="
  M 545.29 378.00
  Q 556.94 370.81 566.75 361.25
  Q 567.10 360.91 567.04 360.00"
/>
<path stroke="#c8d0dd" vector-effect="non-scaling-stroke" d="
  M 567.04 360.00
  Q 567.86 360.20 568.75 359.25
  Q 599.71 326.44 604.14 281.79"
/>
<path stroke="#626a7f" vector-effect="non-scaling-stroke" d="
  M 604.14 281.79
  Q 605.39 272.90 604.76 264.21
  A 0.54 0.53 81.8 0 0 604.11 263.72
  Q 561.90 273.49 519.33 280.94
  Q 485.25 286.91 451.06 292.30
  Q 406.86 299.26 362.73 306.75
  A 1.48 1.48 85.2 0 0 361.50 308.21
  Q 361.50 317.83 366.03 325.27"
/>
<path stroke="#9999a2" vector-effect="non-scaling-stroke" d="
  M 604.14 281.79
  Q 580.04 287.85 555.38 292.46
  A 0.63 0.62 79.9 0 0 554.88 293.19
  Q 560.32 323.05 566.00 353.25
  Q 566.93 358.20 567.04 360.00"
/>
<path stroke="#9999a2" vector-effect="non-scaling-stroke" d="
  M 545.29 378.00
  L 530.19 298.06
  A 0.64 0.63 79.4 0 0 529.46 297.55
  L 492.30 304.12
  A 0.60 0.59 -11.2 0 0 491.82 304.83
  Q 501.40 348.73 508.94 393.59"
/>
<path stroke="#9999a2" vector-effect="non-scaling-stroke" d="
  M 484.03 398.14
  Q 476.75 352.85 466.80 309.06
  A 0.54 0.54 79.2 0 0 466.19 308.64
  L 425.02 315.41
  A 0.65 0.64 -10.1 0 0 424.49 316.16
  Q 431.44 356.41 441.25 395.96"
/>
<path stroke="#9999a2" vector-effect="non-scaling-stroke" d="
  M 412.35 384.38
  Q 405.30 352.05 399.53 320.31
  A 0.54 0.51 79.8 0 0 398.94 319.88
  L 366.03 325.27"
/>
<path stroke="#7c8fac" vector-effect="non-scaling-stroke" d="
  M 375.77 456.81
  Q 389.32 468.41 403.81 475.44
  Q 445.89 495.84 494.24 491.63
  Q 521.56 489.25 547.44 478.69
  Q 603.62 455.75 638.66 406.67
  Q 639.74 405.16 641.08 403.89
  Q 641.41 403.58 641.00 403.82
  Q 606.52 423.83 566.56 436.31
  Q 520.80 450.61 475.00 454.27
  Q 444.31 456.72 413.92 451.91
  Q 382.68 446.97 354.58 433.50
  Q 352.62 432.56 353.93 434.30
  Q 358.67 440.61 364.21 446.18
  Q 369.06 451.06 375.77 456.81"
/>
</g>
<path fill="#91a1ba" d="
  M 877.56 129.50
  Q 881.02 123.26 882.28 116.37
  Q 883.32 110.76 883.39 102.60
  Q 883.50 89.25 878.44 78.31
  Q 874.81 70.47 873.80 67.27
  Q 869.98 55.15 876.51 46.45
  Q 880.81 40.71 887.50 38.65
  Q 894.62 36.47 901.82 39.58
  Q 905.39 41.11 908.09 43.74
  Q 911.02 46.58 912.50 50.00
  Q 914.69 55.04 916.91 60.08
  Q 926.54 81.97 925.95 105.53
  Q 925.67 116.62 923.97 125.41
  Q 921.90 136.08 916.93 145.95
  Q 915.80 148.20 917.80 146.66
  Q 935.54 132.99 936.00 109.75
  Q 936.10 104.54 936.39 100.45
  Q 936.78 94.87 938.26 91.40
  Q 942.19 82.25 952.25 79.25
  Q 957.23 77.77 962.94 79.46
  Q 976.93 83.60 978.75 98.25
  Q 979.03 100.54 978.74 106.75
  Q 978.43 113.28 978.30 115.24
  Q 975.90 151.19 950.36 174.77
  Q 943.49 181.12 934.12 186.33
  Q 925.27 191.26 915.68 195.04
  A 0.57 0.56 -18.8 0 0 915.34 195.72
  Q 922.76 221.72 921.70 248.28
  Q 921.38 256.07 920.11 268.22
  Q 913.18 334.38 879.41 391.42
  Q 874.77 399.26 868.66 408.27
  Q 833.47 460.22 785.96 501.48
  Q 775.72 510.38 765.44 519.24
  A 0.77 0.76 61.9 0 0 765.20 520.04
  Q 766.10 523.30 767.02 526.55
  Q 767.95 529.88 768.53 533.14
  Q 778.64 590.53 782.50 638.50
  Q 788.71 715.59 774.15 791.48
  Q 763.53 846.86 732.32 894.65
  A 1.65 1.65 -41.9 0 0 732.23 896.28
  Q 741.75 915.16 750.33 933.95
  Q 754.42 942.90 758.05 952.39
  Q 772.81 990.89 785.07 1030.27
  Q 793.60 1057.65 802.39 1084.95
  Q 828.97 1167.47 850.36 1251.93
  A 4.00 3.95 -76.5 0 0 851.57 1253.93
  Q 862.02 1263.27 873.06 1272.19
  Q 876.01 1274.56 879.38 1278.38
  Q 884.66 1284.33 885.58 1291.68
  Q 886.47 1298.80 882.84 1305.31
  Q 876.48 1316.73 861.30 1316.09
  A 0.43 0.42 88.8 0 0 860.86 1316.56
  Q 862.26 1332.62 848.50 1339.00
  Q 842.52 1341.77 835.55 1340.33
  Q 833.15 1339.83 827.84 1337.40
  Q 824.08 1335.67 820.16 1334.22
  A 0.66 0.66 11.8 0 0 819.27 1334.80
  Q 818.86 1342.57 814.59 1347.92
  Q 810.35 1353.23 803.56 1355.08
  Q 798.65 1356.42 793.52 1355.38
  Q 790.44 1354.75 784.36 1351.80
  Q 764.53 1342.19 752.31 1334.19
  Q 739.44 1325.75 732.31 1310.19
  Q 726.14 1296.70 723.50 1279.01
  Q 721.80 1267.59 721.79 1267.52
  Q 710.27 1199.49 691.75 1120.75
  Q 680.15 1071.41 664.45 1028.67
  Q 660.83 1018.81 656.96 1010.14
  Q 649.24 992.84 640.03 976.03
  A 1.01 1.01 -26.0 0 0 638.74 975.59
  Q 607.23 989.57 573.18 994.32
  Q 563.87 995.62 553.27 996.19
  Q 526.62 997.63 500.02 994.81
  Q 490.04 993.75 480.53 991.56
  A 0.96 0.94 -72.2 0 0 479.44 992.13
  Q 446.77 1072.25 428.18 1155.74
  Q 421.58 1185.41 415.44 1215.19
  Q 413.37 1225.21 412.89 1229.24
  Q 408.46 1266.24 407.00 1298.75
  Q 406.61 1307.37 405.89 1312.77
  Q 403.68 1329.29 391.81 1342.06
  Q 383.90 1350.58 374.38 1355.72
  Q 364.21 1361.22 355.34 1360.88
  Q 342.65 1360.39 333.74 1349.02
  A 1.18 1.17 -32.3 0 0 332.29 1348.70
  Q 326.73 1351.48 321.07 1352.35
  Q 315.07 1353.28 309.49 1351.83
  Q 298.22 1348.89 292.69 1337.44
  A 1.19 1.18 -15.0 0 0 291.52 1336.77
  Q 287.75 1337.06 283.75 1336.76
  Q 268.11 1335.61 260.02 1323.89
  Q 256.24 1318.41 255.18 1311.85
  Q 254.10 1305.13 255.81 1298.56
  Q 257.26 1293.00 260.23 1287.57
  Q 262.48 1283.46 267.04 1278.00
  Q 274.17 1269.45 281.85 1261.78
  A 3.12 3.09 71.0 0 0 282.72 1259.98
  Q 285.89 1234.39 289.32 1210.39
  Q 290.84 1199.71 292.40 1190.64
  Q 300.73 1141.96 313.18 1094.17
  Q 315.75 1084.31 318.29 1074.82
  Q 329.36 1033.28 343.56 992.68
  Q 354.30 961.98 367.44 932.38
  A 1.15 1.15 37.9 0 0 367.29 931.19
  Q 344.29 902.42 329.37 868.91
  Q 313.79 833.90 306.13 796.32
  Q 301.44 773.32 298.75 750.00
  Q 295.42 721.17 294.66 684.99
  Q 294.41 673.22 294.31 665.00
  Q 293.67 612.46 300.37 560.32
  A 0.65 0.63 -75.8 0 0 299.97 559.63
  Q 268.06 547.13 238.59 529.65
  Q 202.41 508.19 174.52 476.73
  Q 150.97 450.16 135.71 418.30
  Q 131.69 409.89 127.83 399.90
  Q 113.13 361.75 107.52 321.08
  Q 103.37 290.96 106.48 260.31
  A 0.29 0.29 6.3 0 0 106.23 260.00
  Q 98.72 258.77 91.32 256.92
  Q 73.47 252.46 58.61 241.67
  Q 33.17 223.21 21.92 193.82
  Q 18.11 183.87 19.00 173.25
  Q 19.75 164.33 25.94 158.88
  Q 31.84 153.69 39.74 153.39
  Q 49.57 153.01 56.67 161.56
  Q 61.01 166.77 61.25 172.50
  Q 61.48 177.90 63.01 181.35
  Q 71.43 200.39 89.47 210.83
  Q 90.00 211.14 89.68 210.62
  Q 73.34 184.43 65.81 154.69
  Q 64.16 148.17 64.49 138.75
  Q 64.76 131.14 69.09 125.61
  Q 72.31 121.50 77.10 119.29
  Q 82.11 116.97 87.51 117.51
  Q 94.87 118.25 100.39 123.30
  Q 106.19 128.60 106.75 137.00
  Q 107.41 146.90 109.42 152.78
  Q 113.23 163.96 118.25 174.66
  Q 118.49 175.17 118.80 175.31
  Q 119.46 175.59 119.24 174.00
  Q 118.46 168.27 117.94 162.51
  Q 117.14 153.44 116.97 151.00
  Q 116.18 139.15 117.76 127.41
  Q 118.79 119.72 121.35 115.60
  Q 124.93 109.81 131.26 107.35
  Q 138.02 104.72 144.87 106.61
  Q 152.07 108.60 156.56 115.19
  Q 161.10 121.85 160.00 130.50
  Q 158.83 139.72 159.71 151.55
  Q 160.09 156.69 161.79 171.45
  Q 163.63 187.42 166.55 203.24
  Q 167.14 206.46 168.26 209.78
  A 0.68 0.67 73.6 0 0 169.06 210.22
  Q 170.99 209.72 172.64 208.85
  Q 188.14 200.67 196.19 186.69
  Q 199.62 180.72 203.13 177.91
  Q 210.30 172.14 218.45 172.99
  Q 226.20 173.80 231.84 179.51
  Q 238.14 185.89 237.50 195.75
  Q 237.17 200.83 233.34 207.38
  Q 218.56 232.63 192.77 246.48
  Q 181.88 252.33 169.19 253.02
  A 0.75 0.74 -4.4 0 0 168.48 253.84
  Q 169.79 266.31 172.40 278.42
  Q 186.79 345.03 223.81 400.44
  Q 232.37 413.25 245.29 427.47
  Q 267.73 452.17 297.54 467.23
  Q 307.70 472.36 318.90 477.11
  A 0.62 0.62 -68.8 0 0 319.74 476.74
  Q 328.81 450.71 343.91 428.60
  A 0.45 0.45 -58.2 0 0 343.76 427.95
  Q 340.33 425.99 337.25 423.55
  Q 335.31 422.02 334.28 419.65
  Q 328.01 405.32 326.25 389.25
  Q 324.69 375.02 324.16 363.00
  Q 322.62 328.52 322.98 294.00
  Q 323.52 240.33 326.75 186.75
  Q 326.95 183.34 326.20 180.01
  Q 318.50 146.30 314.00 122.75
  Q 311.46 109.46 309.39 92.40
  Q 308.07 81.47 308.15 80.23
  Q 308.43 75.72 310.88 71.90
  Q 313.23 68.24 317.23 66.34
  Q 324.99 62.67 334.06 66.69
  Q 350.89 74.14 356.19 76.80
  Q 397.87 97.76 438.26 120.71
  A 2.61 2.58 54.7 0 0 439.96 121.01
  Q 469.52 115.91 500.24 112.13
  A 1.69 1.68 10.4 0 0 501.51 111.26
  Q 507.97 99.33 514.66 87.95
  Q 526.53 67.76 541.41 49.69
  Q 551.69 37.22 566.19 20.94
  Q 569.77 16.92 573.70 14.70
  Q 582.87 9.51 591.19 14.56
  Q 598.52 19.01 601.25 28.50
  Q 604.80 40.86 606.98 59.97
  Q 611.45 99.33 614.72 138.81
  Q 615.00 142.16 616.26 145.47
  Q 621.72 159.82 625.56 175.69
  Q 629.31 191.17 632.14 203.98
  Q 635.23 217.94 636.53 223.49
  Q 646.70 266.82 657.29 310.04
  Q 661.90 328.85 664.63 348.02
  Q 666.27 359.50 664.72 371.25
  A 0.47 0.47 -77.4 0 0 665.04 371.76
  Q 667.34 372.50 669.30 373.90
  Q 671.35 375.37 671.39 375.39
  Q 691.55 388.66 707.02 407.23
  Q 718.15 420.59 728.64 437.04
  A 0.66 0.65 53.2 0 0 729.61 437.19
  Q 745.49 423.73 760.43 408.82
  Q 768.43 400.83 774.04 394.17
  Q 793.70 370.86 806.97 343.20
  Q 825.31 304.95 836.25 262.50
  Q 840.00 247.95 841.65 235.02
  Q 843.64 219.51 841.16 203.87
  A 0.55 0.55 -6.8 0 0 840.57 203.41
  Q 826.01 204.50 812.74 199.53
  Q 789.68 190.90 777.19 170.81
  Q 770.83 160.59 767.90 148.13
  Q 765.80 139.17 767.35 133.30
  Q 769.89 123.65 780.06 119.31
  Q 783.17 117.99 786.84 117.86
  Q 790.13 117.76 793.57 118.81
  Q 805.12 122.34 808.31 134.44
  Q 810.27 141.85 812.46 146.11
  Q 818.08 157.02 830.02 160.25
  A 1.05 1.04 14.7 0 0 831.31 159.50
  Q 834.21 148.32 834.61 136.75
  Q 835.02 124.97 833.87 116.78
  Q 832.35 105.99 827.19 96.31
  Q 824.65 91.56 821.29 86.43
  Q 816.71 79.45 815.81 76.42
  Q 813.96 70.16 815.99 64.00
  Q 817.92 58.18 822.63 54.14
  Q 830.32 47.54 841.25 50.00
  Q 845.16 50.88 848.77 53.68
  Q 851.29 55.63 854.37 59.69
  Q 877.60 90.28 877.32 129.43
  Q 877.31 129.94 877.56 129.50
  Z
  M 477.00 204.54
  Q 474.59 210.65 475.19 217.26
  Q 476.35 229.92 482.58 240.98
  Q 485.43 246.04 488.31 247.69
  Q 495.33 251.71 501.42 248.47
  Q 505.12 246.51 507.78 242.18
  Q 510.08 238.43 511.19 233.69
  Q 515.64 214.61 506.66 197.82
  Q 512.05 194.28 516.31 190.56
  Q 526.21 181.95 529.43 168.94
  Q 531.37 161.14 529.56 152.94
  Q 528.59 148.50 525.66 145.64
  Q 522.96 143.01 519.56 143.01
  Q 515.88 143.02 512.92 145.92
  Q 508.03 150.70 505.10 156.90
  Q 501.33 164.87 499.69 167.19
  Q 491.07 179.33 476.55 183.20
  Q 467.13 185.71 469.50 195.50
  Q 471.04 201.88 477.00 204.54
  Z
  M 418.51 209.59
  Q 413.36 227.52 421.28 244.13
  Q 424.19 250.24 428.44 254.06
  Q 433.87 258.96 440.52 257.61
  Q 444.32 256.84 447.15 253.98
  Q 450.01 251.09 451.25 247.25
  Q 453.73 239.57 453.90 231.12
  Q 454.05 223.66 453.19 219.41
  Q 451.99 213.50 448.21 208.50
  Q 454.30 201.34 450.81 193.46
  Q 449.82 191.24 447.64 190.02
  Q 445.04 188.59 443.00 188.50
  Q 428.07 187.86 417.92 178.17
  Q 417.06 177.35 410.69 169.31
  Q 406.78 164.39 402.04 160.21
  Q 397.88 156.53 392.93 157.28
  Q 389.98 157.73 388.10 160.29
  Q 384.19 165.60 385.25 173.25
  Q 387.75 191.21 401.70 201.05
  Q 409.80 206.76 418.51 209.59
  Z
  M 366.03 325.27
  Q 364.89 325.22 365.43 326.35
  Q 365.81 327.14 365.87 327.31
  Q 369.84 338.25 375.62 348.35
  Q 388.90 371.51 412.35 384.38
  Q 425.80 392.52 441.25 395.96
  Q 462.42 401.18 484.03 398.14
  Q 496.82 397.55 508.94 393.59
  Q 528.34 388.49 545.29 378.00
  Q 556.94 370.81 566.75 361.25
  Q 567.10 360.91 567.04 360.00
  Q 567.86 360.20 568.75 359.25
  Q 599.71 326.44 604.14 281.79
  Q 605.39 272.90 604.76 264.21
  A 0.54 0.53 81.8 0 0 604.11 263.72
  Q 561.90 273.49 519.33 280.94
  Q 485.25 286.91 451.06 292.30
  Q 406.86 299.26 362.73 306.75
  A 1.48 1.48 85.2 0 0 361.50 308.21
  Q 361.50 317.83 366.03 325.27
  Z
  M 375.77 456.81
  Q 389.32 468.41 403.81 475.44
  Q 445.89 495.84 494.24 491.63
  Q 521.56 489.25 547.44 478.69
  Q 603.62 455.75 638.66 406.67
  Q 639.74 405.16 641.08 403.89
  Q 641.41 403.58 641.00 403.82
  Q 606.52 423.83 566.56 436.31
  Q 520.80 450.61 475.00 454.27
  Q 444.31 456.72 413.92 451.91
  Q 382.68 446.97 354.58 433.50
  Q 352.62 432.56 353.93 434.30
  Q 358.67 440.61 364.21 446.18
  Q 369.06 451.06 375.77 456.81
  Z"
/>
<path fill="#323244" d="
  M 506.66 197.82
  Q 498.52 202.49 489.94 204.68
  Q 483.43 206.34 477.00 204.54
  Q 471.04 201.88 469.50 195.50
  Q 467.13 185.71 476.55 183.20
  Q 491.07 179.33 499.69 167.19
  Q 501.33 164.87 505.10 156.90
  Q 508.03 150.70 512.92 145.92
  Q 515.88 143.02 519.56 143.01
  Q 522.96 143.01 525.66 145.64
  Q 528.59 148.50 529.56 152.94
  Q 531.37 161.14 529.43 168.94
  Q 526.21 181.95 516.31 190.56
  Q 512.05 194.28 506.66 197.82
  Z"
/>
<path fill="#323244" d="
  M 448.21 208.50
  Q 441.57 211.78 436.50 212.25
  Q 428.71 212.97 418.51 209.59
  Q 409.80 206.76 401.70 201.05
  Q 387.75 191.21 385.25 173.25
  Q 384.19 165.60 388.10 160.29
  Q 389.98 157.73 392.93 157.28
  Q 397.88 156.53 402.04 160.21
  Q 406.78 164.39 410.69 169.31
  Q 417.06 177.35 417.92 178.17
  Q 428.07 187.86 443.00 188.50
  Q 445.04 188.59 447.64 190.02
  Q 449.82 191.24 450.81 193.46
  Q 454.30 201.34 448.21 208.50
  Z"
/>
<path fill="#d35158" d="
  M 506.66 197.82
  Q 515.64 214.61 511.19 233.69
  Q 510.08 238.43 507.78 242.18
  Q 505.12 246.51 501.42 248.47
  Q 495.33 251.71 488.31 247.69
  Q 485.43 246.04 482.58 240.98
  Q 476.35 229.92 475.19 217.26
  Q 474.59 210.65 477.00 204.54
  Q 483.43 206.34 489.94 204.68
  Q 498.52 202.49 506.66 197.82
  Z"
/>
<path fill="#d35158" d="
  M 448.21 208.50
  Q 451.99 213.50 453.19 219.41
  Q 454.05 223.66 453.90 231.12
  Q 453.73 239.57 451.25 247.25
  Q 450.01 251.09 447.15 253.98
  Q 444.32 256.84 440.52 257.61
  Q 433.87 258.96 428.44 254.06
  Q 424.19 250.24 421.28 244.13
  Q 413.36 227.52 418.51 209.59
  Q 428.71 212.97 436.50 212.25
  Q 441.57 211.78 448.21 208.50
  Z"
/>
<path fill="#323244" d="
  M 604.14 281.79
  Q 580.04 287.85 555.38 292.46
  A 0.63 0.62 79.9 0 0 554.88 293.19
  Q 560.32 323.05 566.00 353.25
  Q 566.93 358.20 567.04 360.00
  Q 567.10 360.91 566.75 361.25
  Q 556.94 370.81 545.29 378.00
  L 530.19 298.06
  A 0.64 0.63 79.4 0 0 529.46 297.55
  L 492.30 304.12
  A 0.60 0.59 -11.2 0 0 491.82 304.83
  Q 501.40 348.73 508.94 393.59
  Q 496.82 397.55 484.03 398.14
  Q 476.75 352.85 466.80 309.06
  A 0.54 0.54 79.2 0 0 466.19 308.64
  L 425.02 315.41
  A 0.65 0.64 -10.1 0 0 424.49 316.16
  Q 431.44 356.41 441.25 395.96
  Q 425.80 392.52 412.35 384.38
  Q 405.30 352.05 399.53 320.31
  A 0.54 0.51 79.8 0 0 398.94 319.88
  L 366.03 325.27
  Q 361.50 317.83 361.50 308.21
  A 1.48 1.48 85.2 0 1 362.73 306.75
  Q 406.86 299.26 451.06 292.30
  Q 485.25 286.91 519.33 280.94
  Q 561.90 273.49 604.11 263.72
  A 0.54 0.53 81.8 0 1 604.76 264.21
  Q 605.39 272.90 604.14 281.79
  Z"
/>
<path fill="#ffffff" d="
  M 604.14 281.79
  Q 599.71 326.44 568.75 359.25
  Q 567.86 360.20 567.04 360.00
  Q 566.93 358.20 566.00 353.25
  Q 560.32 323.05 554.88 293.19
  A 0.63 0.62 79.9 0 1 555.38 292.46
  Q 580.04 287.85 604.14 281.79
  Z"
/>
<path fill="#ffffff" d="
  M 545.29 378.00
  Q 528.34 388.49 508.94 393.59
  Q 501.40 348.73 491.82 304.83
  A 0.60 0.59 -11.2 0 1 492.30 304.12
  L 529.46 297.55
  A 0.64 0.63 79.4 0 1 530.19 298.06
  L 545.29 378.00
  Z"
/>
<path fill="#ffffff" d="
  M 484.03 398.14
  Q 462.42 401.18 441.25 395.96
  Q 431.44 356.41 424.49 316.16
  A 0.65 0.64 -10.1 0 1 425.02 315.41
  L 466.19 308.64
  A 0.54 0.54 79.2 0 1 466.80 309.06
  Q 476.75 352.85 484.03 398.14
  Z"
/>
<path fill="#ffffff" d="
  M 412.35 384.38
  Q 388.90 371.51 375.62 348.35
  Q 369.84 338.25 365.87 327.31
  Q 365.81 327.14 365.43 326.35
  Q 364.89 325.22 366.03 325.27
  L 398.94 319.88
  A 0.54 0.51 79.8 0 1 399.53 320.31
  Q 405.30 352.05 412.35 384.38
  Z"
/>
<path fill="#677d9e" d="
  M 364.21 446.18
  Q 358.67 440.61 353.93 434.30
  Q 352.62 432.56 354.58 433.50
  Q 382.68 446.97 413.92 451.91
  Q 444.31 456.72 475.00 454.27
  Q 520.80 450.61 566.56 436.31
  Q 606.52 423.83 641.00 403.82
  Q 641.41 403.58 641.08 403.89
  Q 639.74 405.16 638.66 406.67
  Q 603.62 455.75 547.44 478.69
  Q 521.56 489.25 494.24 491.63
  Q 445.89 495.84 403.81 475.44
  Q 389.32 468.41 375.77 456.81
  Q 369.06 451.06 364.21 446.18
  Z"
/>
</svg>
