<?xml version="1.0" encoding="UTF-8" standalone="no"?>
<!DOCTYPE svg PUBLIC "-//W3C//DTD SVG 1.1//EN" "http://www.w3.org/Graphics/SVG/1.1/DTD/svg11.dtd">
<svg xmlns="http://www.w3.org/2000/svg" version="1.1" viewBox="0 0 2460 851">
<g stroke-width="0.30" fill="none" stroke-linecap="butt">
<path stroke="#526a5d" vector-effect="non-scaling-stroke" d="
  M 1057.79 162.75
  L 1079.82 260.84
  A 0.76 0.75 -6.0 0 1 1079.07 261.76
  L 1027.79 261.50"
/>
<path stroke="#7f895d" vector-effect="non-scaling-stroke" d="
  M 1027.79 261.50
  Q 1027.21 259.13 1027.53 256.81
  Q 1027.79 254.98 1029.33 252.63
  Q 1038.27 239.01 1047.38 225.14
  A 0.52 0.50 -57.3 0 0 1047.24 224.42
  L 1042.74 221.62
  A 0.75 0.71 -56.8 0 0 1041.74 221.86
  L 1028.43 241.95
  Q 1027.50 243.35 1027.50 241.66
  L 1027.50 213.29
  A 4.88 4.58 -29.8 0 1 1028.30 210.68
  L 1047.23 181.92
  A 0.57 0.50 -56.2 0 0 1047.13 181.17
  L 1042.80 178.18
  A 0.87 0.77 -56.0 0 0 1041.66 178.47
  L 1028.42 198.66
  Q 1027.50 200.05 1027.50 198.38
  L 1027.50 161.63
  A 0.88 0.88 -0.1 0 0 1026.62 160.75
  L 1021.95 160.75
  A 1.21 1.19 90.0 0 0 1020.76 161.96
  L 1020.73 210.52
  Q 1020.73 211.42 1020.12 210.77
  L 1007.33 197.12
  A 0.53 0.48 47.0 0 0 1006.62 197.06
  L 1002.52 200.86
  A 0.54 0.52 46.9 0 0 1002.51 201.62
  L 1019.71 219.82
  A 3.82 3.70 24.0 0 1 1020.75 222.40
  L 1020.71 261.50"
/>
<path stroke="#526a5d" vector-effect="non-scaling-stroke" d="
  M 1020.71 261.50
  L 975.17 261.00
  A 0.99 0.97 -84.3 0 1 974.23 259.83
  L 979.46 233.00"
/>
<path stroke="#c4a99e" vector-effect="non-scaling-stroke" d="
  M 1264.21 69.00
  L 1252.40 69.36"
/>
<path stroke="#a56048" vector-effect="non-scaling-stroke" d="
  M 1272.51 88.49
  Q 1237.25 86.69 1202.03 87.73"
/>
<path stroke="#79504b" vector-effect="non-scaling-stroke" d="
  M 1201.82 104.43
  Q 1205.76 108.37 1210.46 111.50"
/>
<path stroke="#818998" vector-effect="non-scaling-stroke" d="
  M 1210.46 111.50
  Q 1211.73 113.32 1213.75 114.29"
/>
<path stroke="#79504b" vector-effect="non-scaling-stroke" d="
  M 1213.75 114.29
  L 1242.25 137.86"
/>
<path stroke="#5e4241" vector-effect="non-scaling-stroke" d="
  M 1242.25 137.86
  Q 1252.92 147.28 1264.53 156.04"
/>
<path stroke="#79504b" vector-effect="non-scaling-stroke" d="
  M 1264.53 156.04
  Q 1267.93 159.88 1272.34 162.66"
/>
<path stroke="#81818a" vector-effect="non-scaling-stroke" d="
  M 1388.75 258.79
  L 1366.65 350.91
  A 0.70 0.69 7.0 0 0 1367.32 351.76
  L 1401.18 351.90"
/>
<path stroke="#5f5144" vector-effect="non-scaling-stroke" d="
  M 1401.18 351.90
  Q 1401.57 352.67 1401.45 353.50
  Q 1401.25 354.92 1401.25 355.03
  Q 1401.28 364.89 1401.21 374.75"
/>
<path stroke="#2f2f40" vector-effect="non-scaling-stroke" d="
  M 1401.21 374.75
  Q 1394.49 375.93 1387.75 377.00
  Q 1382.02 377.91 1376.17 381.81
  Q 1371.91 384.65 1370.70 387.48
  Q 1368.77 391.98 1373.31 396.20
  Q 1375.44 398.18 1378.07 399.43
  Q 1384.17 402.33 1390.70 403.62
  Q 1396.68 404.80 1403.84 404.96
  Q 1417.81 405.28 1430.92 399.89
  Q 1435.90 397.85 1438.82 393.36
  Q 1440.91 390.15 1439.25 387.25
  Q 1436.47 382.40 1430.55 379.89
  Q 1420.71 375.72 1410.00 375.50
  Q 1408.84 375.47 1407.99 374.82
  A 0.34 0.33 -55.5 0 0 1407.50 374.92
  L 1407.29 375.25"
/>
<path stroke="#5f5144" vector-effect="non-scaling-stroke" d="
  M 1407.29 375.25
  Q 1406.95 361.55 1407.50 357.25
  Q 1407.75 355.25 1410.64 351.90"
/>
<path stroke="#81818a" vector-effect="non-scaling-stroke" d="
  M 1410.64 351.90
  L 1446.94 351.94
  A 0.38 0.38 81.9 0 0 1447.30 351.45
  Q 1439.30 323.48 1431.62 295.42
  Q 1431.52 295.07 1431.86 294.41"
/>
<path stroke="#9999a2" vector-effect="non-scaling-stroke" d="
  M 1653.00 476.79
  L 1349.96 747.75"
/>
<path stroke="#415969" vector-effect="non-scaling-stroke" d="
  M 1349.96 747.75
  Q 1348.84 747.63 1348.11 746.87
  Q 1347.20 745.91 1347.14 745.86
  Q 1279.56 689.93 1212.13 633.82
  A 0.65 0.64 -42.5 0 0 1211.34 633.79
  L 1132.22 689.65
  A 0.56 0.56 -38.5 0 1 1131.48 689.57
  Q 1075.51 627.50 1019.82 565.17
  Q 929.98 464.64 840.06 364.19
  Q 837.77 361.62 837.00 360.29"
/>
<path stroke="#5f5144" vector-effect="non-scaling-stroke" d="
  M 1020.71 261.50
  L 1020.71 283.50"
/>
<path stroke="#2f2f40" vector-effect="non-scaling-stroke" d="
  M 1020.71 283.50
  Q 1010.28 283.28 1000.37 286.46
  Q 994.21 288.44 990.06 292.06
  Q 985.26 296.25 987.28 300.87
  Q 988.58 303.85 992.88 306.49
  Q 1000.54 311.20 1011.00 312.50
  Q 1027.54 314.55 1041.03 310.86
  Q 1048.76 308.75 1052.44 305.44
  Q 1061.38 297.38 1051.69 290.81
  Q 1041.39 283.83 1027.55 284.09"
/>
<path stroke="#5f5144" vector-effect="non-scaling-stroke" d="
  M 1027.55 284.09
  L 1027.79 261.50"
/>
<path stroke="#a56048" vector-effect="non-scaling-stroke" d="
  M 1264.53 156.04
  Q 1265.47 142.45 1264.84 128.94
  A 0.55 0.53 88.3 0 0 1264.31 128.42
  L 1243.25 128.48
  A 0.54 0.52 -88.9 0 0 1242.73 129.00
  L 1242.25 137.86"
/>
<path stroke="#c8a79f" vector-effect="non-scaling-stroke" d="
  M 1213.75 114.29
  L 1229.95 114.25
  A 0.55 0.55 -89.9 0 0 1230.50 113.70
  L 1230.56 95.83
  A 0.82 0.82 -89.7 0 0 1229.74 95.00
  L 1211.55 95.00
  A 0.87 0.83 -89.3 0 0 1210.72 95.85
  L 1210.46 111.50"
/>
<path stroke="#c8a79f" vector-effect="non-scaling-stroke" d="
  M 1263.7342 95.5526
  A 0.56 0.56 0.0 0 0 1263.1732 94.9935
  L 1244.2932 95.0265
  A 0.56 0.56 0.0 0 0 1243.7342 95.5875
  L 1243.7658 113.7074
  A 0.56 0.56 0.0 0 0 1244.3268 114.2665
  L 1263.2068 114.2335
  A 0.56 0.56 0.0 0 0 1263.7658 113.6725
  L 1263.7342 95.5526"
/>
<path stroke="#626a7f" vector-effect="non-scaling-stroke" d="
  M 194.20 275.06
  L 138.00 255.54"
/>
<path stroke="#626a7f" vector-effect="non-scaling-stroke" d="
  M 2338.21 277.75
  Q 2314.58 269.28 2290.81 261.19
  Q 2288.52 260.41 2287.83 260.44"
/>
<path stroke="#5c4e40" vector-effect="non-scaling-stroke" d="
  M 1027.55 284.09
  L 1027.45 290.19
  A 0.53 0.52 -89.4 0 1 1026.93 290.71
  L 1021.56 290.72
  A 0.57 0.56 -1.6 0 1 1020.99 290.19
  L 1020.71 283.50"
/>
<path stroke="#aea08a" vector-effect="non-scaling-stroke" d="
  M 1410.64 351.90
  L 1424.47 330.17
  A 0.54 0.50 -56.9 0 0 1424.35 329.45
  L 1420.69 327.00
  A 0.53 0.52 -56.8 0 0 1419.97 327.16
  L 1407.87 345.30
  Q 1407.25 346.22 1407.25 345.12
  L 1407.25 319.37
  A 3.40 3.25 -29.5 0 1 1407.80 317.55
  L 1424.28 292.34
  A 1.12 1.03 32.1 0 0 1423.87 290.85
  L 1420.58 288.85
  A 0.54 0.49 31.9 0 0 1419.87 288.98
  L 1407.94 307.18
  Q 1407.19 308.34 1407.19 306.95
  L 1407.25 274.29
  A 0.52 0.50 89.5 0 0 1406.74 273.77
  L 1402.06 273.79
  A 0.52 0.50 90.0 0 0 1401.56 274.31
  L 1401.43 316.90
  Q 1401.43 318.39 1400.41 317.30
  L 1389.75 305.86
  A 0.86 0.79 47.2 0 0 1388.59 305.77
  L 1385.66 308.49
  A 0.92 0.85 46.8 0 0 1385.67 309.74
  L 1400.40 325.28
  A 4.12 3.50 27.1 0 1 1401.51 327.95
  L 1401.18 351.90"
/>
<path stroke="#6d6966" vector-effect="non-scaling-stroke" d="
  M 739.54 252.00
  L 707.49 270.35
  Q 705.81 271.32 707.69 271.31
  L 719.00 271.29"
/>
<path stroke="#7191a4" vector-effect="non-scaling-stroke" d="
  M 719.00 271.29
  L 719.25 385.83
  A 0.91 0.89 89.7 0 0 720.15 386.74
  L 781.71 386.50"
/>
<path stroke="#6d6966" vector-effect="non-scaling-stroke" d="
  M 781.71 386.50
  Q 796.21 387.16 810.72 386.46"
/>
<path stroke="#7191a4" vector-effect="non-scaling-stroke" d="
  M 810.72 386.46
  L 819.35 386.74
  A 0.68 0.63 -89.2 0 0 820.01 386.05
  Q 819.70 364.04 820.40 342.56"
/>
<path stroke="#a8c0c7" vector-effect="non-scaling-stroke" d="
  M 1349.96 747.75
  Q 1349.91 748.43 1350.41 748.85
  Q 1412.10 799.71 1473.45 850.99"
/>
<path stroke="#a8c0c7" vector-effect="non-scaling-stroke" d="
  M 177.46 712.00
  Q 177.39 712.47 177.57 712.65
  A 0.73 0.40 -42.8 0 0 178.36 712.45
  L 194.28 698.01"
/>
<path stroke="#567a73" vector-effect="non-scaling-stroke" d="
  M 334.75 569.96
  Q 335.48 571.49 334.92 573.04
  Q 334.38 574.53 334.35 574.65
  Q 327.21 603.11 320.02 631.73
  A 0.82 0.82 -82.8 0 0 320.81 632.75
  L 359.46 632.75"
/>
<path stroke="#6e7869" vector-effect="non-scaling-stroke" d="
  M 359.46 632.75
  Q 360.18 641.50 359.46 650.25"
/>
<path stroke="#487480" vector-effect="non-scaling-stroke" d="
  M 359.46 650.25
  Q 352.53 650.58 345.75 651.99
  Q 338.15 653.56 334.06 656.56
  Q 326.30 662.25 330.85 667.96
  Q 333.13 670.82 337.98 672.94
  Q 341.91 674.65 346.44 675.56
  Q 364.17 679.12 380.89 673.55
  Q 387.25 671.44 390.19 667.44
  Q 392.42 664.40 390.66 661.05
  Q 389.22 658.29 387.06 656.94
  Q 377.56 650.97 365.79 650.75"
/>
<path stroke="#6e7869" vector-effect="non-scaling-stroke" d="
  M 365.79 650.75
  Q 365.32 644.46 365.47 638.15
  Q 365.48 638.06 365.38 636.35
  Q 365.27 634.25 366.75 632.71"
/>
<path stroke="#567a73" vector-effect="non-scaling-stroke" d="
  M 366.75 632.71
  L 406.94 632.99
  A 0.78 0.77 82.0 0 0 407.68 632.00
  L 378.21 530.25"
/>
<path stroke="#619182" vector-effect="non-scaling-stroke" d="
  M 448.50 466.46
  Q 448.74 467.00 449.20 467.20
  A 0.57 0.49 19.0 0 1 449.55 467.80
  L 442.85 494.94
  A 0.45 0.45 7.0 0 0 443.29 495.50
  L 488.21 495.50"
/>
<path stroke="#6e7869" vector-effect="non-scaling-stroke" d="
  M 488.21 495.50
  L 488.02 511.10"
/>
<path stroke="#487480" vector-effect="non-scaling-stroke" d="
  M 488.02 511.10
  Q 477.01 511.79 467.36 516.62
  Q 462.87 518.87 460.92 521.40
  Q 457.51 525.84 460.87 530.39
  Q 462.86 533.09 466.90 535.22
  Q 470.24 536.97 474.19 538.06
  Q 494.33 543.60 514.06 538.06
  Q 521.06 536.10 525.74 532.07
  Q 528.17 529.97 528.84 527.74
  Q 529.74 524.74 527.94 522.06
  Q 525.24 518.05 519.16 515.62
  Q 507.08 510.80 494.04 511.00"
/>
<path stroke="#6e7869" vector-effect="non-scaling-stroke" d="
  M 494.04 511.00
  L 494.04 495.50"
/>
<path stroke="#619182" vector-effect="non-scaling-stroke" d="
  M 494.04 495.50
  L 546.55 495.50
  A 0.64 0.64 -7.6 0 0 547.17 494.69
  Q 534.42 448.00 521.57 401.00
  Q 521.55 400.93 521.35 400.53
  Q 521.16 400.15 521.50 399.79"
/>
<path stroke="#6e7869" vector-effect="non-scaling-stroke" d="
  M 638.71 524.25
  L 638.71 542.75"
/>
<path stroke="#4b7885" vector-effect="non-scaling-stroke" d="
  M 638.71 542.75
  Q 628.11 542.64 618.37 546.70
  Q 615.84 547.75 613.64 549.38
  Q 609.18 552.69 610.41 556.81
  Q 611.27 559.72 614.85 562.15
  Q 618.25 564.45 622.56 565.69
  Q 641.08 570.99 659.05 565.40
  Q 665.66 563.34 668.56 559.56
  Q 671.57 555.64 669.19 552.06
  Q 666.26 547.67 659.43 545.58
  Q 652.23 543.37 644.78 542.38"
/>
<path stroke="#6e7869" vector-effect="non-scaling-stroke" d="
  M 644.78 542.38
  L 645.04 524.00"
/>
<path stroke="#8e838c" vector-effect="non-scaling-stroke" d="
  M 645.04 524.00
  L 687.76 524.24
  A 0.76 0.75 81.9 0 0 688.48 523.27
  L 643.88 368.59
  Q 643.27 366.45 642.72 368.61
  L 603.79 523.02
  A 0.59 0.59 -82.6 0 0 604.35 523.75
  L 638.71 524.25"
/>
<path stroke="#ac7b67" vector-effect="non-scaling-stroke" d="
  M 645.04 524.00
  Q 644.36 522.35 645.35 520.84
  Q 653.64 508.13 662.05 495.27
  A 0.56 0.54 -55.9 0 0 661.92 494.52
  L 658.61 492.22
  A 1.18 1.11 -55.8 0 0 657.01 492.58
  L 645.30 510.32
  Q 644.75 511.16 644.75 510.16
  L 644.75 485.15
  Q 644.75 483.51 645.65 482.15
  L 662.04 457.29
  A 0.60 0.55 -56.9 0 0 661.91 456.49
  L 658.07 453.90
  A 0.59 0.56 -56.5 0 0 657.27 454.09
  L 645.52 472.00
  Q 644.75 473.17 644.75 471.77
  L 644.75 439.57
  A 0.80 0.77 89.6 0 0 643.97 438.77
  L 639.56 438.79
  A 0.53 0.50 90.0 0 0 639.06 439.32
  L 638.82 481.93
  Q 638.81 483.24 637.90 482.28
  L 627.40 471.27
  A 1.29 1.11 46.5 0 0 625.72 471.10
  L 622.90 473.75
  A 0.56 0.51 46.9 0 0 622.91 474.51
  Q 629.24 481.36 635.45 487.81
  Q 635.51 487.87 636.73 489.01
  Q 639.33 491.44 639.14 495.04
  Q 639.02 497.33 639.02 497.48
  Q 639.20 510.87 638.71 524.25"
/>
<path stroke="#697060" vector-effect="non-scaling-stroke" d="
  M 644.78 542.38
  L 644.76 551.81
  A 1.06 1.06 80.9 0 1 644.03 552.82
  Q 641.87 553.54 639.47 552.68
  A 0.77 0.71 10.2 0 1 638.96 552.01
  L 638.71 542.75"
/>
<path stroke="#6d6966" vector-effect="non-scaling-stroke" d="
  M 968.44 608.48
  Q 968.91 611.83 966.69 610.56
  Q 955.23 604.04 942.84 596.88
  A 1.20 1.19 45.2 0 0 941.66 596.87
  L 869.61 637.04
  Q 868.81 637.48 869.74 637.50
  L 885.00 637.79"
/>
<path stroke="#415969" vector-effect="non-scaling-stroke" d="
  M 885.00 637.79
  L 885.00 768.75
  A 0.50 0.50 0.0 0 0 885.50 769.25
  L 954.25 769.21"
/>
<path stroke="#6d6966" vector-effect="non-scaling-stroke" d="
  M 954.25 769.21
  L 985.75 769.21"
/>
<path stroke="#415969" vector-effect="non-scaling-stroke" d="
  M 985.75 769.21
  L 997.75 769.25
  A 0.50 0.50 0.0 0 0 998.25 768.75
  L 998.29 638.50"
/>
<path stroke="#6d6966" vector-effect="non-scaling-stroke" d="
  M 998.29 638.50
  L 1011.81 638.27
  Q 1014.65 638.23 1012.22 636.83
  L 986.43 622.00
  A 0.93 0.84 15.8 0 1 985.97 621.26
  L 985.71 608.50"
/>
<path stroke="#a8c0c7" vector-effect="non-scaling-stroke" d="
  M 985.71 608.50
  L 985.75 586.50
  A 0.50 0.50 0.0 0 0 985.25 586.00
  L 968.91 586.00
  A 0.66 0.64 0.0 0 0 968.25 586.64
  L 968.44 608.48"
/>
<path stroke="#c4a99e" vector-effect="non-scaling-stroke" d="
  M 985.71 608.50
  L 968.44 608.48"
/>
<path stroke="#5e4241" vector-effect="non-scaling-stroke" d="
  M 998.29 638.50
  Q 971.61 638.17 944.93 638.17
  Q 935.67 638.17 924.94 638.02
  Q 904.97 637.73 885.00 637.79"
/>
<path stroke="#5e4241" vector-effect="non-scaling-stroke" d="
  M 985.75 769.21
  L 985.75 712.56
  A 0.81 0.81 0.0 0 0 984.94 711.75
  L 954.75 711.75
  A 0.50 0.50 0.0 0 0 954.25 712.25
  L 954.25 769.21"
/>
<path stroke="#c4a99e" vector-effect="non-scaling-stroke" d="
  M 809.21 245.00
  L 793.29 245.00"
/>
<path stroke="#8d7a7c" vector-effect="non-scaling-stroke" d="
  M 820.14 271.49
  L 719.00 271.29"
/>
<path stroke="#9999a2" vector-effect="non-scaling-stroke" d="
  M 194.23 348.04
  Q 186.58 345.81 179.70 343.02
  Q 178.65 342.60 177.51 342.73"
/>
<path stroke="#c8d0dd" vector-effect="non-scaling-stroke" d="
  M 2338.10 355.79
  L 2323.31 350.65"
/>
<path stroke="#8d7a7c" vector-effect="non-scaling-stroke" d="
  M 810.72 386.46
  L 810.69 334.82
  A 0.51 0.49 -90.0 0 0 810.20 334.31
  L 782.26 334.25
  A 0.52 0.51 90.0 0 0 781.75 334.77
  L 781.71 386.50"
/>
<path stroke="#b0c0d3" vector-effect="non-scaling-stroke" d="
  M 755.75 283.76
  A 0.26 0.26 0.0 0 0 755.49 283.50
  L 729.51 283.50
  A 0.26 0.26 0.0 0 0 729.25 283.76
  L 729.25 309.74
  A 0.26 0.26 0.0 0 0 729.51 310.00
  L 755.49 310.00
  A 0.26 0.26 0.0 0 0 755.75 309.74
  L 755.75 283.76"
/>
<path stroke="#b0c0d3" vector-effect="non-scaling-stroke" d="
  M 810.0448 283.9265
  A 0.38 0.38 0.0 0 0 809.6662 283.5452
  L 783.8263 283.4550
  A 0.38 0.38 0.0 0 0 783.4450 283.8337
  L 783.3552 309.5735
  A 0.38 0.38 0.0 0 0 783.7338 309.9548
  L 809.5737 310.0450
  A 0.38 0.38 0.0 0 0 809.9550 309.6663
  L 810.0448 283.9265"
/>
<path stroke="#b0c0d3" vector-effect="non-scaling-stroke" d="
  M 755.75 334.52
  A 0.27 0.27 0.0 0 0 755.48 334.25
  L 729.52 334.25
  A 0.27 0.27 0.0 0 0 729.25 334.52
  L 729.25 360.50
  A 0.27 0.27 0.0 0 0 729.52 360.77
  L 755.48 360.77
  A 0.27 0.27 0.0 0 0 755.75 360.50
  L 755.75 334.52"
/>
<path stroke="#5c4e40" vector-effect="non-scaling-stroke" d="
  M 1407.29 375.25
  L 1407.25 387.01
  A 0.88 0.77 -89.7 0 1 1406.47 387.89
  L 1402.04 387.81
  A 0.64 0.52 89.9 0 1 1401.53 387.18
  L 1401.21 374.75"
/>
<path stroke="#7f895d" vector-effect="non-scaling-stroke" d="
  M 494.04 495.50
  Q 492.71 490.34 496.06 485.81
  Q 500.09 480.37 510.99 462.92
  A 0.72 0.66 -50.2 0 0 510.95 462.10
  Q 509.85 460.81 507.37 459.78
  A 1.04 1.04 27.8 0 0 506.11 460.17
  L 494.52 477.60
  Q 494.12 478.21 494.08 477.48
  Q 493.44 463.66 493.98 451.51
  A 1.92 1.86 -28.5 0 1 494.27 450.58
  L 511.17 424.60
  A 0.57 0.48 -57.3 0 0 511.07 423.86
  L 507.33 421.56
  A 0.88 0.78 -57.5 0 0 506.21 421.88
  L 494.87 439.11
  Q 493.75 440.80 493.75 438.77
  L 493.69 407.06
  A 0.64 0.62 -83.8 0 0 493.21 406.44
  Q 490.98 405.94 488.74 406.39
  A 0.64 0.61 84.5 0 0 488.25 407.01
  L 488.00 449.77
  Q 488.00 450.51 487.48 449.98
  L 476.56 438.65
  A 1.06 1.06 50.4 0 0 475.19 438.52
  Q 472.95 440.10 472.20 441.55
  A 0.76 0.69 38.2 0 0 472.34 442.37
  L 487.02 457.95
  Q 488.25 459.26 488.25 461.05
  L 488.21 495.50"
/>
<path stroke="#b9d1bb" vector-effect="non-scaling-stroke" d="
  M 1745.75 394.29
  Q 1745.11 394.85 1745.25 395.50
  Q 1760.29 464.62 1775.32 534.09
  A 1.11 1.11 83.6 0 1 1774.25 535.44
  L 1733.79 535.75"
/>
<path stroke="#7f895d" vector-effect="non-scaling-stroke" d="
  M 1733.79 535.75
  Q 1733.34 531.82 1734.31 530.31
  Q 1742.54 517.57 1750.95 504.92
  A 1.15 1.00 -57.3 0 0 1750.73 503.39
  L 1747.52 501.37
  A 1.16 1.00 -57.3 0 0 1746.07 501.80
  L 1734.87 518.94
  Q 1734.02 520.25 1733.98 518.69
  Q 1733.73 508.22 1733.75 497.00
  Q 1733.75 496.88 1733.68 495.51
  Q 1733.56 492.93 1735.02 490.78
  Q 1743.03 478.99 1751.00 466.60
  A 0.85 0.82 -55.4 0 0 1750.81 465.46
  L 1747.62 463.18
  A 0.84 0.82 -55.7 0 0 1746.45 463.42
  L 1734.67 481.17
  Q 1734.06 482.08 1734.03 480.99
  Q 1733.59 465.53 1733.74 451.01
  Q 1733.74 450.90 1733.87 449.51
  Q 1734.06 447.37 1731.98 447.86
  Q 1731.50 447.98 1731.00 447.92
  Q 1729.66 447.76 1728.50 448.32
  A 0.84 0.75 78.0 0 0 1728.07 449.07
  Q 1728.53 470.32 1727.82 491.35
  Q 1727.79 492.20 1727.20 491.57
  L 1716.36 480.11
  A 0.68 0.54 48.4 0 0 1715.56 479.97
  L 1712.60 482.25
  A 1.59 1.40 49.2 0 0 1712.58 484.46
  L 1727.60 500.44
  A 1.44 1.27 -71.5 0 1 1727.97 501.32
  Q 1728.47 508.25 1728.25 515.18
  Q 1728.05 521.70 1728.12 525.33
  Q 1728.21 530.41 1728.21 535.50"
/>
<path stroke="#b9d1bb" vector-effect="non-scaling-stroke" d="
  M 1728.21 535.50
  Q 1708.85 536.11 1687.59 535.44
  Q 1685.58 535.38 1685.96 533.40
  L 1706.00 429.46"
/>
<path stroke="#c6b8a2" vector-effect="non-scaling-stroke" d="
  M 1728.21 535.50
  L 1728.31 547.92"
/>
<path stroke="#f0f0f0" vector-effect="non-scaling-stroke" d="
  M 1728.31 547.92
  Q 1718.08 549.09 1708.65 552.82
  Q 1702.94 555.08 1700.18 557.97
  Q 1694.70 563.70 1700.60 569.44
  Q 1703.29 572.06 1708.09 574.05
  Q 1712.33 575.80 1716.56 576.69
  Q 1732.73 580.09 1749.24 576.45
  Q 1756.25 574.91 1760.81 572.06
  Q 1770.98 565.73 1765.61 558.89
  Q 1762.80 555.32 1756.28 552.69
  Q 1746.50 548.74 1735.74 548.51
  A 1.59 1.14 57.8 0 1 1734.88 548.16
  Q 1733.78 547.29 1733.71 548.75"
/>
<path stroke="#c6b8a2" vector-effect="non-scaling-stroke" d="
  M 1733.71 548.75
  L 1733.79 535.75"
/>
<path stroke="#aebaab" vector-effect="non-scaling-stroke" d="
  M 2025.46 541.50
  Q 2025.47 542.20 2024.75 545.25
  Q 2016.97 578.05 2008.93 611.37
  A 0.51 0.51 7.2 0 0 2009.42 612.00
  L 2048.75 612.46"
/>
<path stroke="#c6b8a2" vector-effect="non-scaling-stroke" d="
  M 2048.75 612.46
  L 2048.94 633.88"
/>
<path stroke="#f0f0f0" vector-effect="non-scaling-stroke" d="
  M 2048.94 633.88
  Q 2039.74 633.73 2030.95 636.61
  Q 2023.93 638.91 2020.75 642.25
  Q 2013.74 649.61 2021.56 655.44
  Q 2026.28 658.95 2032.59 660.75
  Q 2037.48 662.14 2044.49 662.89
  Q 2056.04 664.13 2068.00 661.75
  Q 2074.38 660.48 2079.73 657.65
  Q 2084.71 655.00 2086.44 651.90
  Q 2089.28 646.82 2083.42 641.85
  Q 2079.95 638.91 2075.67 637.36
  Q 2066.26 633.93 2056.25 633.52
  Q 2055.97 633.51 2055.30 633.71
  Q 2054.46 633.95 2054.71 632.50"
/>
<path stroke="#c6b8a2" vector-effect="non-scaling-stroke" d="
  M 2054.71 632.50
  Q 2054.35 624.55 2054.71 616.60
  Q 2054.71 616.50 2054.66 614.92
  Q 2054.58 612.69 2056.66 612.42"
/>
<path stroke="#aebaab" vector-effect="non-scaling-stroke" d="
  M 2056.66 612.42
  L 2094.08 612.50
  A 0.53 0.53 81.5 0 0 2094.59 611.81
  L 2089.45 594.35"
/>
<path stroke="#c6b8a2" vector-effect="non-scaling-stroke" d="
  M 1881.21 685.25
  L 1881.46 708.25"
/>
<path stroke="#f0f0f0" vector-effect="non-scaling-stroke" d="
  M 1881.46 708.25
  Q 1869.86 708.00 1860.16 713.62
  Q 1856.01 716.02 1854.71 718.79
  Q 1852.57 723.31 1857.56 727.19
  Q 1862.14 730.75 1868.07 732.40
  Q 1872.56 733.64 1879.49 734.26
  Q 1891.62 735.35 1903.49 731.95
  Q 1910.43 729.96 1913.81 726.56
  Q 1918.78 721.57 1914.11 716.38
  Q 1912.17 714.22 1910.25 713.25
  Q 1899.69 707.92 1887.29 708.00"
/>
<path stroke="#c6b8a2" vector-effect="non-scaling-stroke" d="
  M 1887.29 708.00
  Q 1887.23 701.02 1887.24 694.03
  Q 1887.25 691.00 1888.20 689.15
  Q 1889.39 686.85 1891.38 685.15"
/>
<path stroke="#e5c2c4" vector-effect="non-scaling-stroke" d="
  M 1891.38 685.15
  L 1930.21 685.25
  A 0.57 0.56 81.9 0 0 1930.75 684.52
  L 1886.90 530.48
  Q 1886.55 529.28 1886.25 530.49
  L 1848.16 683.40
  A 1.09 1.08 -82.6 0 0 1849.19 684.75
  L 1881.21 685.25"
/>
<path stroke="#ac7b67" vector-effect="non-scaling-stroke" d="
  M 1891.38 685.15
  L 1904.47 664.55
  A 0.71 0.68 -53.2 0 0 1904.36 663.67
  Q 1902.41 661.93 1900.49 661.37
  A 0.73 0.69 -64.1 0 0 1899.71 661.67
  L 1887.83 679.35
  Q 1887.25 680.21 1887.25 679.18
  L 1887.25 653.47
  A 2.73 2.64 -29.1 0 1 1887.70 651.99
  L 1904.50 626.49
  A 0.84 0.78 33.1 0 0 1904.22 625.37
  L 1901.25 623.46
  A 1.34 1.26 33.2 0 0 1899.45 623.78
  L 1887.88 641.21
  Q 1887.25 642.16 1887.25 641.02
  L 1887.25 608.66
  A 0.66 0.66 -0.0 0 0 1886.59 608.00
  L 1882.06 608.00
  A 0.56 0.56 0.0 0 0 1881.50 608.56
  L 1881.50 650.90
  Q 1881.50 652.41 1880.45 651.32
  L 1869.60 640.11
  A 0.67 0.65 52.9 0 0 1868.80 639.99
  Q 1866.79 641.13 1865.52 643.07
  A 0.64 0.64 -49.5 0 0 1865.58 643.86
  Q 1872.57 651.43 1879.62 658.92
  Q 1881.08 660.46 1881.29 662.19
  Q 1881.50 663.80 1881.50 666.00
  Q 1881.52 679.45 1881.21 685.25"
/>
<path stroke="#b7a993" vector-effect="non-scaling-stroke" d="
  M 1887.29 708.00
  L 1887.25 721.05
  A 0.95 0.95 0.0 0 1 1886.30 722.00
  L 1882.19 722.00
  A 0.69 0.69 0.0 0 1 1881.50 721.31
  L 1881.46 708.25"
/>
<path stroke="#666c5b" vector-effect="non-scaling-stroke" d="
  M 494.04 511.00
  L 494.00 519.40
  A 1.04 0.88 -88.7 0 1 493.07 520.45
  L 488.51 520.20
  A 0.61 0.54 -88.5 0 1 488.00 519.59
  L 488.02 511.10"
/>
<path stroke="#b7a993" vector-effect="non-scaling-stroke" d="
  M 1733.71 548.75
  L 1733.75 561.06
  A 0.94 0.94 0.0 0 1 1732.81 562.00
  L 1728.70 562.00
  A 0.52 0.52 0.0 0 1 1728.18 561.48
  L 1728.31 547.92"
/>
<path stroke="#74724e" vector-effect="non-scaling-stroke" d="
  M 2056.66 612.42
  L 2071.73 588.17
  A 0.89 0.79 -46.2 0 0 2071.76 587.31
  Q 2070.50 585.14 2068.05 584.44
  A 0.71 0.70 25.3 0 0 2067.26 584.72
  L 2056.12 601.70
  Q 2055.03 603.37 2055.00 601.41
  L 2054.75 577.70
  A 4.97 4.26 -32.4 0 1 2055.55 575.08
  L 2071.98 549.93
  A 0.75 0.72 -47.7 0 0 2071.96 549.09
  Q 2070.52 547.14 2068.23 546.39
  A 0.73 0.70 -62.2 0 0 2067.45 546.65
  Q 2061.41 554.57 2056.25 563.51
  Q 2055.05 565.58 2055.03 563.19
  L 2054.69 532.06
  A 0.78 0.74 -80.5 0 0 2054.22 531.36
  Q 2051.64 530.32 2049.25 531.56
  A 0.86 0.82 76.9 0 0 2048.81 532.31
  L 2048.82 573.49
  Q 2048.82 575.36 2047.51 574.01
  L 2037.26 563.38
  A 1.03 1.02 45.8 0 0 2035.81 563.35
  L 2032.97 566.15
  A 0.86 0.83 46.5 0 0 2032.96 567.32
  Q 2039.96 574.91 2046.94 582.06
  Q 2048.99 584.17 2048.83 586.62
  Q 2048.75 587.79 2048.75 587.89
  Q 2048.74 600.17 2048.75 612.46"
/>
<path stroke="#74724e" vector-effect="non-scaling-stroke" d="
  M 366.75 632.71
  L 382.44 608.69
  Q 383.01 607.82 381.31 605.94
  Q 380.25 604.76 378.80 604.41
  A 0.75 0.71 -66.0 0 0 378.02 604.73
  L 367.01 621.58
  Q 365.80 623.42 365.77 621.25
  L 365.49 598.22
  Q 365.47 596.45 366.55 594.80
  L 382.83 569.97
  A 1.10 1.07 33.0 0 0 382.49 568.47
  L 379.55 566.56
  A 1.36 1.31 32.9 0 0 377.70 566.92
  L 366.56 584.14
  Q 365.77 585.36 365.75 583.92
  L 365.50 551.79
  A 0.52 0.50 89.5 0 0 364.99 551.27
  L 360.52 551.29
  A 0.83 0.78 90.0 0 0 359.74 552.12
  L 359.45 594.43
  Q 359.45 594.99 359.07 594.59
  L 349.03 584.02
  A 1.95 1.80 51.7 0 0 346.68 583.65
  Q 344.33 585.14 343.53 586.50
  A 0.72 0.63 39.4 0 0 343.66 587.30
  Q 350.89 594.81 357.96 602.48
  Q 359.34 603.98 359.54 605.59
  Q 359.71 607.04 359.75 609.25
  Q 359.95 621.01 359.46 632.75"
/>
<path stroke="#b7a993" vector-effect="non-scaling-stroke" d="
  M 2054.71 632.50
  Q 2054.20 638.40 2054.71 644.64
  A 0.56 0.56 87.6 0 1 2054.15 645.25
  L 2049.51 645.25
  A 0.52 0.51 -90.0 0 1 2049.00 644.73
  L 2048.94 633.88"
/>
<path stroke="#666c5b" vector-effect="non-scaling-stroke" d="
  M 365.79 650.75
  L 365.66 664.44
  A 0.78 0.67 82.0 0 1 365.22 665.13
  Q 362.72 666.07 360.16 665.23
  A 0.71 0.69 9.3 0 1 359.67 664.57
  L 359.46 650.25"
/>
<path stroke="#818998" vector-effect="non-scaling-stroke" d="
  M 929.2232 654.7409
  A 0.52 0.52 0.0 0 0 928.7023 654.2218
  L 896.3223 654.2783
  A 0.52 0.52 0.0 0 0 895.8032 654.7992
  L 895.8568 685.4991
  A 0.52 0.52 0.0 0 0 896.3777 686.0182
  L 928.7577 685.9617
  A 0.52 0.52 0.0 0 0 929.2768 685.4408
  L 929.2232 654.7409"
/>
<path stroke="#818998" vector-effect="non-scaling-stroke" d="
  M 985.76 654.69
  A 0.44 0.44 0.0 0 0 985.32 654.25
  L 952.94 654.25
  A 0.44 0.44 0.0 0 0 952.50 654.69
  L 952.50 685.55
  A 0.44 0.44 0.0 0 0 952.94 685.99
  L 985.32 685.99
  A 0.44 0.44 0.0 0 0 985.76 685.55
  L 985.76 654.69"
/>
<path stroke="#818998" vector-effect="non-scaling-stroke" d="
  M 929.25 713.06
  A 0.31 0.31 0.0 0 0 928.94 712.75
  L 896.06 712.75
  A 0.31 0.31 0.0 0 0 895.75 713.06
  L 895.75 743.94
  A 0.31 0.31 0.0 0 0 896.06 744.25
  L 928.94 744.25
  A 0.31 0.31 0.0 0 0 929.25 743.94
  L 929.25 713.06"
/>
</g>
<path fill="#72a276" d="
  M 1057.79 162.75
  L 1079.82 260.84
  A 0.76 0.75 -6.0 0 1 1079.07 261.76
  L 1027.79 261.50
  Q 1027.21 259.13 1027.53 256.81
  Q 1027.79 254.98 1029.33 252.63
  Q 1038.27 239.01 1047.38 225.14
  A 0.52 0.50 -57.3 0 0 1047.24 224.42
  L 1042.74 221.62
  A 0.75 0.71 -56.8 0 0 1041.74 221.86
  L 1028.43 241.95
  Q 1027.50 243.35 1027.50 241.66
  L 1027.50 213.29
  A 4.88 4.58 -29.8 0 1 1028.30 210.68
  L 1047.23 181.92
  A 0.57 0.50 -56.2 0 0 1047.13 181.17
  L 1042.80 178.18
  A 0.87 0.77 -56.0 0 0 1041.66 178.47
  L 1028.42 198.66
  Q 1027.50 200.05 1027.50 198.38
  L 1027.50 161.63
  A 0.88 0.88 -0.1 0 0 1026.62 160.75
  L 1021.95 160.75
  A 1.21 1.19 90.0 0 0 1020.76 161.96
  L 1020.73 210.52
  Q 1020.73 211.42 1020.12 210.77
  L 1007.33 197.12
  A 0.53 0.48 47.0 0 0 1006.62 197.06
  L 1002.52 200.86
  A 0.54 0.52 46.9 0 0 1002.51 201.62
  L 1019.71 219.82
  A 3.82 3.70 24.0 0 1 1020.75 222.40
  L 1020.71 261.50
  L 975.17 261.00
  A 0.99 0.97 -84.3 0 1 974.23 259.83
  L 979.46 233.00
  Q 980.18 231.41 980.94 227.69
  Q 1002.49 121.32 1023.89 15.18
  Q 1024.21 13.60 1024.56 15.17
  L 1057.79 162.75
  Z"
/>
<path fill="#ffffff" d="
  M 1264.21 69.00
  L 1252.40 69.36
  L 1252.56 57.32
  A 0.53 0.50 -90.0 0 1 1253.06 56.79
  L 1263.57 56.91
  A 0.52 0.52 89.9 0 1 1264.09 57.43
  L 1264.21 69.00
  Z"
/>
<path fill="#89523d" d="
  M 1252.40 69.36
  L 1264.21 69.00
  L 1264.25 76.23
  A 0.97 0.96 15.3 0 0 1264.73 77.06
  L 1281.63 86.73
  Q 1283.69 87.90 1281.31 87.83
  Q 1277.22 87.70 1273.75 87.74
  Q 1272.12 87.75 1272.51 88.49
  Q 1237.25 86.69 1202.03 87.73
  Q 1198.65 87.28 1197.00 87.50
  Q 1191.83 88.18 1195.31 86.10
  Q 1215.28 74.17 1236.11 61.74
  A 1.96 1.96 -44.1 0 1 1238.17 61.77
  Q 1244.76 65.99 1252.40 69.36
  Z"
/>
<path fill="#323244" d="
  M 1201.82 104.43
  Q 1205.76 108.37 1210.46 111.50
  Q 1211.73 113.32 1213.75 114.29
  L 1242.25 137.86
  Q 1252.92 147.28 1264.53 156.04
  Q 1267.93 159.88 1272.34 162.66
  L 1388.75 258.79
  L 1366.65 350.91
  A 0.70 0.69 7.0 0 0 1367.32 351.76
  L 1401.18 351.90
  Q 1401.57 352.67 1401.45 353.50
  Q 1401.25 354.92 1401.25 355.03
  Q 1401.28 364.89 1401.21 374.75
  Q 1394.49 375.93 1387.75 377.00
  Q 1382.02 377.91 1376.17 381.81
  Q 1371.91 384.65 1370.70 387.48
  Q 1368.77 391.98 1373.31 396.20
  Q 1375.44 398.18 1378.07 399.43
  Q 1384.17 402.33 1390.70 403.62
  Q 1396.68 404.80 1403.84 404.96
  Q 1417.81 405.28 1430.92 399.89
  Q 1435.90 397.85 1438.82 393.36
  Q 1440.91 390.15 1439.25 387.25
  Q 1436.47 382.40 1430.55 379.89
  Q 1420.71 375.72 1410.00 375.50
  Q 1408.84 375.47 1407.99 374.82
  A 0.34 0.33 -55.5 0 0 1407.50 374.92
  L 1407.29 375.25
  Q 1406.95 361.55 1407.50 357.25
  Q 1407.75 355.25 1410.64 351.90
  L 1446.94 351.94
  A 0.38 0.38 81.9 0 0 1447.30 351.45
  Q 1439.30 323.48 1431.62 295.42
  Q 1431.52 295.07 1431.86 294.41
  L 1653.00 476.79
  L 1349.96 747.75
  Q 1348.84 747.63 1348.11 746.87
  Q 1347.20 745.91 1347.14 745.86
  Q 1279.56 689.93 1212.13 633.82
  A 0.65 0.64 -42.5 0 0 1211.34 633.79
  L 1132.22 689.65
  A 0.56 0.56 -38.5 0 1 1131.48 689.57
  Q 1075.51 627.50 1019.82 565.17
  Q 929.98 464.64 840.06 364.19
  Q 837.77 361.62 837.00 360.29
  L 979.46 233.00
  L 974.23 259.83
  A 0.99 0.97 -84.3 0 0 975.17 261.00
  L 1020.71 261.50
  L 1020.71 283.50
  Q 1010.28 283.28 1000.37 286.46
  Q 994.21 288.44 990.06 292.06
  Q 985.26 296.25 987.28 300.87
  Q 988.58 303.85 992.88 306.49
  Q 1000.54 311.20 1011.00 312.50
  Q 1027.54 314.55 1041.03 310.86
  Q 1048.76 308.75 1052.44 305.44
  Q 1061.38 297.38 1051.69 290.81
  Q 1041.39 283.83 1027.55 284.09
  L 1027.79 261.50
  L 1079.07 261.76
  A 0.76 0.75 -6.0 0 0 1079.82 260.84
  L 1057.79 162.75
  L 1160.28 71.32
  A 0.88 0.87 43.9 0 1 1161.42 71.30
  L 1201.82 104.43
  Z"
/>
<path fill="#c06e52" d="
  M 1272.51 88.49
  L 1272.34 162.66
  Q 1267.93 159.88 1264.53 156.04
  Q 1265.47 142.45 1264.84 128.94
  A 0.55 0.53 88.3 0 0 1264.31 128.42
  L 1243.25 128.48
  A 0.54 0.52 -88.9 0 0 1242.73 129.00
  L 1242.25 137.86
  L 1213.75 114.29
  L 1229.95 114.25
  A 0.55 0.55 -89.9 0 0 1230.50 113.70
  L 1230.56 95.83
  A 0.82 0.82 -89.7 0 0 1229.74 95.00
  L 1211.55 95.00
  A 0.87 0.83 -89.3 0 0 1210.72 95.85
  L 1210.46 111.50
  Q 1205.76 108.37 1201.82 104.43
  L 1202.03 87.73
  Q 1237.25 86.69 1272.51 88.49
  Z
  M 1263.7342 95.5526
  A 0.56 0.56 0.0 0 0 1263.1732 94.9935
  L 1244.2932 95.0265
  A 0.56 0.56 0.0 0 0 1243.7342 95.5875
  L 1243.7658 113.7074
  A 0.56 0.56 0.0 0 0 1244.3268 114.2665
  L 1263.2068 114.2335
  A 0.56 0.56 0.0 0 0 1263.7658 113.6725
  L 1263.7342 95.5526
  Z"
/>
<path fill="#cfdfeb" d="
  M 1213.75 114.29
  Q 1211.73 113.32 1210.46 111.50
  L 1210.72 95.85
  A 0.87 0.83 -89.3 0 1 1211.55 95.00
  L 1229.74 95.00
  A 0.82 0.82 -89.7 0 1 1230.56 95.83
  L 1230.50 113.70
  A 0.55 0.55 -89.8 0 1 1229.95 114.25
  L 1213.75 114.29
  Z"
/>
<rect fill="#cfdfeb" x="-10.00" y="-9.62" transform="translate(1253.75,104.63) rotate(-0.1)" width="20.00" height="19.24" rx="0.56"/>
<path fill="#89523d" d="
  M 1264.53 156.04
  Q 1252.92 147.28 1242.25 137.86
  L 1242.73 129.00
  A 0.54 0.52 -88.9 0 1 1243.25 128.48
  L 1264.31 128.42
  A 0.55 0.53 88.3 0 1 1264.84 128.94
  Q 1265.47 142.45 1264.53 156.04
  Z"
/>
<path fill="#91a1ba" d="
  M 194.20 275.06
  L 138.00 255.54
  L 51.55 225.18
  Q 50.97 224.98 51.52 224.71
  L 193.34 155.49
  A 0.63 0.63 -12.9 0 1 194.25 156.06
  L 194.20 275.06
  Z"
/>
<path fill="#323244" d="
  M 2338.21 277.75
  Q 2314.58 269.28 2290.81 261.19
  Q 2288.52 260.41 2287.83 260.44
  L 2196.55 228.18
  Q 2194.41 227.43 2196.44 226.44
  L 2337.66 157.29
  A 0.41 0.41 -12.8 0 1 2338.25 157.66
  L 2338.21 277.75
  Z"
/>
<path fill="#8c7044" d="
  M 1027.79 261.50
  L 1027.55 284.09
  L 1027.45 290.19
  A 0.53 0.52 -89.4 0 1 1026.93 290.71
  L 1021.56 290.72
  A 0.57 0.56 -1.6 0 1 1020.99 290.19
  L 1020.71 283.50
  L 1020.71 261.50
  L 1020.75 222.40
  A 3.82 3.70 24.0 0 0 1019.71 219.82
  L 1002.51 201.62
  A 0.54 0.52 46.9 0 1 1002.52 200.86
  L 1006.62 197.06
  A 0.53 0.48 47.0 0 1 1007.33 197.12
  L 1020.12 210.77
  Q 1020.73 211.42 1020.73 210.52
  L 1020.76 161.96
  A 1.21 1.19 90.0 0 1 1021.95 160.75
  L 1026.62 160.75
  A 0.88 0.88 -0.1 0 1 1027.50 161.63
  L 1027.50 198.38
  Q 1027.50 200.05 1028.42 198.66
  L 1041.66 178.47
  A 0.87 0.77 -56.0 0 1 1042.80 178.18
  L 1047.13 181.17
  A 0.57 0.50 -56.2 0 1 1047.23 181.92
  L 1028.30 210.68
  A 4.88 4.58 -29.8 0 0 1027.50 213.29
  L 1027.50 241.66
  Q 1027.50 243.35 1028.43 241.95
  L 1041.74 221.86
  A 0.75 0.71 -56.8 0 1 1042.74 221.62
  L 1047.24 224.42
  A 0.52 0.50 -57.3 0 1 1047.38 225.14
  Q 1038.27 239.01 1029.33 252.63
  Q 1027.79 254.98 1027.53 256.81
  Q 1027.21 259.13 1027.79 261.50
  Z"
/>
<path fill="#d0d0d0" d="
  M 1431.86 294.41
  Q 1431.52 295.07 1431.62 295.42
  Q 1439.30 323.48 1447.30 351.45
  A 0.38 0.38 81.9 0 1 1446.94 351.94
  L 1410.64 351.90
  L 1424.47 330.17
  A 0.54 0.50 -56.9 0 0 1424.35 329.45
  L 1420.69 327.00
  A 0.53 0.52 -56.8 0 0 1419.97 327.16
  L 1407.87 345.30
  Q 1407.25 346.22 1407.25 345.12
  L 1407.25 319.37
  A 3.40 3.25 -29.5 0 1 1407.80 317.55
  L 1424.28 292.34
  A 1.12 1.03 32.1 0 0 1423.87 290.85
  L 1420.58 288.85
  A 0.54 0.49 31.9 0 0 1419.87 288.98
  L 1407.94 307.18
  Q 1407.19 308.34 1407.19 306.95
  L 1407.25 274.29
  A 0.52 0.50 89.5 0 0 1406.74 273.77
  L 1402.06 273.79
  A 0.52 0.50 90.0 0 0 1401.56 274.31
  L 1401.43 316.90
  Q 1401.43 318.39 1400.41 317.30
  L 1389.75 305.86
  A 0.86 0.79 47.2 0 0 1388.59 305.77
  L 1385.66 308.49
  A 0.92 0.85 46.8 0 0 1385.67 309.74
  L 1400.40 325.28
  A 4.12 3.50 27.1 0 1 1401.51 327.95
  L 1401.18 351.90
  L 1367.32 351.76
  A 0.70 0.69 7.0 0 1 1366.65 350.91
  L 1388.75 258.79
  Q 1389.27 258.06 1389.81 255.81
  Q 1396.40 228.41 1403.37 199.47
  Q 1403.78 197.76 1404.26 199.45
  Q 1417.14 245.02 1430.18 291.77
  Q 1430.64 293.40 1431.86 294.41
  Z"
/>
<path fill="#50808e" d="
  M 739.54 252.00
  L 707.49 270.35
  Q 705.81 271.32 707.69 271.31
  L 719.00 271.29
  L 719.25 385.83
  A 0.91 0.89 89.7 0 0 720.15 386.74
  L 781.71 386.50
  Q 796.21 387.16 810.72 386.46
  L 819.35 386.74
  A 0.68 0.63 -89.2 0 0 820.01 386.05
  Q 819.70 364.04 820.40 342.56
  L 837.00 360.29
  Q 837.77 361.62 840.06 364.19
  Q 929.98 464.64 1019.82 565.17
  Q 1075.51 627.50 1131.48 689.57
  A 0.56 0.56 -38.5 0 0 1132.22 689.65
  L 1211.34 633.79
  A 0.65 0.64 -42.5 0 1 1212.13 633.82
  Q 1279.56 689.93 1347.14 745.86
  Q 1347.20 745.91 1348.11 746.87
  Q 1348.84 747.63 1349.96 747.75
  Q 1349.91 748.43 1350.41 748.85
  Q 1412.10 799.71 1473.45 850.99
  L 27.69 851.00
  L 27.20 850.73
  A 0.32 0.31 41.1 0 1 27.16 850.20
  Q 28.89 848.93 30.48 847.48
  Q 102.87 781.37 175.31 715.31
  Q 177.06 713.72 177.46 712.00
  Q 177.39 712.47 177.57 712.65
  A 0.73 0.40 -42.8 0 0 178.36 712.45
  L 194.28 698.01
  L 334.75 569.96
  Q 335.48 571.49 334.92 573.04
  Q 334.38 574.53 334.35 574.65
  Q 327.21 603.11 320.02 631.73
  A 0.82 0.82 -82.8 0 0 320.81 632.75
  L 359.46 632.75
  Q 360.18 641.50 359.46 650.25
  Q 352.53 650.58 345.75 651.99
  Q 338.15 653.56 334.06 656.56
  Q 326.30 662.25 330.85 667.96
  Q 333.13 670.82 337.98 672.94
  Q 341.91 674.65 346.44 675.56
  Q 364.17 679.12 380.89 673.55
  Q 387.25 671.44 390.19 667.44
  Q 392.42 664.40 390.66 661.05
  Q 389.22 658.29 387.06 656.94
  Q 377.56 650.97 365.79 650.75
  Q 365.32 644.46 365.47 638.15
  Q 365.48 638.06 365.38 636.35
  Q 365.27 634.25 366.75 632.71
  L 406.94 632.99
  A 0.78 0.77 82.0 0 0 407.68 632.00
  L 378.21 530.25
  L 448.50 466.46
  Q 448.74 467.00 449.20 467.20
  A 0.57 0.49 19.0 0 1 449.55 467.80
  L 442.85 494.94
  A 0.45 0.45 7.0 0 0 443.29 495.50
  L 488.21 495.50
  L 488.02 511.10
  Q 477.01 511.79 467.36 516.62
  Q 462.87 518.87 460.92 521.40
  Q 457.51 525.84 460.87 530.39
  Q 462.86 533.09 466.90 535.22
  Q 470.24 536.97 474.19 538.06
  Q 494.33 543.60 514.06 538.06
  Q 521.06 536.10 525.74 532.07
  Q 528.17 529.97 528.84 527.74
  Q 529.74 524.74 527.94 522.06
  Q 525.24 518.05 519.16 515.62
  Q 507.08 510.80 494.04 511.00
  L 494.04 495.50
  L 546.55 495.50
  A 0.64 0.64 -7.6 0 0 547.17 494.69
  Q 534.42 448.00 521.57 401.00
  Q 521.55 400.93 521.35 400.53
  Q 521.16 400.15 521.50 399.79
  L 713.93 224.41
  A 0.52 0.49 -41.8 0 1 714.65 224.43
  L 739.54 252.00
  Z
  M 638.71 524.25
  L 638.71 542.75
  Q 628.11 542.64 618.37 546.70
  Q 615.84 547.75 613.64 549.38
  Q 609.18 552.69 610.41 556.81
  Q 611.27 559.72 614.85 562.15
  Q 618.25 564.45 622.56 565.69
  Q 641.08 570.99 659.05 565.40
  Q 665.66 563.34 668.56 559.56
  Q 671.57 555.64 669.19 552.06
  Q 666.26 547.67 659.43 545.58
  Q 652.23 543.37 644.78 542.38
  L 645.04 524.00
  L 687.76 524.24
  A 0.76 0.75 81.9 0 0 688.48 523.27
  L 643.88 368.59
  Q 643.27 366.45 642.72 368.61
  L 603.79 523.02
  A 0.59 0.59 -82.6 0 0 604.35 523.75
  L 638.71 524.25
  Z
  M 968.44 608.48
  Q 968.91 611.83 966.69 610.56
  Q 955.23 604.04 942.84 596.88
  A 1.20 1.19 45.2 0 0 941.66 596.87
  L 869.61 637.04
  Q 868.81 637.48 869.74 637.50
  L 885.00 637.79
  L 885.00 768.75
  A 0.50 0.50 0.0 0 0 885.50 769.25
  L 954.25 769.21
  L 985.75 769.21
  L 997.75 769.25
  A 0.50 0.50 0.0 0 0 998.25 768.75
  L 998.29 638.50
  L 1011.81 638.27
  Q 1014.65 638.23 1012.22 636.83
  L 986.43 622.00
  A 0.93 0.84 15.8 0 1 985.97 621.26
  L 985.71 608.50
  L 985.75 586.50
  A 0.50 0.50 0.0 0 0 985.25 586.00
  L 968.91 586.00
  A 0.66 0.64 0.0 0 0 968.25 586.64
  L 968.44 608.48
  Z"
/>
<path fill="#ffffff" d="
  M 809.21 245.00
  L 793.29 245.00
  L 793.42 227.43
  A 0.52 0.52 0.1 0 1 793.94 226.91
  L 808.56 226.91
  A 0.52 0.52 -0.1 0 1 809.08 227.43
  L 809.21 245.00
  Z"
/>
<path fill="#89523d" d="
  M 793.29 245.00
  L 809.21 245.00
  L 809.24 256.40
  A 1.49 1.48 -75.5 0 0 809.98 257.67
  L 832.60 270.76
  Q 834.32 271.76 832.36 271.72
  L 820.14 271.49
  L 719.00 271.29
  L 707.69 271.31
  Q 705.81 271.32 707.49 270.35
  L 739.54 252.00
  L 769.17 235.25
  A 1.68 1.64 -44.6 0 1 770.81 235.24
  L 792.32 247.51
  A 0.51 0.48 28.3 0 0 793.01 247.32
  Q 793.54 246.30 793.29 245.00
  Z"
/>
<path fill="#323244" d="
  M 138.00 255.54
  L 194.20 275.06
  L 194.23 348.04
  Q 186.58 345.81 179.70 343.02
  Q 178.65 342.60 177.51 342.73
  L 52.28 298.85
  Q 50.99 298.40 52.22 297.80
  Q 93.97 277.32 135.56 257.06
  Q 137.43 256.15 138.00 255.54
  Z"
/>
<path fill="#91a1ba" d="
  M 2338.21 277.75
  L 2338.10 355.79
  L 2323.31 350.65
  L 2196.04 306.27
  Q 2194.98 305.90 2195.99 305.41
  L 2287.83 260.44
  Q 2288.52 260.41 2290.81 261.19
  Q 2314.58 269.28 2338.21 277.75
  Z"
/>
<path fill="#91a1ba" d="
  M 719.00 271.29
  L 820.14 271.49
  Q 819.89 305.32 820.00 338.50
  Q 820.01 341.47 820.40 342.56
  Q 819.70 364.04 820.01 386.05
  A 0.68 0.63 -89.2 0 1 819.35 386.74
  L 810.72 386.46
  L 810.69 334.82
  A 0.51 0.49 -90.0 0 0 810.20 334.31
  L 782.26 334.25
  A 0.52 0.51 90.0 0 0 781.75 334.77
  L 781.71 386.50
  L 720.15 386.74
  A 0.91 0.89 89.7 0 1 719.25 385.83
  L 719.00 271.29
  Z
  M 755.75 283.76
  A 0.26 0.26 0.0 0 0 755.49 283.50
  L 729.51 283.50
  A 0.26 0.26 0.0 0 0 729.25 283.76
  L 729.25 309.74
  A 0.26 0.26 0.0 0 0 729.51 310.00
  L 755.49 310.00
  A 0.26 0.26 0.0 0 0 755.75 309.74
  L 755.75 283.76
  Z
  M 810.0448 283.9265
  A 0.38 0.38 0.0 0 0 809.6662 283.5452
  L 783.8263 283.4550
  A 0.38 0.38 0.0 0 0 783.4450 283.8337
  L 783.3552 309.5735
  A 0.38 0.38 0.0 0 0 783.7338 309.9548
  L 809.5737 310.0450
  A 0.38 0.38 0.0 0 0 809.9550 309.6663
  L 810.0448 283.9265
  Z
  M 755.75 334.52
  A 0.27 0.27 0.0 0 0 755.48 334.25
  L 729.52 334.25
  A 0.27 0.27 0.0 0 0 729.25 334.52
  L 729.25 360.50
  A 0.27 0.27 0.0 0 0 729.52 360.77
  L 755.48 360.77
  A 0.27 0.27 0.0 0 0 755.75 360.50
  L 755.75 334.52
  Z"
/>
<path fill="#8c7044" d="
  M 1410.64 351.90
  Q 1407.75 355.25 1407.50 357.25
  Q 1406.95 361.55 1407.29 375.25
  L 1407.25 387.01
  A 0.88 0.77 -89.7 0 1 1406.47 387.89
  L 1402.04 387.81
  A 0.64 0.52 89.9 0 1 1401.53 387.18
  L 1401.21 374.75
  Q 1401.28 364.89 1401.25 355.03
  Q 1401.25 354.92 1401.45 353.50
  Q 1401.57 352.67 1401.18 351.90
  L 1401.51 327.95
  A 4.12 3.50 27.1 0 0 1400.40 325.28
  L 1385.67 309.74
  A 0.92 0.85 46.8 0 1 1385.66 308.49
  L 1388.59 305.77
  A 0.86 0.79 47.2 0 1 1389.75 305.86
  L 1400.41 317.30
  Q 1401.43 318.39 1401.43 316.90
  L 1401.56 274.31
  A 0.52 0.50 -90.0 0 1 1402.06 273.79
  L 1406.74 273.77
  A 0.52 0.50 89.5 0 1 1407.25 274.29
  L 1407.19 306.95
  Q 1407.19 308.34 1407.94 307.18
  L 1419.87 288.98
  A 0.54 0.49 31.9 0 1 1420.58 288.85
  L 1423.87 290.85
  A 1.12 1.03 32.1 0 1 1424.28 292.34
  L 1407.80 317.55
  A 3.40 3.25 -29.5 0 0 1407.25 319.37
  L 1407.25 345.12
  Q 1407.25 346.22 1407.87 345.30
  L 1419.97 327.16
  A 0.53 0.52 -56.8 0 1 1420.69 327.00
  L 1424.35 329.45
  A 0.54 0.50 -56.9 0 1 1424.47 330.17
  L 1410.64 351.90
  Z"
/>
<rect fill="#cfdfeb" x="729.25" y="283.50" width="26.50" height="26.50" rx="0.26"/>
<rect fill="#cfdfeb" x="-13.30" y="-13.25" transform="translate(796.70,296.75) rotate(0.2)" width="26.60" height="26.50" rx="0.38"/>
<path fill="#2b2b3b" d="
  M 1020.71 283.50
  L 1020.99 290.19
  A 0.57 0.56 -1.6 0 0 1021.56 290.72
  L 1026.93 290.71
  A 0.53 0.52 -89.4 0 0 1027.45 290.19
  L 1027.55 284.09
  Q 1041.39 283.83 1051.69 290.81
  Q 1061.38 297.38 1052.44 305.44
  Q 1048.76 308.75 1041.03 310.86
  Q 1027.54 314.55 1011.00 312.50
  Q 1000.54 311.20 992.88 306.49
  Q 988.58 303.85 987.28 300.87
  Q 985.26 296.25 990.06 292.06
  Q 994.21 288.44 1000.37 286.46
  Q 1010.28 283.28 1020.71 283.50
  Z"
/>
<path fill="#72a276" d="
  M 521.50 399.79
  Q 521.16 400.15 521.35 400.53
  Q 521.55 400.93 521.57 401.00
  Q 534.42 448.00 547.17 494.69
  A 0.64 0.64 -7.6 0 1 546.55 495.50
  L 494.04 495.50
  Q 492.71 490.34 496.06 485.81
  Q 500.09 480.37 510.99 462.92
  A 0.72 0.66 -50.2 0 0 510.95 462.10
  Q 509.85 460.81 507.37 459.78
  A 1.04 1.04 27.8 0 0 506.11 460.17
  L 494.52 477.60
  Q 494.12 478.21 494.08 477.48
  Q 493.44 463.66 493.98 451.51
  A 1.92 1.86 -28.5 0 1 494.27 450.58
  L 511.17 424.60
  A 0.57 0.48 -57.3 0 0 511.07 423.86
  L 507.33 421.56
  A 0.88 0.78 -57.5 0 0 506.21 421.88
  L 494.87 439.11
  Q 493.75 440.80 493.75 438.77
  L 493.69 407.06
  A 0.64 0.62 -83.8 0 0 493.21 406.44
  Q 490.98 405.94 488.74 406.39
  A 0.64 0.61 84.5 0 0 488.25 407.01
  L 488.00 449.77
  Q 488.00 450.51 487.48 449.98
  L 476.56 438.65
  A 1.06 1.06 50.4 0 0 475.19 438.52
  Q 472.95 440.10 472.20 441.55
  A 0.76 0.69 38.2 0 0 472.34 442.37
  L 487.02 457.95
  Q 488.25 459.26 488.25 461.05
  L 488.21 495.50
  L 443.29 495.50
  A 0.45 0.45 7.0 0 1 442.85 494.94
  L 449.55 467.80
  A 0.57 0.49 19.0 0 0 449.20 467.20
  Q 448.74 467.00 448.50 466.46
  Q 450.12 465.11 450.56 463.31
  Q 471.30 379.76 492.04 295.77
  Q 492.44 294.15 492.88 295.76
  Q 506.51 345.95 520.44 396.81
  Q 520.99 398.84 521.50 399.79
  Z"
/>
<path fill="#72a276" d="
  M 1745.75 394.29
  Q 1745.11 394.85 1745.25 395.50
  Q 1760.29 464.62 1775.32 534.09
  A 1.11 1.11 83.6 0 1 1774.25 535.44
  L 1733.79 535.75
  Q 1733.34 531.82 1734.31 530.31
  Q 1742.54 517.57 1750.95 504.92
  A 1.15 1.00 -57.3 0 0 1750.73 503.39
  L 1747.52 501.37
  A 1.16 1.00 -57.3 0 0 1746.07 501.80
  L 1734.87 518.94
  Q 1734.02 520.25 1733.98 518.69
  Q 1733.73 508.22 1733.75 497.00
  Q 1733.75 496.88 1733.68 495.51
  Q 1733.56 492.93 1735.02 490.78
  Q 1743.03 478.99 1751.00 466.60
  A 0.85 0.82 -55.4 0 0 1750.81 465.46
  L 1747.62 463.18
  A 0.84 0.82 -55.7 0 0 1746.45 463.42
  L 1734.67 481.17
  Q 1734.06 482.08 1734.03 480.99
  Q 1733.59 465.53 1733.74 451.01
  Q 1733.74 450.90 1733.87 449.51
  Q 1734.06 447.37 1731.98 447.86
  Q 1731.50 447.98 1731.00 447.92
  Q 1729.66 447.76 1728.50 448.32
  A 0.84 0.75 78.0 0 0 1728.07 449.07
  Q 1728.53 470.32 1727.82 491.35
  Q 1727.79 492.20 1727.20 491.57
  L 1716.36 480.11
  A 0.68 0.54 48.4 0 0 1715.56 479.97
  L 1712.60 482.25
  A 1.59 1.40 49.2 0 0 1712.58 484.46
  L 1727.60 500.44
  A 1.44 1.27 -71.5 0 1 1727.97 501.32
  Q 1728.47 508.25 1728.25 515.18
  Q 1728.05 521.70 1728.12 525.33
  Q 1728.21 530.41 1728.21 535.50
  Q 1708.85 536.11 1687.59 535.44
  Q 1685.58 535.38 1685.96 533.40
  L 1706.00 429.46
  Q 1716.52 374.88 1727.06 320.31
  Q 1727.44 318.34 1727.50 317.58
  Q 1727.53 317.14 1727.59 316.93
  Q 1728.08 315.41 1728.48 317.25
  Q 1736.65 355.40 1744.98 393.50
  Q 1745.13 394.16 1745.75 394.29
  Z"
/>
<rect fill="#cfdfeb" x="729.25" y="334.25" width="26.50" height="26.52" rx="0.27"/>
<path fill="#89523d" d="
  M 810.72 386.46
  Q 796.21 387.16 781.71 386.50
  L 781.75 334.77
  A 0.52 0.51 90.0 0 1 782.26 334.25
  L 810.20 334.31
  A 0.51 0.49 90.0 0 1 810.69 334.82
  L 810.72 386.46
  Z"
/>
<path fill="#ffffff" d="
  M 177.51 342.73
  Q 178.65 342.60 179.70 343.02
  Q 186.58 345.81 194.23 348.04
  Q 194.27 520.02 194.17 692.00
  Q 194.17 694.68 194.28 698.01
  L 178.36 712.45
  A 0.73 0.40 -42.8 0 1 177.57 712.65
  Q 177.39 712.47 177.46 712.00
  L 177.51 342.73
  Z"
/>
<path fill="#ffffff" d="
  M 2323.31 350.65
  L 2338.10 355.79
  Q 2337.50 356.77 2337.50 359.25
  Q 2337.50 578.87 2337.50 798.49
  A 1.08 1.06 -70.6 0 0 2337.89 799.32
  Q 2368.20 824.49 2398.72 849.41
  Q 2398.97 849.61 2399.46 849.86
  Q 2400.57 850.42 2399.19 851.00
  L 1473.45 850.99
  Q 1412.10 799.71 1350.41 748.85
  Q 1349.91 748.43 1349.96 747.75
  L 1653.00 476.79
  L 1706.00 429.46
  L 1685.96 533.40
  Q 1685.58 535.38 1687.59 535.44
  Q 1708.85 536.11 1728.21 535.50
  L 1728.31 547.92
  Q 1718.08 549.09 1708.65 552.82
  Q 1702.94 555.08 1700.18 557.97
  Q 1694.70 563.70 1700.60 569.44
  Q 1703.29 572.06 1708.09 574.05
  Q 1712.33 575.80 1716.56 576.69
  Q 1732.73 580.09 1749.24 576.45
  Q 1756.25 574.91 1760.81 572.06
  Q 1770.98 565.73 1765.61 558.89
  Q 1762.80 555.32 1756.28 552.69
  Q 1746.50 548.74 1735.74 548.51
  A 1.59 1.14 57.8 0 1 1734.88 548.16
  Q 1733.78 547.29 1733.71 548.75
  L 1733.79 535.75
  L 1774.25 535.44
  A 1.11 1.11 83.6 0 0 1775.32 534.09
  Q 1760.29 464.62 1745.25 395.50
  Q 1745.11 394.85 1745.75 394.29
  L 1793.59 351.37
  A 0.91 0.90 43.7 0 1 1794.78 351.35
  L 2025.46 541.50
  Q 2025.47 542.20 2024.75 545.25
  Q 2016.97 578.05 2008.93 611.37
  A 0.51 0.51 7.2 0 0 2009.42 612.00
  L 2048.75 612.46
  L 2048.94 633.88
  Q 2039.74 633.73 2030.95 636.61
  Q 2023.93 638.91 2020.75 642.25
  Q 2013.74 649.61 2021.56 655.44
  Q 2026.28 658.95 2032.59 660.75
  Q 2037.48 662.14 2044.49 662.89
  Q 2056.04 664.13 2068.00 661.75
  Q 2074.38 660.48 2079.73 657.65
  Q 2084.71 655.00 2086.44 651.90
  Q 2089.28 646.82 2083.42 641.85
  Q 2079.95 638.91 2075.67 637.36
  Q 2066.26 633.93 2056.25 633.52
  Q 2055.97 633.51 2055.30 633.71
  Q 2054.46 633.95 2054.71 632.50
  Q 2054.35 624.55 2054.71 616.60
  Q 2054.71 616.50 2054.66 614.92
  Q 2054.58 612.69 2056.66 612.42
  L 2094.08 612.50
  A 0.53 0.53 81.5 0 0 2094.59 611.81
  L 2089.45 594.35
  L 2320.21 784.72
  Q 2320.75 785.17 2320.75 784.47
  Q 2320.75 568.40 2320.75 353.55
  Q 2320.75 353.45 2320.66 352.46
  Q 2320.48 350.31 2323.31 350.65
  Z
  M 1881.21 685.25
  L 1881.46 708.25
  Q 1869.86 708.00 1860.16 713.62
  Q 1856.01 716.02 1854.71 718.79
  Q 1852.57 723.31 1857.56 727.19
  Q 1862.14 730.75 1868.07 732.40
  Q 1872.56 733.64 1879.49 734.26
  Q 1891.62 735.35 1903.49 731.95
  Q 1910.43 729.96 1913.81 726.56
  Q 1918.78 721.57 1914.11 716.38
  Q 1912.17 714.22 1910.25 713.25
  Q 1899.69 707.92 1887.29 708.00
  Q 1887.23 701.02 1887.24 694.03
  Q 1887.25 691.00 1888.20 689.15
  Q 1889.39 686.85 1891.38 685.15
  L 1930.21 685.25
  A 0.57 0.56 81.9 0 0 1930.75 684.52
  L 1886.90 530.48
  Q 1886.55 529.28 1886.25 530.49
  L 1848.16 683.40
  A 1.09 1.08 -82.6 0 0 1849.19 684.75
  L 1881.21 685.25
  Z"
/>
<path fill="#cb8589" d="
  M 645.04 524.00
  Q 644.36 522.35 645.35 520.84
  Q 653.64 508.13 662.05 495.27
  A 0.56 0.54 -55.9 0 0 661.92 494.52
  L 658.61 492.22
  A 1.18 1.11 -55.8 0 0 657.01 492.58
  L 645.30 510.32
  Q 644.75 511.16 644.75 510.16
  L 644.75 485.15
  Q 644.75 483.51 645.65 482.15
  L 662.04 457.29
  A 0.60 0.55 -56.9 0 0 661.91 456.49
  L 658.07 453.90
  A 0.59 0.56 -56.5 0 0 657.27 454.09
  L 645.52 472.00
  Q 644.75 473.17 644.75 471.77
  L 644.75 439.57
  A 0.80 0.77 89.6 0 0 643.97 438.77
  L 639.56 438.79
  A 0.53 0.50 90.0 0 0 639.06 439.32
  L 638.82 481.93
  Q 638.81 483.24 637.90 482.28
  L 627.40 471.27
  A 1.29 1.11 46.5 0 0 625.72 471.10
  L 622.90 473.75
  A 0.56 0.51 46.9 0 0 622.91 474.51
  Q 629.24 481.36 635.45 487.81
  Q 635.51 487.87 636.73 489.01
  Q 639.33 491.44 639.14 495.04
  Q 639.02 497.33 639.02 497.48
  Q 639.20 510.87 638.71 524.25
  L 604.35 523.75
  A 0.59 0.59 -82.6 0 1 603.79 523.02
  L 642.72 368.61
  Q 643.27 366.45 643.88 368.59
  L 688.48 523.27
  A 0.76 0.75 81.9 0 1 687.76 524.24
  L 645.04 524.00
  Z"
/>
<path fill="#2b2b3b" d="
  M 1401.21 374.75
  L 1401.53 387.18
  A 0.64 0.52 89.9 0 0 1402.04 387.81
  L 1406.47 387.89
  A 0.88 0.77 -89.7 0 0 1407.25 387.01
  L 1407.29 375.25
  L 1407.50 374.92
  A 0.34 0.33 -55.5 0 1 1407.99 374.82
  Q 1408.84 375.47 1410.00 375.50
  Q 1420.71 375.72 1430.55 379.89
  Q 1436.47 382.40 1439.25 387.25
  Q 1440.91 390.15 1438.82 393.36
  Q 1435.90 397.85 1430.92 399.89
  Q 1417.81 405.28 1403.84 404.96
  Q 1396.68 404.80 1390.70 403.62
  Q 1384.17 402.33 1378.07 399.43
  Q 1375.44 398.18 1373.31 396.20
  Q 1368.77 391.98 1370.70 387.48
  Q 1371.91 384.65 1376.17 381.81
  Q 1382.02 377.91 1387.75 377.00
  Q 1394.49 375.93 1401.21 374.75
  Z"
/>
<path fill="#8c7044" d="
  M 494.04 495.50
  L 494.04 511.00
  L 494.00 519.40
  A 1.04 0.88 -88.7 0 1 493.07 520.45
  L 488.51 520.20
  A 0.61 0.54 -88.5 0 1 488.00 519.59
  L 488.02 511.10
  L 488.21 495.50
  L 488.25 461.05
  Q 488.25 459.26 487.02 457.95
  L 472.34 442.37
  A 0.76 0.69 38.2 0 1 472.20 441.55
  Q 472.95 440.10 475.19 438.52
  A 1.06 1.06 50.4 0 1 476.56 438.65
  L 487.48 449.98
  Q 488.00 450.51 488.00 449.77
  L 488.25 407.01
  A 0.64 0.61 84.5 0 1 488.74 406.39
  Q 490.98 405.94 493.21 406.44
  A 0.64 0.62 -83.8 0 1 493.69 407.06
  L 493.75 438.77
  Q 493.75 440.80 494.87 439.11
  L 506.21 421.88
  A 0.88 0.78 -57.5 0 1 507.33 421.56
  L 511.07 423.86
  A 0.57 0.48 -57.3 0 1 511.17 424.60
  L 494.27 450.58
  A 1.92 1.86 -28.5 0 0 493.98 451.51
  Q 493.44 463.66 494.08 477.48
  Q 494.12 478.21 494.52 477.60
  L 506.11 460.17
  A 1.04 1.04 27.8 0 1 507.37 459.78
  Q 509.85 460.81 510.95 462.10
  A 0.72 0.66 -50.2 0 1 510.99 462.92
  Q 500.09 480.37 496.06 485.81
  Q 492.71 490.34 494.04 495.50
  Z"
/>
<path fill="#8c7044" d="
  M 645.04 524.00
  L 644.78 542.38
  L 644.76 551.81
  A 1.06 1.06 80.9 0 1 644.03 552.82
  Q 641.87 553.54 639.47 552.68
  A 0.77 0.71 10.2 0 1 638.96 552.01
  L 638.71 542.75
  L 638.71 524.25
  Q 639.20 510.87 639.02 497.48
  Q 639.02 497.33 639.14 495.04
  Q 639.33 491.44 636.73 489.01
  Q 635.51 487.87 635.45 487.81
  Q 629.24 481.36 622.91 474.51
  A 0.56 0.51 46.9 0 1 622.90 473.75
  L 625.72 471.10
  A 1.29 1.11 46.5 0 1 627.40 471.27
  L 637.90 482.28
  Q 638.81 483.24 638.82 481.93
  L 639.06 439.32
  A 0.53 0.50 90.0 0 1 639.56 438.79
  L 643.97 438.77
  A 0.80 0.77 89.6 0 1 644.75 439.57
  L 644.75 471.77
  Q 644.75 473.17 645.52 472.00
  L 657.27 454.09
  A 0.59 0.56 -56.5 0 1 658.07 453.90
  L 661.91 456.49
  A 0.60 0.55 -56.9 0 1 662.04 457.29
  L 645.65 482.15
  Q 644.75 483.51 644.75 485.15
  L 644.75 510.16
  Q 644.75 511.16 645.30 510.32
  L 657.01 492.58
  A 1.18 1.11 -55.8 0 1 658.61 492.22
  L 661.92 494.52
  A 0.56 0.54 -55.9 0 1 662.05 495.27
  Q 653.64 508.13 645.35 520.84
  Q 644.36 522.35 645.04 524.00
  Z"
/>
<path fill="#8c7044" d="
  M 1733.79 535.75
  L 1733.71 548.75
  L 1733.75 561.06
  A 0.94 0.94 0.0 0 1 1732.81 562.00
  L 1728.70 562.00
  A 0.52 0.52 0.0 0 1 1728.18 561.48
  L 1728.31 547.92
  L 1728.21 535.50
  Q 1728.21 530.41 1728.12 525.33
  Q 1728.05 521.70 1728.25 515.18
  Q 1728.47 508.25 1727.97 501.32
  A 1.44 1.27 -71.5 0 0 1727.60 500.44
  L 1712.58 484.46
  A 1.59 1.40 49.2 0 1 1712.60 482.25
  L 1715.56 479.97
  A 0.68 0.54 48.4 0 1 1716.36 480.11
  L 1727.20 491.57
  Q 1727.79 492.20 1727.82 491.35
  Q 1728.53 470.32 1728.07 449.07
  A 0.84 0.75 78.0 0 1 1728.50 448.32
  Q 1729.66 447.76 1731.00 447.92
  Q 1731.50 447.98 1731.98 447.86
  Q 1734.06 447.37 1733.87 449.51
  Q 1733.74 450.90 1733.74 451.01
  Q 1733.59 465.53 1734.03 480.99
  Q 1734.06 482.08 1734.67 481.17
  L 1746.45 463.42
  A 0.84 0.82 -55.7 0 1 1747.62 463.18
  L 1750.81 465.46
  A 0.85 0.82 -55.4 0 1 1751.00 466.60
  Q 1743.03 478.99 1735.02 490.78
  Q 1733.56 492.93 1733.68 495.51
  Q 1733.75 496.88 1733.75 497.00
  Q 1733.73 508.22 1733.98 518.69
  Q 1734.02 520.25 1734.87 518.94
  L 1746.07 501.80
  A 1.16 1.00 -57.3 0 1 1747.52 501.37
  L 1750.73 503.39
  A 1.15 1.00 -57.3 0 1 1750.95 504.92
  Q 1742.54 517.57 1734.31 530.31
  Q 1733.34 531.82 1733.79 535.75
  Z"
/>
<path fill="#5c7457" d="
  M 2089.45 594.35
  L 2094.59 611.81
  A 0.53 0.53 81.5 0 1 2094.08 612.50
  L 2056.66 612.42
  L 2071.73 588.17
  A 0.89 0.79 -46.2 0 0 2071.76 587.31
  Q 2070.50 585.14 2068.05 584.44
  A 0.71 0.70 25.3 0 0 2067.26 584.72
  L 2056.12 601.70
  Q 2055.03 603.37 2055.00 601.41
  L 2054.75 577.70
  A 4.97 4.26 -32.4 0 1 2055.55 575.08
  L 2071.98 549.93
  A 0.75 0.72 -47.7 0 0 2071.96 549.09
  Q 2070.52 547.14 2068.23 546.39
  A 0.73 0.70 -62.2 0 0 2067.45 546.65
  Q 2061.41 554.57 2056.25 563.51
  Q 2055.05 565.58 2055.03 563.19
  L 2054.69 532.06
  A 0.78 0.74 -80.5 0 0 2054.22 531.36
  Q 2051.64 530.32 2049.25 531.56
  A 0.86 0.82 76.9 0 0 2048.81 532.31
  L 2048.82 573.49
  Q 2048.82 575.36 2047.51 574.01
  L 2037.26 563.38
  A 1.03 1.02 45.8 0 0 2035.81 563.35
  L 2032.97 566.15
  A 0.86 0.83 46.5 0 0 2032.96 567.32
  Q 2039.96 574.91 2046.94 582.06
  Q 2048.99 584.17 2048.83 586.62
  Q 2048.75 587.79 2048.75 587.89
  Q 2048.74 600.17 2048.75 612.46
  L 2009.42 612.00
  A 0.51 0.51 7.2 0 1 2008.93 611.37
  Q 2016.97 578.05 2024.75 545.25
  Q 2025.47 542.20 2025.46 541.50
  L 2046.75 452.99
  Q 2047.36 450.48 2047.98 452.98
  Q 2050.02 461.27 2052.81 470.60
  Q 2071.25 532.35 2089.45 594.35
  Z"
/>
<path fill="#5c7457" d="
  M 378.21 530.25
  L 407.68 632.00
  A 0.78 0.77 82.0 0 1 406.94 632.99
  L 366.75 632.71
  L 382.44 608.69
  Q 383.01 607.82 381.31 605.94
  Q 380.25 604.76 378.80 604.41
  A 0.75 0.71 -66.0 0 0 378.02 604.73
  L 367.01 621.58
  Q 365.80 623.42 365.77 621.25
  L 365.49 598.22
  Q 365.47 596.45 366.55 594.80
  L 382.83 569.97
  A 1.10 1.07 33.0 0 0 382.49 568.47
  L 379.55 566.56
  A 1.36 1.31 32.9 0 0 377.70 566.92
  L 366.56 584.14
  Q 365.77 585.36 365.75 583.92
  L 365.50 551.79
  A 0.52 0.50 89.5 0 0 364.99 551.27
  L 360.52 551.29
  A 0.83 0.78 90.0 0 0 359.74 552.12
  L 359.45 594.43
  Q 359.45 594.99 359.07 594.59
  L 349.03 584.02
  A 1.95 1.80 51.7 0 0 346.68 583.65
  Q 344.33 585.14 343.53 586.50
  A 0.72 0.63 39.4 0 0 343.66 587.30
  Q 350.89 594.81 357.96 602.48
  Q 359.34 603.98 359.54 605.59
  Q 359.71 607.04 359.75 609.25
  Q 359.95 621.01 359.46 632.75
  L 320.81 632.75
  A 0.82 0.82 -82.8 0 1 320.02 631.73
  Q 327.21 603.11 334.35 574.65
  Q 334.38 574.53 334.92 573.04
  Q 335.48 571.49 334.75 569.96
  Q 335.72 568.86 336.25 566.75
  Q 348.34 518.72 360.26 471.38
  Q 360.71 469.62 361.21 471.37
  L 378.21 530.25
  Z"
/>
<path fill="#3f6772" d="
  M 488.02 511.10
  L 488.00 519.59
  A 0.61 0.54 -88.5 0 0 488.51 520.20
  L 493.07 520.45
  A 1.04 0.88 -88.7 0 0 494.00 519.40
  L 494.04 511.00
  Q 507.08 510.80 519.16 515.62
  Q 525.24 518.05 527.94 522.06
  Q 529.74 524.74 528.84 527.74
  Q 528.17 529.97 525.74 532.07
  Q 521.06 536.10 514.06 538.06
  Q 494.33 543.60 474.19 538.06
  Q 470.24 536.97 466.90 535.22
  Q 462.86 533.09 460.87 530.39
  Q 457.51 525.84 460.92 521.40
  Q 462.87 518.87 467.36 516.62
  Q 477.01 511.79 488.02 511.10
  Z"
/>
<path fill="#cb8589" d="
  M 1891.38 685.15
  L 1904.47 664.55
  A 0.71 0.68 -53.2 0 0 1904.36 663.67
  Q 1902.41 661.93 1900.49 661.37
  A 0.73 0.69 -64.1 0 0 1899.71 661.67
  L 1887.83 679.35
  Q 1887.25 680.21 1887.25 679.18
  L 1887.25 653.47
  A 2.73 2.64 -29.1 0 1 1887.70 651.99
  L 1904.50 626.49
  A 0.84 0.78 33.1 0 0 1904.22 625.37
  L 1901.25 623.46
  A 1.34 1.26 33.2 0 0 1899.45 623.78
  L 1887.88 641.21
  Q 1887.25 642.16 1887.25 641.02
  L 1887.25 608.66
  A 0.66 0.66 -0.0 0 0 1886.59 608.00
  L 1882.06 608.00
  A 0.56 0.56 0.0 0 0 1881.50 608.56
  L 1881.50 650.90
  Q 1881.50 652.41 1880.45 651.32
  L 1869.60 640.11
  A 0.67 0.65 52.9 0 0 1868.80 639.99
  Q 1866.79 641.13 1865.52 643.07
  A 0.64 0.64 -49.5 0 0 1865.58 643.86
  Q 1872.57 651.43 1879.62 658.92
  Q 1881.08 660.46 1881.29 662.19
  Q 1881.50 663.80 1881.50 666.00
  Q 1881.52 679.45 1881.21 685.25
  L 1849.19 684.75
  A 1.09 1.08 -82.6 0 1 1848.16 683.40
  L 1886.25 530.49
  Q 1886.55 529.28 1886.90 530.48
  L 1930.75 684.52
  A 0.57 0.56 81.9 0 1 1930.21 685.25
  L 1891.38 685.15
  Z"
/>
<path fill="#8c7044" d="
  M 2056.66 612.42
  Q 2054.58 612.69 2054.66 614.92
  Q 2054.71 616.50 2054.71 616.60
  Q 2054.35 624.55 2054.71 632.50
  Q 2054.20 638.40 2054.71 644.64
  A 0.56 0.56 87.6 0 1 2054.15 645.25
  L 2049.51 645.25
  A 0.52 0.51 -90.0 0 1 2049.00 644.73
  L 2048.94 633.88
  L 2048.75 612.46
  Q 2048.74 600.17 2048.75 587.89
  Q 2048.75 587.79 2048.83 586.62
  Q 2048.99 584.17 2046.94 582.06
  Q 2039.96 574.91 2032.96 567.32
  A 0.86 0.83 46.5 0 1 2032.97 566.15
  L 2035.81 563.35
  A 1.03 1.02 45.8 0 1 2037.26 563.38
  L 2047.51 574.01
  Q 2048.82 575.36 2048.82 573.49
  L 2048.81 532.31
  A 0.86 0.82 76.9 0 1 2049.25 531.56
  Q 2051.64 530.32 2054.22 531.36
  A 0.78 0.74 -80.5 0 1 2054.69 532.06
  L 2055.03 563.19
  Q 2055.05 565.58 2056.25 563.51
  Q 2061.41 554.57 2067.45 546.65
  A 0.73 0.70 -62.2 0 1 2068.23 546.39
  Q 2070.52 547.14 2071.96 549.09
  A 0.75 0.72 -47.7 0 1 2071.98 549.93
  L 2055.55 575.08
  A 4.97 4.26 -32.4 0 0 2054.75 577.70
  L 2055.00 601.41
  Q 2055.03 603.37 2056.12 601.70
  L 2067.26 584.72
  A 0.71 0.70 25.3 0 1 2068.05 584.44
  Q 2070.50 585.14 2071.76 587.31
  A 0.89 0.79 -46.2 0 1 2071.73 588.17
  L 2056.66 612.42
  Z"
/>
<path fill="#45707c" d="
  M 644.78 542.38
  Q 652.23 543.37 659.43 545.58
  Q 666.26 547.67 669.19 552.06
  Q 671.57 555.64 668.56 559.56
  Q 665.66 563.34 659.05 565.40
  Q 641.08 570.99 622.56 565.69
  Q 618.25 564.45 614.85 562.15
  Q 611.27 559.72 610.41 556.81
  Q 609.18 552.69 613.64 549.38
  Q 615.84 547.75 618.37 546.70
  Q 628.11 542.64 638.71 542.75
  L 638.96 552.01
  A 0.77 0.71 10.2 0 0 639.47 552.68
  Q 641.87 553.54 644.03 552.82
  A 1.06 1.06 80.9 0 0 644.76 551.81
  L 644.78 542.38
  Z"
/>
<path fill="#e1e1e1" d="
  M 1728.31 547.92
  L 1728.18 561.48
  A 0.52 0.52 0.0 0 0 1728.70 562.00
  L 1732.81 562.00
  A 0.94 0.94 0.0 0 0 1733.75 561.06
  L 1733.71 548.75
  Q 1733.78 547.29 1734.88 548.16
  A 1.59 1.14 57.8 0 0 1735.74 548.51
  Q 1746.50 548.74 1756.28 552.69
  Q 1762.80 555.32 1765.61 558.89
  Q 1770.98 565.73 1760.81 572.06
  Q 1756.25 574.91 1749.24 576.45
  Q 1732.73 580.09 1716.56 576.69
  Q 1712.33 575.80 1708.09 574.05
  Q 1703.29 572.06 1700.60 569.44
  Q 1694.70 563.70 1700.18 557.97
  Q 1702.94 555.08 1708.65 552.82
  Q 1718.08 549.09 1728.31 547.92
  Z"
/>
<path fill="#8c7044" d="
  M 366.75 632.71
  Q 365.27 634.25 365.38 636.35
  Q 365.48 638.06 365.47 638.15
  Q 365.32 644.46 365.79 650.75
  L 365.66 664.44
  A 0.78 0.67 82.0 0 1 365.22 665.13
  Q 362.72 666.07 360.16 665.23
  A 0.71 0.69 9.3 0 1 359.67 664.57
  L 359.46 650.25
  Q 360.18 641.50 359.46 632.75
  Q 359.95 621.01 359.75 609.25
  Q 359.71 607.04 359.54 605.59
  Q 359.34 603.98 357.96 602.48
  Q 350.89 594.81 343.66 587.30
  A 0.72 0.63 39.4 0 1 343.53 586.50
  Q 344.33 585.14 346.68 583.65
  A 1.95 1.80 51.7 0 1 349.03 584.02
  L 359.07 594.59
  Q 359.45 594.99 359.45 594.43
  L 359.74 552.12
  A 0.83 0.78 -90.0 0 1 360.52 551.29
  L 364.99 551.27
  A 0.52 0.50 89.5 0 1 365.50 551.79
  L 365.75 583.92
  Q 365.77 585.36 366.56 584.14
  L 377.70 566.92
  A 1.36 1.31 32.9 0 1 379.55 566.56
  L 382.49 568.47
  A 1.10 1.07 33.0 0 1 382.83 569.97
  L 366.55 594.80
  Q 365.47 596.45 365.49 598.22
  L 365.77 621.25
  Q 365.80 623.42 367.01 621.58
  L 378.02 604.73
  A 0.75 0.71 -66.0 0 1 378.80 604.41
  Q 380.25 604.76 381.31 605.94
  Q 383.01 607.82 382.44 608.69
  L 366.75 632.71
  Z"
/>
<path fill="#ffffff" d="
  M 985.71 608.50
  L 968.44 608.48
  L 968.25 586.64
  A 0.66 0.64 0.0 0 1 968.91 586.00
  L 985.25 586.00
  A 0.50 0.50 0.0 0 1 985.75 586.50
  L 985.71 608.50
  Z"
/>
<path fill="#89523d" d="
  M 968.44 608.48
  L 985.71 608.50
  L 985.97 621.26
  A 0.93 0.84 15.8 0 0 986.43 622.00
  L 1012.22 636.83
  Q 1014.65 638.23 1011.81 638.27
  L 998.29 638.50
  Q 971.61 638.17 944.93 638.17
  Q 935.67 638.17 924.94 638.02
  Q 904.97 637.73 885.00 637.79
  L 869.74 637.50
  Q 868.81 637.48 869.61 637.04
  L 941.66 596.87
  A 1.20 1.19 45.2 0 1 942.84 596.88
  Q 955.23 604.04 966.69 610.56
  Q 968.91 611.83 968.44 608.48
  Z"
/>
<path fill="#8c7044" d="
  M 1891.38 685.15
  Q 1889.39 686.85 1888.20 689.15
  Q 1887.25 691.00 1887.24 694.03
  Q 1887.23 701.02 1887.29 708.00
  L 1887.25 721.05
  A 0.95 0.95 0.0 0 1 1886.30 722.00
  L 1882.19 722.00
  A 0.69 0.69 0.0 0 1 1881.50 721.31
  L 1881.46 708.25
  L 1881.21 685.25
  Q 1881.52 679.45 1881.50 666.00
  Q 1881.50 663.80 1881.29 662.19
  Q 1881.08 660.46 1879.62 658.92
  Q 1872.57 651.43 1865.58 643.86
  A 0.64 0.64 -49.5 0 1 1865.52 643.07
  Q 1866.79 641.13 1868.80 639.99
  A 0.67 0.65 52.9 0 1 1869.60 640.11
  L 1880.45 651.32
  Q 1881.50 652.41 1881.50 650.90
  L 1881.50 608.56
  A 0.56 0.56 0.0 0 1 1882.06 608.00
  L 1886.59 608.00
  A 0.66 0.66 0.1 0 1 1887.25 608.66
  L 1887.25 641.02
  Q 1887.25 642.16 1887.88 641.21
  L 1899.45 623.78
  A 1.34 1.26 33.2 0 1 1901.25 623.46
  L 1904.22 625.37
  A 0.84 0.78 33.1 0 1 1904.50 626.49
  L 1887.70 651.99
  A 2.73 2.64 -29.1 0 0 1887.25 653.47
  L 1887.25 679.18
  Q 1887.25 680.21 1887.83 679.35
  L 1899.71 661.67
  A 0.73 0.69 -64.1 0 1 1900.49 661.37
  Q 1902.41 661.93 1904.36 663.67
  A 0.71 0.68 -53.2 0 1 1904.47 664.55
  L 1891.38 685.15
  Z"
/>
<path fill="#e1e1e1" d="
  M 2054.71 632.50
  Q 2054.46 633.95 2055.30 633.71
  Q 2055.97 633.51 2056.25 633.52
  Q 2066.26 633.93 2075.67 637.36
  Q 2079.95 638.91 2083.42 641.85
  Q 2089.28 646.82 2086.44 651.90
  Q 2084.71 655.00 2079.73 657.65
  Q 2074.38 660.48 2068.00 661.75
  Q 2056.04 664.13 2044.49 662.89
  Q 2037.48 662.14 2032.59 660.75
  Q 2026.28 658.95 2021.56 655.44
  Q 2013.74 649.61 2020.75 642.25
  Q 2023.93 638.91 2030.95 636.61
  Q 2039.74 633.73 2048.94 633.88
  L 2049.00 644.73
  A 0.52 0.51 90.0 0 0 2049.51 645.25
  L 2054.15 645.25
  A 0.56 0.56 87.6 0 0 2054.71 644.64
  Q 2054.20 638.40 2054.71 632.50
  Z"
/>
<path fill="#323244" d="
  M 885.00 637.79
  Q 904.97 637.73 924.94 638.02
  Q 935.67 638.17 944.93 638.17
  Q 971.61 638.17 998.29 638.50
  L 998.25 768.75
  A 0.50 0.50 0.0 0 1 997.75 769.25
  L 985.75 769.21
  L 985.75 712.56
  A 0.81 0.81 0.0 0 0 984.94 711.75
  L 954.75 711.75
  A 0.50 0.50 0.0 0 0 954.25 712.25
  L 954.25 769.21
  L 885.50 769.25
  A 0.50 0.50 0.0 0 1 885.00 768.75
  L 885.00 637.79
  Z
  M 929.2232 654.7409
  A 0.52 0.52 0.0 0 0 928.7023 654.2218
  L 896.3223 654.2783
  A 0.52 0.52 0.0 0 0 895.8032 654.7992
  L 895.8568 685.4991
  A 0.52 0.52 0.0 0 0 896.3777 686.0182
  L 928.7577 685.9617
  A 0.52 0.52 0.0 0 0 929.2768 685.4408
  L 929.2232 654.7409
  Z
  M 985.76 654.69
  A 0.44 0.44 0.0 0 0 985.32 654.25
  L 952.94 654.25
  A 0.44 0.44 0.0 0 0 952.50 654.69
  L 952.50 685.55
  A 0.44 0.44 0.0 0 0 952.94 685.99
  L 985.32 685.99
  A 0.44 0.44 0.0 0 0 985.76 685.55
  L 985.76 654.69
  Z
  M 929.25 713.06
  A 0.31 0.31 0.0 0 0 928.94 712.75
  L 896.06 712.75
  A 0.31 0.31 0.0 0 0 895.75 713.06
  L 895.75 743.94
  A 0.31 0.31 0.0 0 0 896.06 744.25
  L 928.94 744.25
  A 0.31 0.31 0.0 0 0 929.25 743.94
  L 929.25 713.06
  Z"
/>
<path fill="#3f6772" d="
  M 359.46 650.25
  L 359.67 664.57
  A 0.71 0.69 9.3 0 0 360.16 665.23
  Q 362.72 666.07 365.22 665.13
  A 0.78 0.67 82.0 0 0 365.66 664.44
  L 365.79 650.75
  Q 377.56 650.97 387.06 656.94
  Q 389.22 658.29 390.66 661.05
  Q 392.42 664.40 390.19 667.44
  Q 387.25 671.44 380.89 673.55
  Q 364.17 679.12 346.44 675.56
  Q 341.91 674.65 337.98 672.94
  Q 333.13 670.82 330.85 667.96
  Q 326.30 662.25 334.06 656.56
  Q 338.15 653.56 345.75 651.99
  Q 352.53 650.58 359.46 650.25
  Z"
/>
<rect fill="#cfdfeb" x="-16.71" y="-15.87" transform="translate(912.54,670.12) rotate(-0.1)" width="33.42" height="31.74" rx="0.52"/>
<rect fill="#cfdfeb" x="952.50" y="654.25" width="33.26" height="31.74" rx="0.44"/>
<path fill="#e1e1e1" d="
  M 1881.46 708.25
  L 1881.50 721.31
  A 0.69 0.69 0.0 0 0 1882.19 722.00
  L 1886.30 722.00
  A 0.95 0.95 0.0 0 0 1887.25 721.05
  L 1887.29 708.00
  Q 1899.69 707.92 1910.25 713.25
  Q 1912.17 714.22 1914.11 716.38
  Q 1918.78 721.57 1913.81 726.56
  Q 1910.43 729.96 1903.49 731.95
  Q 1891.62 735.35 1879.49 734.26
  Q 1872.56 733.64 1868.07 732.40
  Q 1862.14 730.75 1857.56 727.19
  Q 1852.57 723.31 1854.71 718.79
  Q 1856.01 716.02 1860.16 713.62
  Q 1869.86 708.00 1881.46 708.25
  Z"
/>
<path fill="#89523d" d="
  M 985.75 769.21
  L 954.25 769.21
  L 954.25 712.25
  A 0.50 0.50 0.0 0 1 954.75 711.75
  L 984.94 711.75
  A 0.81 0.81 0.0 0 1 985.75 712.56
  L 985.75 769.21
  Z"
/>
<rect fill="#cfdfeb" x="895.75" y="712.75" width="33.50" height="31.50" rx="0.31"/>
</svg>
