<?xml version="1.0" encoding="UTF-8" standalone="no"?>
<!DOCTYPE svg PUBLIC "-//W3C//DTD SVG 1.1//EN" "http://www.w3.org/Graphics/SVG/1.1/DTD/svg11.dtd">
<svg xmlns="http://www.w3.org/2000/svg" version="1.1" viewBox="0 0 798 846">
<g stroke-width="0.30" fill="none" stroke-linecap="butt">
<path stroke="#8b5152" vector-effect="non-scaling-stroke" d="
  M 464.00 123.29
  L 427.75 134.29"
/>
<path stroke="#eba59b" vector-effect="non-scaling-stroke" d="
  M 427.75 134.29
  Q 414.25 137.92 400.49 140.47
  Q 367.64 146.56 334.74 152.42
  Q 302.75 158.11 270.74 164.24"
/>
<path stroke="#a8a7a2" vector-effect="non-scaling-stroke" d="
  M 445.96 239.50
  Q 431.74 256.75 410.71 264.50"
/>
<path stroke="#ffe7da" vector-effect="non-scaling-stroke" d="
  M 410.71 264.50
  Q 401.05 267.69 391.00 269.29"
/>
<path stroke="#a8a7a2" vector-effect="non-scaling-stroke" d="
  M 391.00 269.29
  Q 371.81 272.46 352.77 268.67
  Q 331.14 264.37 316.35 248.74
  Q 315.49 247.83 316.74 247.75
  Q 323.49 247.31 329.50 244.29"
/>
<path stroke="#99807d" vector-effect="non-scaling-stroke" d="
  M 329.50 244.29
  Q 339.71 238.93 342.86 228.57
  Q 344.22 224.10 344.71 217.35
  Q 345.13 211.65 344.34 205.93
  Q 344.20 204.91 344.80 205.34
  Q 344.98 205.46 345.12 205.73
  Q 351.39 217.14 360.06 224.94
  Q 368.40 232.43 380.25 232.96"
/>
<path stroke="#a8a7a2" vector-effect="non-scaling-stroke" d="
  M 380.25 232.96
  Q 392.27 233.90 404.06 229.81
  Q 410.37 227.63 415.00 223.54"
/>
<path stroke="#99807d" vector-effect="non-scaling-stroke" d="
  M 415.00 223.54
  Q 424.11 215.22 426.44 203.44
  Q 431.08 179.95 425.11 156.18
  A 1.03 1.03 -12.8 0 0 423.90 155.42
  L 380.00 164.54"
/>
<path stroke="#a8a7a2" vector-effect="non-scaling-stroke" d="
  M 380.00 164.54
  L 344.34 172.09"
/>
<path stroke="#99807d" vector-effect="non-scaling-stroke" d="
  M 344.34 172.09
  L 293.77 182.55"
/>
<path stroke="#a8a7a2" vector-effect="non-scaling-stroke" d="
  M 293.77 182.55
  L 278.91 185.15"
/>
<path stroke="#a07a6c" vector-effect="non-scaling-stroke" d="
  M 468.96 153.25
  Q 459.38 152.50 450.79 156.14
  Q 447.07 157.71 444.19 160.07
  Q 441.22 162.49 438.77 165.65
  A 1.45 1.44 23.0 0 1 437.40 166.20
  Q 434.72 165.81 433.74 164.32
  Q 433.59 164.08 432.69 160.77
  Q 429.16 147.74 427.75 134.29"
/>
<path stroke="#415969" vector-effect="non-scaling-stroke" d="
  M 329.50 244.29
  L 293.77 182.55"
/>
<path stroke="#a8c0c7" vector-effect="non-scaling-stroke" d="
  M 391.00 269.29
  Q 396.71 291.30 392.19 311.69
  Q 388.93 326.39 381.31 348.56
  Q 374.75 367.68 372.25 380.75
  Q 369.15 396.97 371.21 416.75"
/>
<path stroke="#415969" vector-effect="non-scaling-stroke" d="
  M 371.21 416.75
  Q 353.86 419.28 333.50 418.00
  Q 301.28 415.97 273.79 402.25"
/>
<path stroke="#415969" vector-effect="non-scaling-stroke" d="
  M 229.79 387.94
  Q 228.94 387.98 229.47 387.04
  Q 229.71 386.60 229.79 386.28
  Q 236.02 360.73 219.81 341.19
  Q 213.12 333.11 202.50 327.79"
/>
<path stroke="#415969" vector-effect="non-scaling-stroke" d="
  M 310.20 247.84
  L 274.75 186.54"
/>
<path stroke="#415969" vector-effect="non-scaling-stroke" d="
  M 415.00 223.54
  Q 398.34 193.54 380.00 164.54"
/>
<path stroke="#9999a2" vector-effect="non-scaling-stroke" d="
  M 391.25 412.96
  Q 381.39 415.69 371.21 416.75"
/>
<path stroke="#415969" vector-effect="non-scaling-stroke" d="
  M 573.79 292.50
  Q 561.85 298.43 554.81 307.81
  Q 542.14 324.71 545.33 346.80"
/>
<path stroke="#415969" vector-effect="non-scaling-stroke" d="
  M 444.46 389.50
  Q 444.07 389.47 443.68 389.51
  Q 443.34 389.54 443.00 389.78
  Q 419.22 405.99 391.25 412.96"
/>
<path stroke="#a8c0c7" vector-effect="non-scaling-stroke" d="
  M 391.25 412.96
  Q 389.80 398.52 391.75 386.75
  Q 393.57 375.78 398.49 361.25
  Q 403.02 347.82 407.28 334.30
  Q 411.72 320.19 413.46 305.50
  Q 415.91 284.72 410.71 264.50"
/>
<path stroke="#415969" vector-effect="non-scaling-stroke" d="
  M 380.25 232.96
  Q 362.88 202.24 344.34 172.09"
/>
<path stroke="#526a5d" vector-effect="non-scaling-stroke" d="
  M 528.37 515.02
  L 529.86 529.68"
/>
<path stroke="#415969" vector-effect="non-scaling-stroke" d="
  M 529.86 529.68
  Q 510.48 546.31 490.94 554.94
  Q 471.40 563.57 447.29 564.00"
/>
<path stroke="#526a5d" vector-effect="non-scaling-stroke" d="
  M 447.29 564.00
  L 446.96 551.75"
/>
<path stroke="#526a5d" vector-effect="non-scaling-stroke" d="
  M 405.71 569.55
  L 404.75 577.79"
/>
<path stroke="#415969" vector-effect="non-scaling-stroke" d="
  M 404.75 577.79
  Q 399.44 581.17 394.05 583.02
  Q 346.60 599.23 304.29 573.50"
/>
<path stroke="#b9d1bb" vector-effect="non-scaling-stroke" d="
  M 329.04 801.25
  Q 266.43 769.98 244.06 757.94
  Q 184.07 725.64 123.96 693.51"
/>
<path stroke="#619182" vector-effect="non-scaling-stroke" d="
  M 299.37 616.46
  Q 299.05 621.20 297.81 626.81
  Q 295.92 635.38 293.71 647.75"
/>
<path stroke="#526a5d" vector-effect="non-scaling-stroke" d="
  M 293.71 647.75
  Q 290.47 663.28 303.06 673.44
  Q 325.58 691.60 349.39 701.67
  Q 362.53 707.22 377.75 709.25
  Q 389.10 710.76 399.41 707.65
  Q 407.30 705.27 412.69 700.75
  Q 418.59 695.81 421.92 688.43
  Q 426.59 678.09 425.46 666.75"
/>
<path stroke="#619182" vector-effect="non-scaling-stroke" d="
  M 425.46 666.75
  Q 420.74 641.74 398.39 629.79
  Q 396.47 628.76 393.92 627.32
  A 1.11 1.11 -66.1 0 1 393.41 625.98
  Q 401.77 602.30 404.75 577.79"
/>
<path stroke="#619182" vector-effect="non-scaling-stroke" d="
  M 447.29 564.00
  Q 445.97 586.11 441.19 607.74
  Q 440.08 612.76 439.74 618.08"
/>
<path stroke="#526a5d" vector-effect="non-scaling-stroke" d="
  M 439.74 618.08
  Q 439.80 631.28 451.06 636.19
  Q 464.19 641.90 482.79 645.27
  Q 491.94 646.93 492.08 646.95
  Q 511.82 650.73 521.50 652.25
  Q 534.46 654.29 538.25 654.25
  Q 546.83 654.17 552.44 649.69
  Q 564.12 640.35 562.71 624.25"
/>
<path stroke="#619182" vector-effect="non-scaling-stroke" d="
  M 562.71 624.25
  Q 561.80 612.53 555.58 603.10
  Q 552.07 597.80 547.43 594.32
  Q 542.80 590.86 536.75 588.50
  Q 533.55 587.25 531.14 587.04
  Q 529.67 586.91 528.91 586.67
  Q 527.88 586.34 526.77 585.91
  A 0.89 0.88 17.4 0 1 526.22 584.87
  Q 532.91 557.58 529.86 529.68"
/>
<path stroke="#415969" vector-effect="non-scaling-stroke" d="
  M 425.46 666.75
  Q 419.91 678.86 409.94 685.19
  Q 398.34 692.54 383.00 692.82
  Q 373.71 692.98 366.81 691.44
  Q 335.98 684.53 310.94 663.56
  Q 303.05 656.95 293.71 647.75"
/>
<path stroke="#415969" vector-effect="non-scaling-stroke" d="
  M 562.71 624.25
  Q 548.19 635.00 530.50 634.25
  Q 513.98 633.55 492.00 631.00
  Q 477.28 629.29 459.94 623.92
  Q 454.04 622.09 449.86 620.95
  Q 444.80 619.57 439.74 618.08"
/>
<path stroke="#b9d1bb" vector-effect="non-scaling-stroke" d="
  M 760.21 565.50
  Q 694.56 533.69 674.56 523.44
  Q 633.22 502.24 590.71 483.50"
/>
<path stroke="#a8c0c7" vector-effect="non-scaling-stroke" d="
  M 288.54 816.25
  Q 228.84 785.77 199.31 769.69
  Q 140.25 737.52 80.71 706.25"
/>
<path stroke="#a8c0c7" vector-effect="non-scaling-stroke" d="
  M 775.40 538.16
  Q 736.47 518.98 697.78 499.63
  Q 659.88 480.66 621.50 462.71"
/>
</g>
<path fill="#d67c81" d="
  M 464.00 123.29
  L 427.75 134.29
  Q 414.25 137.92 400.49 140.47
  Q 367.64 146.56 334.74 152.42
  Q 302.75 158.11 270.74 164.24
  Q 268.40 157.19 268.25 154.25
  Q 267.89 146.87 267.25 139.50
  Q 266.15 126.64 266.76 113.75
  Q 267.46 98.84 273.51 85.22
  Q 290.89 46.14 329.75 29.00
  Q 346.27 21.72 364.26 21.09
  Q 374.34 20.74 384.14 22.74
  Q 407.44 27.50 425.80 43.45
  Q 434.22 50.77 439.28 60.62
  A 0.42 0.42 62.8 0 0 439.84 60.80
  Q 453.64 53.83 467.31 47.81
  Q 475.77 44.09 482.47 42.57
  Q 495.64 39.57 508.54 43.52
  Q 527.20 49.24 543.69 61.06
  Q 548.49 64.50 550.73 69.41
  Q 553.60 75.69 551.57 81.39
  Q 550.01 85.77 544.68 90.19
  Q 539.87 94.18 533.81 97.06
  Q 521.36 103.00 511.67 106.64
  Q 488.03 115.53 464.00 123.29
  Z"
/>
<path fill="#402523" d="
  M 464.00 123.29
  Q 467.57 138.10 468.96 153.25
  Q 459.38 152.50 450.79 156.14
  Q 447.07 157.71 444.19 160.07
  Q 441.22 162.49 438.77 165.65
  A 1.45 1.44 23.0 0 1 437.40 166.20
  Q 434.72 165.81 433.74 164.32
  Q 433.59 164.08 432.69 160.77
  Q 429.16 147.74 427.75 134.29
  L 464.00 123.29
  Z"
/>
<path fill="#ffceb5" d="
  M 427.75 134.29
  Q 429.16 147.74 432.69 160.77
  Q 433.59 164.08 433.74 164.32
  Q 434.72 165.81 437.40 166.20
  A 1.45 1.44 23.0 0 0 438.77 165.65
  Q 441.22 162.49 444.19 160.07
  Q 447.07 157.71 450.79 156.14
  Q 459.38 152.50 468.96 153.25
  Q 470.00 166.37 469.07 179.50
  Q 467.58 200.48 460.19 217.94
  Q 458.88 221.03 456.22 224.58
  Q 453.11 228.73 451.77 230.83
  Q 448.96 235.23 445.96 239.50
  Q 431.74 256.75 410.71 264.50
  Q 401.05 267.69 391.00 269.29
  Q 371.81 272.46 352.77 268.67
  Q 331.14 264.37 316.35 248.74
  Q 315.49 247.83 316.74 247.75
  Q 323.49 247.31 329.50 244.29
  Q 339.71 238.93 342.86 228.57
  Q 344.22 224.10 344.71 217.35
  Q 345.13 211.65 344.34 205.93
  Q 344.20 204.91 344.80 205.34
  Q 344.98 205.46 345.12 205.73
  Q 351.39 217.14 360.06 224.94
  Q 368.40 232.43 380.25 232.96
  Q 392.27 233.90 404.06 229.81
  Q 410.37 227.63 415.00 223.54
  Q 424.11 215.22 426.44 203.44
  Q 431.08 179.95 425.11 156.18
  A 1.03 1.03 -12.8 0 0 423.90 155.42
  L 380.00 164.54
  L 344.34 172.09
  L 293.77 182.55
  L 278.91 185.15
  L 270.74 164.24
  Q 302.75 158.11 334.74 152.42
  Q 367.64 146.56 400.49 140.47
  Q 414.25 137.92 427.75 134.29
  Z"
/>
<path fill="#323244" d="
  M 415.00 223.54
  Q 398.34 193.54 380.00 164.54
  L 423.90 155.42
  A 1.03 1.03 -12.8 0 1 425.11 156.18
  Q 431.08 179.95 426.44 203.44
  Q 424.11 215.22 415.00 223.54
  Z"
/>
<path fill="#50808e" d="
  M 380.00 164.54
  Q 398.34 193.54 415.00 223.54
  Q 410.37 227.63 404.06 229.81
  Q 392.27 233.90 380.25 232.96
  Q 362.88 202.24 344.34 172.09
  L 380.00 164.54
  Z"
/>
<path fill="#323244" d="
  M 344.34 172.09
  Q 362.88 202.24 380.25 232.96
  Q 368.40 232.43 360.06 224.94
  Q 351.39 217.14 345.12 205.73
  Q 344.98 205.46 344.80 205.34
  Q 344.20 204.91 344.34 205.93
  Q 345.13 211.65 344.71 217.35
  Q 344.22 224.10 342.86 228.57
  Q 339.71 238.93 329.50 244.29
  L 293.77 182.55
  L 344.34 172.09
  Z"
/>
<path fill="#50808e" d="
  M 293.77 182.55
  L 329.50 244.29
  Q 323.49 247.31 316.74 247.75
  Q 315.49 247.83 316.35 248.74
  Q 331.14 264.37 352.77 268.67
  Q 371.81 272.46 391.00 269.29
  Q 396.71 291.30 392.19 311.69
  Q 388.93 326.39 381.31 348.56
  Q 374.75 367.68 372.25 380.75
  Q 369.15 396.97 371.21 416.75
  Q 353.86 419.28 333.50 418.00
  Q 301.28 415.97 273.79 402.25
  Q 275.62 382.74 282.31 363.10
  Q 282.54 362.42 281.90 362.73
  L 229.79 387.94
  Q 228.94 387.98 229.47 387.04
  Q 229.71 386.60 229.79 386.28
  Q 236.02 360.73 219.81 341.19
  Q 213.12 333.11 202.50 327.79
  Q 258.25 289.14 312.60 248.55
  Q 313.03 248.22 312.51 248.15
  L 310.20 247.84
  L 274.75 186.54
  Q 275.88 185.92 277.75 186.00
  Q 278.68 186.04 278.91 185.15
  L 293.77 182.55
  Z"
/>
<path fill="#323244" d="
  M 274.75 186.54
  L 310.20 247.84
  Q 290.59 248.17 278.27 233.72
  Q 275.02 229.91 272.42 225.62
  Q 260.48 205.94 257.69 200.56
  Q 255.33 196.02 256.91 190.79
  A 0.88 0.82 -86.6 0 1 257.54 190.19
  L 274.75 186.54
  Z"
/>
<path fill="#50808e" d="
  M 573.79 292.50
  Q 561.85 298.43 554.81 307.81
  Q 542.14 324.71 545.33 346.80
  Q 532.95 337.44 518.06 328.69
  Q 503.97 320.40 488.79 316.30
  Q 482.96 314.72 478.09 314.39
  Q 472.54 314.02 467.16 314.70
  A 2.77 2.77 -80.9 0 0 465.00 316.27
  Q 448.92 350.44 444.13 387.20
  Q 444.07 387.60 444.29 388.14
  Q 444.54 388.79 444.46 389.50
  Q 444.07 389.47 443.68 389.51
  Q 443.34 389.54 443.00 389.78
  Q 419.22 405.99 391.25 412.96
  Q 389.80 398.52 391.75 386.75
  Q 393.57 375.78 398.49 361.25
  Q 403.02 347.82 407.28 334.30
  Q 411.72 320.19 413.46 305.50
  Q 415.91 284.72 410.71 264.50
  Q 431.74 256.75 445.96 239.50
  Q 494.62 237.97 536.58 262.16
  Q 557.65 274.31 573.79 292.50
  Z"
/>
<path fill="#ffffff" d="
  M 410.71 264.50
  Q 415.91 284.72 413.46 305.50
  Q 411.72 320.19 407.28 334.30
  Q 403.02 347.82 398.49 361.25
  Q 393.57 375.78 391.75 386.75
  Q 389.80 398.52 391.25 412.96
  Q 381.39 415.69 371.21 416.75
  Q 369.15 396.97 372.25 380.75
  Q 374.75 367.68 381.31 348.56
  Q 388.93 326.39 392.19 311.69
  Q 396.71 291.30 391.00 269.29
  Q 401.05 267.69 410.71 264.50
  Z"
/>
<path fill="#323244" d="
  M 545.33 346.80
  Q 542.14 324.71 554.81 307.81
  Q 561.85 298.43 573.79 292.50
  Q 595.71 283.71 615.41 292.94
  Q 624.61 297.25 631.40 304.71
  Q 643.12 317.58 644.05 335.26
  Q 644.59 345.55 641.21 354.92
  Q 635.77 370.04 622.06 379.31
  Q 612.23 385.97 600.49 387.30
  Q 590.57 388.43 580.69 385.68
  Q 565.74 381.53 555.81 369.44
  Q 548.25 360.23 545.33 346.80
  Z"
/>
<path fill="#323244" d="
  M 202.50 327.79
  Q 213.12 333.11 219.81 341.19
  Q 236.02 360.73 229.79 386.28
  Q 229.71 386.60 229.47 387.04
  Q 228.94 387.98 229.79 387.94
  Q 222.29 408.85 203.19 418.19
  Q 190.97 424.16 177.56 422.87
  Q 167.65 421.92 158.50 417.21
  Q 141.39 408.42 134.81 389.69
  Q 128.96 373.02 134.84 356.85
  Q 138.28 347.39 145.05 339.82
  Q 156.74 326.77 174.50 324.00
  Q 188.01 321.89 202.50 327.79
  Z"
/>
<path fill="#323244" d="
  M 444.46 389.50
  L 444.80 393.71
  A 2.97 2.23 14.5 0 0 446.45 395.78
  Q 460.64 402.54 471.67 412.34
  Q 485.39 424.53 496.93 438.82
  Q 512.24 457.79 519.75 479.75
  Q 525.25 495.85 528.37 515.02
  L 529.86 529.68
  Q 510.48 546.31 490.94 554.94
  Q 471.40 563.57 447.29 564.00
  L 446.96 551.75
  Q 445.65 528.27 435.99 506.86
  Q 431.80 497.56 425.16 489.83
  Q 422.03 486.19 417.70 484.20
  A 1.61 1.57 51.5 0 0 416.75 484.08
  L 386.84 489.60
  A 0.56 0.56 69.1 0 0 386.47 490.44
  Q 407.95 527.19 405.71 569.55
  L 404.75 577.79
  Q 399.44 581.17 394.05 583.02
  Q 346.60 599.23 304.29 573.50
  Q 305.41 551.92 304.00 535.75
  Q 303.10 525.43 297.66 514.32
  Q 291.97 502.68 287.02 490.72
  Q 282.74 480.37 280.32 471.91
  Q 270.57 437.91 273.79 402.25
  Q 301.28 415.97 333.50 418.00
  Q 353.86 419.28 371.21 416.75
  Q 381.39 415.69 391.25 412.96
  Q 419.22 405.99 443.00 389.78
  Q 443.34 389.54 443.68 389.51
  Q 444.07 389.47 444.46 389.50
  Z"
/>
<path fill="#50808e" d="
  M 775.40 538.16
  Q 736.47 518.98 697.78 499.63
  Q 659.88 480.66 621.50 462.71
  Q 640.94 447.83 657.31 429.67
  Q 658.85 427.97 661.69 425.93
  Q 663.83 424.40 666.19 422.19
  Q 671.71 417.01 679.77 415.38
  Q 692.30 412.85 704.84 415.32
  Q 737.57 421.78 759.81 444.69
  Q 773.64 458.93 778.74 479.75
  Q 786.06 509.68 775.40 538.16
  Z"
/>
<path fill="#ffffff" d="
  M 621.50 462.71
  Q 659.88 480.66 697.78 499.63
  Q 736.47 518.98 775.40 538.16
  Q 769.60 553.00 760.21 565.50
  Q 694.56 533.69 674.56 523.44
  Q 633.22 502.24 590.71 483.50
  Q 606.50 473.70 621.50 462.71
  Z"
/>
<path fill="#72a276" d="
  M 590.71 483.50
  Q 633.22 502.24 674.56 523.44
  Q 694.56 533.69 760.21 565.50
  Q 751.88 576.90 740.31 588.06
  Q 725.06 602.78 709.87 613.90
  Q 692.45 626.65 674.14 638.11
  Q 615.90 674.59 552.75 705.00
  Q 511.51 724.86 472.86 741.68
  Q 401.49 772.76 329.04 801.25
  Q 266.43 769.98 244.06 757.94
  Q 184.07 725.64 123.96 693.51
  Q 168.14 676.00 211.22 656.25
  Q 255.05 636.14 299.37 616.46
  Q 299.05 621.20 297.81 626.81
  Q 295.92 635.38 293.71 647.75
  Q 290.47 663.28 303.06 673.44
  Q 325.58 691.60 349.39 701.67
  Q 362.53 707.22 377.75 709.25
  Q 389.10 710.76 399.41 707.65
  Q 407.30 705.27 412.69 700.75
  Q 418.59 695.81 421.92 688.43
  Q 426.59 678.09 425.46 666.75
  Q 420.74 641.74 398.39 629.79
  Q 396.47 628.76 393.92 627.32
  A 1.11 1.11 -66.1 0 1 393.41 625.98
  Q 401.77 602.30 404.75 577.79
  L 405.71 569.55
  L 446.96 551.75
  L 447.29 564.00
  Q 445.97 586.11 441.19 607.74
  Q 440.08 612.76 439.74 618.08
  Q 439.80 631.28 451.06 636.19
  Q 464.19 641.90 482.79 645.27
  Q 491.94 646.93 492.08 646.95
  Q 511.82 650.73 521.50 652.25
  Q 534.46 654.29 538.25 654.25
  Q 546.83 654.17 552.44 649.69
  Q 564.12 640.35 562.71 624.25
  Q 561.80 612.53 555.58 603.10
  Q 552.07 597.80 547.43 594.32
  Q 542.80 590.86 536.75 588.50
  Q 533.55 587.25 531.14 587.04
  Q 529.67 586.91 528.91 586.67
  Q 527.88 586.34 526.77 585.91
  A 0.89 0.88 17.4 0 1 526.22 584.87
  Q 532.91 557.58 529.86 529.68
  L 528.37 515.02
  Q 560.47 500.78 590.71 483.50
  Z"
/>
<path fill="#50808e" d="
  M 529.86 529.68
  Q 532.91 557.58 526.22 584.87
  A 0.89 0.88 17.4 0 0 526.77 585.91
  Q 527.88 586.34 528.91 586.67
  Q 529.67 586.91 531.14 587.04
  Q 533.55 587.25 536.75 588.50
  Q 542.80 590.86 547.43 594.32
  Q 552.07 597.80 555.58 603.10
  Q 561.80 612.53 562.71 624.25
  Q 548.19 635.00 530.50 634.25
  Q 513.98 633.55 492.00 631.00
  Q 477.28 629.29 459.94 623.92
  Q 454.04 622.09 449.86 620.95
  Q 444.80 619.57 439.74 618.08
  Q 440.08 612.76 441.19 607.74
  Q 445.97 586.11 447.29 564.00
  Q 471.40 563.57 490.94 554.94
  Q 510.48 546.31 529.86 529.68
  Z"
/>
<path fill="#50808e" d="
  M 304.29 573.50
  Q 346.60 599.23 394.05 583.02
  Q 399.44 581.17 404.75 577.79
  Q 401.77 602.30 393.41 625.98
  A 1.11 1.11 -66.1 0 0 393.92 627.32
  Q 396.47 628.76 398.39 629.79
  Q 420.74 641.74 425.46 666.75
  Q 419.91 678.86 409.94 685.19
  Q 398.34 692.54 383.00 692.82
  Q 373.71 692.98 366.81 691.44
  Q 335.98 684.53 310.94 663.56
  Q 303.05 656.95 293.71 647.75
  Q 295.92 635.38 297.81 626.81
  Q 299.05 621.20 299.37 616.46
  Q 303.06 595.15 304.29 573.50
  Z"
/>
<path fill="#323244" d="
  M 439.74 618.08
  Q 444.80 619.57 449.86 620.95
  Q 454.04 622.09 459.94 623.92
  Q 477.28 629.29 492.00 631.00
  Q 513.98 633.55 530.50 634.25
  Q 548.19 635.00 562.71 624.25
  Q 564.12 640.35 552.44 649.69
  Q 546.83 654.17 538.25 654.25
  Q 534.46 654.29 521.50 652.25
  Q 511.82 650.73 492.08 646.95
  Q 491.94 646.93 482.79 645.27
  Q 464.19 641.90 451.06 636.19
  Q 439.80 631.28 439.74 618.08
  Z"
/>
<path fill="#323244" d="
  M 293.71 647.75
  Q 303.05 656.95 310.94 663.56
  Q 335.98 684.53 366.81 691.44
  Q 373.71 692.98 383.00 692.82
  Q 398.34 692.54 409.94 685.19
  Q 419.91 678.86 425.46 666.75
  Q 426.59 678.09 421.92 688.43
  Q 418.59 695.81 412.69 700.75
  Q 407.30 705.27 399.41 707.65
  Q 389.10 710.76 377.75 709.25
  Q 362.53 707.22 349.39 701.67
  Q 325.58 691.60 303.06 673.44
  Q 290.47 663.28 293.71 647.75
  Z"
/>
<path fill="#ffffff" d="
  M 123.96 693.51
  Q 184.07 725.64 244.06 757.94
  Q 266.43 769.98 329.04 801.25
  Q 309.05 809.45 288.54 816.25
  Q 228.84 785.77 199.31 769.69
  Q 140.25 737.52 80.71 706.25
  Q 102.77 701.11 123.96 693.51
  Z"
/>
<path fill="#50808e" d="
  M 80.71 706.25
  Q 140.25 737.52 199.31 769.69
  Q 228.84 785.77 288.54 816.25
  Q 263.79 825.10 237.75 828.75
  Q 213.44 832.16 189.01 829.69
  Q 160.90 826.85 133.93 818.48
  Q 90.30 804.93 50.82 782.02
  Q 32.67 771.49 20.81 757.44
  Q 16.76 752.63 15.29 746.12
  Q 13.82 739.60 15.68 733.95
  Q 17.27 729.13 20.84 725.46
  Q 23.56 722.66 28.99 720.25
  Q 38.70 715.94 48.50 713.50
  Q 62.32 710.06 80.71 706.25
  Z"
/>
</svg>
