<?xml version="1.0" encoding="UTF-8" standalone="no"?>
<!DOCTYPE svg PUBLIC "-//W3C//DTD SVG 1.1//EN" "http://www.w3.org/Graphics/SVG/1.1/DTD/svg11.dtd">
<svg xmlns="http://www.w3.org/2000/svg" version="1.1" viewBox="0 0 1782 1176">
<g stroke-width="2.00" fill="none" stroke-linecap="butt">
<path stroke="#bea297" vector-effect="non-scaling-stroke" d="
  M 1698.47 1176.00
  L 1698.71 1035.50"
/>
<path stroke="#d3afa1" vector-effect="non-scaling-stroke" d="
  M 1698.71 1035.50
  L 1675.99 1005.46
  A 1.00 1.00 71.6 0 0 1675.19 1005.06
  L 1441.75 1005.04"
/>
<path stroke="#93929b" vector-effect="non-scaling-stroke" d="
  M 1441.75 1005.04
  Q 1441.20 987.40 1441.91 969.91
  A 0.65 0.65 -89.1 0 0 1441.26 969.24
  L 1265.00 969.21"
/>
<path stroke="#c2cad6" vector-effect="non-scaling-stroke" d="
  M 1265.00 969.21
  L 1265.21 925.75"
/>
<path stroke="#b1b8c4" vector-effect="non-scaling-stroke" d="
  M 1265.21 925.75
  L 1265.21 898.03"
/>
<path stroke="#c2cad6" vector-effect="non-scaling-stroke" d="
  M 1265.21 898.03
  L 1705.06 898.00
  A 0.30 0.29 90.0 0 0 1705.35 897.70
  L 1705.48 857.51
  A 0.49 0.20 40.5 0 0 1705.33 857.22
  Q 1705.26 857.13 1705.26 857.00
  Q 1705.24 527.47 1705.26 198.00
  A 0.25 0.25 0.0 0 0 1705.01 197.75
  L 752.50 197.75
  A 0.49 0.49 0.0 0 0 752.01 198.24
  L 752.01 725.03"
/>
<path stroke="#f9e0d3" vector-effect="non-scaling-stroke" d="
  M 752.01 725.03
  C 732.05 727.94 721.15 743.47 716.28 761.87
  A 1.45 1.36 80.9 0 1 715.75 762.66
  C 714.46 763.62 704.60 770.75 703.96 770.00"
/>
<path stroke="#bea297" vector-effect="non-scaling-stroke" d="
  M 703.96 770.00
  C 704.04 548.53 704.11 327.05 703.92 105.66
  A 0.41 0.41 90.0 0 0 703.51 105.25
  Q 383.83 105.26 65.15 105.24
  C 58.86 105.24 47.11 104.69 38.00 105.28
  A 0.54 0.53 87.7 0 0 37.51 105.82
  L 37.52 941.96
  A 0.50 0.49 90.0 0 0 38.01 942.46
  L 277.81 942.54"
/>
<path stroke="#f9e0d3" vector-effect="non-scaling-stroke" d="
  M 277.81 942.54
  Q 267.85 957.59 257.65 972.37
  C 250.72 982.41 236.62 1005.27 245.24 1018.14
  Q 254.23 1031.55 265.24 1039.78
  Q 283.87 1053.70 302.37 1068.47
  Q 304.19 1069.93 303.74 1072.23
  C 302.50 1078.51 306.40 1086.93 309.95 1092.08
  A 0.70 0.70 61.6 0 1 309.64 1093.12
  C 301.35 1096.60 310.90 1109.39 315.29 1112.21
  C 324.03 1117.84 336.68 1109.15 343.94 1104.67"
/>
<path stroke="#93929b" vector-effect="non-scaling-stroke" d="
  M 343.94 1104.67
  L 341.94 1176.00"
/>
<path stroke="#c49079" vector-effect="non-scaling-stroke" d="
  M 703.96 770.00
  Q 703.78 770.09 703.74 770.23
  A 0.67 0.19 -78.4 0 1 703.52 770.65
  Q 684.17 783.02 663.26 793.84"
/>
<path stroke="#9e5f47" vector-effect="non-scaling-stroke" d="
  M 663.26 793.84
  L 662.96 670.50"
/>
<path stroke="#b27463" vector-effect="non-scaling-stroke" d="
  M 662.96 670.50
  C 677.98 657.05 684.59 633.43 685.76 613.99
  C 686.82 596.53 680.76 574.92 663.00 567.71"
/>
<path stroke="#9e5f47" vector-effect="non-scaling-stroke" d="
  M 663.00 567.71
  L 663.00 146.59
  A 0.58 0.58 -0.5 0 0 662.41 146.01
  L 622.49 146.21
  A 0.46 0.11 38.8 0 1 622.20 146.07
  Q 622.12 146.02 622.00 146.02
  Q 354.63 146.01 87.25 146.00
  C 85.81 146.00 83.54 146.57 81.48 146.00
  A 0.97 0.97 -82.1 0 0 80.25 146.94
  L 80.25 904.76
  A 0.49 0.49 -89.9 0 0 80.74 905.25
  L 296.53 905.34"
/>
<path stroke="#5e4241" vector-effect="non-scaling-stroke" d="
  M 296.53 905.34
  Q 288.65 917.61 281.99 930.05
  A 0.78 0.71 -52.4 0 0 282.06 930.89
  Q 283.19 932.16 285.00 932.29"
/>
<path stroke="#c49079" vector-effect="non-scaling-stroke" d="
  M 285.00 932.29
  L 277.81 942.54"
/>
<path stroke="#c7816c" vector-effect="non-scaling-stroke" d="
  M 663.00 567.71
  C 652.37 565.56 644.26 569.14 635.79 575.25"
/>
<path stroke="#7a493a" vector-effect="non-scaling-stroke" d="
  M 635.79 575.25
  Q 642.01 558.77 644.27 542.00
  Q 651.56 487.82 639.82 434.46
  C 634.62 410.81 625.75 388.08 609.12 370.04
  A 0.73 0.70 -53.1 0 1 609.02 369.23
  C 612.42 362.78 615.16 354.58 612.95 347.30
  A 1.99 1.99 -7.2 0 0 611.13 345.89
  Q 593.67 345.13 576.00 341.33
  A 0.57 0.53 10.2 0 1 575.55 340.73
  Q 575.69 339.61 576.38 339.00"
/>
<path stroke="#d9b6a8" vector-effect="non-scaling-stroke" d="
  M 576.38 339.00
  L 606.45 342.15
  A 0.48 0.47 -84.9 0 0 606.98 341.70
  L 614.78 211.48
  A 0.50 0.50 8.4 0 0 614.31 210.95
  L 518.37 205.36
  A 0.49 0.48 3.7 0 0 517.86 205.80
  L 510.32 305.72"
/>
<path stroke="#7a493a" vector-effect="non-scaling-stroke" d="
  M 510.32 305.72
  C 478.41 313.15 452.41 316.94 413.68 322.39
  Q 392.92 325.31 369.95 331.13"
/>
<path stroke="#c7665b" vector-effect="non-scaling-stroke" d="
  M 369.95 331.13
  Q 375.29 321.47 379.75 311.21"
/>
<path stroke="#938763" vector-effect="non-scaling-stroke" d="
  M 379.75 311.21
  L 430.47 308.25
  A 0.89 0.87 85.6 0 0 431.29 307.28
  L 419.27 188.68
  A 0.37 0.36 84.4 0 0 418.88 188.35
  L 331.30 193.83
  A 0.50 0.50 -4.0 0 0 330.84 194.37
  L 340.29 302.50"
/>
<path stroke="#c7665b" vector-effect="non-scaling-stroke" d="
  M 340.29 302.50
  Q 310.49 316.96 277.29 314.22"
/>
<path stroke="#d9b6a8" vector-effect="non-scaling-stroke" d="
  M 277.29 314.22
  L 265.21 312.08
  A 1.28 1.27 -80.2 0 1 264.18 310.61
  L 279.91 218.54
  A 0.49 0.49 10.3 0 0 279.52 217.98
  L 145.11 190.70
  A 0.77 0.76 10.9 0 0 144.21 191.30
  L 107.98 383.52
  A 0.62 0.61 9.4 0 0 108.50 384.24
  L 198.26 396.33
  A 0.98 0.97 -82.8 0 1 199.09 397.41
  L 192.93 449.09
  A 0.50 0.50 0.0 0 0 193.37 449.65
  L 265.74 458.13"
/>
<path stroke="#7a493a" vector-effect="non-scaling-stroke" d="
  M 265.74 458.13
  L 263.21 486.00"
/>
<path stroke="#d9b6a8" vector-effect="non-scaling-stroke" d="
  M 263.21 486.00
  L 164.45 512.07
  A 0.52 0.51 -14.3 0 0 164.08 512.69
  L 201.28 666.21
  A 0.50 0.50 -14.6 0 0 201.90 666.57
  L 235.71 656.75"
/>
<path stroke="#c7816c" vector-effect="non-scaling-stroke" d="
  M 235.71 656.75
  C 247.08 675.68 269.12 688.07 290.82 677.84"
/>
<path stroke="#d99d83" vector-effect="non-scaling-stroke" d="
  M 290.82 677.84
  Q 299.86 708.20 318.60 734.06
  A 0.31 0.11 -62.6 0 1 318.57 734.30
  L 318.50 734.46"
/>
<path stroke="#d9b6a8" vector-effect="non-scaling-stroke" d="
  M 318.50 734.46
  L 309.27 737.38
  A 0.56 0.52 73.7 0 0 308.94 738.05
  L 327.04 806.25"
/>
<path stroke="#c7665b" vector-effect="non-scaling-stroke" d="
  M 327.04 806.25
  Q 326.81 806.91 326.34 807.13
  C 304.37 817.02 280.10 825.24 256.00 827.46"
/>
<path stroke="#d9b6a8" vector-effect="non-scaling-stroke" d="
  M 256.00 827.46
  L 269.37 727.80
  A 0.22 0.22 7.8 0 0 269.18 727.55
  L 162.14 712.36
  A 0.52 0.52 9.4 0 0 161.55 712.79
  L 140.09 845.72
  A 0.48 0.47 -81.9 0 0 140.50 846.27
  L 251.59 858.79
  A 0.35 0.35 -82.5 0 0 251.98 858.49
  L 255.21 834.50"
/>
<path stroke="#c7665b" vector-effect="non-scaling-stroke" d="
  M 255.21 834.50
  C 262.47 833.50 269.99 832.65 276.87 831.10
  Q 303.82 825.04 329.00 813.54"
/>
<path stroke="#d9b6a8" vector-effect="non-scaling-stroke" d="
  M 329.00 813.54
  L 340.54 856.50"
/>
<path stroke="#734f4a" vector-effect="non-scaling-stroke" d="
  M 340.54 856.50
  Q 319.97 873.07 304.94 893.94
  Q 299.13 902.00 296.53 905.34"
/>
<path stroke="#a7816e" vector-effect="non-scaling-stroke" d="
  M 379.75 311.21
  Q 390.27 285.38 391.54 257.50"
/>
<path stroke="#b9d1bb" vector-effect="non-scaling-stroke" d="
  M 391.54 257.50
  Q 397.27 255.15 400.10 250.57
  C 405.55 241.72 405.57 224.90 393.10 221.28
  C 391.79 220.89 389.60 221.02 388.91 222.18
  A 1.17 1.17 23.5 0 0 389.59 223.90
  C 402.80 227.68 400.99 246.86 391.50 253.04"
/>
<path stroke="#a7816e" vector-effect="non-scaling-stroke" d="
  M 391.50 253.04
  Q 391.39 246.71 389.66 239.44
  A 0.81 0.79 67.6 0 1 390.01 238.58
  C 400.91 231.55 385.39 223.96 379.48 228.86
  C 376.83 231.05 374.98 236.97 379.59 238.69
  Q 381.20 239.29 382.92 239.49
  A 0.83 0.83 -7.0 0 1 383.60 240.02
  Q 386.54 247.89 383.50 255.71"
/>
<path stroke="#b9d1bb" vector-effect="non-scaling-stroke" d="
  M 383.50 255.71
  C 359.25 252.66 363.29 218.50 385.25 217.11
  C 387.57 216.97 386.27 215.06 385.24 214.59
  C 362.08 203.89 350.95 254.01 382.40 259.38"
/>
<path stroke="#a7816e" vector-effect="non-scaling-stroke" d="
  M 382.40 259.38
  C 374.76 279.36 359.43 293.38 340.29 302.50"
/>
<path stroke="#edafb3" vector-effect="non-scaling-stroke" d="
  M 277.29 314.22
  Q 270.60 313.95 258.26 311.49
  Q 209.45 301.74 187.19 256.96
  A 0.96 0.81 -31.9 0 1 187.55 255.86
  L 190.42 253.78
  A 0.51 0.46 -37.9 0 1 191.09 253.83
  C 192.71 255.76 195.02 257.37 197.66 256.93
  C 206.62 255.43 201.65 238.59 193.72 238.21
  C 188.24 237.94 187.19 244.84 188.66 249.06
  A 0.74 0.64 63.8 0 1 188.45 249.86
  L 184.42 252.69
  Q 182.88 253.77 183.25 255.35
  Q 183.98 258.41 185.37 261.34
  C 206.96 306.68 257.08 323.82 304.56 318.36
  C 305.31 318.27 306.26 318.56 307.00 318.71"
/>
<path stroke="#d9b6a8" vector-effect="non-scaling-stroke" d="
  M 307.00 318.71
  L 359.82 326.86
  A 0.63 0.62 2.9 0 1 360.35 327.44
  Q 360.55 330.98 359.75 334.46"
/>
<path stroke="#a09291" vector-effect="non-scaling-stroke" d="
  M 359.75 334.46
  C 329.63 344.43 302.59 361.94 286.46 389.75"
/>
<path stroke="#edafb3" vector-effect="non-scaling-stroke" d="
  M 286.46 389.75
  Q 268.14 394.24 249.37 391.18
  A 0.38 0.37 18.9 0 1 249.10 390.64
  Q 252.00 385.20 247.36 382.56
  Q 245.51 381.51 243.47 382.16
  C 239.52 383.41 229.50 387.28 229.82 392.38
  C 230.16 397.82 236.68 397.17 240.54 395.19
  A 0.51 0.50 -27.3 0 1 241.22 395.40
  C 241.84 396.59 246.66 410.34 249.22 402.24
  A 1.28 0.99 44.8 0 0 249.10 401.33
  L 246.77 396.94
  Q 246.52 396.48 247.05 396.61
  C 259.56 399.78 270.54 398.18 283.00 396.29"
/>
<path stroke="#a09291" vector-effect="non-scaling-stroke" d="
  M 283.00 396.29
  C 273.79 416.28 269.22 436.52 265.74 458.13"
/>
<path stroke="#edafb3" vector-effect="non-scaling-stroke" d="
  M 209.61 312.05
  Q 208.01 322.09 205.92 332.04
  C 205.25 335.21 205.40 337.96 206.05 340.93
  Q 206.62 343.51 207.93 341.19
  C 209.50 338.39 210.44 335.91 210.92 332.54
  Q 213.62 313.66 214.23 309.76
  C 214.90 305.47 212.39 304.84 208.89 305.60
  Q 196.27 308.35 185.26 315.07
  C 179.93 318.32 182.34 322.79 188.03 321.34
  C 196.20 319.25 201.90 315.49 209.23 311.79
  Q 209.69 311.56 209.61 312.05"
/>
<path stroke="#edafb3" vector-effect="non-scaling-stroke" d="
  M 138.51 330.04
  C 142.87 336.95 152.18 341.05 159.75 342.22
  C 176.75 344.86 193.43 334.30 202.27 320.05
  C 202.51 319.66 202.69 318.79 201.75 319.52
  C 197.32 322.91 192.33 325.28 187.17 328.24
  Q 172.77 336.51 156.16 330.98
  Q 153.73 330.17 143.05 324.95
  C 138.29 322.62 136.13 326.29 138.51 330.04"
/>
<path stroke="#8090a9" vector-effect="non-scaling-stroke" d="
  M 1265.21 898.03
  L 1192.21 898.02"
/>
<path stroke="#c2cad6" vector-effect="non-scaling-stroke" d="
  M 1192.21 898.02
  L 752.55 897.99
  A 0.50 0.49 90.0 0 1 752.06 897.49
  L 751.75 836.17"
/>
<path stroke="#626a7f" vector-effect="non-scaling-stroke" d="
  M 751.75 836.17
  Q 753.94 834.78 755.83 832.43
  C 758.54 829.07 760.01 823.41 761.46 819.25"
/>
<path stroke="#c8b8b8" vector-effect="non-scaling-stroke" d="
  M 761.46 819.25
  Q 767.24 819.67 772.25 816.79"
/>
<path stroke="#a8868a" vector-effect="non-scaling-stroke" d="
  M 772.25 816.79
  Q 775.41 816.23 777.78 814.06"
/>
<path stroke="#c8b8b8" vector-effect="non-scaling-stroke" d="
  M 777.78 814.06
  Q 788.51 807.77 794.50 796.79"
/>
<path stroke="#a8868a" vector-effect="non-scaling-stroke" d="
  M 794.50 796.79
  L 796.04 794.25"
/>
<path stroke="#c8b8b8" vector-effect="non-scaling-stroke" d="
  M 796.04 794.25
  C 798.75 789.50 800.47 783.98 802.61 779.43
  Q 804.45 775.53 805.96 771.50"
/>
<path stroke="#a8868a" vector-effect="non-scaling-stroke" d="
  M 805.96 771.50
  L 807.35 767.13"
/>
<path stroke="#c8b8b8" vector-effect="non-scaling-stroke" d="
  M 807.35 767.13
  C 812.30 752.30 809.02 736.76 793.74 729.85"
/>
<path stroke="#626a7f" vector-effect="non-scaling-stroke" d="
  M 793.74 729.85
  Q 799.46 715.80 802.50 705.50
  Q 803.88 700.85 801.29 696.25"
/>
<path stroke="#b0c0d3" vector-effect="non-scaling-stroke" d="
  M 801.29 696.25
  L 823.21 627.00"
/>
<path stroke="#626a7f" vector-effect="non-scaling-stroke" d="
  M 823.21 627.00
  L 823.30 845.22
  A 0.51 0.50 90.0 0 0 823.80 845.73
  L 1633.47 845.72
  A 0.51 0.49 90.0 0 0 1633.96 845.21
  L 1633.99 250.36
  A 0.36 0.36 90.0 0 0 1633.63 250.00
  L 823.75 250.00
  A 0.49 0.49 0.0 0 0 823.26 250.49
  L 823.29 581.50"
/>
<path stroke="#b0c0d3" vector-effect="non-scaling-stroke" d="
  M 823.29 581.50
  L 812.83 614.11"
/>
<path stroke="#626a7f" vector-effect="non-scaling-stroke" d="
  M 812.83 614.11
  L 811.02 619.30"
/>
<path stroke="#b0c0d3" vector-effect="non-scaling-stroke" d="
  M 811.02 619.30
  L 786.71 691.75"
/>
<path stroke="#626a7f" vector-effect="non-scaling-stroke" d="
  M 786.71 691.75
  Q 782.20 693.49 780.64 697.18
  Q 776.41 707.23 770.29 726.14"
/>
<path stroke="#c8b8b8" vector-effect="non-scaling-stroke" d="
  M 770.29 726.14
  Q 761.61 723.95 752.01 725.03"
/>
<path stroke="#626a7f" vector-effect="non-scaling-stroke" d="
  M 1643.47 873.75
  A 6.40 6.40 0.0 0 0 1637.07 867.35
  A 6.40 6.40 0.0 0 0 1630.67 873.75
  A 6.40 6.40 0.0 0 0 1637.07 880.15
  A 6.40 6.40 0.0 0 0 1643.47 873.75"
/>
<path stroke="#b68090" vector-effect="non-scaling-stroke" d="
  M 1669.01 873.76
  A 6.40 6.40 0.0 0 0 1662.61 867.36
  A 6.40 6.40 0.0 0 0 1656.21 873.76
  A 6.40 6.40 0.0 0 0 1662.61 880.16
  A 6.40 6.40 0.0 0 0 1669.01 873.76"
/>
<path stroke="#a09291" vector-effect="non-scaling-stroke" d="
  M 576.38 339.00
  Q 580.11 329.63 577.05 320.47
  Q 576.45 318.69 574.45 318.75
  L 567.75 318.96"
/>
<path stroke="#edafb3" vector-effect="non-scaling-stroke" d="
  M 567.75 318.96
  Q 580.25 289.74 580.95 257.94
  A 1.24 1.24 -75.6 0 1 582.76 256.87
  C 588.41 259.86 595.23 255.65 590.70 249.49
  C 588.86 246.99 584.57 243.94 581.17 243.28
  C 576.43 242.36 572.65 246.54 576.47 250.65
  A 1.41 1.28 24.2 0 1 576.85 251.52
  C 577.83 274.65 572.06 298.92 562.25 319.71"
/>
<path stroke="#a09291" vector-effect="non-scaling-stroke" d="
  M 562.25 319.71
  Q 541.20 323.08 519.74 324.52
  A 0.43 0.43 0.6 0 1 519.28 324.06
  Q 519.75 318.00 518.36 310.39
  Q 517.06 303.28 510.32 305.72"
/>
<path stroke="#edafb3" vector-effect="non-scaling-stroke" d="
  M 383.50 255.71
  Q 383.49 257.69 382.40 259.38"
/>
<path stroke="#edafb3" vector-effect="non-scaling-stroke" d="
  M 391.54 257.50
  L 391.50 253.04"
/>
<path stroke="#8e4245" vector-effect="non-scaling-stroke" d="
  M 369.95 331.13
  L 365.27 332.33"
/>
<path stroke="#c7665b" vector-effect="non-scaling-stroke" d="
  M 365.27 332.33
  Q 370.70 322.24 375.21 311.75"
/>
<path stroke="#a7816e" vector-effect="non-scaling-stroke" d="
  M 375.21 311.75
  Q 384.79 289.05 387.03 264.51
  Q 387.06 264.18 386.85 263.97
  A 0.42 0.34 -57.3 0 0 386.24 264.17
  C 377.09 285.18 361.02 298.11 340.96 308.00"
/>
<path stroke="#c7665b" vector-effect="non-scaling-stroke" d="
  M 340.96 308.00
  Q 325.45 314.94 308.69 317.61
  A 1.37 0.84 -65.8 0 0 307.94 318.12
  Q 307.60 318.56 307.00 318.71"
/>
<path stroke="#8e4245" vector-effect="non-scaling-stroke" d="
  M 567.75 318.96
  L 562.25 319.71"
/>
<path stroke="#818998" vector-effect="non-scaling-stroke" d="
  M 823.21 627.00
  Q 823.83 625.75 823.57 624.54
  A 0.71 0.64 -3.0 0 0 822.94 624.03
  Q 816.88 623.50 811.02 619.30"
/>
<path stroke="#818998" vector-effect="non-scaling-stroke" d="
  M 812.83 614.11
  Q 818.51 618.44 825.23 618.69
  A 0.66 0.64 -80.0 0 0 825.87 618.23
  L 857.28 519.29
  A 0.49 0.49 -73.2 0 0 856.95 518.67
  Q 851.35 517.05 846.49 513.82
  A 0.37 0.37 -63.5 0 0 845.93 514.01
  L 823.29 581.50"
/>
<path stroke="#818998" vector-effect="non-scaling-stroke" d="
  M 848.30 508.73
  Q 852.87 512.67 858.54 513.66
  A 0.59 0.57 -76.7 0 0 859.18 513.25
  L 893.99 403.90
  A 0.88 0.86 2.2 0 1 894.63 403.32
  Q 898.33 402.49 897.70 399.42
  C 896.71 394.64 882.71 390.92 882.79 398.45
  A 1.61 0.99 36.5 0 0 883.14 399.32
  Q 883.84 400.22 883.50 401.25
  Q 865.75 454.21 848.07 507.90
  A 0.78 0.78 29.6 0 0 848.30 508.73"
/>
<path stroke="#938763" vector-effect="non-scaling-stroke" d="
  M 375.21 311.75
  L 341.99 313.48
  A 0.58 0.53 -3.8 0 1 341.40 313.01
  L 340.96 308.00"
/>
<path stroke="#8d5d56" vector-effect="non-scaling-stroke" d="
  M 635.79 575.25
  L 632.73 580.99"
/>
<path stroke="#a07a6c" vector-effect="non-scaling-stroke" d="
  M 632.73 580.99
  Q 621.41 570.61 609.72 556.78
  C 606.96 553.51 606.48 551.11 608.00 546.84
  Q 610.09 540.91 610.70 535.19
  Q 613.74 506.39 612.58 476.28
  C 612.15 465.27 612.48 446.61 598.84 442.59
  C 585.31 438.59 572.58 438.27 556.50 438.22
  C 538.22 438.17 517.14 437.57 498.78 442.32
  C 491.64 444.17 483.63 447.71 476.22 450.67
  Q 460.30 457.02 443.93 453.77
  C 431.87 451.37 420.84 444.62 408.80 441.69
  Q 401.48 439.91 396.25 439.47
  Q 372.18 437.45 340.43 438.24
  Q 324.98 438.63 312.25 442.25
  C 300.69 445.53 298.14 457.32 297.80 468.00
  C 296.96 494.79 296.66 516.02 300.01 539.75
  C 300.68 544.51 305.22 550.53 301.15 555.64
  Q 291.02 568.34 277.29 581.00"
/>
<path stroke="#8d5d56" vector-effect="non-scaling-stroke" d="
  M 277.29 581.00
  L 274.10 575.03"
/>
<path stroke="#a09291" vector-effect="non-scaling-stroke" d="
  M 274.10 575.03
  Q 268.08 558.56 265.46 541.25"
/>
<path stroke="#8e4245" vector-effect="non-scaling-stroke" d="
  M 265.46 541.25
  Q 263.52 526.68 263.21 512.00"
/>
<path stroke="#a09291" vector-effect="non-scaling-stroke" d="
  M 263.21 512.00
  L 263.21 486.00"
/>
<path stroke="#8e4245" vector-effect="non-scaling-stroke" d="
  M 283.00 396.29
  L 286.46 389.75"
/>
<path stroke="#7a493a" vector-effect="non-scaling-stroke" d="
  M 359.75 334.46
  L 365.27 332.33"
/>
<path stroke="#edb29f" vector-effect="non-scaling-stroke" d="
  M 632.73 580.99
  C 631.01 614.48 627.41 647.11 619.25 678.21"
/>
<path stroke="#d99d83" vector-effect="non-scaling-stroke" d="
  M 619.25 678.21
  Q 612.29 700.08 600.93 719.99
  A 0.19 0.16 -69.1 0 0 601.03 720.26
  L 601.25 720.29"
/>
<path stroke="#ffe7da" vector-effect="non-scaling-stroke" d="
  M 601.25 720.29
  Q 600.45 720.55 600.01 721.24
  Q 579.46 753.32 549.24 776.48"
/>
<path stroke="#ed978e" vector-effect="non-scaling-stroke" d="
  M 549.24 776.48
  Q 545.86 777.85 543.25 780.71"
/>
<path stroke="#ffe7da" vector-effect="non-scaling-stroke" d="
  M 543.25 780.71
  Q 541.35 780.72 540.11 782.35"
/>
<path stroke="#d99d83" vector-effect="non-scaling-stroke" d="
  M 540.11 782.35
  Q 519.92 793.33 498.50 801.79"
/>
<path stroke="#edb29f" vector-effect="non-scaling-stroke" d="
  M 498.50 801.79
  Q 480.90 808.42 463.76 808.77
  Q 443.52 809.18 434.74 808.05
  Q 426.93 807.05 411.25 801.79"
/>
<path stroke="#ffe7da" vector-effect="non-scaling-stroke" d="
  M 411.25 801.79
  Q 393.84 794.69 377.04 786.25"
/>
<path stroke="#ed978e" vector-effect="non-scaling-stroke" d="
  M 377.04 786.25
  L 370.29 782.50"
/>
<path stroke="#ffe7da" vector-effect="non-scaling-stroke" d="
  M 370.29 782.50
  C 350.21 769.81 334.00 753.83 319.45 735.06
  Q 319.31 734.88 318.50 734.46"
/>
<path stroke="#edb29f" vector-effect="non-scaling-stroke" d="
  M 290.82 677.84
  Q 286.73 663.73 284.46 649.51
  Q 279.00 615.45 277.29 581.00"
/>
<path stroke="#a07a6c" vector-effect="non-scaling-stroke" d="
  M 330.20 527.07
  A 2.04 2.03 55.9 0 0 331.84 527.39
  Q 338.09 525.89 345.07 525.22
  C 363.43 523.46 381.77 522.67 400.35 526.73
  Q 403.65 527.45 405.19 527.04
  C 409.16 525.97 409.52 520.45 407.63 517.39
  C 405.44 513.84 398.72 510.85 395.00 510.22
  C 377.06 507.19 355.35 509.50 338.11 517.03
  C 335.69 518.08 325.05 523.45 330.20 527.07"
/>
<path stroke="#a07a6c" vector-effect="non-scaling-stroke" d="
  M 504.62 526.20
  Q 506.55 527.71 508.94 527.14
  C 530.68 521.97 555.55 523.10 577.57 526.91
  C 580.83 527.47 583.97 526.83 581.41 522.52
  Q 580.08 520.30 574.99 518.06
  Q 548.40 506.39 519.68 509.73
  C 513.42 510.46 503.64 513.35 502.48 520.73
  Q 501.94 524.12 504.62 526.20"
/>
<path stroke="#95a69d" vector-effect="non-scaling-stroke" d="
  M 355.50 571.96
  Q 350.85 586.98 356.08 601.08
  Q 358.83 608.48 363.18 611.81
  C 371.99 618.54 384.07 612.50 388.00 602.98
  Q 392.38 592.35 390.09 580.20"
/>
<path stroke="#a07a6c" vector-effect="non-scaling-stroke" d="
  M 390.09 580.20
  C 392.52 580.13 394.32 579.02 394.60 576.43
  C 395.88 564.52 383.60 556.26 373.01 555.92
  C 359.43 555.50 347.65 564.18 343.49 576.97
  Q 342.51 579.99 344.64 581.94
  A 1.31 1.24 -23.2 0 0 345.53 582.27
  Q 348.15 582.20 349.12 580.34
  Q 352.05 574.69 355.50 571.96"
/>
<path stroke="#365254" vector-effect="non-scaling-stroke" d="
  M 390.09 580.20
  Q 385.86 576.68 381.61 573.13
  C 374.37 567.09 363.21 567.99 355.50 571.96"
/>
<path stroke="#95a69d" vector-effect="non-scaling-stroke" d="
  M 520.96 580.16
  Q 518.94 592.36 523.17 602.78
  Q 528.09 614.89 540.75 614.44
  C 544.94 614.29 549.68 611.63 551.76 608.22
  Q 561.80 591.69 555.63 571.72"
/>
<path stroke="#a07a6c" vector-effect="non-scaling-stroke" d="
  M 555.63 571.72
  Q 559.86 575.56 562.51 580.80
  A 1.78 1.41 85.9 0 0 563.16 581.51
  Q 566.19 583.22 567.45 580.81
  C 568.98 577.88 566.18 572.67 564.55 570.24
  Q 554.55 555.32 537.77 556.10
  C 528.02 556.55 520.47 561.55 517.06 570.63
  C 515.71 574.25 515.62 579.87 520.96 580.16"
/>
<path stroke="#365254" vector-effect="non-scaling-stroke" d="
  M 555.63 571.72
  C 547.44 568.15 535.03 566.87 528.24 574.01
  Q 524.40 578.05 520.96 580.16"
/>
<path stroke="#edb29f" vector-effect="non-scaling-stroke" d="
  M 435.74 671.65
  Q 436.61 672.18 437.56 672.54
  Q 452.96 678.38 468.60 674.12
  C 473.74 672.72 477.85 671.82 479.14 666.84
  A 1.24 1.24 -76.8 0 0 478.20 665.32
  Q 473.54 664.33 469.01 664.20
  Q 451.23 663.67 433.47 664.87
  A 1.54 1.54 -5.2 0 0 432.04 666.58
  Q 432.38 669.60 435.74 671.65"
/>
<path stroke="#ffe7da" vector-effect="non-scaling-stroke" d="
  M 397.46 713.45
  C 409.13 741.50 436.38 748.52 463.91 746.16
  C 483.28 744.50 497.03 739.37 508.50 723.02
  Q 513.29 716.18 514.42 709.75
  A 0.55 0.55 -78.6 0 0 514.01 709.13
  Q 511.47 708.48 507.94 708.68
  Q 492.67 709.53 468.74 710.24
  C 445.18 710.95 421.95 709.17 398.26 708.64
  Q 396.09 708.59 397.15 710.48
  C 397.34 710.80 397.19 712.80 397.46 713.45"
/>
<path stroke="#edafb3" vector-effect="non-scaling-stroke" d="
  M 263.21 512.00
  C 257.36 507.31 252.03 506.58 244.22 506.48
  Q 243.75 506.48 243.29 506.21
  C 234.88 501.37 227.49 513.59 224.80 519.68
  Q 221.47 527.19 222.24 535.72
  A 0.37 0.37 -87.1 0 1 221.80 536.12
  Q 215.04 534.68 208.63 531.99
  A 0.91 0.88 8.0 0 1 208.09 531.30
  C 207.46 526.84 206.77 522.47 200.77 523.59
  Q 198.07 524.10 196.78 526.53
  C 194.77 530.37 192.05 537.88 193.31 542.14
  C 195.23 548.63 202.87 545.16 204.90 541.15
  Q 206.10 538.77 206.96 541.30
  Q 214.72 564.10 230.54 582.25"
/>
<path stroke="#edcac4" vector-effect="non-scaling-stroke" d="
  M 230.54 582.25
  C 219.21 606.57 224.61 633.51 235.71 656.75"
/>
<path stroke="#edafb3" vector-effect="non-scaling-stroke" d="
  M 265.46 541.25
  C 256.11 558.68 234.32 563.21 224.22 543.20
  A 0.97 0.96 -8.5 0 0 223.51 542.68
  Q 216.41 541.58 209.77 538.71
  Q 209.32 538.51 209.65 538.87
  C 209.83 539.07 219.56 548.90 212.98 546.98
  Q 212.52 546.84 212.72 547.27
  Q 220.48 564.05 233.16 578.20"
/>
<path stroke="#db7a77" vector-effect="non-scaling-stroke" d="
  M 233.16 578.20
  L 230.54 582.25"
/>
<path stroke="#edafb3" vector-effect="non-scaling-stroke" d="
  M 262.28 530.93
  C 264.08 516.70 254.24 509.96 241.49 508.99
  A 1.15 1.15 -64.0 0 0 240.62 509.29
  Q 228.62 519.91 228.49 536.24
  A 0.52 0.51 0.6 0 0 229.00 536.75
  Q 245.81 537.06 261.74 531.58
  A 0.80 0.78 -6.1 0 0 262.28 530.93"
/>
<path stroke="#edafb3" vector-effect="non-scaling-stroke" d="
  M 230.94 544.03
  C 239.45 557.80 254.68 551.13 260.25 539.48
  Q 260.73 538.46 259.66 538.80
  Q 245.84 543.14 231.37 543.25
  Q 230.47 543.25 230.94 544.03"
/>
<path stroke="#edcac4" vector-effect="non-scaling-stroke" d="
  M 274.10 575.03
  C 259.39 565.40 244.96 562.55 233.16 578.20"
/>
<path stroke="#c7816c" vector-effect="non-scaling-stroke" d="
  M 662.96 670.50
  C 650.38 681.06 634.59 684.99 619.25 678.21"
/>
<path stroke="#818998" vector-effect="non-scaling-stroke" d="
  M 801.29 696.25
  L 799.15 701.99
  A 1.28 1.12 -89.6 0 1 798.54 702.68
  C 793.77 704.92 787.20 704.05 784.94 698.71
  A 1.43 1.32 -49.6 0 1 784.90 697.77
  L 786.71 691.75"
/>
<path stroke="#d99d83" vector-effect="non-scaling-stroke" d="
  M 663.26 793.84
  Q 647.61 802.08 631.02 808.60"
/>
<path stroke="#d9b6a8" vector-effect="non-scaling-stroke" d="
  M 631.02 808.60
  L 634.54 723.19
  A 0.52 0.51 -87.2 0 0 634.06 722.65
  L 601.25 720.29"
/>
<path stroke="#99807d" vector-effect="non-scaling-stroke" d="
  M 793.74 729.85
  L 785.25 730.54"
/>
<path stroke="#794e4f" vector-effect="non-scaling-stroke" d="
  M 785.25 730.54
  C 783.60 730.76 782.26 731.17 780.62 730.71
  Q 777.67 729.89 775.92 728.58"
/>
<path stroke="#99807d" vector-effect="non-scaling-stroke" d="
  M 775.92 728.58
  L 770.29 726.14"
/>
<path stroke="#edafb3" vector-effect="non-scaling-stroke" d="
  M 256.00 827.46
  Q 241.76 829.55 228.26 824.80
  A 0.75 0.75 21.7 0 1 227.82 823.79
  Q 231.79 814.78 222.78 813.62
  A 1.66 1.30 -50.2 0 0 221.85 813.82
  C 219.96 814.87 217.71 814.78 216.11 815.87
  C 206.08 822.74 209.45 841.29 223.88 829.98
  A 0.51 0.47 50.9 0 1 224.56 830.08
  L 228.32 834.75
  A 1.24 1.21 -16.0 0 0 229.16 835.20
  C 232.81 835.56 229.44 831.41 228.36 830.16
  Q 228.03 829.79 228.48 829.98
  Q 241.18 835.45 255.21 834.50"
/>
<path stroke="#edafb3" vector-effect="non-scaling-stroke" d="
  M 202.47 751.98
  C 201.52 755.98 204.96 761.97 209.24 757.48
  C 213.66 752.84 216.59 748.47 223.01 746.25
  A 0.74 0.74 -9.3 0 1 224.00 746.96
  C 223.77 759.32 210.62 779.84 225.03 788.04
  Q 226.70 788.98 226.00 786.75
  C 225.08 783.79 225.11 780.83 224.26 777.83
  C 221.92 769.51 226.95 760.43 229.87 752.83
  Q 232.02 747.23 231.87 745.70
  C 230.93 735.47 222.63 733.65 214.48 737.12
  Q 205.06 741.13 202.47 751.98"
/>
<path stroke="#edafb3" vector-effect="non-scaling-stroke" d="
  M 165.85 764.87
  C 167.43 767.52 170.09 768.12 172.34 765.79
  C 175.59 762.45 178.14 757.67 182.61 754.75
  C 191.96 748.63 188.37 765.68 187.31 768.80
  C 184.06 778.41 180.37 787.69 186.42 795.35
  C 187.55 796.77 188.66 795.95 188.50 794.35
  Q 187.81 787.48 188.50 780.64
  C 189.35 772.06 194.57 764.77 195.23 756.09
  C 195.71 749.69 191.90 744.15 185.49 743.19
  C 176.36 741.82 168.25 749.73 165.40 757.91
  Q 164.03 761.82 165.85 764.87"
/>
<path stroke="#edafb3" vector-effect="non-scaling-stroke" d="
  M 234.3181 800.9083
  A 5.34 4.78 74.6 0 0 237.5084 794.4906
  A 5.34 4.78 74.6 0 0 231.4819 790.6117
  A 5.34 4.78 74.6 0 0 228.2916 797.0294
  A 5.34 4.78 74.6 0 0 234.3181 800.9083"
/>
<path stroke="#edafb3" vector-effect="non-scaling-stroke" d="
  M 193.69 807.03
  A 4.85 4.85 0.0 0 0 188.84 802.18
  A 4.85 4.85 0.0 0 0 183.99 807.03
  A 4.85 4.85 0.0 0 0 188.84 811.88
  A 4.85 4.85 0.0 0 0 193.69 807.03"
/>
<path stroke="#ffe7da" vector-effect="non-scaling-stroke" d="
  M 631.02 808.60
  Q 621.46 813.35 611.25 816.96"
/>
<path stroke="#9999a2" vector-effect="non-scaling-stroke" d="
  M 611.25 816.96
  Q 611.40 814.89 610.69 812.93
  A 0.58 0.56 -16.6 0 0 610.02 812.58
  Q 574.10 821.10 537.84 827.94"
/>
<path stroke="#d9b6a8" vector-effect="non-scaling-stroke" d="
  M 537.84 827.94
  L 540.11 782.35"
/>
<path stroke="#edafb3" vector-effect="non-scaling-stroke" d="
  M 543.25 780.71
  Q 557.38 789.72 574.18 789.33
  A 0.72 0.68 78.4 0 1 574.84 789.79
  C 576.40 793.92 578.93 788.28 579.89 787.30
  A 0.49 0.48 44.2 0 1 580.59 787.30
  C 588.59 795.14 597.68 787.42 592.50 778.17
  C 590.28 774.20 580.52 765.82 577.67 774.64
  Q 576.30 778.91 578.10 782.96
  A 0.97 0.96 77.1 0 1 577.25 784.32
  Q 562.40 784.75 549.24 776.48"
/>
<path stroke="#edafb3" vector-effect="non-scaling-stroke" d="
  M 606.80 787.40
  A 1.67 1.67 -51.5 0 0 609.30 787.11
  C 611.29 784.23 612.68 781.02 613.57 777.35
  Q 617.37 761.72 619.23 745.76
  Q 620.78 732.52 608.99 735.22
  C 606.77 735.73 604.77 738.29 604.63 740.25
  C 604.44 742.87 602.23 783.22 606.80 787.40"
/>
<path stroke="#edafb3" vector-effect="non-scaling-stroke" d="
  M 604.4425 803.5781
  A 5.03 3.83 99.7 0 0 609.0652 799.2653
  A 5.03 3.83 99.7 0 0 606.1375 793.6619
  A 5.03 3.83 99.7 0 0 601.5148 797.9747
  A 5.03 3.83 99.7 0 0 604.4425 803.5781"
/>
<path stroke="#df9c88" vector-effect="non-scaling-stroke" d="
  M 775.92 728.58
  Q 782.17 745.79 774.73 763.50
  Q 772.42 768.98 768.15 772.07
  C 753.23 782.85 750.13 754.91 746.74 756.33
  A 1.40 1.06 -84.2 0 0 746.10 757.02
  C 743.33 763.65 747.24 771.49 752.43 775.90
  A 0.57 0.57 -53.6 0 1 752.54 776.64
  Q 748.66 782.61 747.25 789.71"
/>
<path stroke="#99807d" vector-effect="non-scaling-stroke" d="
  M 747.25 789.71
  L 736.28 818.59"
/>
<path stroke="#f9e0d3" vector-effect="non-scaling-stroke" d="
  M 736.28 818.59
  Q 719.25 826.00 703.64 836.17"
/>
<path stroke="#c49079" vector-effect="non-scaling-stroke" d="
  M 703.64 836.17
  L 662.52 859.66"
/>
<path stroke="#d99d83" vector-effect="non-scaling-stroke" d="
  M 662.52 859.66
  Q 636.84 872.86 610.46 884.00"
/>
<path stroke="#99807d" vector-effect="non-scaling-stroke" d="
  M 610.46 884.00
  L 605.41 885.39
  A 1.19 1.04 -10.7 0 1 603.93 884.52
  Q 601.50 854.28 603.48 820.86
  A 1.29 1.17 -10.9 0 1 604.27 819.81
  L 611.25 816.96"
/>
<path stroke="#df9c88" vector-effect="non-scaling-stroke" d="
  M 785.25 730.54
  C 787.22 738.50 785.97 745.23 784.30 753.52
  A 0.49 0.49 -79.0 0 0 784.69 754.10
  Q 798.47 756.40 807.35 767.13"
/>
<path stroke="#df9c88" vector-effect="non-scaling-stroke" d="
  M 805.96 771.50
  Q 796.27 762.15 783.59 758.82
  A 1.20 1.20 14.6 0 0 782.12 759.68
  C 779.16 771.03 769.88 781.88 756.97 778.60
  A 0.83 0.70 24.6 0 0 756.15 778.83
  Q 755.65 779.46 755.54 780.29
  A 0.53 0.48 7.9 0 0 756.00 780.84
  C 767.78 782.32 786.97 785.60 796.04 794.25"
/>
<path stroke="#df9c88" vector-effect="non-scaling-stroke" d="
  M 794.50 796.79
  Q 775.13 789.31 754.51 786.14
  A 0.64 0.63 15.6 0 0 753.82 786.52
  C 751.94 790.91 750.72 796.68 753.05 801.01
  C 756.85 808.07 770.19 812.39 777.78 814.06"
/>
<path stroke="#df9c88" vector-effect="non-scaling-stroke" d="
  M 772.25 816.79
  Q 767.30 817.05 762.64 815.96"
/>
<path stroke="#794e4f" vector-effect="non-scaling-stroke" d="
  M 762.64 815.96
  C 750.95 812.10 745.46 801.91 747.25 789.71"
/>
<path stroke="#edafb3" vector-effect="non-scaling-stroke" d="
  M 370.29 782.50
  C 366.27 785.25 328.98 808.26 327.04 806.25"
/>
<path stroke="#edafb3" vector-effect="non-scaling-stroke" d="
  M 377.04 786.25
  Q 354.28 802.11 329.00 813.54"
/>
<path stroke="#734f4a" vector-effect="non-scaling-stroke" d="
  M 537.84 827.94
  Q 522.23 830.41 506.56 830.81
  A 0.47 0.28 -70.9 0 0 506.25 831.07
  Q 506.18 831.20 506.04 831.25"
/>
<path stroke="#d99d83" vector-effect="non-scaling-stroke" d="
  M 506.04 831.25
  Q 506.06 831.04 505.97 830.89
  A 0.68 0.37 -6.8 0 0 505.42 830.67
  Q 502.35 830.68 499.28 829.54
  A 0.73 0.71 -80.3 0 1 498.81 828.86
  L 498.71 815.25"
/>
<path stroke="#c7816c" vector-effect="non-scaling-stroke" d="
  M 498.71 815.25
  L 498.50 801.79"
/>
<path stroke="#edcac4" vector-effect="non-scaling-stroke" d="
  M 411.25 801.79
  L 411.29 815.00"
/>
<path stroke="#ffe7da" vector-effect="non-scaling-stroke" d="
  M 411.29 815.00
  L 411.19 826.18
  A 0.58 0.55 -4.2 0 1 410.69 826.73
  L 401.75 828.04"
/>
<path stroke="#9999a2" vector-effect="non-scaling-stroke" d="
  M 401.75 828.04
  C 379.79 831.51 357.81 842.77 340.54 856.50"
/>
<path stroke="#99807d" vector-effect="non-scaling-stroke" d="
  M 762.64 815.96
  L 761.46 819.25"
/>
<path stroke="#93929b" vector-effect="non-scaling-stroke" d="
  M 751.75 836.17
  C 739.66 839.76 732.08 830.26 736.28 818.59"
/>
<path stroke="#edb29f" vector-effect="non-scaling-stroke" d="
  M 498.71 815.25
  Q 479.61 828.09 455.19 831.29
  Q 454.07 831.44 452.97 831.23
  C 437.66 828.32 424.04 824.27 411.29 815.00"
/>
<path stroke="#734f4a" vector-effect="non-scaling-stroke" d="
  M 610.46 884.00
  L 610.29 905.25"
/>
<path stroke="#5e4241" vector-effect="non-scaling-stroke" d="
  M 610.29 905.25
  L 610.46 935.97
  A 0.70 0.69 -9.3 0 1 609.98 936.63
  C 601.32 939.54 592.30 940.93 583.50 942.96"
/>
<path stroke="#93929b" vector-effect="non-scaling-stroke" d="
  M 583.50 942.96
  Q 572.06 945.75 561.81 946.85
  Q 559.10 947.14 559.19 949.87
  L 567.05 1176.00"
/>
<path stroke="#99807d" vector-effect="non-scaling-stroke" d="
  M 343.94 1104.67
  Q 343.95 1104.03 344.56 1103.58
  C 349.95 1099.67 360.14 1089.20 359.38 1081.99
  Q 357.23 1061.50 346.02 1044.29
  C 345.68 1043.77 345.74 1043.33 345.71 1042.75"
/>
<path stroke="#93929b" vector-effect="non-scaling-stroke" d="
  M 345.71 1042.75
  Q 346.04 1034.06 347.34 990.31
  Q 347.60 981.60 347.42 976.38
  A 1.09 1.07 18.0 0 0 347.00 975.57
  L 332.71 964.75"
/>
<path stroke="#99807d" vector-effect="non-scaling-stroke" d="
  M 332.71 964.75
  L 334.11 962.18
  A 1.11 0.80 51.2 0 0 334.06 961.27
  C 325.74 944.37 307.10 928.68 287.30 930.02
  A 1.25 1.12 -70.0 0 0 286.50 930.45
  L 285.00 932.29"
/>
<path stroke="#99807d" vector-effect="non-scaling-stroke" d="
  M 401.75 828.04
  C 414.77 848.39 432.76 867.79 454.35 879.16
  A 1.40 1.38 44.6 0 0 455.66 879.16
  C 476.08 868.49 493.46 850.25 506.04 831.25"
/>
<path stroke="#b1b8c4" vector-effect="non-scaling-stroke" d="
  M 1192.21 898.02
  L 1192.27 926.09"
/>
<path stroke="#c2cad6" vector-effect="non-scaling-stroke" d="
  M 1192.27 926.09
  L 1192.25 969.21"
/>
<path stroke="#93929b" vector-effect="non-scaling-stroke" d="
  M 1192.25 969.21
  L 1016.74 969.24
  A 0.50 0.50 0.0 0 0 1016.24 969.74
  L 1016.21 1005.00"
/>
<path stroke="#d3afa1" vector-effect="non-scaling-stroke" d="
  M 1016.21 1005.00
  L 776.81 1005.01
  A 1.08 1.06 19.4 0 0 775.98 1005.40
  L 750.72 1035.93"
/>
<path stroke="#bea297" vector-effect="non-scaling-stroke" d="
  M 750.72 1035.93
  L 750.94 1176.00"
/>
<path stroke="#bea297" vector-effect="non-scaling-stroke" d="
  M 583.50 942.96
  C 587.98 943.05 592.83 942.49 596.84 942.49
  Q 650.01 942.51 703.20 942.49
  A 0.53 0.53 -88.3 0 0 703.73 941.99
  Q 703.90 939.69 703.91 937.50
  Q 704.00 886.94 703.64 836.17"
/>
<path stroke="#9e5f47" vector-effect="non-scaling-stroke" d="
  M 610.29 905.25
  L 662.26 905.25
  A 0.75 0.74 -89.2 0 0 663.00 904.52
  Q 663.36 882.18 662.52 859.66"
/>
<path stroke="#8090a9" vector-effect="non-scaling-stroke" d="
  M 1265.21 925.75
  L 1192.27 926.09"
/>
<path stroke="#626a7f" vector-effect="non-scaling-stroke" d="
  M 1265.00 969.21
  L 1192.25 969.21"
/>
<path stroke="#f9e0d3" vector-effect="non-scaling-stroke" d="
  M 332.71 964.75
  Q 319.99 982.66 309.42 1001.95
  A 1.11 1.10 -53.9 0 0 309.62 1003.27
  Q 319.60 1012.94 329.23 1023.20
  C 334.81 1029.15 339.66 1036.10 344.76 1042.71
  A 0.64 0.38 -18.7 0 0 345.32 1042.83
  L 345.71 1042.75"
/>
<path stroke="#df9c88" vector-effect="non-scaling-stroke" d="
  M 310.67 1093.43
  C 310.82 1098.18 314.75 1104.77 320.30 1104.45
  Q 320.79 1104.42 320.45 1104.03
  L 311.30 1093.20
  Q 310.64 1092.40 310.67 1093.43"
/>
<path stroke="#734f4a" vector-effect="non-scaling-stroke" d="
  M 1441.75 1005.04
  L 1441.48 1020.49
  A 0.53 0.52 0.6 0 1 1440.95 1021.00
  L 1017.09 1021.00
  A 0.88 0.87 90.0 0 1 1016.22 1020.12
  L 1016.21 1005.00"
/>
<path stroke="#9e5f47" vector-effect="non-scaling-stroke" d="
  M 1698.71 1035.50
  Q 1698.44 1035.47 1698.20 1035.53
  Q 1697.37 1035.75 1697.26 1035.75
  Q 1224.41 1035.75 751.56 1035.75
  Q 751.32 1036.20 750.72 1035.93"
/>
</g>
<path fill="#f3f2f1" d="
  M 0.00 0.00
  L 1782.00 0.00
  L 1782.00 1176.00
  L 1698.47 1176.00
  L 1698.71 1035.50
  L 1675.99 1005.46
  A 1.00 1.00 71.6 0 0 1675.19 1005.06
  L 1441.75 1005.04
  Q 1441.20 987.40 1441.91 969.91
  A 0.65 0.65 -89.1 0 0 1441.26 969.24
  L 1265.00 969.21
  L 1265.21 925.75
  L 1265.21 898.03
  L 1705.06 898.00
  A 0.30 0.29 90.0 0 0 1705.35 897.70
  L 1705.48 857.51
  A 0.49 0.20 40.5 0 0 1705.33 857.22
  Q 1705.26 857.13 1705.26 857.00
  Q 1705.24 527.47 1705.26 198.00
  A 0.25 0.25 0.0 0 0 1705.01 197.75
  L 752.50 197.75
  A 0.49 0.49 0.0 0 0 752.01 198.24
  L 752.01 725.03
  C 732.05 727.94 721.15 743.47 716.28 761.87
  A 1.45 1.36 80.9 0 1 715.75 762.66
  C 714.46 763.62 704.60 770.75 703.96 770.00
  C 704.04 548.53 704.11 327.05 703.92 105.66
  A 0.41 0.41 90.0 0 0 703.51 105.25
  Q 383.83 105.26 65.15 105.24
  C 58.86 105.24 47.11 104.69 38.00 105.28
  A 0.54 0.53 87.7 0 0 37.51 105.82
  L 37.52 941.96
  A 0.50 0.49 90.0 0 0 38.01 942.46
  L 277.81 942.54
  Q 267.85 957.59 257.65 972.37
  C 250.72 982.41 236.62 1005.27 245.24 1018.14
  Q 254.23 1031.55 265.24 1039.78
  Q 283.87 1053.70 302.37 1068.47
  Q 304.19 1069.93 303.74 1072.23
  C 302.50 1078.51 306.40 1086.93 309.95 1092.08
  A 0.70 0.70 61.6 0 1 309.64 1093.12
  C 301.35 1096.60 310.90 1109.39 315.29 1112.21
  C 324.03 1117.84 336.68 1109.15 343.94 1104.67
  L 341.94 1176.00
  L 0.00 1176.00
  L 0.00 0.00
  Z"
/>
<path fill="#89523d" d="
  M 703.96 770.00
  Q 703.78 770.09 703.74 770.23
  A 0.67 0.19 -78.4 0 1 703.52 770.65
  Q 684.17 783.02 663.26 793.84
  L 662.96 670.50
  C 677.98 657.05 684.59 633.43 685.76 613.99
  C 686.82 596.53 680.76 574.92 663.00 567.71
  L 663.00 146.59
  A 0.58 0.58 -0.5 0 0 662.41 146.01
  L 622.49 146.21
  A 0.46 0.11 38.8 0 1 622.20 146.07
  Q 622.12 146.02 622.00 146.02
  Q 354.63 146.01 87.25 146.00
  C 85.81 146.00 83.54 146.57 81.48 146.00
  A 0.97 0.97 -82.1 0 0 80.25 146.94
  L 80.25 904.76
  A 0.49 0.49 -89.9 0 0 80.74 905.25
  L 296.53 905.34
  Q 288.65 917.61 281.99 930.05
  A 0.78 0.71 -52.4 0 0 282.06 930.89
  Q 283.19 932.16 285.00 932.29
  L 277.81 942.54
  L 38.01 942.46
  A 0.50 0.49 90.0 0 1 37.52 941.96
  L 37.51 105.82
  A 0.54 0.53 87.7 0 1 38.00 105.28
  C 47.11 104.69 58.86 105.24 65.15 105.24
  Q 383.83 105.26 703.51 105.25
  A 0.41 0.41 -89.6 0 1 703.92 105.66
  C 704.11 327.05 704.04 548.53 703.96 770.00
  Z"
/>
<path fill="#b36c50" d="
  M 663.00 567.71
  C 652.37 565.56 644.26 569.14 635.79 575.25
  Q 642.01 558.77 644.27 542.00
  Q 651.56 487.82 639.82 434.46
  C 634.62 410.81 625.75 388.08 609.12 370.04
  A 0.73 0.70 -53.1 0 1 609.02 369.23
  C 612.42 362.78 615.16 354.58 612.95 347.30
  A 1.99 1.99 -7.2 0 0 611.13 345.89
  Q 593.67 345.13 576.00 341.33
  A 0.57 0.53 10.2 0 1 575.55 340.73
  Q 575.69 339.61 576.38 339.00
  L 606.45 342.15
  A 0.48 0.47 -84.9 0 0 606.98 341.70
  L 614.78 211.48
  A 0.50 0.50 8.4 0 0 614.31 210.95
  L 518.37 205.36
  A 0.49 0.48 3.7 0 0 517.86 205.80
  L 510.32 305.72
  C 478.41 313.15 452.41 316.94 413.68 322.39
  Q 392.92 325.31 369.95 331.13
  Q 375.29 321.47 379.75 311.21
  L 430.47 308.25
  A 0.89 0.87 85.6 0 0 431.29 307.28
  L 419.27 188.68
  A 0.37 0.36 84.4 0 0 418.88 188.35
  L 331.30 193.83
  A 0.50 0.50 -4.0 0 0 330.84 194.37
  L 340.29 302.50
  Q 310.49 316.96 277.29 314.22
  L 265.21 312.08
  A 1.28 1.27 -80.2 0 1 264.18 310.61
  L 279.91 218.54
  A 0.49 0.49 10.3 0 0 279.52 217.98
  L 145.11 190.70
  A 0.77 0.76 10.9 0 0 144.21 191.30
  L 107.98 383.52
  A 0.62 0.61 9.4 0 0 108.50 384.24
  L 198.26 396.33
  A 0.98 0.97 -82.8 0 1 199.09 397.41
  L 192.93 449.09
  A 0.50 0.50 0.0 0 0 193.37 449.65
  L 265.74 458.13
  L 263.21 486.00
  L 164.45 512.07
  A 0.52 0.51 -14.3 0 0 164.08 512.69
  L 201.28 666.21
  A 0.50 0.50 -14.6 0 0 201.90 666.57
  L 235.71 656.75
  C 247.08 675.68 269.12 688.07 290.82 677.84
  Q 299.86 708.20 318.60 734.06
  A 0.31 0.11 -62.6 0 1 318.57 734.30
  L 318.50 734.46
  L 309.27 737.38
  A 0.56 0.52 73.7 0 0 308.94 738.05
  L 327.04 806.25
  Q 326.81 806.91 326.34 807.13
  C 304.37 817.02 280.10 825.24 256.00 827.46
  L 269.37 727.80
  A 0.22 0.22 7.8 0 0 269.18 727.55
  L 162.14 712.36
  A 0.52 0.52 9.4 0 0 161.55 712.79
  L 140.09 845.72
  A 0.48 0.47 -81.9 0 0 140.50 846.27
  L 251.59 858.79
  A 0.35 0.35 -82.5 0 0 251.98 858.49
  L 255.21 834.50
  C 262.47 833.50 269.99 832.65 276.87 831.10
  Q 303.82 825.04 329.00 813.54
  L 340.54 856.50
  Q 319.97 873.07 304.94 893.94
  Q 299.13 902.00 296.53 905.34
  L 80.74 905.25
  A 0.49 0.49 89.9 0 1 80.25 904.76
  L 80.25 146.94
  A 0.97 0.97 -82.1 0 1 81.48 146.00
  C 83.54 146.57 85.81 146.00 87.25 146.00
  Q 354.63 146.01 622.00 146.02
  Q 622.12 146.02 622.20 146.07
  A 0.46 0.11 38.8 0 0 622.49 146.21
  L 662.41 146.01
  A 0.58 0.58 -0.5 0 1 663.00 146.59
  L 663.00 567.71
  Z"
/>
<path fill="#72a276" d="
  M 379.75 311.21
  Q 390.27 285.38 391.54 257.50
  Q 397.27 255.15 400.10 250.57
  C 405.55 241.72 405.57 224.90 393.10 221.28
  C 391.79 220.89 389.60 221.02 388.91 222.18
  A 1.17 1.17 23.5 0 0 389.59 223.90
  C 402.80 227.68 400.99 246.86 391.50 253.04
  Q 391.39 246.71 389.66 239.44
  A 0.81 0.79 67.6 0 1 390.01 238.58
  C 400.91 231.55 385.39 223.96 379.48 228.86
  C 376.83 231.05 374.98 236.97 379.59 238.69
  Q 381.20 239.29 382.92 239.49
  A 0.83 0.83 -7.0 0 1 383.60 240.02
  Q 386.54 247.89 383.50 255.71
  C 359.25 252.66 363.29 218.50 385.25 217.11
  C 387.57 216.97 386.27 215.06 385.24 214.59
  C 362.08 203.89 350.95 254.01 382.40 259.38
  C 374.76 279.36 359.43 293.38 340.29 302.50
  L 330.84 194.37
  A 0.50 0.50 -8.3 0 1 331.30 193.83
  L 418.88 188.35
  A 0.37 0.36 84.4 0 1 419.27 188.68
  L 431.29 307.28
  A 0.89 0.87 85.6 0 1 430.47 308.25
  L 379.75 311.21
  Z"
/>
<path fill="#ffffff" d="
  M 277.29 314.22
  Q 270.60 313.95 258.26 311.49
  Q 209.45 301.74 187.19 256.96
  A 0.96 0.81 -31.9 0 1 187.55 255.86
  L 190.42 253.78
  A 0.51 0.46 -37.9 0 1 191.09 253.83
  C 192.71 255.76 195.02 257.37 197.66 256.93
  C 206.62 255.43 201.65 238.59 193.72 238.21
  C 188.24 237.94 187.19 244.84 188.66 249.06
  A 0.74 0.64 63.8 0 1 188.45 249.86
  L 184.42 252.69
  Q 182.88 253.77 183.25 255.35
  Q 183.98 258.41 185.37 261.34
  C 206.96 306.68 257.08 323.82 304.56 318.36
  C 305.31 318.27 306.26 318.56 307.00 318.71
  L 359.82 326.86
  A 0.63 0.62 2.9 0 1 360.35 327.44
  Q 360.55 330.98 359.75 334.46
  C 329.63 344.43 302.59 361.94 286.46 389.75
  Q 268.14 394.24 249.37 391.18
  A 0.38 0.37 18.9 0 1 249.10 390.64
  Q 252.00 385.20 247.36 382.56
  Q 245.51 381.51 243.47 382.16
  C 239.52 383.41 229.50 387.28 229.82 392.38
  C 230.16 397.82 236.68 397.17 240.54 395.19
  A 0.51 0.50 -27.3 0 1 241.22 395.40
  C 241.84 396.59 246.66 410.34 249.22 402.24
  A 1.28 0.99 44.8 0 0 249.10 401.33
  L 246.77 396.94
  Q 246.52 396.48 247.05 396.61
  C 259.56 399.78 270.54 398.18 283.00 396.29
  C 273.79 416.28 269.22 436.52 265.74 458.13
  L 193.37 449.65
  A 0.50 0.50 -26.0 0 1 192.93 449.09
  L 199.09 397.41
  A 0.98 0.97 -82.8 0 0 198.26 396.33
  L 108.50 384.24
  A 0.62 0.61 9.4 0 1 107.98 383.52
  L 144.21 191.30
  A 0.77 0.76 10.9 0 1 145.11 190.70
  L 279.52 217.98
  A 0.49 0.49 10.3 0 1 279.91 218.54
  L 264.18 310.61
  A 1.28 1.27 -80.2 0 0 265.21 312.08
  L 277.29 314.22
  Z
  M 209.61 312.05
  Q 208.01 322.09 205.92 332.04
  C 205.25 335.21 205.40 337.96 206.05 340.93
  Q 206.62 343.51 207.93 341.19
  C 209.50 338.39 210.44 335.91 210.92 332.54
  Q 213.62 313.66 214.23 309.76
  C 214.90 305.47 212.39 304.84 208.89 305.60
  Q 196.27 308.35 185.26 315.07
  C 179.93 318.32 182.34 322.79 188.03 321.34
  C 196.20 319.25 201.90 315.49 209.23 311.79
  Q 209.69 311.56 209.61 312.05
  Z
  M 138.51 330.04
  C 142.87 336.95 152.18 341.05 159.75 342.22
  C 176.75 344.86 193.43 334.30 202.27 320.05
  C 202.51 319.66 202.69 318.79 201.75 319.52
  C 197.32 322.91 192.33 325.28 187.17 328.24
  Q 172.77 336.51 156.16 330.98
  Q 153.73 330.17 143.05 324.95
  C 138.29 322.62 136.13 326.29 138.51 330.04
  Z"
/>
<path fill="#91a1ba" d="
  M 1265.21 898.03
  L 1192.21 898.02
  L 752.55 897.99
  A 0.50 0.49 90.0 0 1 752.06 897.49
  L 751.75 836.17
  Q 753.94 834.78 755.83 832.43
  C 758.54 829.07 760.01 823.41 761.46 819.25
  Q 767.24 819.67 772.25 816.79
  Q 775.41 816.23 777.78 814.06
  Q 788.51 807.77 794.50 796.79
  L 796.04 794.25
  C 798.75 789.50 800.47 783.98 802.61 779.43
  Q 804.45 775.53 805.96 771.50
  L 807.35 767.13
  C 812.30 752.30 809.02 736.76 793.74 729.85
  Q 799.46 715.80 802.50 705.50
  Q 803.88 700.85 801.29 696.25
  L 823.21 627.00
  L 823.30 845.22
  A 0.51 0.50 90.0 0 0 823.80 845.73
  L 1633.47 845.72
  A 0.51 0.49 90.0 0 0 1633.96 845.21
  L 1633.99 250.36
  A 0.36 0.36 90.0 0 0 1633.63 250.00
  L 823.75 250.00
  A 0.49 0.49 0.0 0 0 823.26 250.49
  L 823.29 581.50
  L 812.83 614.11
  L 811.02 619.30
  L 786.71 691.75
  Q 782.20 693.49 780.64 697.18
  Q 776.41 707.23 770.29 726.14
  Q 761.61 723.95 752.01 725.03
  L 752.01 198.24
  A 0.49 0.49 0.0 0 1 752.50 197.75
  L 1705.01 197.75
  A 0.25 0.25 0.0 0 1 1705.26 198.00
  Q 1705.24 527.47 1705.26 857.00
  Q 1705.26 857.13 1705.33 857.22
  A 0.49 0.20 40.5 0 1 1705.48 857.51
  L 1705.35 897.70
  A 0.30 0.29 -90.0 0 1 1705.06 898.00
  L 1265.21 898.03
  Z
  M 1643.47 873.75
  A 6.40 6.40 0.0 0 0 1637.07 867.35
  A 6.40 6.40 0.0 0 0 1630.67 873.75
  A 6.40 6.40 0.0 0 0 1637.07 880.15
  A 6.40 6.40 0.0 0 0 1643.47 873.75
  Z
  M 1669.01 873.76
  A 6.40 6.40 0.0 0 0 1662.61 867.36
  A 6.40 6.40 0.0 0 0 1656.21 873.76
  A 6.40 6.40 0.0 0 0 1662.61 880.16
  A 6.40 6.40 0.0 0 0 1669.01 873.76
  Z"
/>
<path fill="#ffffff" d="
  M 576.38 339.00
  Q 580.11 329.63 577.05 320.47
  Q 576.45 318.69 574.45 318.75
  L 567.75 318.96
  Q 580.25 289.74 580.95 257.94
  A 1.24 1.24 -75.6 0 1 582.76 256.87
  C 588.41 259.86 595.23 255.65 590.70 249.49
  C 588.86 246.99 584.57 243.94 581.17 243.28
  C 576.43 242.36 572.65 246.54 576.47 250.65
  A 1.41 1.28 24.2 0 1 576.85 251.52
  C 577.83 274.65 572.06 298.92 562.25 319.71
  Q 541.20 323.08 519.74 324.52
  A 0.43 0.43 0.6 0 1 519.28 324.06
  Q 519.75 318.00 518.36 310.39
  Q 517.06 303.28 510.32 305.72
  L 517.86 205.80
  A 0.49 0.48 3.7 0 1 518.37 205.36
  L 614.31 210.95
  A 0.50 0.50 16.7 0 1 614.78 211.48
  L 606.98 341.70
  A 0.48 0.47 -84.9 0 1 606.45 342.15
  L 576.38 339.00
  Z"
/>
<path fill="#ffffff" d="
  M 383.50 255.71
  Q 383.49 257.69 382.40 259.38
  C 350.95 254.01 362.08 203.89 385.24 214.59
  C 386.27 215.06 387.57 216.97 385.25 217.11
  C 363.29 218.50 359.25 252.66 383.50 255.71
  Z"
/>
<path fill="#ffffff" d="
  M 391.54 257.50
  L 391.50 253.04
  C 400.99 246.86 402.80 227.68 389.59 223.90
  A 1.17 1.17 23.5 0 1 388.91 222.18
  C 389.60 221.02 391.79 220.89 393.10 221.28
  C 405.57 224.90 405.55 241.72 400.10 250.57
  Q 397.27 255.15 391.54 257.50
  Z"
/>
<path fill="#db5f66" d="
  M 391.50 253.04
  L 391.54 257.50
  Q 390.27 285.38 379.75 311.21
  Q 375.29 321.47 369.95 331.13
  L 365.27 332.33
  Q 370.70 322.24 375.21 311.75
  Q 384.79 289.05 387.03 264.51
  Q 387.06 264.18 386.85 263.97
  A 0.42 0.34 -57.3 0 0 386.24 264.17
  C 377.09 285.18 361.02 298.11 340.96 308.00
  Q 325.45 314.94 308.69 317.61
  A 1.37 0.84 -65.8 0 0 307.94 318.12
  Q 307.60 318.56 307.00 318.71
  C 306.26 318.56 305.31 318.27 304.56 318.36
  C 257.08 323.82 206.96 306.68 185.37 261.34
  Q 183.98 258.41 183.25 255.35
  Q 182.88 253.77 184.42 252.69
  L 188.45 249.86
  A 0.74 0.64 63.8 0 0 188.66 249.06
  C 187.19 244.84 188.24 237.94 193.72 238.21
  C 201.65 238.59 206.62 255.43 197.66 256.93
  C 195.02 257.37 192.71 255.76 191.09 253.83
  A 0.51 0.46 -37.9 0 0 190.42 253.78
  L 187.55 255.86
  A 0.96 0.81 -31.9 0 0 187.19 256.96
  Q 209.45 301.74 258.26 311.49
  Q 270.60 313.95 277.29 314.22
  Q 310.49 316.96 340.29 302.50
  C 359.43 293.38 374.76 279.36 382.40 259.38
  Q 383.49 257.69 383.50 255.71
  Q 386.54 247.89 383.60 240.02
  A 0.83 0.83 -7.0 0 0 382.92 239.49
  Q 381.20 239.29 379.59 238.69
  C 374.98 236.97 376.83 231.05 379.48 228.86
  C 385.39 223.96 400.91 231.55 390.01 238.58
  A 0.81 0.79 67.6 0 0 389.66 239.44
  Q 391.39 246.71 391.50 253.04
  Z"
/>
<path fill="#db5f66" d="
  M 567.75 318.96
  L 562.25 319.71
  C 572.06 298.92 577.83 274.65 576.85 251.52
  A 1.41 1.28 24.2 0 0 576.47 250.65
  C 572.65 246.54 576.43 242.36 581.17 243.28
  C 584.57 243.94 588.86 246.99 590.70 249.49
  C 595.23 255.65 588.41 259.86 582.76 256.87
  A 1.24 1.24 -75.6 0 0 580.95 257.94
  Q 580.25 289.74 567.75 318.96
  Z"
/>
<path fill="#323244" d="
  M 823.21 627.00
  Q 823.83 625.75 823.57 624.54
  A 0.71 0.64 -3.0 0 0 822.94 624.03
  Q 816.88 623.50 811.02 619.30
  L 812.83 614.11
  Q 818.51 618.44 825.23 618.69
  A 0.66 0.64 -80.0 0 0 825.87 618.23
  L 857.28 519.29
  A 0.49 0.49 -73.2 0 0 856.95 518.67
  Q 851.35 517.05 846.49 513.82
  A 0.37 0.37 -63.5 0 0 845.93 514.01
  L 823.29 581.50
  L 823.26 250.49
  A 0.49 0.49 0.0 0 1 823.75 250.00
  L 1633.63 250.00
  A 0.36 0.36 -90.0 0 1 1633.99 250.36
  L 1633.96 845.21
  A 0.51 0.49 -90.0 0 1 1633.47 845.72
  L 823.80 845.73
  A 0.51 0.50 90.0 0 1 823.30 845.22
  L 823.21 627.00
  Z
  M 848.30 508.73
  Q 852.87 512.67 858.54 513.66
  A 0.59 0.57 -76.7 0 0 859.18 513.25
  L 893.99 403.90
  A 0.88 0.86 2.2 0 1 894.63 403.32
  Q 898.33 402.49 897.70 399.42
  C 896.71 394.64 882.71 390.92 882.79 398.45
  A 1.61 0.99 36.5 0 0 883.14 399.32
  Q 883.84 400.22 883.50 401.25
  Q 865.75 454.21 848.07 507.90
  A 0.78 0.78 29.6 0 0 848.30 508.73
  Z"
/>
<path fill="#72a276" d="
  M 375.21 311.75
  L 341.99 313.48
  A 0.58 0.53 -3.8 0 1 341.40 313.01
  L 340.96 308.00
  C 361.02 298.11 377.09 285.18 386.24 264.17
  A 0.42 0.34 -57.3 0 1 386.85 263.97
  Q 387.06 264.18 387.03 264.51
  Q 384.79 289.05 375.21 311.75
  Z"
/>
<path fill="#402523" d="
  M 562.25 319.71
  L 567.75 318.96
  L 574.45 318.75
  Q 576.45 318.69 577.05 320.47
  Q 580.11 329.63 576.38 339.00
  Q 575.69 339.61 575.55 340.73
  A 0.57 0.53 10.2 0 0 576.00 341.33
  Q 593.67 345.13 611.13 345.89
  A 1.99 1.99 -7.2 0 1 612.95 347.30
  C 615.16 354.58 612.42 362.78 609.02 369.23
  A 0.73 0.70 -53.1 0 0 609.12 370.04
  C 625.75 388.08 634.62 410.81 639.82 434.46
  Q 651.56 487.82 644.27 542.00
  Q 642.01 558.77 635.79 575.25
  L 632.73 580.99
  Q 621.41 570.61 609.72 556.78
  C 606.96 553.51 606.48 551.11 608.00 546.84
  Q 610.09 540.91 610.70 535.19
  Q 613.74 506.39 612.58 476.28
  C 612.15 465.27 612.48 446.61 598.84 442.59
  C 585.31 438.59 572.58 438.27 556.50 438.22
  C 538.22 438.17 517.14 437.57 498.78 442.32
  C 491.64 444.17 483.63 447.71 476.22 450.67
  Q 460.30 457.02 443.93 453.77
  C 431.87 451.37 420.84 444.62 408.80 441.69
  Q 401.48 439.91 396.25 439.47
  Q 372.18 437.45 340.43 438.24
  Q 324.98 438.63 312.25 442.25
  C 300.69 445.53 298.14 457.32 297.80 468.00
  C 296.96 494.79 296.66 516.02 300.01 539.75
  C 300.68 544.51 305.22 550.53 301.15 555.64
  Q 291.02 568.34 277.29 581.00
  L 274.10 575.03
  Q 268.08 558.56 265.46 541.25
  Q 263.52 526.68 263.21 512.00
  L 263.21 486.00
  L 265.74 458.13
  C 269.22 436.52 273.79 416.28 283.00 396.29
  L 286.46 389.75
  C 302.59 361.94 329.63 344.43 359.75 334.46
  L 365.27 332.33
  L 369.95 331.13
  Q 392.92 325.31 413.68 322.39
  C 452.41 316.94 478.41 313.15 510.32 305.72
  Q 517.06 303.28 518.36 310.39
  Q 519.75 318.00 519.28 324.06
  A 0.43 0.43 0.4 0 0 519.74 324.52
  Q 541.20 323.08 562.25 319.71
  Z"
/>
<path fill="#db5f66" d="
  M 209.23 311.79
  C 201.90 315.49 196.20 319.25 188.03 321.34
  C 182.34 322.79 179.93 318.32 185.26 315.07
  Q 196.27 308.35 208.89 305.60
  C 212.39 304.84 214.90 305.47 214.23 309.76
  Q 213.62 313.66 210.92 332.54
  C 210.44 335.91 209.50 338.39 207.93 341.19
  Q 206.62 343.51 206.05 340.93
  C 205.40 337.96 205.25 335.21 205.92 332.04
  Q 208.01 322.09 209.61 312.05
  Q 209.69 311.56 209.23 311.79
  Z"
/>
<path fill="#b36c50" d="
  M 340.96 308.00
  L 341.40 313.01
  A 0.58 0.53 -3.8 0 0 341.99 313.48
  L 375.21 311.75
  Q 370.70 322.24 365.27 332.33
  L 359.75 334.46
  Q 360.55 330.98 360.35 327.44
  A 0.63 0.62 2.9 0 0 359.82 326.86
  L 307.00 318.71
  Q 307.60 318.56 307.94 318.12
  A 1.37 0.84 -65.8 0 1 308.69 317.61
  Q 325.45 314.94 340.96 308.00
  Z"
/>
<path fill="#db5f66" d="
  M 159.75 342.22
  C 152.18 341.05 142.87 336.95 138.51 330.04
  C 136.13 326.29 138.29 322.62 143.05 324.95
  Q 153.73 330.17 156.16 330.98
  Q 172.77 336.51 187.17 328.24
  C 192.33 325.28 197.32 322.91 201.75 319.52
  C 202.69 318.79 202.51 319.66 202.27 320.05
  C 193.43 334.30 176.75 344.86 159.75 342.22
  Z"
/>
<path fill="#db5f66" d="
  M 286.46 389.75
  L 283.00 396.29
  C 270.54 398.18 259.56 399.78 247.05 396.61
  Q 246.52 396.48 246.77 396.94
  L 249.10 401.33
  A 1.28 0.99 44.8 0 1 249.22 402.24
  C 246.66 410.34 241.84 396.59 241.22 395.40
  A 0.51 0.50 -27.3 0 0 240.54 395.19
  C 236.68 397.17 230.16 397.82 229.82 392.38
  C 229.50 387.28 239.52 383.41 243.47 382.16
  Q 245.51 381.51 247.36 382.56
  Q 252.00 385.20 249.10 390.64
  A 0.38 0.37 18.9 0 0 249.37 391.18
  Q 268.14 394.24 286.46 389.75
  Z"
/>
<path fill="#cfdfeb" d="
  M 848.30 508.73
  A 0.78 0.78 29.6 0 1 848.07 507.90
  Q 865.75 454.21 883.50 401.25
  Q 883.84 400.22 883.14 399.32
  A 1.61 0.99 36.5 0 1 882.79 398.45
  C 882.71 390.92 896.71 394.64 897.70 399.42
  Q 898.33 402.49 894.63 403.32
  A 0.88 0.86 2.2 0 0 893.99 403.90
  L 859.18 513.25
  A 0.59 0.57 -76.7 0 1 858.54 513.66
  Q 852.87 512.67 848.30 508.73
  Z"
/>
<path fill="#ffceb5" d="
  M 632.73 580.99
  C 631.01 614.48 627.41 647.11 619.25 678.21
  Q 612.29 700.08 600.93 719.99
  A 0.19 0.16 -69.1 0 0 601.03 720.26
  L 601.25 720.29
  Q 600.45 720.55 600.01 721.24
  Q 579.46 753.32 549.24 776.48
  Q 545.86 777.85 543.25 780.71
  Q 541.35 780.72 540.11 782.35
  Q 519.92 793.33 498.50 801.79
  Q 480.90 808.42 463.76 808.77
  Q 443.52 809.18 434.74 808.05
  Q 426.93 807.05 411.25 801.79
  Q 393.84 794.69 377.04 786.25
  L 370.29 782.50
  C 350.21 769.81 334.00 753.83 319.45 735.06
  Q 319.31 734.88 318.50 734.46
  L 318.57 734.30
  A 0.31 0.11 -62.6 0 0 318.60 734.06
  Q 299.86 708.20 290.82 677.84
  Q 286.73 663.73 284.46 649.51
  Q 279.00 615.45 277.29 581.00
  Q 291.02 568.34 301.15 555.64
  C 305.22 550.53 300.68 544.51 300.01 539.75
  C 296.66 516.02 296.96 494.79 297.80 468.00
  C 298.14 457.32 300.69 445.53 312.25 442.25
  Q 324.98 438.63 340.43 438.24
  Q 372.18 437.45 396.25 439.47
  Q 401.48 439.91 408.80 441.69
  C 420.84 444.62 431.87 451.37 443.93 453.77
  Q 460.30 457.02 476.22 450.67
  C 483.63 447.71 491.64 444.17 498.78 442.32
  C 517.14 437.57 538.22 438.17 556.50 438.22
  C 572.58 438.27 585.31 438.59 598.84 442.59
  C 612.48 446.61 612.15 465.27 612.58 476.28
  Q 613.74 506.39 610.70 535.19
  Q 610.09 540.91 608.00 546.84
  C 606.48 551.11 606.96 553.51 609.72 556.78
  Q 621.41 570.61 632.73 580.99
  Z
  M 330.20 527.07
  A 2.04 2.03 55.9 0 0 331.84 527.39
  Q 338.09 525.89 345.07 525.22
  C 363.43 523.46 381.77 522.67 400.35 526.73
  Q 403.65 527.45 405.19 527.04
  C 409.16 525.97 409.52 520.45 407.63 517.39
  C 405.44 513.84 398.72 510.85 395.00 510.22
  C 377.06 507.19 355.35 509.50 338.11 517.03
  C 335.69 518.08 325.05 523.45 330.20 527.07
  Z
  M 504.62 526.20
  Q 506.55 527.71 508.94 527.14
  C 530.68 521.97 555.55 523.10 577.57 526.91
  C 580.83 527.47 583.97 526.83 581.41 522.52
  Q 580.08 520.30 574.99 518.06
  Q 548.40 506.39 519.68 509.73
  C 513.42 510.46 503.64 513.35 502.48 520.73
  Q 501.94 524.12 504.62 526.20
  Z
  M 355.50 571.96
  Q 350.85 586.98 356.08 601.08
  Q 358.83 608.48 363.18 611.81
  C 371.99 618.54 384.07 612.50 388.00 602.98
  Q 392.38 592.35 390.09 580.20
  C 392.52 580.13 394.32 579.02 394.60 576.43
  C 395.88 564.52 383.60 556.26 373.01 555.92
  C 359.43 555.50 347.65 564.18 343.49 576.97
  Q 342.51 579.99 344.64 581.94
  A 1.31 1.24 -23.2 0 0 345.53 582.27
  Q 348.15 582.20 349.12 580.34
  Q 352.05 574.69 355.50 571.96
  Z
  M 520.96 580.16
  Q 518.94 592.36 523.17 602.78
  Q 528.09 614.89 540.75 614.44
  C 544.94 614.29 549.68 611.63 551.76 608.22
  Q 561.80 591.69 555.63 571.72
  Q 559.86 575.56 562.51 580.80
  A 1.78 1.41 85.9 0 0 563.16 581.51
  Q 566.19 583.22 567.45 580.81
  C 568.98 577.88 566.18 572.67 564.55 570.24
  Q 554.55 555.32 537.77 556.10
  C 528.02 556.55 520.47 561.55 517.06 570.63
  C 515.71 574.25 515.62 579.87 520.96 580.16
  Z
  M 435.74 671.65
  Q 436.61 672.18 437.56 672.54
  Q 452.96 678.38 468.60 674.12
  C 473.74 672.72 477.85 671.82 479.14 666.84
  A 1.24 1.24 -76.8 0 0 478.20 665.32
  Q 473.54 664.33 469.01 664.20
  Q 451.23 663.67 433.47 664.87
  A 1.54 1.54 -5.2 0 0 432.04 666.58
  Q 432.38 669.60 435.74 671.65
  Z
  M 397.46 713.45
  C 409.13 741.50 436.38 748.52 463.91 746.16
  C 483.28 744.50 497.03 739.37 508.50 723.02
  Q 513.29 716.18 514.42 709.75
  A 0.55 0.55 -78.6 0 0 514.01 709.13
  Q 511.47 708.48 507.94 708.68
  Q 492.67 709.53 468.74 710.24
  C 445.18 710.95 421.95 709.17 398.26 708.64
  Q 396.09 708.59 397.15 710.48
  C 397.34 710.80 397.19 712.80 397.46 713.45
  Z"
/>
<path fill="#ffffff" d="
  M 263.21 486.00
  L 263.21 512.00
  C 257.36 507.31 252.03 506.58 244.22 506.48
  Q 243.75 506.48 243.29 506.21
  C 234.88 501.37 227.49 513.59 224.80 519.68
  Q 221.47 527.19 222.24 535.72
  A 0.37 0.37 -87.1 0 1 221.80 536.12
  Q 215.04 534.68 208.63 531.99
  A 0.91 0.88 8.0 0 1 208.09 531.30
  C 207.46 526.84 206.77 522.47 200.77 523.59
  Q 198.07 524.10 196.78 526.53
  C 194.77 530.37 192.05 537.88 193.31 542.14
  C 195.23 548.63 202.87 545.16 204.90 541.15
  Q 206.10 538.77 206.96 541.30
  Q 214.72 564.10 230.54 582.25
  C 219.21 606.57 224.61 633.51 235.71 656.75
  L 201.90 666.57
  A 0.50 0.50 -14.6 0 1 201.28 666.21
  L 164.08 512.69
  A 0.52 0.51 -14.3 0 1 164.45 512.07
  L 263.21 486.00
  Z"
/>
<path fill="#db5f66" d="
  M 263.21 512.00
  Q 263.52 526.68 265.46 541.25
  C 256.11 558.68 234.32 563.21 224.22 543.20
  A 0.97 0.96 -8.5 0 0 223.51 542.68
  Q 216.41 541.58 209.77 538.71
  Q 209.32 538.51 209.65 538.87
  C 209.83 539.07 219.56 548.90 212.98 546.98
  Q 212.52 546.84 212.72 547.27
  Q 220.48 564.05 233.16 578.20
  L 230.54 582.25
  Q 214.72 564.10 206.96 541.30
  Q 206.10 538.77 204.90 541.15
  C 202.87 545.16 195.23 548.63 193.31 542.14
  C 192.05 537.88 194.77 530.37 196.78 526.53
  Q 198.07 524.10 200.77 523.59
  C 206.77 522.47 207.46 526.84 208.09 531.30
  A 0.91 0.88 8.0 0 0 208.63 531.99
  Q 215.04 534.68 221.80 536.12
  A 0.37 0.37 -87.1 0 0 222.24 535.72
  Q 221.47 527.19 224.80 519.68
  C 227.49 513.59 234.88 501.37 243.29 506.21
  Q 243.75 506.48 244.22 506.48
  C 252.03 506.58 257.36 507.31 263.21 512.00
  Z
  M 262.28 530.93
  C 264.08 516.70 254.24 509.96 241.49 508.99
  A 1.15 1.15 -64.0 0 0 240.62 509.29
  Q 228.62 519.91 228.49 536.24
  A 0.52 0.51 0.6 0 0 229.00 536.75
  Q 245.81 537.06 261.74 531.58
  A 0.80 0.78 -6.1 0 0 262.28 530.93
  Z
  M 230.94 544.03
  C 239.45 557.80 254.68 551.13 260.25 539.48
  Q 260.73 538.46 259.66 538.80
  Q 245.84 543.14 231.37 543.25
  Q 230.47 543.25 230.94 544.03
  Z"
/>
<path fill="#ffffff" d="
  M 241.49 508.99
  C 254.24 509.96 264.08 516.70 262.28 530.93
  A 0.80 0.78 -6.1 0 1 261.74 531.58
  Q 245.81 537.06 229.00 536.75
  A 0.52 0.51 0.6 0 1 228.49 536.24
  Q 228.62 519.91 240.62 509.29
  A 1.15 1.15 -64.0 0 1 241.49 508.99
  Z"
/>
<path fill="#402523" d="
  M 330.20 527.07
  C 325.05 523.45 335.69 518.08 338.11 517.03
  C 355.35 509.50 377.06 507.19 395.00 510.22
  C 398.72 510.85 405.44 513.84 407.63 517.39
  C 409.52 520.45 409.16 525.97 405.19 527.04
  Q 403.65 527.45 400.35 526.73
  C 381.77 522.67 363.43 523.46 345.07 525.22
  Q 338.09 525.89 331.84 527.39
  A 2.04 2.03 55.9 0 1 330.20 527.07
  Z"
/>
<path fill="#402523" d="
  M 504.62 526.20
  Q 501.94 524.12 502.48 520.73
  C 503.64 513.35 513.42 510.46 519.68 509.73
  Q 548.40 506.39 574.99 518.06
  Q 580.08 520.30 581.41 522.52
  C 583.97 526.83 580.83 527.47 577.57 526.91
  C 555.55 523.10 530.68 521.97 508.94 527.14
  Q 506.55 527.71 504.62 526.20
  Z"
/>
<path fill="#cfdfeb" d="
  M 812.83 614.11
  L 823.29 581.50
  L 845.93 514.01
  A 0.37 0.37 -63.5 0 1 846.49 513.82
  Q 851.35 517.05 856.95 518.67
  A 0.49 0.49 -73.2 0 1 857.28 519.29
  L 825.87 618.23
  A 0.66 0.64 -80.0 0 1 825.23 618.69
  Q 818.51 618.44 812.83 614.11
  Z"
/>
<path fill="#ffffff" d="
  M 265.46 541.25
  Q 268.08 558.56 274.10 575.03
  C 259.39 565.40 244.96 562.55 233.16 578.20
  Q 220.48 564.05 212.72 547.27
  Q 212.52 546.84 212.98 546.98
  C 219.56 548.90 209.83 539.07 209.65 538.87
  Q 209.32 538.51 209.77 538.71
  Q 216.41 541.58 223.51 542.68
  A 0.97 0.96 -8.5 0 1 224.22 543.20
  C 234.32 563.21 256.11 558.68 265.46 541.25
  Z"
/>
<path fill="#ffffff" d="
  M 260.25 539.48
  C 254.68 551.13 239.45 557.80 230.94 544.03
  Q 230.47 543.25 231.37 543.25
  Q 245.84 543.14 259.66 538.80
  Q 260.73 538.46 260.25 539.48
  Z"
/>
<path fill="#402523" d="
  M 390.09 580.20
  Q 385.86 576.68 381.61 573.13
  C 374.37 567.09 363.21 567.99 355.50 571.96
  Q 352.05 574.69 349.12 580.34
  Q 348.15 582.20 345.53 582.27
  A 1.31 1.24 -23.2 0 1 344.64 581.94
  Q 342.51 579.99 343.49 576.97
  C 347.65 564.18 359.43 555.50 373.01 555.92
  C 383.60 556.26 395.88 564.52 394.60 576.43
  C 394.32 579.02 392.52 580.13 390.09 580.20
  Z"
/>
<path fill="#402523" d="
  M 555.63 571.72
  C 547.44 568.15 535.03 566.87 528.24 574.01
  Q 524.40 578.05 520.96 580.16
  C 515.62 579.87 515.71 574.25 517.06 570.63
  C 520.47 561.55 528.02 556.55 537.77 556.10
  Q 554.55 555.32 564.55 570.24
  C 566.18 572.67 568.98 577.88 567.45 580.81
  Q 566.19 583.22 563.16 581.51
  A 1.78 1.41 85.9 0 1 562.51 580.80
  Q 559.86 575.56 555.63 571.72
  Z"
/>
<path fill="#da9588" d="
  M 274.10 575.03
  L 277.29 581.00
  Q 279.00 615.45 284.46 649.51
  Q 286.73 663.73 290.82 677.84
  C 269.12 688.07 247.08 675.68 235.71 656.75
  C 224.61 633.51 219.21 606.57 230.54 582.25
  L 233.16 578.20
  C 244.96 562.55 259.39 565.40 274.10 575.03
  Z"
/>
<path fill="#da9588" d="
  M 663.00 567.71
  C 680.76 574.92 686.82 596.53 685.76 613.99
  C 684.59 633.43 677.98 657.05 662.96 670.50
  C 650.38 681.06 634.59 684.99 619.25 678.21
  C 627.41 647.11 631.01 614.48 632.73 580.99
  L 635.79 575.25
  C 644.26 569.14 652.37 565.56 663.00 567.71
  Z"
/>
<path fill="#2b7e84" d="
  M 390.09 580.20
  Q 392.38 592.35 388.00 602.98
  C 384.07 612.50 371.99 618.54 363.18 611.81
  Q 358.83 608.48 356.08 601.08
  Q 350.85 586.98 355.50 571.96
  C 363.21 567.99 374.37 567.09 381.61 573.13
  Q 385.86 576.68 390.09 580.20
  Z"
/>
<path fill="#2b7e84" d="
  M 555.63 571.72
  Q 561.80 591.69 551.76 608.22
  C 549.68 611.63 544.94 614.29 540.75 614.44
  Q 528.09 614.89 523.17 602.78
  Q 518.94 592.36 520.96 580.16
  Q 524.40 578.05 528.24 574.01
  C 535.03 566.87 547.44 568.15 555.63 571.72
  Z"
/>
<path fill="#cfdfeb" d="
  M 811.02 619.30
  Q 816.88 623.50 822.94 624.03
  A 0.71 0.64 -3.0 0 1 823.57 624.54
  Q 823.83 625.75 823.21 627.00
  L 801.29 696.25
  L 799.15 701.99
  A 1.28 1.12 -89.6 0 1 798.54 702.68
  C 793.77 704.92 787.20 704.05 784.94 698.71
  A 1.43 1.32 -49.6 0 1 784.90 697.77
  L 786.71 691.75
  L 811.02 619.30
  Z"
/>
<path fill="#da9588" d="
  M 435.74 671.65
  Q 432.38 669.60 432.04 666.58
  A 1.54 1.54 -5.2 0 1 433.47 664.87
  Q 451.23 663.67 469.01 664.20
  Q 473.54 664.33 478.20 665.32
  A 1.24 1.24 -76.8 0 1 479.14 666.84
  C 477.85 671.82 473.74 672.72 468.60 674.12
  Q 452.96 678.38 437.56 672.54
  Q 436.61 672.18 435.74 671.65
  Z"
/>
<path fill="#b36c50" d="
  M 662.96 670.50
  L 663.26 793.84
  Q 647.61 802.08 631.02 808.60
  L 634.54 723.19
  A 0.52 0.51 -87.2 0 0 634.06 722.65
  L 601.25 720.29
  L 601.03 720.26
  A 0.19 0.16 -69.1 0 1 600.93 719.99
  Q 612.29 700.08 619.25 678.21
  C 634.59 684.99 650.38 681.06 662.96 670.50
  Z"
/>
<path fill="#323244" d="
  M 786.71 691.75
  L 784.90 697.77
  A 1.43 1.32 -49.6 0 0 784.94 698.71
  C 787.20 704.05 793.77 704.92 798.54 702.68
  A 1.28 1.12 -89.6 0 0 799.15 701.99
  L 801.29 696.25
  Q 803.88 700.85 802.50 705.50
  Q 799.46 715.80 793.74 729.85
  L 785.25 730.54
  C 783.60 730.76 782.26 731.17 780.62 730.71
  Q 777.67 729.89 775.92 728.58
  L 770.29 726.14
  Q 776.41 707.23 780.64 697.18
  Q 782.20 693.49 786.71 691.75
  Z"
/>
<path fill="#ffffff" d="
  M 463.91 746.16
  C 436.38 748.52 409.13 741.50 397.46 713.45
  C 397.19 712.80 397.34 710.80 397.15 710.48
  Q 396.09 708.59 398.26 708.64
  C 421.95 709.17 445.18 710.95 468.74 710.24
  Q 492.67 709.53 507.94 708.68
  Q 511.47 708.48 514.01 709.13
  A 0.55 0.55 -78.6 0 1 514.42 709.75
  Q 513.29 716.18 508.50 723.02
  C 497.03 739.37 483.28 744.50 463.91 746.16
  Z"
/>
<path fill="#ffffff" d="
  M 256.00 827.46
  Q 241.76 829.55 228.26 824.80
  A 0.75 0.75 21.7 0 1 227.82 823.79
  Q 231.79 814.78 222.78 813.62
  A 1.66 1.30 -50.2 0 0 221.85 813.82
  C 219.96 814.87 217.71 814.78 216.11 815.87
  C 206.08 822.74 209.45 841.29 223.88 829.98
  A 0.51 0.47 50.9 0 1 224.56 830.08
  L 228.32 834.75
  A 1.24 1.21 -16.0 0 0 229.16 835.20
  C 232.81 835.56 229.44 831.41 228.36 830.16
  Q 228.03 829.79 228.48 829.98
  Q 241.18 835.45 255.21 834.50
  L 251.98 858.49
  A 0.35 0.35 -82.5 0 1 251.59 858.79
  L 140.50 846.27
  A 0.48 0.47 -81.9 0 1 140.09 845.72
  L 161.55 712.79
  A 0.52 0.52 8.1 0 1 162.14 712.36
  L 269.18 727.55
  A 0.22 0.22 7.8 0 1 269.37 727.80
  L 256.00 827.46
  Z
  M 202.47 751.98
  C 201.52 755.98 204.96 761.97 209.24 757.48
  C 213.66 752.84 216.59 748.47 223.01 746.25
  A 0.74 0.74 -9.3 0 1 224.00 746.96
  C 223.77 759.32 210.62 779.84 225.03 788.04
  Q 226.70 788.98 226.00 786.75
  C 225.08 783.79 225.11 780.83 224.26 777.83
  C 221.92 769.51 226.95 760.43 229.87 752.83
  Q 232.02 747.23 231.87 745.70
  C 230.93 735.47 222.63 733.65 214.48 737.12
  Q 205.06 741.13 202.47 751.98
  Z
  M 165.85 764.87
  C 167.43 767.52 170.09 768.12 172.34 765.79
  C 175.59 762.45 178.14 757.67 182.61 754.75
  C 191.96 748.63 188.37 765.68 187.31 768.80
  C 184.06 778.41 180.37 787.69 186.42 795.35
  C 187.55 796.77 188.66 795.95 188.50 794.35
  Q 187.81 787.48 188.50 780.64
  C 189.35 772.06 194.57 764.77 195.23 756.09
  C 195.71 749.69 191.90 744.15 185.49 743.19
  C 176.36 741.82 168.25 749.73 165.40 757.91
  Q 164.03 761.82 165.85 764.87
  Z
  M 234.3181 800.9083
  A 5.34 4.78 74.6 0 0 237.5084 794.4906
  A 5.34 4.78 74.6 0 0 231.4819 790.6117
  A 5.34 4.78 74.6 0 0 228.2916 797.0294
  A 5.34 4.78 74.6 0 0 234.3181 800.9083
  Z
  M 193.69 807.03
  A 4.85 4.85 0.0 0 0 188.84 802.18
  A 4.85 4.85 0.0 0 0 183.99 807.03
  A 4.85 4.85 0.0 0 0 188.84 811.88
  A 4.85 4.85 0.0 0 0 193.69 807.03
  Z"
/>
<path fill="#ffffff" d="
  M 601.25 720.29
  L 634.06 722.65
  A 0.52 0.51 -87.2 0 1 634.54 723.19
  L 631.02 808.60
  Q 621.46 813.35 611.25 816.96
  Q 611.40 814.89 610.69 812.93
  A 0.58 0.56 -16.6 0 0 610.02 812.58
  Q 574.10 821.10 537.84 827.94
  L 540.11 782.35
  Q 541.35 780.72 543.25 780.71
  Q 557.38 789.72 574.18 789.33
  A 0.72 0.68 78.4 0 1 574.84 789.79
  C 576.40 793.92 578.93 788.28 579.89 787.30
  A 0.49 0.48 44.2 0 1 580.59 787.30
  C 588.59 795.14 597.68 787.42 592.50 778.17
  C 590.28 774.20 580.52 765.82 577.67 774.64
  Q 576.30 778.91 578.10 782.96
  A 0.97 0.96 77.1 0 1 577.25 784.32
  Q 562.40 784.75 549.24 776.48
  Q 579.46 753.32 600.01 721.24
  Q 600.45 720.55 601.25 720.29
  Z
  M 606.80 787.40
  A 1.67 1.67 -51.5 0 0 609.30 787.11
  C 611.29 784.23 612.68 781.02 613.57 777.35
  Q 617.37 761.72 619.23 745.76
  Q 620.78 732.52 608.99 735.22
  C 606.77 735.73 604.77 738.29 604.63 740.25
  C 604.44 742.87 602.23 783.22 606.80 787.40
  Z
  M 604.4425 803.5781
  A 5.03 3.83 99.7 0 0 609.0652 799.2653
  A 5.03 3.83 99.7 0 0 606.1375 793.6619
  A 5.03 3.83 99.7 0 0 601.5148 797.9747
  A 5.03 3.83 99.7 0 0 604.4425 803.5781
  Z"
/>
<path fill="#ffceb5" d="
  M 770.29 726.14
  L 775.92 728.58
  Q 782.17 745.79 774.73 763.50
  Q 772.42 768.98 768.15 772.07
  C 753.23 782.85 750.13 754.91 746.74 756.33
  A 1.40 1.06 -84.2 0 0 746.10 757.02
  C 743.33 763.65 747.24 771.49 752.43 775.90
  A 0.57 0.57 -53.6 0 1 752.54 776.64
  Q 748.66 782.61 747.25 789.71
  L 736.28 818.59
  Q 719.25 826.00 703.64 836.17
  L 662.52 859.66
  Q 636.84 872.86 610.46 884.00
  L 605.41 885.39
  A 1.19 1.04 -10.7 0 1 603.93 884.52
  Q 601.50 854.28 603.48 820.86
  A 1.29 1.17 -10.9 0 1 604.27 819.81
  L 611.25 816.96
  Q 621.46 813.35 631.02 808.60
  Q 647.61 802.08 663.26 793.84
  Q 684.17 783.02 703.52 770.65
  A 0.67 0.19 -78.4 0 0 703.74 770.23
  Q 703.78 770.09 703.96 770.00
  C 704.60 770.75 714.46 763.62 715.75 762.66
  A 1.45 1.36 80.9 0 0 716.28 761.87
  C 721.15 743.47 732.05 727.94 752.01 725.03
  Q 761.61 723.95 770.29 726.14
  Z"
/>
<path fill="#bf6a5a" d="
  M 775.92 728.58
  Q 777.67 729.89 780.62 730.71
  C 782.26 731.17 783.60 730.76 785.25 730.54
  C 787.22 738.50 785.97 745.23 784.30 753.52
  A 0.49 0.49 -79.0 0 0 784.69 754.10
  Q 798.47 756.40 807.35 767.13
  L 805.96 771.50
  Q 796.27 762.15 783.59 758.82
  A 1.20 1.20 14.6 0 0 782.12 759.68
  C 779.16 771.03 769.88 781.88 756.97 778.60
  A 0.83 0.70 24.6 0 0 756.15 778.83
  Q 755.65 779.46 755.54 780.29
  A 0.53 0.48 7.9 0 0 756.00 780.84
  C 767.78 782.32 786.97 785.60 796.04 794.25
  L 794.50 796.79
  Q 775.13 789.31 754.51 786.14
  A 0.64 0.63 15.6 0 0 753.82 786.52
  C 751.94 790.91 750.72 796.68 753.05 801.01
  C 756.85 808.07 770.19 812.39 777.78 814.06
  Q 775.41 816.23 772.25 816.79
  Q 767.30 817.05 762.64 815.96
  C 750.95 812.10 745.46 801.91 747.25 789.71
  Q 748.66 782.61 752.54 776.64
  A 0.57 0.57 -53.6 0 0 752.43 775.90
  C 747.24 771.49 743.33 763.65 746.10 757.02
  A 1.40 1.06 -84.2 0 1 746.74 756.33
  C 750.13 754.91 753.23 782.85 768.15 772.07
  Q 772.42 768.98 774.73 763.50
  Q 782.17 745.79 775.92 728.58
  Z"
/>
<path fill="#ffceb5" d="
  M 793.74 729.85
  C 809.02 736.76 812.30 752.30 807.35 767.13
  Q 798.47 756.40 784.69 754.10
  A 0.49 0.49 -79.0 0 1 784.30 753.52
  C 785.97 745.23 787.22 738.50 785.25 730.54
  L 793.74 729.85
  Z"
/>
<path fill="#ffffff" d="
  M 318.50 734.46
  Q 319.31 734.88 319.45 735.06
  C 334.00 753.83 350.21 769.81 370.29 782.50
  C 366.27 785.25 328.98 808.26 327.04 806.25
  L 308.94 738.05
  A 0.56 0.52 73.7 0 1 309.27 737.38
  L 318.50 734.46
  Z"
/>
<path fill="#db5f66" d="
  M 606.80 787.40
  C 602.23 783.22 604.44 742.87 604.63 740.25
  C 604.77 738.29 606.77 735.73 608.99 735.22
  Q 620.78 732.52 619.23 745.76
  Q 617.37 761.72 613.57 777.35
  C 612.68 781.02 611.29 784.23 609.30 787.11
  A 1.67 1.67 -51.5 0 1 606.80 787.40
  Z"
/>
<path fill="#db5f66" d="
  M 209.24 757.48
  C 204.96 761.97 201.52 755.98 202.47 751.98
  Q 205.06 741.13 214.48 737.12
  C 222.63 733.65 230.93 735.47 231.87 745.70
  Q 232.02 747.23 229.87 752.83
  C 226.95 760.43 221.92 769.51 224.26 777.83
  C 225.11 780.83 225.08 783.79 226.00 786.75
  Q 226.70 788.98 225.03 788.04
  C 210.62 779.84 223.77 759.32 224.00 746.96
  A 0.74 0.74 -9.3 0 0 223.01 746.25
  C 216.59 748.47 213.66 752.84 209.24 757.48
  Z"
/>
<path fill="#db5f66" d="
  M 165.85 764.87
  Q 164.03 761.82 165.40 757.91
  C 168.25 749.73 176.36 741.82 185.49 743.19
  C 191.90 744.15 195.71 749.69 195.23 756.09
  C 194.57 764.77 189.35 772.06 188.50 780.64
  Q 187.81 787.48 188.50 794.35
  C 188.66 795.95 187.55 796.77 186.42 795.35
  C 180.37 787.69 184.06 778.41 187.31 768.80
  C 188.37 765.68 191.96 748.63 182.61 754.75
  C 178.14 757.67 175.59 762.45 172.34 765.79
  C 170.09 768.12 167.43 767.52 165.85 764.87
  Z"
/>
<path fill="#ffceb5" d="
  M 805.96 771.50
  Q 804.45 775.53 802.61 779.43
  C 800.47 783.98 798.75 789.50 796.04 794.25
  C 786.97 785.60 767.78 782.32 756.00 780.84
  A 0.53 0.48 7.9 0 1 755.54 780.29
  Q 755.65 779.46 756.15 778.83
  A 0.83 0.70 24.6 0 1 756.97 778.60
  C 769.88 781.88 779.16 771.03 782.12 759.68
  A 1.20 1.20 14.6 0 1 783.59 758.82
  Q 796.27 762.15 805.96 771.50
  Z"
/>
<path fill="#db5f66" d="
  M 543.25 780.71
  Q 545.86 777.85 549.24 776.48
  Q 562.40 784.75 577.25 784.32
  A 0.97 0.96 77.1 0 0 578.10 782.96
  Q 576.30 778.91 577.67 774.64
  C 580.52 765.82 590.28 774.20 592.50 778.17
  C 597.68 787.42 588.59 795.14 580.59 787.30
  A 0.49 0.48 44.2 0 0 579.89 787.30
  C 578.93 788.28 576.40 793.92 574.84 789.79
  A 0.72 0.68 78.4 0 0 574.18 789.33
  Q 557.38 789.72 543.25 780.71
  Z"
/>
<path fill="#db5f66" d="
  M 370.29 782.50
  L 377.04 786.25
  Q 354.28 802.11 329.00 813.54
  Q 303.82 825.04 276.87 831.10
  C 269.99 832.65 262.47 833.50 255.21 834.50
  Q 241.18 835.45 228.48 829.98
  Q 228.03 829.79 228.36 830.16
  C 229.44 831.41 232.81 835.56 229.16 835.20
  A 1.24 1.21 -16.0 0 1 228.32 834.75
  L 224.56 830.08
  A 0.51 0.47 50.9 0 0 223.88 829.98
  C 209.45 841.29 206.08 822.74 216.11 815.87
  C 217.71 814.78 219.96 814.87 221.85 813.82
  A 1.66 1.30 -50.2 0 1 222.78 813.62
  Q 231.79 814.78 227.82 823.79
  A 0.75 0.75 21.7 0 0 228.26 824.80
  Q 241.76 829.55 256.00 827.46
  C 280.10 825.24 304.37 817.02 326.34 807.13
  Q 326.81 806.91 327.04 806.25
  C 328.98 808.26 366.27 785.25 370.29 782.50
  Z"
/>
<path fill="#b36c50" d="
  M 540.11 782.35
  L 537.84 827.94
  Q 522.23 830.41 506.56 830.81
  A 0.47 0.28 -70.9 0 0 506.25 831.07
  Q 506.18 831.20 506.04 831.25
  Q 506.06 831.04 505.97 830.89
  A 0.68 0.37 -6.8 0 0 505.42 830.67
  Q 502.35 830.68 499.28 829.54
  A 0.73 0.71 -80.3 0 1 498.81 828.86
  L 498.71 815.25
  L 498.50 801.79
  Q 519.92 793.33 540.11 782.35
  Z"
/>
<path fill="#ffceb5" d="
  M 794.50 796.79
  Q 788.51 807.77 777.78 814.06
  C 770.19 812.39 756.85 808.07 753.05 801.01
  C 750.72 796.68 751.94 790.91 753.82 786.52
  A 0.64 0.63 15.6 0 1 754.51 786.14
  Q 775.13 789.31 794.50 796.79
  Z"
/>
<path fill="#ffffff" d="
  M 377.04 786.25
  Q 393.84 794.69 411.25 801.79
  L 411.29 815.00
  L 411.19 826.18
  A 0.58 0.55 -4.2 0 1 410.69 826.73
  L 401.75 828.04
  C 379.79 831.51 357.81 842.77 340.54 856.50
  L 329.00 813.54
  Q 354.28 802.11 377.04 786.25
  Z"
/>
<path fill="#323244" d="
  M 747.25 789.71
  C 745.46 801.91 750.95 812.10 762.64 815.96
  L 761.46 819.25
  C 760.01 823.41 758.54 829.07 755.83 832.43
  Q 753.94 834.78 751.75 836.17
  C 739.66 839.76 732.08 830.26 736.28 818.59
  L 747.25 789.71
  Z"
/>
<ellipse fill="#db5f66" cx="0.00" cy="0.00" transform="translate(232.90,795.76) rotate(74.6)" rx="5.34" ry="4.78"/>
<ellipse fill="#db5f66" cx="0.00" cy="0.00" transform="translate(605.29,798.62) rotate(99.7)" rx="5.03" ry="3.83"/>
<path fill="#da9588" d="
  M 411.25 801.79
  Q 426.93 807.05 434.74 808.05
  Q 443.52 809.18 463.76 808.77
  Q 480.90 808.42 498.50 801.79
  L 498.71 815.25
  Q 479.61 828.09 455.19 831.29
  Q 454.07 831.44 452.97 831.23
  C 437.66 828.32 424.04 824.27 411.29 815.00
  L 411.25 801.79
  Z"
/>
<circle fill="#db5f66" cx="188.84" cy="807.03" r="4.85"/>
<path fill="#323244" d="
  M 611.25 816.96
  L 604.27 819.81
  A 1.29 1.17 -10.9 0 0 603.48 820.86
  Q 601.50 854.28 603.93 884.52
  A 1.19 1.04 -10.7 0 0 605.41 885.39
  L 610.46 884.00
  L 610.29 905.25
  L 610.46 935.97
  A 0.70 0.69 -9.3 0 1 609.98 936.63
  C 601.32 939.54 592.30 940.93 583.50 942.96
  Q 572.06 945.75 561.81 946.85
  Q 559.10 947.14 559.19 949.87
  L 567.05 1176.00
  L 341.94 1176.00
  L 343.94 1104.67
  Q 343.95 1104.03 344.56 1103.58
  C 349.95 1099.67 360.14 1089.20 359.38 1081.99
  Q 357.23 1061.50 346.02 1044.29
  C 345.68 1043.77 345.74 1043.33 345.71 1042.75
  Q 346.04 1034.06 347.34 990.31
  Q 347.60 981.60 347.42 976.38
  A 1.09 1.07 18.0 0 0 347.00 975.57
  L 332.71 964.75
  L 334.11 962.18
  A 1.11 0.80 51.2 0 0 334.06 961.27
  C 325.74 944.37 307.10 928.68 287.30 930.02
  A 1.25 1.12 -70.0 0 0 286.50 930.45
  L 285.00 932.29
  Q 283.19 932.16 282.06 930.89
  A 0.78 0.71 -52.4 0 1 281.99 930.05
  Q 288.65 917.61 296.53 905.34
  Q 299.13 902.00 304.94 893.94
  Q 319.97 873.07 340.54 856.50
  C 357.81 842.77 379.79 831.51 401.75 828.04
  C 414.77 848.39 432.76 867.79 454.35 879.16
  A 1.40 1.38 44.6 0 0 455.66 879.16
  C 476.08 868.49 493.46 850.25 506.04 831.25
  Q 506.18 831.20 506.25 831.07
  A 0.47 0.28 -70.9 0 1 506.56 830.81
  Q 522.23 830.41 537.84 827.94
  Q 574.10 821.10 610.02 812.58
  A 0.58 0.56 -16.6 0 1 610.69 812.93
  Q 611.40 814.89 611.25 816.96
  Z"
/>
<path fill="#ffceb5" d="
  M 411.29 815.00
  C 424.04 824.27 437.66 828.32 452.97 831.23
  Q 454.07 831.44 455.19 831.29
  Q 479.61 828.09 498.71 815.25
  L 498.81 828.86
  A 0.73 0.71 -80.3 0 0 499.28 829.54
  Q 502.35 830.68 505.42 830.67
  A 0.68 0.37 -6.8 0 1 505.97 830.89
  Q 506.06 831.04 506.04 831.25
  C 493.46 850.25 476.08 868.49 455.66 879.16
  A 1.40 1.38 44.6 0 1 454.35 879.16
  C 432.76 867.79 414.77 848.39 401.75 828.04
  L 410.69 826.73
  A 0.58 0.55 -4.2 0 0 411.19 826.18
  L 411.29 815.00
  Z"
/>
<path fill="#ffceb5" d="
  M 772.25 816.79
  Q 767.24 819.67 761.46 819.25
  L 762.64 815.96
  Q 767.30 817.05 772.25 816.79
  Z"
/>
<path fill="#f3f2f1" d="
  M 736.28 818.59
  C 732.08 830.26 739.66 839.76 751.75 836.17
  L 752.06 897.49
  A 0.50 0.49 90.0 0 0 752.55 897.99
  L 1192.21 898.02
  L 1192.27 926.09
  L 1192.25 969.21
  L 1016.74 969.24
  A 0.50 0.50 0.0 0 0 1016.24 969.74
  L 1016.21 1005.00
  L 776.81 1005.01
  A 1.08 1.06 19.4 0 0 775.98 1005.40
  L 750.72 1035.93
  L 750.94 1176.00
  L 567.05 1176.00
  L 559.19 949.87
  Q 559.10 947.14 561.81 946.85
  Q 572.06 945.75 583.50 942.96
  C 587.98 943.05 592.83 942.49 596.84 942.49
  Q 650.01 942.51 703.20 942.49
  A 0.53 0.53 -88.3 0 0 703.73 941.99
  Q 703.90 939.69 703.91 937.50
  Q 704.00 886.94 703.64 836.17
  Q 719.25 826.00 736.28 818.59
  Z"
/>
<path fill="#89523d" d="
  M 703.64 836.17
  Q 704.00 886.94 703.91 937.50
  Q 703.90 939.69 703.73 941.99
  A 0.53 0.53 -88.3 0 1 703.20 942.49
  Q 650.01 942.51 596.84 942.49
  C 592.83 942.49 587.98 943.05 583.50 942.96
  C 592.30 940.93 601.32 939.54 609.98 936.63
  A 0.70 0.69 -9.3 0 0 610.46 935.97
  L 610.29 905.25
  L 662.26 905.25
  A 0.75 0.74 -89.2 0 0 663.00 904.52
  Q 663.36 882.18 662.52 859.66
  L 703.64 836.17
  Z"
/>
<path fill="#b36c50" d="
  M 662.52 859.66
  Q 663.36 882.18 663.00 904.52
  A 0.75 0.74 -89.2 0 1 662.26 905.25
  L 610.29 905.25
  L 610.46 884.00
  Q 636.84 872.86 662.52 859.66
  Z"
/>
<circle fill="#323244" cx="1637.07" cy="873.75" r="6.40"/>
<circle fill="#db5f66" cx="1662.61" cy="873.76" r="6.40"/>
<path fill="#6e7e97" d="
  M 1265.21 898.03
  L 1265.21 925.75
  L 1192.27 926.09
  L 1192.21 898.02
  L 1265.21 898.03
  Z"
/>
<path fill="#91a1ba" d="
  M 1265.21 925.75
  L 1265.00 969.21
  L 1192.25 969.21
  L 1192.27 926.09
  L 1265.21 925.75
  Z"
/>
<path fill="#ffceb5" d="
  M 332.71 964.75
  Q 319.99 982.66 309.42 1001.95
  A 1.11 1.10 -53.9 0 0 309.62 1003.27
  Q 319.60 1012.94 329.23 1023.20
  C 334.81 1029.15 339.66 1036.10 344.76 1042.71
  A 0.64 0.38 -18.7 0 0 345.32 1042.83
  L 345.71 1042.75
  C 345.74 1043.33 345.68 1043.77 346.02 1044.29
  Q 357.23 1061.50 359.38 1081.99
  C 360.14 1089.20 349.95 1099.67 344.56 1103.58
  Q 343.95 1104.03 343.94 1104.67
  C 336.68 1109.15 324.03 1117.84 315.29 1112.21
  C 310.90 1109.39 301.35 1096.60 309.64 1093.12
  A 0.70 0.70 61.6 0 0 309.95 1092.08
  C 306.40 1086.93 302.50 1078.51 303.74 1072.23
  Q 304.19 1069.93 302.37 1068.47
  Q 283.87 1053.70 265.24 1039.78
  Q 254.23 1031.55 245.24 1018.14
  C 236.62 1005.27 250.72 982.41 257.65 972.37
  Q 267.85 957.59 277.81 942.54
  L 285.00 932.29
  L 286.50 930.45
  A 1.25 1.12 -70.0 0 1 287.30 930.02
  C 307.10 928.68 325.74 944.37 334.06 961.27
  A 1.11 0.80 51.2 0 1 334.11 962.18
  L 332.71 964.75
  Z
  M 310.67 1093.43
  C 310.82 1098.18 314.75 1104.77 320.30 1104.45
  Q 320.79 1104.42 320.45 1104.03
  L 311.30 1093.20
  Q 310.64 1092.40 310.67 1093.43
  Z"
/>
<path fill="#f3f2f1" d="
  M 332.71 964.75
  L 347.00 975.57
  A 1.09 1.07 18.0 0 1 347.42 976.38
  Q 347.60 981.60 347.34 990.31
  Q 346.04 1034.06 345.71 1042.75
  L 345.32 1042.83
  A 0.64 0.38 -18.7 0 1 344.76 1042.71
  C 339.66 1036.10 334.81 1029.15 329.23 1023.20
  Q 319.60 1012.94 309.62 1003.27
  A 1.11 1.10 -53.9 0 1 309.42 1001.95
  Q 319.99 982.66 332.71 964.75
  Z"
/>
<path fill="#323244" d="
  M 1192.25 969.21
  L 1265.00 969.21
  L 1441.26 969.24
  A 0.65 0.65 -89.1 0 1 1441.91 969.91
  Q 1441.20 987.40 1441.75 1005.04
  L 1441.48 1020.49
  A 0.53 0.52 0.6 0 1 1440.95 1021.00
  L 1017.09 1021.00
  A 0.88 0.87 90.0 0 1 1016.22 1020.12
  L 1016.21 1005.00
  L 1016.24 969.74
  A 0.50 0.50 0.0 0 1 1016.74 969.24
  L 1192.25 969.21
  Z"
/>
<path fill="#b36c50" d="
  M 1016.21 1005.00
  L 1016.22 1020.12
  A 0.88 0.87 -90.0 0 0 1017.09 1021.00
  L 1440.95 1021.00
  A 0.53 0.52 0.6 0 0 1441.48 1020.49
  L 1441.75 1005.04
  L 1675.19 1005.06
  A 1.00 1.00 71.7 0 1 1675.99 1005.46
  L 1698.71 1035.50
  Q 1698.44 1035.47 1698.20 1035.53
  Q 1697.37 1035.75 1697.26 1035.75
  Q 1224.41 1035.75 751.56 1035.75
  Q 751.32 1036.20 750.72 1035.93
  L 775.98 1005.40
  A 1.08 1.06 19.4 0 1 776.81 1005.01
  L 1016.21 1005.00
  Z"
/>
<path fill="#89523d" d="
  M 1698.71 1035.50
  L 1698.47 1176.00
  L 750.94 1176.00
  L 750.72 1035.93
  Q 751.32 1036.20 751.56 1035.75
  Q 1224.41 1035.75 1697.26 1035.75
  Q 1697.37 1035.75 1698.20 1035.53
  Q 1698.44 1035.47 1698.71 1035.50
  Z"
/>
<path fill="#bf6a5a" d="
  M 320.30 1104.45
  C 314.75 1104.77 310.82 1098.18 310.67 1093.43
  Q 310.64 1092.40 311.30 1093.20
  L 320.45 1104.03
  Q 320.79 1104.42 320.30 1104.45
  Z"
/>
</svg>
